<svg width="32" height="32" viewBox="0 0 32 32" fill="none" xmlns="http://www.w3.org/2000/svg">
<g clip-path="url(#clip0)">
<path d="M16 32C24.8366 32 32 24.8366 32 16C32 7.16344 24.8366 0 16 0C7.16344 0 0 7.16344 0 16C0 24.8366 7.16344 32 16 32Z" fill="#3C5A9A"/>
<path d="M20.9851 6H17.5888C15.5734 6 13.3316 6.79778 13.3316 9.54732C13.3415 10.5054 13.3316 11.4229 13.3316 12.4555H11V15.9474H13.4038V26H17.8208V15.8811H20.7362L21 12.4457H17.7447C17.7447 12.4457 17.752 10.9175 17.7447 10.4737C17.7447 9.38715 18.946 9.44938 19.0183 9.44938C19.5899 9.44938 20.7014 9.45095 20.9868 9.44938V6H20.9851Z" fill="white"/>
</g>
<defs>
<clipPath id="clip0">
<rect width="32" height="32" fill="white"/>
</clipPath>
</defs>
</svg>
