<svg width="16" height="12" viewBox="0 0 16 12" fill="none" xmlns="http://www.w3.org/2000/svg">
<mask id="mask0" mask-type="alpha" maskUnits="userSpaceOnUse" x="0" y="0" width="16" height="12">
<rect width="16" height="12" fill="white"/>
</mask>
<g mask="url(#mask0)">
<path fill-rule="evenodd" clip-rule="evenodd" d="M0 0V12H16V0H0Z" fill="#2E42A5"/>
<mask id="mask1" mask-type="alpha" maskUnits="userSpaceOnUse" x="0" y="0" width="16" height="12">
<path fill-rule="evenodd" clip-rule="evenodd" d="M0 0V12H16V0H0Z" fill="white"/>
</mask>
<g mask="url(#mask1)">
<mask id="mask2" mask-type="alpha" maskUnits="userSpaceOnUse" x="0" y="0" width="16" height="12">
<rect width="16" height="12" fill="white"/>
</mask>
<g mask="url(#mask2)">
<path d="M-1.78223 11.1426L1.73862 12.6316L16.0792 1.61878L17.9364 -0.593959L14.1714 -1.09164L8.32217 3.6541L3.61417 6.85161L-1.78223 11.1426Z" fill="white"/>
<path d="M-1.2998 12.1859L0.493903 13.05L17.2699 -0.799421H14.7513L-1.2998 12.1859Z" fill="#F50100"/>
<path d="M17.7812 11.1426L14.2604 12.6316L-0.0802135 1.61878L-1.93738 -0.593959L1.82766 -1.09164L7.67685 3.6541L12.3849 6.85161L17.7812 11.1426Z" fill="white"/>
<path d="M17.6611 11.8913L15.8674 12.7554L8.72402 6.82569L6.60616 6.16318L-2.11606 -0.586414H0.402514L9.11983 6.00298L11.4353 6.7974L17.6611 11.8913Z" fill="#F50100"/>
<mask id="path-9-inside-1" fill="white">
<path fill-rule="evenodd" clip-rule="evenodd" d="M9.88879 -1H6.11102V4H-0.986328V8H6.11102V13H9.88879V8H17.0137V4H9.88879V-1Z"/>
</mask>
<path fill-rule="evenodd" clip-rule="evenodd" d="M9.88879 -1H6.11102V4H-0.986328V8H6.11102V13H9.88879V8H17.0137V4H9.88879V-1Z" fill="#F50100"/>
<path d="M6.11102 -1V-2H5.11102V-1H6.11102ZM9.88879 -1H10.8888V-2H9.88879V-1ZM6.11102 4V5H7.11102V4H6.11102ZM-0.986328 4V3H-1.98633V4H-0.986328ZM-0.986328 8H-1.98633V9H-0.986328V8ZM6.11102 8H7.11102V7H6.11102V8ZM6.11102 13H5.11102V14H6.11102V13ZM9.88879 13V14H10.8888V13H9.88879ZM9.88879 8V7H8.88879V8H9.88879ZM17.0137 8V9H18.0137V8H17.0137ZM17.0137 4H18.0137V3H17.0137V4ZM9.88879 4H8.88879V5H9.88879V4ZM6.11102 0H9.88879V-2H6.11102V0ZM7.11102 4V-1H5.11102V4H7.11102ZM-0.986328 5H6.11102V3H-0.986328V5ZM0.0136719 8V4H-1.98633V8H0.0136719ZM6.11102 7H-0.986328V9H6.11102V7ZM7.11102 13V8H5.11102V13H7.11102ZM9.88879 12H6.11102V14H9.88879V12ZM8.88879 8V13H10.8888V8H8.88879ZM17.0137 7H9.88879V9H17.0137V7ZM16.0137 4V8H18.0137V4H16.0137ZM9.88879 5H17.0137V3H9.88879V5ZM8.88879 -1V4H10.8888V-1H8.88879Z" fill="white" mask="url(#path-9-inside-1)"/>
</g>
</g>
</g>
</svg>
