<svg width="93" height="41" viewBox="0 0 93 41" fill="none" xmlns="http://www.w3.org/2000/svg">
<path d="M0 39.7405V19.7139H4.78157V39.7405H0ZM17.6736 39.7405V32.0459C17.6736 31.656 17.6333 31.2661 17.5728 30.9173C17.5122 30.5685 17.4114 30.2402 17.25 29.9734C17.0886 29.7067 16.8868 29.481 16.6245 29.3168C16.3622 29.1527 16.0193 29.0706 15.6158 29.0706C15.2123 29.0706 14.8491 29.1527 14.5465 29.3168C14.2438 29.481 13.9816 29.7067 13.7798 29.9734C13.578 30.2402 13.4166 30.589 13.3158 30.9584C13.2149 31.3277 13.1544 31.7176 13.1544 32.1074V39.7405H8.59472V25.6644H13.0131V27.6137H13.0737C13.2351 27.3059 13.457 27.0187 13.7193 26.7314C13.9816 26.4441 14.3044 26.1979 14.6675 25.9722C15.0307 25.767 15.414 25.6029 15.8579 25.4592C16.2815 25.3361 16.7456 25.254 17.2298 25.254C18.1579 25.254 18.9447 25.4182 19.5903 25.767C20.2359 26.1158 20.7605 26.5467 21.164 27.0802C21.5675 27.6137 21.85 28.2293 22.0315 28.927C22.2131 29.6246 22.2938 30.3223 22.2938 31.0199V39.72H17.6736V39.7405ZM44.3455 29.6862C44.3455 31.4303 44.0227 32.9487 43.3771 34.2209C42.7315 35.4931 41.9043 36.5396 40.8552 37.3603C39.8061 38.1811 38.6359 38.7761 37.3043 39.166C35.9929 39.5559 34.6613 39.7405 33.3096 39.7405H25.9657V19.7139H33.0877C34.4798 19.7139 35.8517 19.878 37.2034 20.2063C38.5552 20.5346 39.7657 21.0886 40.8148 21.8479C41.864 22.6071 42.7315 23.633 43.3771 24.9257C44.0227 26.1979 44.3455 27.7984 44.3455 29.6862ZM39.4026 29.6862C39.4026 28.5576 39.221 27.6137 38.8578 26.875C38.4947 26.1364 38.0105 25.5413 37.4052 25.0899C36.7999 24.6385 36.114 24.3307 35.3473 24.146C34.5806 23.9613 33.7938 23.8587 32.9666 23.8587H30.6061V35.5546H32.8657C33.7131 35.5546 34.5403 35.452 35.3271 35.2674C36.114 35.0622 36.7999 34.7544 37.4052 34.2825C38.0105 33.831 38.4947 33.236 38.8578 32.4768C39.221 31.7176 39.4026 30.7942 39.4026 29.6862ZM56.7736 31.0815C56.7736 30.3428 56.5516 29.7067 56.0876 29.1937C55.6236 28.6807 54.9578 28.3935 54.0499 28.3935C53.606 28.3935 53.2025 28.455 52.8192 28.5987C52.456 28.7423 52.1332 28.927 51.8508 29.1732C51.5683 29.4194 51.3464 29.7067 51.185 30.035C51.0236 30.3633 50.9227 30.7121 50.9025 31.061H56.7736V31.0815ZM60.9701 32.8666V33.4412C60.9701 33.6258 60.9701 33.8105 60.9499 33.9747H50.9227C50.9631 34.3645 51.0841 34.7339 51.2657 35.0417C51.4674 35.37 51.7095 35.6367 52.0122 35.8829C52.3148 36.1087 52.6578 36.2933 53.0411 36.437C53.4245 36.5601 53.8078 36.6422 54.2315 36.6422C54.9578 36.6422 55.563 36.4985 56.0674 36.2318C56.5718 35.965 56.9753 35.5957 57.2981 35.1648L60.4657 37.1962C59.8201 38.1606 58.9525 38.8993 57.9034 39.4122C56.8543 39.9252 55.6034 40.192 54.1911 40.192C53.1622 40.192 52.1736 40.0278 51.2455 39.6995C50.3174 39.3712 49.5104 38.8787 48.8043 38.2632C48.0981 37.6476 47.5534 36.8473 47.1701 35.924C46.7867 35.0006 46.5648 33.9541 46.5648 32.764C46.5648 31.615 46.7666 30.5685 47.1499 29.6451C47.5332 28.7218 48.0578 27.9215 48.7438 27.2649C49.4095 26.6083 50.1964 26.1158 51.1043 25.7465C52.0122 25.3771 53.0008 25.213 54.0499 25.213C55.0788 25.213 56.0069 25.3771 56.8543 25.726C57.7016 26.0748 58.4481 26.5878 59.0534 27.2444C59.6587 27.901 60.1429 28.7012 60.4858 29.6451C60.7885 30.589 60.9701 31.656 60.9701 32.8666ZM72.3692 39.7405H67.4464L61.999 25.6644H67.0227L69.9481 34.7954H70.0288L72.9542 25.6644H77.8165L72.3692 39.7405Z" fill="white"/>
<path d="M73.806 4.92009C70.6787 4.92009 65.6749 2.45446 61.922 0.605232C58.7946 -0.908694 55.0418 0.605232 54.4163 3.07087C53.7908 5.5365 53.1653 14.7826 65.6749 19.0975C78.1844 23.4123 86.941 19.0975 89.4429 17.2483C91.9448 15.399 93.1958 10.4678 90.6939 6.15291C88.192 1.83805 83.8137 1.83805 81.3118 3.07087C78.8099 4.30368 76.9334 4.92009 73.806 4.92009Z" fill="url(#paint0_linear)"/>
<path d="M63.7986 14.64V7.38574H65.568V13.1095H68.3907V14.64H63.7986ZM76.7112 14.64L76.1424 13.2143H73.3198L72.7932 14.64H70.8763L73.9307 7.38574H75.6369L78.6491 14.64H76.7112ZM74.7732 9.33559L73.8464 11.8306H75.679L74.7732 9.33559ZM87.5173 12.5224C87.5173 12.9208 87.4331 13.2563 87.2856 13.5288C87.1382 13.8014 86.9275 14.011 86.6537 14.1788C86.4009 14.3465 86.106 14.4513 85.769 14.5352C85.4319 14.5981 85.0949 14.64 84.7368 14.64H81.8299V7.38574H84.7368C85.0106 7.38574 85.3055 7.40671 85.6004 7.46961C85.8953 7.53251 86.1692 7.61637 86.4009 7.76313C86.6326 7.90989 86.8433 8.09859 86.9907 8.32922C87.1382 8.55984 87.2224 8.87434 87.2224 9.23076C87.2224 9.62912 87.1171 9.96457 86.8854 10.2371C86.6537 10.5097 86.3798 10.6984 86.0217 10.8032V10.8452C86.2324 10.8871 86.422 10.95 86.6115 11.0338C86.8011 11.1177 86.9486 11.2435 87.075 11.3903C87.2014 11.537 87.3067 11.7048 87.3909 11.8935C87.4752 12.0822 87.5173 12.2918 87.5173 12.5224ZM85.5373 9.48235C85.5373 9.23076 85.453 9.06303 85.2634 8.93723C85.0738 8.8324 84.8 8.76951 84.4208 8.76951H83.5572V10.2581H84.5051C84.8421 10.2581 85.0949 10.1952 85.2634 10.0484C85.4319 9.94361 85.5373 9.75491 85.5373 9.48235ZM85.769 12.3757C85.769 12.0822 85.6636 11.8725 85.4319 11.7467C85.2002 11.6209 84.9053 11.579 84.5261 11.579H83.5572V13.2353H84.5472C84.6947 13.2353 84.8211 13.2143 84.9685 13.1934C85.116 13.1724 85.2423 13.1305 85.3687 13.0676C85.4951 13.0047 85.5794 12.9208 85.6636 12.816C85.7268 12.6902 85.769 12.5434 85.769 12.3757Z" fill="#22252D"/>
<defs>
<linearGradient id="paint0_linear" x1="54.4913" y1="20.4162" x2="101.807" y2="4.43657" gradientUnits="userSpaceOnUse">
<stop stop-color="#51E5EC"/>
<stop offset="1" stop-color="#0DC195"/>
</linearGradient>
</defs>
</svg>
