<svg width="76" height="37" viewBox="0 0 76 37" fill="none" xmlns="http://www.w3.org/2000/svg">
<path d="M34.5468 8.59911C29.265 9.1154 26.8599 8.88357 20.0217 6.87787C15.6203 5.5869 12.5393 5.09505 7.2575 4.7262C1.05658 4.29317 -0.665383 11.181 0.214917 13.3327C1.09522 15.4843 1.97579 16.3449 9.89848 19.7875C17.8212 23.2301 20.7249 28.1692 24.8636 31.4062C29.2651 34.8488 38.5082 37.0004 43.79 37.0004C49.0718 37.0004 68.4384 37.0004 71.0793 21.0785C73.7202 5.15653 58.3149 3.86556 52.1529 3.43523C45.9908 3.00491 40.2687 8.0398 34.5468 8.59911Z" fill="url(#paint0_linear)"/>
<path d="M11.2186 27.7436V13.7627H14.5834V27.7436H11.2186ZM23.6556 27.7436V22.3718C23.6556 22.0997 23.6272 21.8275 23.5847 21.584C23.5421 21.3405 23.4711 21.1113 23.3575 20.925C23.2439 20.7388 23.1019 20.5812 22.9174 20.4666C22.7328 20.352 22.4914 20.2947 22.2075 20.2947C21.9235 20.2947 21.668 20.352 21.455 20.4666C21.2421 20.5812 21.0575 20.7388 20.9155 20.925C20.7735 21.1113 20.66 21.3548 20.589 21.6126C20.518 21.8705 20.4754 22.1426 20.4754 22.4148V27.7436H17.2668V17.9169H20.376V19.2777H20.4186C20.5322 19.0628 20.6884 18.8623 20.8729 18.6617C21.0575 18.4612 21.2847 18.2893 21.5402 18.1317C21.7958 17.9885 22.0655 17.8739 22.3779 17.7736C22.676 17.6877 23.0026 17.6304 23.3433 17.6304C23.9964 17.6304 24.5501 17.745 25.0044 17.9885C25.4587 18.232 25.8279 18.5328 26.1118 18.9053C26.3958 19.2777 26.5945 19.7074 26.7223 20.1945C26.8501 20.6815 26.9069 21.1686 26.9069 21.6556V27.7293H23.6556V27.7436ZM42.4247 20.7245C42.4247 21.9421 42.1976 23.0021 41.7433 23.8902C41.2889 24.7784 40.7068 25.5089 39.9686 26.0819C39.2303 26.6549 38.4068 27.0703 37.4698 27.3425C36.547 27.6147 35.6099 27.7436 34.6587 27.7436H29.4908V13.7627H34.5025C35.4822 13.7627 36.4476 13.8773 37.3988 14.1065C38.3501 14.3357 39.2019 14.7224 39.9402 15.2525C40.6784 15.7825 41.2889 16.4987 41.7433 17.4012C42.1976 18.2893 42.4247 19.4066 42.4247 20.7245ZM38.9464 20.7245C38.9464 19.9366 38.8186 19.2777 38.563 18.762C38.3075 18.2463 37.9667 17.8309 37.5408 17.5158C37.1149 17.2006 36.6322 16.9857 36.0927 16.8568C35.5531 16.7279 34.9994 16.6563 34.4173 16.6563H32.7562V24.8213H34.3464C34.9427 24.8213 35.5248 24.7497 36.0785 24.6208C36.6322 24.4776 37.1149 24.2627 37.5408 23.9332C37.9667 23.6181 38.3075 23.2027 38.563 22.6726C38.8186 22.1426 38.9464 21.498 38.9464 20.7245ZM51.1704 21.6986C51.1704 21.1829 51.0142 20.7388 50.6877 20.3807C50.3611 20.0226 49.8926 19.822 49.2537 19.822C48.9414 19.822 48.6574 19.865 48.3877 19.9653C48.1321 20.0656 47.905 20.1945 47.7062 20.3664C47.5074 20.5383 47.3513 20.7388 47.2377 20.968C47.1241 21.1972 47.0531 21.4407 47.0389 21.6842H51.1704V21.6986ZM54.1235 22.9448V23.3459C54.1235 23.4748 54.1235 23.6038 54.1093 23.7183H47.0531C47.0815 23.9905 47.1667 24.2484 47.2945 24.4632C47.4365 24.6924 47.6068 24.8786 47.8198 25.0505C48.0327 25.2081 48.2741 25.337 48.5439 25.4373C48.8136 25.5233 49.0834 25.5806 49.3815 25.5806C49.8926 25.5806 50.3186 25.4803 50.6735 25.2941C51.0284 25.1078 51.3124 24.85 51.5395 24.5492L53.7685 25.9673C53.3142 26.6406 52.7037 27.1563 51.9655 27.5144C51.2272 27.8725 50.3469 28.0587 49.3531 28.0587C48.629 28.0587 47.9334 27.9441 47.2803 27.7149C46.6272 27.4857 46.0593 27.1419 45.5624 26.7122C45.0655 26.2825 44.6821 25.7238 44.4124 25.0792C44.1426 24.4346 43.9865 23.704 43.9865 22.8732C43.9865 22.071 44.1284 21.3405 44.3982 20.6958C44.6679 20.0512 45.0371 19.4926 45.5198 19.0342C45.9883 18.5758 46.542 18.232 47.1809 17.9742C47.8198 17.7163 48.5155 17.6017 49.2537 17.6017C49.9778 17.6017 50.6309 17.7163 51.2272 17.9598C51.8235 18.2033 52.3488 18.5615 52.7747 19.0199C53.2006 19.4782 53.5414 20.0369 53.7827 20.6958C53.9957 21.3548 54.1235 22.0997 54.1235 22.9448ZM62.1451 27.7436H58.6809L54.8475 17.9169H58.3827L60.4414 24.2913H60.4982L62.5568 17.9169H65.9784L62.1451 27.7436Z" fill="#22252D"/>
<path d="M63.1563 3.43478C60.9556 3.43478 57.4344 1.71349 54.7935 0.422521C52.5927 -0.634371 49.9518 0.422521 49.5117 2.14381C49.0715 3.8651 48.6314 10.3199 57.4344 13.3322C66.2374 16.3445 72.3995 13.3322 74.1601 12.0412C75.9207 10.7503 76.801 7.30769 75.0404 4.29543C73.2798 1.28317 70.1987 1.28317 68.4381 2.14381C66.6775 3.00446 65.3571 3.43478 63.1563 3.43478Z" fill="#22252D"/>
<path d="M56.1139 10.2206V5.15625H57.359V9.15207H59.3454V10.2206H56.1139ZM65.2005 10.2206L64.8003 9.22526H62.814L62.4434 10.2206H61.0945L63.2439 5.15625H64.4446L66.5643 10.2206H65.2005ZM63.8368 6.51746L63.1846 8.25923H64.4742L63.8368 6.51746ZM72.8049 8.74225C72.8049 9.02034 72.7456 9.25453 72.6418 9.44481C72.538 9.63509 72.3898 9.78145 72.1971 9.89855C72.0192 10.0156 71.8117 10.0888 71.5745 10.1474C71.3374 10.1913 71.1002 10.2206 70.8482 10.2206H68.8026V5.15625H70.8482C71.0409 5.15625 71.2484 5.17089 71.4559 5.2148C71.6635 5.25871 71.8562 5.31725 72.0192 5.41971C72.1823 5.52217 72.3305 5.6539 72.4343 5.8149C72.538 5.97591 72.5973 6.19546 72.5973 6.44428C72.5973 6.72238 72.5232 6.95657 72.3602 7.14684C72.1971 7.33712 72.0044 7.46885 71.7524 7.54203V7.57131C71.9006 7.60058 72.034 7.64449 72.1675 7.70304C72.3009 7.76159 72.4046 7.84941 72.4936 7.95186C72.5825 8.05432 72.6566 8.17141 72.7159 8.30314C72.7752 8.43487 72.8049 8.58124 72.8049 8.74225ZM71.4115 6.61992C71.4115 6.44428 71.3522 6.32719 71.2188 6.23937C71.0854 6.16618 70.8927 6.12227 70.6258 6.12227H70.0181V7.16148H70.6851C70.9223 7.16148 71.1002 7.11757 71.2188 7.01511C71.3374 6.94193 71.4115 6.8102 71.4115 6.61992ZM71.5745 8.63979C71.5745 8.43487 71.5004 8.28851 71.3374 8.20069C71.1743 8.11287 70.9668 8.08359 70.7 8.08359H70.0181V9.23989H70.7148C70.8185 9.23989 70.9075 9.22526 71.0112 9.21062C71.115 9.19598 71.2039 9.16671 71.2929 9.1228C71.3818 9.07889 71.4411 9.02034 71.5004 8.94716C71.5449 8.85934 71.5745 8.75688 71.5745 8.63979Z" fill="white"/>
<defs>
<linearGradient id="paint0_linear" x1="0.655062" y1="36.1398" x2="86.4067" y2="2.12982" gradientUnits="userSpaceOnUse">
<stop stop-color="#51E5EC"/>
<stop offset="1" stop-color="#0DC195"/>
</linearGradient>
</defs>
</svg>
