<svg width="32" height="32" viewBox="0 0 32 32" fill="none" xmlns="http://www.w3.org/2000/svg">
<path d="M8.11436 31.8868C6.21131 31.8003 5.17752 31.4836 4.48991 31.2154C3.5788 30.8606 2.92924 30.4384 2.24543 29.7555C1.56163 29.0727 1.13841 28.4231 0.785568 27.512C0.517371 26.8244 0.200672 25.7906 0.114126 23.8875C0.019021 21.8304 0 21.2132 0 16.0014C0 10.7897 0.0209231 10.1734 0.113175 8.11436C0.199721 6.21131 0.518323 5.17942 0.784617 4.48991C1.13936 3.5788 1.56258 2.92924 2.24448 2.24448C2.92733 1.56163 3.5769 1.13746 4.48896 0.784617C5.17657 0.51642 6.21036 0.199721 8.11341 0.113175C10.1715 0.019021 10.7897 0 15.9995 0C21.2113 0 21.8276 0.0209231 23.8866 0.113175C25.7896 0.199721 26.8215 0.518323 27.511 0.784617C28.4221 1.13746 29.0717 1.56163 29.7555 2.24448C30.4393 2.92733 30.8606 3.57785 31.2154 4.48896C31.4836 5.17657 31.8003 6.21036 31.8868 8.11341C31.981 10.1724 32 10.7887 32 16.0005C32 21.2103 31.981 21.8285 31.8868 23.8875C31.8003 25.7906 31.4817 26.8244 31.2154 27.512C30.8606 28.4231 30.4384 29.0727 29.7555 29.7555C29.0727 30.4384 28.4221 30.8606 27.511 31.2154C26.8234 31.4836 25.7896 31.8003 23.8866 31.8868C21.8295 31.981 21.2113 32 15.9995 32C10.7897 32 10.1715 31.9819 8.11436 31.8868Z" fill="url(#paint0_radial)"/>
<path d="M8.11436 31.8868C6.21131 31.8003 5.17752 31.4836 4.48991 31.2154C3.5788 30.8606 2.92924 30.4384 2.24543 29.7555C1.56163 29.0727 1.13841 28.4231 0.785568 27.512C0.517371 26.8244 0.200672 25.7906 0.114126 23.8875C0.019021 21.8304 0 21.2132 0 16.0014C0 10.7897 0.0209231 10.1734 0.113175 8.11436C0.199721 6.21131 0.518323 5.17942 0.784617 4.48991C1.13936 3.5788 1.56258 2.92924 2.24448 2.24448C2.92733 1.56163 3.5769 1.13746 4.48896 0.784617C5.17657 0.51642 6.21036 0.199721 8.11341 0.113175C10.1715 0.019021 10.7897 0 15.9995 0C21.2113 0 21.8276 0.0209231 23.8866 0.113175C25.7896 0.199721 26.8215 0.518323 27.511 0.784617C28.4221 1.13746 29.0717 1.56163 29.7555 2.24448C30.4393 2.92733 30.8606 3.57785 31.2154 4.48896C31.4836 5.17657 31.8003 6.21036 31.8868 8.11341C31.981 10.1724 32 10.7887 32 16.0005C32 21.2103 31.981 21.8285 31.8868 23.8875C31.8003 25.7906 31.4817 26.8244 31.2154 27.512C30.8606 28.4231 30.4384 29.0727 29.7555 29.7555C29.0727 30.4384 28.4221 30.8606 27.511 31.2154C26.8234 31.4836 25.7896 31.8003 23.8866 31.8868C21.8295 31.981 21.2113 32 15.9995 32C10.7897 32 10.1715 31.9819 8.11436 31.8868Z" fill="url(#paint1_radial)"/>
<path d="M12.6675 16C12.6675 14.1591 14.1594 12.6664 16.0004 12.6664C17.8414 12.6664 19.3341 14.1591 19.3341 16C19.3341 17.8409 17.8414 19.3336 16.0004 19.3336C14.1594 19.3336 12.6675 17.8409 12.6675 16ZM10.8653 16C10.8653 18.836 13.1643 21.1349 16.0004 21.1349C18.8365 21.1349 21.1355 18.836 21.1355 16C21.1355 13.164 18.8365 10.8651 16.0004 10.8651C13.1643 10.8651 10.8654 13.1638 10.8654 16H10.8653ZM20.1388 10.6615C20.1387 10.8989 20.209 11.1309 20.3408 11.3283C20.4726 11.5257 20.6599 11.6796 20.8792 11.7705C21.0984 11.8614 21.3397 11.8852 21.5725 11.839C21.8053 11.7928 22.0192 11.6786 22.1871 11.5109C22.355 11.3431 22.4694 11.1293 22.5158 10.8966C22.5621 10.6638 22.5385 10.4225 22.4477 10.2032C22.357 9.98392 22.2033 9.79644 22.006 9.6645C21.8087 9.53257 21.5767 9.4621 21.3393 9.462H21.3389C21.0207 9.46215 20.7156 9.58856 20.4906 9.81347C20.2656 10.0384 20.1391 10.3434 20.1388 10.6615ZM11.9602 24.1398C10.9852 24.0954 10.4553 23.933 10.1031 23.7958C9.63623 23.6141 9.30309 23.3976 8.95284 23.0478C8.60258 22.6981 8.38578 22.3653 8.20481 21.8984C8.06752 21.5464 7.90512 21.0163 7.86079 20.0414C7.81231 18.9873 7.80263 18.6706 7.80263 16.0002C7.80263 13.3297 7.81311 13.0139 7.86079 11.959C7.9052 10.984 8.0688 10.455 8.20481 10.1019C8.38658 9.63504 8.60306 9.30192 8.95284 8.95168C9.30261 8.60144 9.63543 8.38464 10.1031 8.20368C10.4551 8.0664 10.9852 7.904 11.9602 7.85968C13.0144 7.8112 13.331 7.80152 16.0004 7.80152C18.6698 7.80152 18.9868 7.81184 20.0418 7.85984C21.0168 7.90424 21.5458 8.06784 21.8989 8.20384C22.3658 8.3848 22.6989 8.60208 23.0492 8.95184C23.3994 9.3016 23.6154 9.6352 23.7972 10.1021C23.9345 10.4541 24.0969 10.9842 24.1412 11.9591C24.1897 13.0141 24.1994 13.3298 24.1994 16.0003C24.1994 18.6708 24.1897 18.9866 24.1412 20.0415C24.0968 21.0165 23.9336 21.5464 23.7972 21.8986C23.6154 22.3654 23.3989 22.6986 23.0492 23.048C22.6994 23.3974 22.3658 23.6142 21.8989 23.796C21.5469 23.9333 21.0168 24.0957 20.0418 24.14C18.9876 24.1885 18.671 24.1982 16.0004 24.1982C13.3298 24.1982 13.014 24.1885 11.9602 24.14V24.1398ZM11.8774 6.06056C10.8128 6.10904 10.0854 6.27784 9.45006 6.52504C8.79251 6.78032 8.23513 7.1228 7.67855 7.67848C7.12196 8.23416 6.78035 8.7916 6.52506 9.44992C6.27785 10.0856 6.10904 10.8126 6.06056 11.8772C6.01128 12.9434 6 13.2843 6 16C6 18.7157 6.01128 19.0566 6.06056 20.1228C6.10904 21.1874 6.27785 21.9144 6.52506 22.5501C6.78035 23.2076 7.12204 23.7661 7.67855 24.3215C8.23505 24.877 8.79171 25.219 9.45006 25.475C10.0866 25.7222 10.8128 25.891 11.8774 25.9394C12.9443 25.9879 13.2846 26 16.0004 26C18.7162 26 19.0571 25.9887 20.1234 25.9394C21.188 25.891 21.915 25.7222 22.5507 25.475C23.2083 25.219 23.7657 24.8772 24.3223 24.3215C24.8788 23.7658 25.2197 23.2076 25.4757 22.5501C25.7229 21.9144 25.8926 21.1874 25.9402 20.1228C25.9887 19.0558 26 18.7157 26 16C26 13.2843 25.9887 12.9434 25.9402 11.8772C25.8918 10.8126 25.7229 10.0852 25.4757 9.44992C25.2197 8.7924 24.878 8.23504 24.3223 7.67848C23.7666 7.12192 23.2083 6.78032 22.5515 6.52504C21.915 6.27784 21.188 6.10824 20.1242 6.06056C19.0577 6.01184 18.717 6 16.0016 6C13.2862 6 12.9447 6.01128 11.8778 6.06056" fill="white"/>
<defs>
<radialGradient id="paint0_radial" cx="0" cy="0" r="1" gradientUnits="userSpaceOnUse" gradientTransform="translate(2.07101 31.299) scale(40.6281)">
<stop offset="0.09" stop-color="#FA8F21"/>
<stop offset="0.78" stop-color="#D82D7E"/>
</radialGradient>
<radialGradient id="paint1_radial" cx="0" cy="0" r="1" gradientUnits="userSpaceOnUse" gradientTransform="translate(22.1653 30.2715) scale(35.7531)">
<stop offset="0.64" stop-color="#8C3AAA" stop-opacity="0"/>
<stop offset="1" stop-color="#8C3AAA"/>
</radialGradient>
</defs>
</svg>
