<svg width="32" height="32" viewBox="0 0 32 32" fill="none" xmlns="http://www.w3.org/2000/svg">
<g clip-path="url(#clip0)">
<circle cx="16" cy="16" r="14" fill="white"/>
<path d="M16 0.000976562C7.16337 0.000976562 0 7.16435 0 16.0009C0 24.8375 7.16337 32.0009 16 32.0009C24.8366 32.0009 32 24.8375 32 16.0009C31.9999 7.16435 24.8364 0.000976562 16 0.000976562ZM11.7311 23.7362H8.21819V12.3868H11.7311V23.7362ZM9.95793 10.9006C8.81063 10.9006 7.88055 9.96289 7.88055 8.8064C7.88055 7.64979 8.81076 6.71219 9.95793 6.71219C11.1051 6.71219 12.0352 7.64979 12.0352 8.8064C12.0352 9.96295 11.1052 10.9006 9.95793 10.9006ZM24.8959 23.7362H21.4V17.7787C21.4 16.1448 20.7794 15.2327 19.4873 15.2327C18.0812 15.2327 17.3466 16.1826 17.3466 17.7787V23.7362H13.9773V12.3868H17.3466V13.9154C17.3466 13.9154 18.3601 12.0406 20.7666 12.0406C23.1732 12.0406 24.896 13.5101 24.896 16.5499L24.8959 23.7362Z" fill="url(#paint0_linear)"/>
</g>
<defs>
<linearGradient id="paint0_linear" x1="4.68628" y1="4.68725" x2="27.3137" y2="27.3146" gradientUnits="userSpaceOnUse">
<stop stop-color="#2489BE"/>
<stop offset="1" stop-color="#0575B3"/>
</linearGradient>
<clipPath id="clip0">
<rect width="32" height="32" fill="white"/>
</clipPath>
</defs>
</svg>
