<svg width="94" height="55" viewBox="0 0 94 55" fill="none" xmlns="http://www.w3.org/2000/svg">
<rect width="94" height="44" fill="white"/>
<path d="M28 18C28 14.69 25.31 12 22 12C18.69 12 16 14.69 16 18C16 22.5 22 29 22 29C22 29 28 22.5 28 18ZM20 18C20 16.9 20.9 16 22 16C23.1 16 24 16.9 24 18C24 19.1 23.11 20 22 20C20.9 20 20 19.1 20 18ZM15 30V32H29V30H15Z" fill="url(#paint0_linear)"/>
<path d="M53.18 15.4H56.42V24.58C56.42 25.84 56.132 26.758 55.556 27.334C54.992 27.898 54.08 28.18 52.82 28.18H48.68C47.42 28.18 46.502 27.898 45.926 27.334C45.362 26.758 45.08 25.84 45.08 24.58V15.4H48.32V24.58C48.32 25.3 48.68 25.66 49.4 25.66H52.1C52.82 25.66 53.18 25.3 53.18 24.58V15.4ZM58.922 25.39C62.21 25.57 64.436 25.66 65.6 25.66C65.876 25.66 66.092 25.582 66.248 25.426C66.416 25.258 66.5 25.036 66.5 24.76V23.14H62.36C61.1 23.14 60.182 22.858 59.606 22.294C59.042 21.718 58.76 20.8 58.76 19.54V19C58.76 17.74 59.042 16.828 59.606 16.264C60.182 15.688 61.1 15.4 62.36 15.4H68.678V17.92H63.08C62.36 17.92 62 18.28 62 19V19.36C62 20.08 62.36 20.44 63.08 20.44H66.32C67.496 20.44 68.36 20.716 68.912 21.268C69.464 21.82 69.74 22.684 69.74 23.86V24.76C69.74 25.936 69.464 26.8 68.912 27.352C68.36 27.904 67.496 28.18 66.32 28.18C65.708 28.18 65.06 28.168 64.376 28.144L62.72 28.072C61.496 28.012 60.23 27.928 58.922 27.82V25.39ZM73.977 28H70.467L75.237 15.4H78.837L83.607 28H80.097L79.287 25.75H74.787L73.977 28ZM75.597 23.41H78.477L77.037 19.18L75.597 23.41Z" fill="#22252D"/>
<path d="M22 55L11.6077 37L32.3923 37L22 55Z" fill="white"/>
<defs>
<linearGradient id="paint0_linear" x1="15.1285" y1="31.4876" x2="34.2659" y2="28.9873" gradientUnits="userSpaceOnUse">
<stop stop-color="#51E5EC"/>
<stop offset="1" stop-color="#0DC195"/>
</linearGradient>
</defs>
</svg>
