<svg width="129" height="55" viewBox="0 0 129 55" fill="none" xmlns="http://www.w3.org/2000/svg">
<rect width="129" height="44" fill="white"/>
<path d="M28 18C28 14.69 25.31 12 22 12C18.69 12 16 14.69 16 18C16 22.5 22 29 22 29C22 29 28 22.5 28 18ZM20 18C20 16.9 20.9 16 22 16C23.1 16 24 16.9 24 18C24 19.1 23.11 20 22 20C20.9 20 20 19.1 20 18ZM15 30V32H29V30H15Z" fill="url(#paint0_linear)"/>
<path d="M53.18 15.4H56.42V24.58C56.42 25.84 56.132 26.758 55.556 27.334C54.992 27.898 54.08 28.18 52.82 28.18H48.68C47.42 28.18 46.502 27.898 45.926 27.334C45.362 26.758 45.08 25.84 45.08 24.58V15.4H48.32V24.58C48.32 25.3 48.68 25.66 49.4 25.66H52.1C52.82 25.66 53.18 25.3 53.18 24.58V15.4ZM62.27 24.22V28H59.12V15.4H62.27V21.79H63.71L65.69 18.46H69.02L66.32 23.05L69.02 28H65.69L63.62 24.22H62.27ZM76.123 21.07C75.367 21.07 74.587 21.25 73.783 21.61V28H70.633V18.46H73.423L73.603 19.63C74.635 18.73 75.715 18.28 76.843 18.28H77.653V21.07H76.123ZM82.6916 25.66C83.3276 25.66 84.0476 25.54 84.8516 25.3V24.22H82.2416C82.0616 24.22 81.9116 24.28 81.7916 24.4C81.6716 24.52 81.6116 24.67 81.6116 24.85V25.03C81.6116 25.21 81.6716 25.36 81.7916 25.48C81.9116 25.6 82.0616 25.66 82.2416 25.66H82.6916ZM79.3616 18.64C81.5576 18.4 83.5376 18.28 85.3016 18.28C86.1176 18.28 86.7716 18.526 87.2636 19.018C87.7556 19.51 88.0016 20.164 88.0016 20.98V28H85.2116L85.0316 27.1C84.4676 27.472 83.8856 27.748 83.2856 27.928C82.6976 28.096 82.1996 28.18 81.7916 28.18H81.1616C80.3456 28.18 79.6916 27.934 79.1996 27.442C78.7076 26.95 78.4616 26.296 78.4616 25.48V24.67C78.4616 23.854 78.7076 23.2 79.1996 22.708C79.6916 22.216 80.3456 21.97 81.1616 21.97H84.8516V21.25C84.8516 21.07 84.7916 20.92 84.6716 20.8C84.5516 20.68 84.4016 20.62 84.2216 20.62C83.4416 20.62 82.5776 20.656 81.6296 20.728C80.6936 20.8 79.9376 20.854 79.3616 20.89V18.64ZM94.2966 18.82V28H91.1466V21.25H89.7966V18.82H94.2966ZM91.1466 15.22H94.2966V17.74H91.1466V15.22ZM102.132 20.89C101.496 20.89 100.776 21.01 99.9723 21.25V28H96.8223V18.46H99.6123L99.7923 19.36C100.356 18.988 100.932 18.718 101.52 18.55C102.12 18.37 102.624 18.28 103.032 18.28H103.842C104.658 18.28 105.312 18.526 105.804 19.018C106.296 19.51 106.542 20.164 106.542 20.98V28H103.392V21.52C103.392 21.34 103.332 21.19 103.212 21.07C103.092 20.95 102.942 20.89 102.762 20.89H102.132ZM112.57 20.53C112.09 20.53 111.85 20.77 111.85 21.25V22.24H114.91V21.25C114.91 20.77 114.67 20.53 114.19 20.53H112.57ZM117.7 27.82C115.384 28.06 113.284 28.18 111.4 28.18C110.584 28.18 109.93 27.934 109.438 27.442C108.946 26.95 108.7 26.296 108.7 25.48V21.16C108.7 20.26 108.952 19.558 109.456 19.054C109.972 18.538 110.68 18.28 111.58 18.28H115.18C116.08 18.28 116.782 18.538 117.286 19.054C117.802 19.558 118.06 20.26 118.06 21.16V24.49H111.85V25.21C111.85 25.39 111.91 25.54 112.03 25.66C112.15 25.78 112.3 25.84 112.48 25.84C113.668 25.84 115.408 25.75 117.7 25.57V27.82Z" fill="#22252D"/>
<path d="M22.5 55L12.1077 37L32.8923 37L22.5 55Z" fill="white"/>
<defs>
<linearGradient id="paint0_linear" x1="15.1285" y1="31.4876" x2="34.2659" y2="28.9873" gradientUnits="userSpaceOnUse">
<stop stop-color="#51E5EC"/>
<stop offset="1" stop-color="#0DC195"/>
</linearGradient>
</defs>
</svg>
