<svg width="32" height="32" viewBox="0 0 32 32" fill="none" xmlns="http://www.w3.org/2000/svg">
<g clip-path="url(#clip0)">
<path d="M16 32C24.8366 32 32 24.8366 32 16C32 7.16344 24.8366 0 16 0C7.16344 0 0 7.16344 0 16C0 24.8366 7.16344 32 16 32Z" fill="#65A2D9"/>
<path fill-rule="evenodd" clip-rule="evenodd" d="M27 9.01377C26.2262 9.35409 25.3959 9.58512 24.525 9.68815C25.4147 9.15739 26.0977 8.31442 26.4173 7.31221C25.5839 7.80551 24.6628 8.16143 23.6822 8.355C22.8959 7.5214 21.7774 7 20.5368 7C18.1589 7 16.229 8.92323 16.229 11.2929C16.229 11.6301 16.2666 11.9579 16.3418 12.2702C12.7609 12.0922 9.5872 10.3813 7.46308 7.78365C7.09339 8.41745 6.88035 9.15427 6.88035 9.94105C6.88035 11.4303 7.64165 12.7447 8.7977 13.5128C8.09279 13.4909 7.42861 13.2973 6.84589 12.9758C6.84589 12.9945 6.84589 13.0101 6.84589 13.0288C6.84589 15.1082 8.3309 16.8441 10.3015 17.2375C9.94122 17.3343 9.559 17.3873 9.16739 17.3873C8.88856 17.3873 8.61913 17.3592 8.35596 17.3093C8.90422 19.014 10.4957 20.2566 12.3786 20.2909C10.903 21.443 9.04834 22.1298 7.0276 22.1298C6.67984 22.1298 6.33836 22.108 6 22.0705C7.90482 23.2882 10.1699 24 12.6042 24C20.5274 24 24.8602 17.4591 24.8602 11.7862C24.8602 11.5989 24.8571 11.4147 24.8477 11.2305C25.6904 10.6248 26.4204 9.86924 26.9969 9.00753L27 9.01377Z" fill="white"/>
</g>
<defs>
<clipPath id="clip0">
<rect width="32" height="32" fill="white"/>
</clipPath>
</defs>
</svg>
