<svg width="129" height="56" viewBox="0 0 129 56" fill="none" xmlns="http://www.w3.org/2000/svg">
<rect width="129" height="44" transform="translate(0 12)" fill="white"/>
<path d="M28 30C28 26.69 25.31 24 22 24C18.69 24 16 26.69 16 30C16 34.5 22 41 22 41C22 41 28 34.5 28 30ZM20 30C20 28.9 20.9 28 22 28C23.1 28 24 28.9 24 30C24 31.1 23.11 32 22 32C20.9 32 20 31.1 20 30ZM15 42V44H29V42H15Z" fill="url(#paint0_linear)"/>
<path d="M53.18 27.4H56.42V36.58C56.42 37.84 56.132 38.758 55.556 39.334C54.992 39.898 54.08 40.18 52.82 40.18H48.68C47.42 40.18 46.502 39.898 45.926 39.334C45.362 38.758 45.08 37.84 45.08 36.58V27.4H48.32V36.58C48.32 37.3 48.68 37.66 49.4 37.66H52.1C52.82 37.66 53.18 37.3 53.18 36.58V27.4ZM62.27 36.22V40H59.12V27.4H62.27V33.79H63.71L65.69 30.46H69.02L66.32 35.05L69.02 40H65.69L63.62 36.22H62.27ZM76.123 33.07C75.367 33.07 74.587 33.25 73.783 33.61V40H70.633V30.46H73.423L73.603 31.63C74.635 30.73 75.715 30.28 76.843 30.28H77.653V33.07H76.123ZM82.6916 37.66C83.3276 37.66 84.0476 37.54 84.8516 37.3V36.22H82.2416C82.0616 36.22 81.9116 36.28 81.7916 36.4C81.6716 36.52 81.6116 36.67 81.6116 36.85V37.03C81.6116 37.21 81.6716 37.36 81.7916 37.48C81.9116 37.6 82.0616 37.66 82.2416 37.66H82.6916ZM79.3616 30.64C81.5576 30.4 83.5376 30.28 85.3016 30.28C86.1176 30.28 86.7716 30.526 87.2636 31.018C87.7556 31.51 88.0016 32.164 88.0016 32.98V40H85.2116L85.0316 39.1C84.4676 39.472 83.8856 39.748 83.2856 39.928C82.6976 40.096 82.1996 40.18 81.7916 40.18H81.1616C80.3456 40.18 79.6916 39.934 79.1996 39.442C78.7076 38.95 78.4616 38.296 78.4616 37.48V36.67C78.4616 35.854 78.7076 35.2 79.1996 34.708C79.6916 34.216 80.3456 33.97 81.1616 33.97H84.8516V33.25C84.8516 33.07 84.7916 32.92 84.6716 32.8C84.5516 32.68 84.4016 32.62 84.2216 32.62C83.4416 32.62 82.5776 32.656 81.6296 32.728C80.6936 32.8 79.9376 32.854 79.3616 32.89V30.64ZM94.2966 30.82V40H91.1466V33.25H89.7966V30.82H94.2966ZM91.1466 27.22H94.2966V29.74H91.1466V27.22ZM102.132 32.89C101.496 32.89 100.776 33.01 99.9723 33.25V40H96.8223V30.46H99.6123L99.7923 31.36C100.356 30.988 100.932 30.718 101.52 30.55C102.12 30.37 102.624 30.28 103.032 30.28H103.842C104.658 30.28 105.312 30.526 105.804 31.018C106.296 31.51 106.542 32.164 106.542 32.98V40H103.392V33.52C103.392 33.34 103.332 33.19 103.212 33.07C103.092 32.95 102.942 32.89 102.762 32.89H102.132ZM112.57 32.53C112.09 32.53 111.85 32.77 111.85 33.25V34.24H114.91V33.25C114.91 32.77 114.67 32.53 114.19 32.53H112.57ZM117.7 39.82C115.384 40.06 113.284 40.18 111.4 40.18C110.584 40.18 109.93 39.934 109.438 39.442C108.946 38.95 108.7 38.296 108.7 37.48V33.16C108.7 32.26 108.952 31.558 109.456 31.054C109.972 30.538 110.68 30.28 111.58 30.28H115.18C116.08 30.28 116.782 30.538 117.286 31.054C117.802 31.558 118.06 32.26 118.06 33.16V36.49H111.85V37.21C111.85 37.39 111.91 37.54 112.03 37.66C112.15 37.78 112.3 37.84 112.48 37.84C113.668 37.84 115.408 37.75 117.7 37.57V39.82Z" fill="#22252D"/>
<path d="M106 0L116.392 18L95.6077 18L106 0Z" fill="white"/>
<defs>
<linearGradient id="paint0_linear" x1="15.1285" y1="43.4876" x2="34.2659" y2="40.9873" gradientUnits="userSpaceOnUse">
<stop stop-color="#51E5EC"/>
<stop offset="1" stop-color="#0DC195"/>
</linearGradient>
</defs>
</svg>
