<svg width="13" height="18" viewBox="0 0 13 18" fill="none" xmlns="http://www.w3.org/2000/svg">
<path d="M8.784 5.576C8.928 5.272 9 4.936 9 4.568C9 3.896 8.752 3.392 8.256 3.056C7.76 2.704 7.152 2.528 6.432 2.528C5.664 2.528 5.024 2.616 4.512 2.792C4.016 2.952 3.568 3.12 3.168 3.296L2.4 0.896C2.976 0.655999 3.608 0.447999 4.296 0.271999C4.984 0.0959997 5.752 0.0079999 6.6 0.0079999C7.496 0.0079999 8.272 0.136 8.928 0.391999C9.584 0.631999 10.12 0.967999 10.536 1.4C10.968 1.816 11.288 2.312 11.496 2.888C11.704 3.464 11.808 4.072 11.808 4.712C11.808 4.888 11.792 5.048 11.76 5.192C11.744 5.32 11.72 5.448 11.688 5.576H12.96V7.568H10.488C10.024 7.968 9.472 8.36 8.832 8.744C8.208 9.128 7.576 9.496 6.936 9.848H12.96V11.864H4.848C4.72 12.104 4.656 12.392 4.656 12.728C4.656 13.352 4.872 13.864 5.304 14.264C5.752 14.648 6.504 14.84 7.56 14.84C8.472 14.84 9.24 14.736 9.864 14.528C10.488 14.32 11.032 14.104 11.496 13.88L12.336 16.208C11.776 16.528 11.088 16.792 10.272 17C9.472 17.224 8.544 17.336 7.488 17.336C6.512 17.336 5.68 17.232 4.992 17.024C4.304 16.832 3.736 16.56 3.288 16.208C2.84 15.856 2.504 15.44 2.28 14.96C2.056 14.48 1.92 13.952 1.872 13.376C1.856 13.12 1.848 12.872 1.848 12.632C1.864 12.392 1.896 12.136 1.944 11.864H0.84V9.848H3C3.32 9.544 3.696 9.256 4.128 8.984C4.576 8.712 5.056 8.424 5.568 8.12L6.504 7.568H0.84V5.576H8.784Z" fill="white"/>
</svg>
