<svg width="32" height="32" viewBox="0 0 32 32" fill="none" xmlns="http://www.w3.org/2000/svg"><g clip-path="url(#a)"><path d="M16 32c8.837 0 16-7.163 16-16S24.837 0 16 0 0 7.163 0 16s7.163 16 16 16z" fill="#3C5A9A"/><path d="M20.985 6H17.59c-2.016 0-4.257.798-4.257 3.547.01.958 0 1.876 0 2.909H11v3.491h2.404V26h4.417V15.881h2.915L21 12.446h-3.255s.007-1.528 0-1.972c0-1.087 1.201-1.025 1.273-1.025.572 0 1.683.002 1.969 0V6h-.002z" fill="#fff"/></g><defs><clipPath id="a"><path fill="#fff" d="M0 0h32v32H0z"/></clipPath></defs></svg>