<svg width="93" height="41" viewBox="0 0 93 41" fill="none" xmlns="http://www.w3.org/2000/svg"><path d="M0 39.74V19.714h4.782V39.74H0zm17.674 0v-7.694c0-.39-.04-.78-.101-1.129-.06-.349-.162-.677-.323-.944a1.934 1.934 0 0 0-.625-.656c-.263-.164-.606-.246-1.01-.246-.403 0-.766.082-1.069.246-.302.164-.564.39-.766.656a2.947 2.947 0 0 0-.464.985c-.101.37-.162.76-.162 1.15v7.633h-4.56V25.663h4.42v1.95h.06c.161-.308.383-.595.645-.883.263-.287.585-.533.949-.759a6.3 6.3 0 0 1 1.19-.513 4.93 4.93 0 0 1 1.372-.205c.928 0 1.715.164 2.36.513.646.349 1.17.78 1.574 1.313.403.534.686 1.15.867 1.847.182.698.263 1.395.263 2.093v8.7h-4.62v.02zm26.672-10.054c0 1.744-.323 3.263-.969 4.535-.646 1.272-1.473 2.319-2.522 3.14a10.448 10.448 0 0 1-3.55 1.805 13.94 13.94 0 0 1-3.995.575h-7.344V19.713h7.122c1.392 0 2.764.164 4.115.492 1.352.329 2.563.883 3.612 1.642 1.049.76 1.916 1.785 2.562 3.078.646 1.272.968 2.872.968 4.76zm-4.943 0c0-1.128-.182-2.072-.545-2.811-.363-.739-.847-1.334-1.453-1.785a5.574 5.574 0 0 0-2.058-.944 10.09 10.09 0 0 0-2.38-.287h-2.36v11.696h2.259c.847 0 1.674-.103 2.461-.288.787-.205 1.473-.513 2.078-.985.605-.451 1.09-1.046 1.453-1.805.363-.76.545-1.683.545-2.79zm17.37 1.395c0-.738-.221-1.374-.685-1.887-.464-.513-1.13-.8-2.038-.8-.444 0-.847.061-1.23.205a3.288 3.288 0 0 0-.97.574 2.735 2.735 0 0 0-.665.862 2.692 2.692 0 0 0-.282 1.026h5.87v.02zm4.197 1.786v.574c0 .185 0 .37-.02.534H50.923c.04.39.161.759.343 1.067.201.328.444.595.746.84.303.227.646.411 1.03.555.383.123.766.205 1.19.205.726 0 1.331-.144 1.835-.41a3.685 3.685 0 0 0 1.231-1.067l3.168 2.031a6.432 6.432 0 0 1-2.563 2.216c-1.049.513-2.3.78-3.712.78a8.796 8.796 0 0 1-2.946-.492 7.492 7.492 0 0 1-2.44-1.437c-.707-.615-1.252-1.416-1.635-2.339s-.605-1.97-.605-3.16c0-1.149.202-2.196.585-3.119.383-.923.908-1.723 1.594-2.38.666-.657 1.452-1.15 2.36-1.518.908-.37 1.897-.534 2.946-.534 1.029 0 1.957.164 2.804.513a6.165 6.165 0 0 1 2.2 1.518c.605.657 1.089 1.457 1.432 2.401.303.944.484 2.011.484 3.222zm11.4 6.873h-4.924L62 25.664h5.024l2.925 9.131h.08l2.926-9.13h4.863L72.369 39.74z" fill="#fff"/><path d="M73.806 4.92c-3.127 0-8.131-2.466-11.884-4.315-3.127-1.514-6.88 0-7.506 2.466-.625 2.466-1.25 11.712 11.259 16.027 12.51 4.314 21.266 0 23.768-1.85 2.502-1.849 3.753-6.78 1.25-11.095-2.501-4.315-6.88-4.315-9.381-3.082-2.502 1.233-4.379 1.85-7.506 1.85z" fill="url(#a)"/><path d="M63.799 14.64V7.386h1.769v5.724h2.823v1.53h-4.592zm12.912 0l-.569-1.426H73.32l-.527 1.426h-1.917l3.055-7.254h1.706l3.012 7.254h-1.938zm-1.938-5.304l-.927 2.495h1.833l-.906-2.495zm12.744 3.186c0 .399-.084.734-.231 1.007a1.704 1.704 0 0 1-.632.65c-.253.168-.548.272-.885.356a5.557 5.557 0 0 1-1.032.105H81.83V7.386h2.907c.274 0 .569.02.863.084.295.063.57.146.8.293.233.147.443.336.59.566.148.23.232.545.232.902 0 .398-.105.734-.337 1.006a1.735 1.735 0 0 1-.863.566v.042c.21.042.4.105.59.189.19.084.337.21.463.356.126.147.232.315.316.503.084.19.126.399.126.63zm-1.98-3.04c0-.251-.084-.419-.274-.545-.19-.105-.463-.167-.842-.167h-.864v1.488h.948c.337 0 .59-.063.758-.21.169-.104.274-.293.274-.566zm.232 2.894c0-.294-.105-.503-.337-.63-.232-.125-.527-.167-.906-.167h-.969v1.656h.99c.148 0 .274-.02.422-.042a1.28 1.28 0 0 0 .4-.125.856.856 0 0 0 .295-.252.971.971 0 0 0 .105-.44z" fill="#22252D"/><defs><linearGradient id="a" x1="54.491" y1="20.416" x2="101.807" y2="4.437" gradientUnits="userSpaceOnUse"><stop stop-color="#51E5EC"/><stop offset="1" stop-color="#0DC195"/></linearGradient></defs></svg>