<svg width="76" height="37" viewBox="0 0 76 37" fill="none" xmlns="http://www.w3.org/2000/svg"><path d="M34.547 8.6c-5.282.515-7.687.284-14.525-1.722-4.402-1.291-7.483-1.783-12.764-2.152-6.201-.433-7.923 6.455-7.043 8.607.88 2.151 1.76 3.012 9.683 6.455 7.923 3.442 10.827 8.381 14.966 11.618C29.265 34.85 38.508 37 43.79 37c5.282 0 24.648 0 27.29-15.922C73.72 5.157 58.314 3.866 52.152 3.435 45.99 3.005 40.269 8.04 34.547 8.6z" fill="url(#a)"/><path d="M11.219 27.744V13.763h3.364v13.98H11.22zm12.437 0v-5.372c0-.272-.029-.544-.071-.788a1.902 1.902 0 0 0-.227-.659 1.355 1.355 0 0 0-.44-.458c-.185-.115-.427-.172-.71-.172-.284 0-.54.057-.753.172a1.682 1.682 0 0 0-.54.458 2.05 2.05 0 0 0-.326.688 3.04 3.04 0 0 0-.114.802v5.329h-3.208v-9.827h3.109v1.36h.043c.113-.214.27-.415.454-.615s.412-.373.667-.53a4.44 4.44 0 0 1 .838-.358c.298-.086.625-.144.965-.144.653 0 1.207.115 1.661.358.455.244.824.545 1.108.917a3.6 3.6 0 0 1 .61 1.29c.128.486.185.974.185 1.46v6.074h-3.251v.015zm18.769-7.02c0 1.218-.227 2.278-.682 3.166-.454.888-1.036 1.619-1.774 2.192a7.358 7.358 0 0 1-2.5 1.26 9.879 9.879 0 0 1-2.81.402H29.49V13.763h5.011c.98 0 1.946.114 2.897.344a7.203 7.203 0 0 1 2.541 1.146c.738.53 1.349 1.246 1.803 2.148.455.888.682 2.006.682 3.323zm-3.479 0c0-.787-.127-1.446-.383-1.962a3.39 3.39 0 0 0-1.022-1.246 3.935 3.935 0 0 0-1.448-.66 7.158 7.158 0 0 0-1.676-.2h-1.66v8.165h1.59a7.63 7.63 0 0 0 1.731-.2c.554-.143 1.037-.358 1.463-.688.426-.315.767-.73 1.022-1.26.256-.53.383-1.175.383-1.948zm12.224.975c0-.516-.156-.96-.482-1.318-.327-.358-.795-.559-1.434-.559-.313 0-.597.043-.866.143-.256.1-.483.23-.682.401a1.911 1.911 0 0 0-.468.602c-.114.23-.185.473-.2.716h4.132v.015zm2.953 1.246v.4c0 .13 0 .259-.014.373h-7.056c.029.273.114.53.242.745.142.23.312.416.525.587.213.158.454.287.724.387.27.086.54.144.838.144.51 0 .937-.1 1.291-.287a2.57 2.57 0 0 0 .866-.745l2.23 1.418a4.516 4.516 0 0 1-1.803 1.547c-.739.358-1.62.545-2.613.545a6.24 6.24 0 0 1-2.073-.344 5.282 5.282 0 0 1-1.718-1.003c-.496-.43-.88-.988-1.15-1.633a5.65 5.65 0 0 1-.425-2.206c0-.802.141-1.533.411-2.177a4.824 4.824 0 0 1 1.122-1.662 5.011 5.011 0 0 1 1.66-1.06c.64-.258 1.336-.372 2.074-.372.724 0 1.377.114 1.973.358a4.338 4.338 0 0 1 1.548 1.06 4.919 4.919 0 0 1 1.008 1.676 7.26 7.26 0 0 1 .34 2.249zm8.022 4.799h-3.464l-3.834-9.827h3.536l2.058 6.374h.057l2.059-6.374h3.421l-3.833 9.827zm1.011-24.309c-2.2 0-5.722-1.722-8.362-3.012-2.201-1.057-4.842 0-5.282 1.72-.44 1.722-.88 8.177 7.922 11.19 8.803 3.011 14.966 0 16.726-1.292 1.76-1.29 2.641-4.733.88-7.746-1.76-3.012-4.841-3.012-6.602-2.151-1.76.86-3.08 1.29-5.282 1.29z" fill="#22252D"/><path d="M56.114 10.22V5.157h1.245v3.996h1.986v1.069h-3.231zm9.087 0l-.4-.995h-1.987l-.37.996h-1.35l2.15-5.065h1.2l2.12 5.065h-1.363zm-1.364-3.703l-.652 1.742h1.29l-.638-1.742zm8.968 2.225c0 .278-.06.513-.163.703-.104.19-.252.336-.445.454-.178.117-.385.19-.623.248a3.94 3.94 0 0 1-.726.074h-2.045V5.156h2.045c.193 0 .4.015.608.059.207.044.4.102.563.205.163.102.311.234.415.395.104.16.163.38.163.63 0 .277-.074.512-.237.702-.163.19-.356.322-.608.395v.03c.149.029.282.072.416.131a.918.918 0 0 1 .326.249c.088.102.163.22.222.351.06.132.089.278.089.44zM71.41 6.62c0-.176-.059-.293-.192-.38-.134-.074-.326-.118-.593-.118h-.608v1.04h.667c.237 0 .415-.044.534-.147.118-.073.193-.205.193-.395zm.163 2.02c0-.205-.074-.351-.237-.44-.163-.087-.37-.116-.637-.116h-.682V9.24h.697c.103 0 .192-.015.296-.03a.903.903 0 0 0 .282-.087.602.602 0 0 0 .207-.176.673.673 0 0 0 .075-.307z" fill="#fff"/><defs><linearGradient id="a" x1=".655" y1="36.14" x2="86.407" y2="2.13" gradientUnits="userSpaceOnUse"><stop stop-color="#51E5EC"/><stop offset="1" stop-color="#0DC195"/></linearGradient></defs></svg>