<svg width="32" height="32" viewBox="0 0 32 32" fill="none" xmlns="http://www.w3.org/2000/svg"><path d="M8.114 31.887c-1.903-.087-2.936-.403-3.624-.672a6.066 6.066 0 0 1-2.245-1.46 6.017 6.017 0 0 1-1.46-2.243c-.268-.688-.584-1.721-.67-3.625C.018 21.83 0 21.213 0 16.002s.02-5.828.113-7.887C.2 6.211.518 5.18.785 4.49a6.087 6.087 0 0 1 1.46-2.246A6.025 6.025 0 0 1 4.488.784C5.177.517 6.21.2 8.113.115 10.172.018 10.79 0 16 0c5.212 0 5.829.02 7.888.113C25.79.2 26.82.518 27.51.785a6.04 6.04 0 0 1 2.245 1.46c.683.682 1.105 1.333 1.46 2.244.268.688.584 1.721.67 3.624.095 2.06.114 2.676.114 7.887 0 5.21-.019 5.828-.113 7.887-.087 1.904-.405 2.937-.672 3.625a6.054 6.054 0 0 1-1.46 2.244c-.682.682-1.333 1.105-2.244 1.46-.688.268-1.721.584-3.624.67-2.058.095-2.676.114-7.888.114-5.21 0-5.828-.018-7.885-.113z" fill="url(#a)"/><path d="M8.114 31.887c-1.903-.087-2.936-.403-3.624-.672a6.066 6.066 0 0 1-2.245-1.46 6.017 6.017 0 0 1-1.46-2.243c-.268-.688-.584-1.721-.67-3.625C.018 21.83 0 21.213 0 16.002s.02-5.828.113-7.887C.2 6.211.518 5.18.785 4.49a6.087 6.087 0 0 1 1.46-2.246A6.025 6.025 0 0 1 4.488.784C5.177.517 6.21.2 8.113.115 10.172.018 10.79 0 16 0c5.212 0 5.829.02 7.888.113C25.79.2 26.82.518 27.51.785a6.04 6.04 0 0 1 2.245 1.46c.683.682 1.105 1.333 1.46 2.244.268.688.584 1.721.67 3.624.095 2.06.114 2.676.114 7.887 0 5.21-.019 5.828-.113 7.887-.087 1.904-.405 2.937-.672 3.625a6.054 6.054 0 0 1-1.46 2.244c-.682.682-1.333 1.105-2.244 1.46-.688.268-1.721.584-3.624.67-2.058.095-2.676.114-7.888.114-5.21 0-5.828-.018-7.885-.113z" fill="url(#b)"/><path d="M12.668 16a3.333 3.333 0 1 1 6.666 0 3.333 3.333 0 0 1-6.666 0zm-1.803 0a5.135 5.135 0 1 0 10.27 0 5.135 5.135 0 0 0-10.27 0zm9.274-5.338a1.2 1.2 0 1 0 1.2-1.2 1.2 1.2 0 0 0-1.2 1.2zM11.96 24.14c-.975-.045-1.505-.207-1.857-.344a3.107 3.107 0 0 1-1.15-.748 3.084 3.084 0 0 1-.748-1.15c-.137-.352-.3-.882-.344-1.857-.049-1.054-.058-1.37-.058-4.04 0-2.671.01-2.987.058-4.042.044-.975.208-1.504.344-1.857.182-.467.398-.8.748-1.15.35-.35.682-.567 1.15-.748.352-.138.882-.3 1.857-.344 1.054-.049 1.371-.058 4.04-.058 2.67 0 2.987.01 4.042.058.975.044 1.504.208 1.857.344.467.18.8.398 1.15.748.35.35.566.683.748 1.15.137.352.3.882.344 1.857.049 1.055.058 1.37.058 4.041 0 2.67-.01 2.987-.058 4.041-.044.976-.207 1.505-.344 1.858a3.1 3.1 0 0 1-.748 1.149 3.11 3.11 0 0 1-1.15.748c-.352.137-.882.3-1.857.344-1.054.049-1.371.058-4.042.058-2.67 0-2.986-.01-4.04-.058zm-.083-18.08c-1.064.049-1.792.218-2.427.465a4.908 4.908 0 0 0-1.77 1.153A4.882 4.882 0 0 0 6.525 9.45c-.247.636-.416 1.363-.464 2.427C6.01 12.943 6 13.284 6 16s.011 3.057.06 4.123c.049 1.064.218 1.791.465 2.427a4.888 4.888 0 0 0 1.154 1.771 4.913 4.913 0 0 0 1.771 1.154c.637.247 1.363.416 2.427.464 1.067.049 1.408.061 4.123.061 2.716 0 3.057-.011 4.123-.06 1.065-.049 1.792-.218 2.428-.465a4.918 4.918 0 0 0 1.771-1.154 4.9 4.9 0 0 0 1.154-1.77c.247-.637.417-1.364.464-2.428.049-1.067.06-1.407.06-4.123s-.011-3.057-.06-4.123c-.048-1.064-.217-1.792-.464-2.427a4.917 4.917 0 0 0-1.154-1.772 4.893 4.893 0 0 0-1.77-1.153c-.637-.247-1.364-.417-2.428-.464C19.058 6.01 18.717 6 16.002 6c-2.716 0-3.057.011-4.124.06" fill="#fff"/><defs><radialGradient id="a" cx="0" cy="0" r="1" gradientUnits="userSpaceOnUse" gradientTransform="translate(2.071 31.299) scale(40.6281)"><stop offset=".09" stop-color="#FA8F21"/><stop offset=".78" stop-color="#D82D7E"/></radialGradient><radialGradient id="b" cx="0" cy="0" r="1" gradientUnits="userSpaceOnUse" gradientTransform="translate(22.165 30.271) scale(35.7531)"><stop offset=".64" stop-color="#8C3AAA" stop-opacity="0"/><stop offset="1" stop-color="#8C3AAA"/></radialGradient></defs></svg>