<svg width="32" height="32" viewBox="0 0 32 32" fill="none" xmlns="http://www.w3.org/2000/svg"><g clip-path="url(#a)"><circle cx="16" cy="16" r="14" fill="#fff"/><path d="M16 .001c-8.837 0-16 7.163-16 16 0 8.836 7.163 16 16 16s16-7.163 16-16S24.836 0 16 0zm-4.269 23.735H8.218v-11.35h3.513v11.35zM9.958 10.901A2.086 2.086 0 0 1 7.88 8.806c0-1.156.93-2.094 2.077-2.094 1.147 0 2.077.938 2.077 2.094 0 1.157-.93 2.095-2.077 2.095zm14.938 12.835H21.4V17.78c0-1.634-.62-2.546-1.913-2.546-1.406 0-2.14.95-2.14 2.546v5.957h-3.37v-11.35h3.37v1.53s1.013-1.875 3.42-1.875c2.406 0 4.129 1.47 4.129 4.509v7.186z" fill="url(#b)"/></g><defs><linearGradient id="b" x1="4.686" y1="4.687" x2="27.314" y2="27.315" gradientUnits="userSpaceOnUse"><stop stop-color="#2489BE"/><stop offset="1" stop-color="#0575B3"/></linearGradient><clipPath id="a"><path fill="#fff" d="M0 0h32v32H0z"/></clipPath></defs></svg>