<svg width="94" height="55" viewBox="0 0 94 55" fill="none" xmlns="http://www.w3.org/2000/svg"><path fill="#fff" d="M0 0h94v44H0z"/><path d="M28 18c0-3.31-2.69-6-6-6s-6 2.69-6 6c0 4.5 6 11 6 11s6-6.5 6-11zm-8 0c0-1.1.9-2 2-2s2 .9 2 2a2 2 0 1 1-4 0zm-5 12v2h14v-2H15z" fill="url(#a)"/><path d="M53.18 15.4h3.24v9.18c0 1.26-.288 2.178-.864 2.754-.564.564-1.476.846-2.736.846h-4.14c-1.26 0-2.178-.282-2.754-.846-.564-.576-.846-1.494-.846-2.754V15.4h3.24v9.18c0 .72.36 1.08 1.08 1.08h2.7c.72 0 1.08-.36 1.08-1.08V15.4zm5.742 9.99c3.288.18 5.514.27 6.678.27.276 0 .492-.078.648-.234.168-.168.252-.39.252-.666v-1.62h-4.14c-1.26 0-2.178-.282-2.754-.846-.564-.576-.846-1.494-.846-2.754V19c0-1.26.282-2.172.846-2.736.576-.576 1.494-.864 2.754-.864h6.318v2.52H63.08c-.72 0-1.08.36-1.08 1.08v.36c0 .72.36 1.08 1.08 1.08h3.24c1.176 0 2.04.276 2.592.828.552.552.828 1.416.828 2.592v.9c0 1.176-.276 2.04-.828 2.592-.552.552-1.416.828-2.592.828-.612 0-1.26-.012-1.944-.036l-1.656-.072c-1.224-.06-2.49-.144-3.798-.252v-2.43zM73.977 28h-3.51l4.77-12.6h3.6l4.77 12.6h-3.51l-.81-2.25h-4.5l-.81 2.25zm1.62-4.59h2.88l-1.44-4.23-1.44 4.23z" fill="#22252D"/><path d="M22 55L11.608 37h20.784L22 55z" fill="#fff"/><defs><linearGradient id="a" x1="15.129" y1="31.488" x2="34.266" y2="28.987" gradientUnits="userSpaceOnUse"><stop stop-color="#51E5EC"/><stop offset="1" stop-color="#0DC195"/></linearGradient></defs></svg>