<svg width="32" height="32" viewBox="0 0 32 32" fill="none" xmlns="http://www.w3.org/2000/svg"><g clip-path="url(#a)"><path d="M16 32c8.837 0 16-7.163 16-16S24.837 0 16 0 0 7.163 0 16s7.163 16 16 16z" fill="#65A2D9"/><path fill-rule="evenodd" clip-rule="evenodd" d="M27 9.014a8.667 8.667 0 0 1-2.475.674 4.296 4.296 0 0 0 1.892-2.376 8.651 8.651 0 0 1-2.735 1.043A4.312 4.312 0 0 0 20.537 7a4.302 4.302 0 0 0-4.195 5.27 12.237 12.237 0 0 1-8.879-4.486 4.283 4.283 0 0 0 1.335 5.73 4.311 4.311 0 0 1-1.952-.538v.053a4.298 4.298 0 0 0 3.456 4.209 4.377 4.377 0 0 1-1.946.071 4.311 4.311 0 0 0 4.023 2.982 8.66 8.66 0 0 1-5.351 1.839c-.348 0-.69-.022-1.028-.06A12.222 12.222 0 0 0 12.604 24c7.923 0 12.256-6.54 12.256-12.214 0-.187-.003-.371-.012-.556a8.698 8.698 0 0 0 2.149-2.222l.003.006z" fill="#fff"/></g><defs><clipPath id="a"><path fill="#fff" d="M0 0h32v32H0z"/></clipPath></defs></svg>