<svg width="129" height="56" viewBox="0 0 129 56" fill="none" xmlns="http://www.w3.org/2000/svg"><path fill="#fff" d="M0 12h129v44H0z"/><path d="M28 30c0-3.31-2.69-6-6-6s-6 2.69-6 6c0 4.5 6 11 6 11s6-6.5 6-11zm-8 0c0-1.1.9-2 2-2s2 .9 2 2a2 2 0 1 1-4 0zm-5 12v2h14v-2H15z" fill="url(#a)"/><path d="M53.18 27.4h3.24v9.18c0 1.26-.288 2.178-.864 2.754-.564.564-1.476.846-2.736.846h-4.14c-1.26 0-2.178-.282-2.754-.846-.564-.576-.846-1.494-.846-2.754V27.4h3.24v9.18c0 .72.36 1.08 1.08 1.08h2.7c.72 0 1.08-.36 1.08-1.08V27.4zm9.09 8.82V40h-3.15V27.4h3.15v6.39h1.44l1.98-3.33h3.33l-2.7 4.59 2.7 4.95h-3.33l-2.07-3.78h-1.35zm13.853-3.15c-.756 0-1.536.18-2.34.54V40h-3.15v-9.54h2.79l.18 1.17c1.032-.9 2.112-1.35 3.24-1.35h.81v2.79h-1.53zm6.569 4.59c.636 0 1.356-.12 2.16-.36v-1.08h-2.61a.61.61 0 0 0-.45.18.61.61 0 0 0-.18.45v.18c0 .18.06.33.18.45s.27.18.45.18h.45zm-3.33-7.02c2.196-.24 4.176-.36 5.94-.36.816 0 1.47.246 1.962.738s.738 1.146.738 1.962V40h-2.79l-.18-.9a6.622 6.622 0 0 1-1.746.828c-.588.168-1.086.252-1.494.252h-.63c-.816 0-1.47-.246-1.962-.738s-.738-1.146-.738-1.962v-.81c0-.816.246-1.47.738-1.962s1.146-.738 1.962-.738h3.69v-.72a.61.61 0 0 0-.18-.45.61.61 0 0 0-.45-.18c-.78 0-1.644.036-2.592.108-.936.072-1.692.126-2.268.162v-2.25zm14.935.18V40h-3.15v-6.75h-1.35v-2.43h4.5zm-3.15-3.6h3.15v2.52h-3.15v-2.52zm10.985 5.67c-.636 0-1.356.12-2.16.36V40h-3.15v-9.54h2.79l.18.9a6.256 6.256 0 0 1 1.728-.81c.6-.18 1.104-.27 1.512-.27h.81c.816 0 1.47.246 1.962.738s.738 1.146.738 1.962V40h-3.15v-6.48a.61.61 0 0 0-.18-.45.61.61 0 0 0-.45-.18h-.63zm10.438-.36c-.48 0-.72.24-.72.72v.99h3.06v-.99c0-.48-.24-.72-.72-.72h-1.62zm5.13 7.29c-2.316.24-4.416.36-6.3.36-.816 0-1.47-.246-1.962-.738s-.738-1.146-.738-1.962v-4.32c0-.9.252-1.602.756-2.106.516-.516 1.224-.774 2.124-.774h3.6c.9 0 1.602.258 2.106.774.516.504.774 1.206.774 2.106v3.33h-6.21v.72c0 .18.06.33.18.45s.27.18.45.18c1.188 0 2.928-.09 5.22-.27v2.25z" fill="#22252D"/><path d="M106 0l10.392 18H95.608L106 0z" fill="#fff"/><defs><linearGradient id="a" x1="15.129" y1="43.488" x2="34.266" y2="40.987" gradientUnits="userSpaceOnUse"><stop stop-color="#51E5EC"/><stop offset="1" stop-color="#0DC195"/></linearGradient></defs></svg>