<svg width="13" height="18" viewBox="0 0 13 18" fill="none" xmlns="http://www.w3.org/2000/svg"><path d="M8.784 5.576c.144-.304.216-.64.216-1.008 0-.672-.248-1.176-.744-1.512-.496-.352-1.104-.528-1.824-.528-.768 0-1.408.088-1.92.264-.496.16-.944.328-1.344.504L2.4.896C2.976.656 3.608.448 4.296.272S5.752.008 6.6.008c.896 0 1.672.128 2.328.384.656.24 1.192.576 1.608 1.008.432.416.752.912.96 1.488.208.576.312 1.184.312 1.824 0 .176-.016.336-.048.48-.016.128-.04.256-.072.384h1.272v1.992h-2.472c-.464.4-1.016.792-1.656 1.176-.624.384-1.256.752-1.896 1.104h6.024v2.016H4.848c-.128.24-.192.528-.192.864 0 .624.216 1.136.648 1.536.448.384 1.2.576 2.256.576.912 0 1.68-.104 2.304-.312a13.867 13.867 0 0 0 1.632-.648l.84 2.328c-.56.32-1.248.584-2.064.792-.8.224-1.728.336-2.784.336-.976 0-1.808-.104-2.496-.312-.688-.192-1.256-.464-1.704-.816A3.415 3.415 0 0 1 2.28 14.96a4.622 4.622 0 0 1-.408-1.584 11.935 11.935 0 0 1-.024-.744c.016-.24.048-.496.096-.768H.84V9.848H3c.32-.304.696-.592 1.128-.864.448-.272.928-.56 1.44-.864l.936-.552H.84V5.576h7.944z" fill="#fff"/></svg>