<svg width="184" height="124" viewBox="0 0 184 124" fill="none" xmlns="http://www.w3.org/2000/svg">
<path d="M33.0376 43L26.2524 78.4992L62.8431 80.1346V50.4734L33.0376 43Z" fill="#FEDB35"/>
<path d="M129.625 65.3066V65.9541H127.826V67.2582H129.482V67.9058H127.826V70.0076H127.205V65.3066H129.625Z" fill="black"/>
<path d="M132.954 70.0998C132.626 70.1038 132.299 70.0416 131.995 69.917C131.701 69.7967 131.431 69.6253 131.197 69.4108C130.955 69.1868 130.764 68.9153 130.634 68.6135C130.504 68.3116 130.439 67.9861 130.443 67.6579C130.439 67.3206 130.507 66.9861 130.644 66.6772C130.772 66.3852 130.96 66.1225 131.194 65.905C131.427 65.69 131.698 65.5185 131.993 65.3988C132.301 65.2743 132.63 65.2121 132.962 65.216C133.294 65.2123 133.623 65.2744 133.93 65.3988C134.224 65.5185 134.494 65.69 134.728 65.905C134.969 66.129 135.16 66.4006 135.289 66.7025C135.418 67.0043 135.482 67.3298 135.478 67.6579H135.464C135.469 67.986 135.404 68.3113 135.275 68.6131C135.146 68.9149 134.954 69.1866 134.714 69.4108C134.48 69.6257 134.21 69.7972 133.915 69.917C133.611 70.042 133.284 70.1042 132.954 70.0998ZM132.938 65.8962C132.682 65.8925 132.427 65.9375 132.187 66.0288C131.964 66.1139 131.76 66.2408 131.586 66.4024C131.418 66.5637 131.282 66.7553 131.186 66.967C131.087 67.1865 131.036 67.4244 131.036 67.665C131.036 67.9056 131.087 68.1435 131.186 68.3629C131.282 68.5752 131.418 68.7671 131.586 68.9283C131.76 69.09 131.964 69.2169 132.187 69.3021C132.427 69.3933 132.682 69.4383 132.938 69.4346C133.195 69.4349 133.45 69.387 133.689 69.2932C133.912 69.2085 134.116 69.0816 134.29 68.9195C134.458 68.7585 134.594 68.5669 134.69 68.3549C134.79 68.1388 134.841 67.9037 134.84 67.6658V67.6588C134.84 67.4234 134.788 67.1908 134.69 66.9767C134.594 66.7648 134.458 66.5733 134.29 66.4122C134.116 66.2501 133.912 66.1232 133.689 66.0385C133.45 65.9444 133.195 65.8961 132.938 65.8962Z" fill="black"/>
<path d="M137.221 70.0097H136.6V65.3077H138.108C138.297 65.306 138.483 65.3399 138.658 65.4076C138.822 65.4708 138.973 65.5639 139.102 65.6824C139.229 65.7997 139.329 65.9432 139.395 66.1029C139.462 66.2778 139.496 66.464 139.494 66.6515C139.504 66.9674 139.4 67.2764 139.202 67.5235C139.007 67.7598 138.731 67.917 138.426 67.9653L139.635 70.007H138.877L137.701 67.99H137.221V70.0087V70.0097ZM137.221 65.9553V67.3397H138.176V67.3476C138.266 67.3506 138.356 67.3334 138.438 67.2975C138.52 67.2616 138.594 67.2078 138.652 67.1401C138.776 67.0038 138.844 66.8265 138.843 66.6426C138.846 66.4615 138.777 66.2865 138.652 66.155C138.591 66.0901 138.518 66.0387 138.436 66.0043C138.354 65.9698 138.266 65.9531 138.176 65.9553H137.221Z" fill="black"/>
<path d="M146.969 69.2187C146.789 69.5042 146.528 69.7297 146.218 69.8664C145.85 70.0328 145.448 70.1148 145.043 70.1067C144.717 70.1077 144.395 70.0477 144.092 69.9299C143.799 69.818 143.533 69.6486 143.308 69.4317C143.071 69.202 142.884 68.9269 142.758 68.6232C142.632 68.3194 142.57 67.9934 142.573 67.6647C142.57 67.3361 142.632 67.01 142.758 66.7063C142.884 66.4026 143.071 66.1275 143.308 65.8978C143.533 65.6814 143.799 65.5122 144.091 65.4004C144.397 65.282 144.722 65.2221 145.05 65.2237C145.464 65.2209 145.872 65.3148 146.242 65.4976C146.398 65.5711 146.541 65.6663 146.668 65.7802C146.777 65.8765 146.87 65.9885 146.944 66.1124L146.753 66.6858C146.67 66.5713 146.571 66.468 146.461 66.3783C146.34 66.2783 146.208 66.1921 146.069 66.1212C145.924 66.0439 145.77 65.9845 145.61 65.9445C145.444 65.9021 145.273 65.8804 145.101 65.8801C144.837 65.8766 144.575 65.9185 144.325 66.0037C144.103 66.0781 143.898 66.1986 143.725 66.3571C143.558 66.5139 143.428 66.7035 143.34 66.9138C143.247 67.1489 143.201 67.4004 143.207 67.6532C143.205 67.9093 143.254 68.1631 143.349 68.4007C143.435 68.6137 143.569 68.8042 143.741 68.9572C143.916 69.112 144.12 69.2307 144.342 69.3062C144.591 69.392 144.854 69.4342 145.118 69.4308C145.473 69.4388 145.825 69.3593 146.142 69.1994C146.41 69.071 146.641 68.88 146.818 68.6428L147.003 69.2072L146.969 69.2187Z" fill="black"/>
<path d="M148.717 70.0097H148.096V65.3077H149.604C149.793 65.306 149.979 65.3399 150.154 65.4076C150.319 65.4708 150.469 65.5639 150.598 65.6824C150.725 65.7997 150.825 65.9432 150.891 66.1029C150.958 66.2778 150.992 66.464 150.99 66.6515C151 66.9674 150.896 67.2764 150.699 67.5235C150.503 67.7598 150.227 67.917 149.923 67.9653L151.132 70.007H150.373L149.197 67.99H148.717V70.0087V70.0097ZM148.717 65.9553V67.3397H149.672V67.3476C149.762 67.3506 149.852 67.3334 149.934 67.2975C150.016 67.2616 150.09 67.2078 150.149 67.1401C150.273 67.0038 150.341 66.8265 150.34 66.6426C150.342 66.4615 150.273 66.2865 150.149 66.155C150.088 66.0901 150.014 66.0387 149.932 66.0043C149.85 65.9698 149.762 65.9531 149.672 65.9553H148.717Z" fill="black"/>
<path d="M154.879 65.3076V65.9552H152.838V67.2592H154.67V67.9068H152.838V69.3602H154.879V70.0077H152.218V65.3076H154.879Z" fill="black"/>
<path d="M156.248 70.0086H155.58L157.524 65.3076H158.208L160.151 70.0069H159.484L159.041 68.9123H156.698L156.248 70.0086ZM157.865 66.0966L156.965 68.2646H158.767L157.865 66.0966Z" fill="black"/>
<path d="M163.954 65.3076V65.9552H162.357V70.0086H161.736V65.9552H160.118V65.3076H163.954Z" fill="black"/>
<path d="M167.042 70.0998C166.714 70.1038 166.387 70.0416 166.084 69.917C165.789 69.7971 165.519 69.6257 165.285 69.4108C165.044 69.1872 164.852 68.9157 164.722 68.6138C164.592 68.3118 164.528 67.9862 164.531 67.6579C164.528 67.3206 164.596 66.9864 164.732 66.6772C164.86 66.3852 165.048 66.1224 165.282 65.905C165.516 65.6896 165.786 65.5181 166.081 65.3988C166.389 65.2742 166.718 65.2121 167.051 65.216C167.382 65.2123 167.711 65.2745 168.018 65.3988C168.312 65.5182 168.584 65.6897 168.816 65.905C169.051 66.1225 169.238 66.3852 169.367 66.6772C169.503 66.9861 169.572 67.3206 169.567 67.6579H169.553C169.557 67.986 169.492 68.3113 169.363 68.6131C169.234 68.915 169.043 69.1866 168.803 69.4108C168.568 69.6255 168.298 69.7969 168.004 69.917C167.699 70.0418 167.373 70.104 167.042 70.0998ZM167.026 65.8962C166.77 65.8926 166.515 65.9375 166.275 66.0288C166.054 66.1112 165.852 66.2367 165.679 66.398C165.507 66.5593 165.369 66.753 165.273 66.968C165.174 67.1874 165.124 67.4253 165.124 67.6658C165.124 67.9065 165.174 68.1443 165.273 68.3638C165.37 68.5759 165.506 68.7678 165.674 68.9292C165.849 69.091 166.053 69.2178 166.275 69.303C166.515 69.3942 166.77 69.4392 167.026 69.4355C167.283 69.4358 167.537 69.3879 167.777 69.2941C167.998 69.2115 168.2 69.086 168.372 68.9247C168.543 68.7635 168.682 68.5698 168.778 68.355C168.877 68.1387 168.928 67.9036 168.927 67.6658V67.6588C168.927 67.4234 168.876 67.1909 168.778 66.9767C168.682 66.7621 168.543 66.5685 168.372 66.4075C168.2 66.2464 167.998 66.121 167.777 66.0385C167.537 65.9444 167.283 65.8961 167.026 65.8962Z" fill="black"/>
<path d="M171.308 70.0096H170.688V65.3077H172.195C172.383 65.3058 172.57 65.3397 172.746 65.4075C172.909 65.4707 173.06 65.5639 173.189 65.6823C173.317 65.7994 173.416 65.943 173.482 66.1028C173.55 66.2777 173.584 66.4638 173.582 66.6514C173.591 66.9673 173.488 67.2762 173.29 67.5234C173.094 67.76 172.818 67.9171 172.514 67.9652L173.723 70.0068H172.965L171.788 67.9899H171.308V70.0087V70.0096ZM171.308 65.9552V67.3397H172.264V67.3476C172.354 67.3506 172.443 67.3334 172.525 67.2975C172.608 67.2616 172.681 67.2077 172.739 67.14C172.864 67.004 172.932 66.8264 172.931 66.6425C172.933 66.4613 172.864 66.2863 172.739 66.1549C172.679 66.0899 172.605 66.0385 172.523 66.0041C172.441 65.9697 172.353 65.953 172.264 65.9552H171.308Z" fill="black"/>
<path d="M176.795 67.7492C176.895 67.8376 176.987 67.9259 177.071 68.0063C177.152 68.0866 177.225 68.1755 177.287 68.2714C177.348 68.3643 177.395 68.4647 177.429 68.57C177.463 68.6847 177.481 68.8038 177.479 68.9234C177.485 69.0926 177.454 69.2608 177.386 69.416C177.318 69.5712 177.216 69.7093 177.087 69.8201C176.793 70.057 176.423 70.1782 176.045 70.1602C175.864 70.1613 175.685 70.136 175.512 70.0852C175.354 70.0406 175.202 69.9787 175.059 69.9005C174.937 69.8334 174.824 69.7495 174.725 69.6514C174.645 69.5739 174.578 69.4841 174.526 69.3854L174.709 68.7873C174.856 68.9972 175.051 69.1705 175.277 69.2936C175.515 69.4283 175.786 69.4972 176.061 69.4932C176.265 69.5103 176.469 69.4542 176.636 69.3351C176.697 69.287 176.744 69.2262 176.778 69.157C176.811 69.0879 176.828 69.0123 176.828 68.9358C176.831 68.799 176.784 68.666 176.694 68.562C176.596 68.4467 176.487 68.341 176.37 68.2467C176.192 68.1132 176.051 67.9975 175.935 67.9065C175.819 67.8155 175.719 67.7298 175.635 67.6653C175.551 67.6008 175.476 67.5407 175.41 67.4886C175.345 67.4377 175.283 67.3822 175.226 67.3225C175.093 67.1944 174.974 67.0522 174.871 66.8984C174.764 66.7365 174.708 66.5451 174.713 66.3506C174.708 66.1898 174.742 66.0301 174.81 65.8842C174.876 65.7535 174.969 65.6389 175.085 65.5485C175.207 65.4549 175.346 65.3843 175.494 65.34C175.658 65.2893 175.83 65.2643 176.002 65.2658C176.273 65.2618 176.54 65.3275 176.778 65.4566C176.976 65.5584 177.146 65.7048 177.277 65.8842L177.135 66.4735C177.002 66.3129 176.839 66.1792 176.656 66.0794C176.459 65.971 176.236 65.9139 176.011 65.9133C175.847 65.9074 175.683 65.9417 175.535 66.0132C175.477 66.0421 175.43 66.087 175.397 66.1425C175.364 66.198 175.349 66.2617 175.351 66.3259C175.352 66.3895 175.367 66.4522 175.394 66.5096C175.421 66.567 175.461 66.6177 175.511 66.6581C175.609 66.7515 175.712 66.84 175.819 66.9232C176.077 67.114 176.277 67.2633 176.428 67.3711C176.579 67.4789 176.711 67.5787 176.82 67.6706L176.795 67.7492Z" fill="black"/>
<path d="M132.152 57.2812L132.82 61.9823H132.199L131.649 58.4024L130.226 61.9823H129.604L128.143 58.4024L127.639 61.9823H126.99L127.665 57.2812H128.348L129.901 61.0599L131.46 57.2812H132.152Z" fill="black"/>
<path d="M136.751 57.2812V57.9288H134.71V59.2328H136.541V59.8804H134.71V61.3338H136.751V61.9814H134.089V57.2812H136.751Z" fill="black"/>
<path d="M139.579 61.9842H138.01V57.2832H139.579L139.57 57.2912C139.938 57.2863 140.303 57.3393 140.654 57.4484C140.967 57.5434 141.258 57.6974 141.513 57.9016C141.756 58.1019 141.95 58.3548 142.08 58.6411C142.218 58.9551 142.286 59.295 142.28 59.6376C142.287 59.9825 142.219 60.3245 142.08 60.6404C141.953 60.9237 141.761 61.1738 141.521 61.3711C141.267 61.5766 140.976 61.7316 140.663 61.8278C140.313 61.9366 139.946 61.9894 139.579 61.9842ZM138.619 57.9396V61.3472H139.803L139.794 61.364H139.806C140.059 61.3688 140.31 61.3241 140.545 61.2323C140.76 61.1457 140.958 61.0222 141.129 60.8674C141.295 60.7168 141.425 60.5328 141.513 60.3277C141.607 60.1158 141.656 59.8868 141.655 59.6553C141.658 59.424 141.613 59.1946 141.521 58.9821C141.434 58.7774 141.303 58.5937 141.138 58.4432C140.967 58.2859 140.77 58.1603 140.554 58.0721C140.315 57.9794 140.06 57.9344 139.803 57.9396H138.619Z" fill="black"/>
<path d="M143.399 61.9842H144.02V57.2832H143.399V61.9842Z" fill="black"/>
<path d="M145.61 61.9823H144.943L146.887 57.2812H147.57L149.514 61.9804H148.848L148.403 60.8858H146.061L145.61 61.9823ZM147.228 58.0702L146.328 60.2383H148.129L147.228 58.0702Z" fill="black"/>
<path d="M22.2873 55.4941L24.3582 70.2482H21.1729L19.9892 61.8296L16.7062 70.2518H13.8535L10.6211 61.8296L9.35843 70.2482H6L8.04523 55.4941H11.2777L15.1916 65.0985L19.1054 55.4941H22.2873Z" fill="black"/>
<path d="M40.5722 68.2399C40.0312 69.0423 39.2681 69.6711 38.3752 70.0502C37.2305 70.5522 35.9877 70.7936 34.7374 70.757C33.7069 70.7528 32.6865 70.5543 31.7302 70.1721C30.7875 69.8084 29.9221 69.271 29.1793 68.5881C28.4388 67.8968 27.8387 67.0701 27.4117 66.1532C26.952 65.1694 26.7192 64.0956 26.7304 63.0106C26.7192 61.9256 26.9521 60.8518 27.4117 59.868C27.8468 58.941 28.4551 58.1047 29.2041 57.404C29.9472 56.7213 30.8126 56.184 31.7551 55.82C32.7112 55.4399 33.7309 55.2434 34.7604 55.2412C35.4054 55.2419 36.0486 55.3095 36.6796 55.4427C37.2458 55.5546 37.7968 55.7325 38.3211 55.9728C38.7801 56.1902 39.2122 56.46 39.6086 56.7768C39.9632 57.052 40.2701 57.3833 40.5172 57.7574L39.5075 60.5209C39.0252 59.9695 38.4317 59.5251 37.7657 59.2169C36.9186 58.8 35.9828 58.593 35.0381 58.6135C34.3612 58.6058 33.6875 58.7077 33.0435 58.9157C32.4621 59.1079 31.9224 59.4076 31.4526 59.7991C30.9966 60.174 30.6307 60.6457 30.3816 61.1797C30.1326 61.7137 30.0068 62.2964 30.0133 62.8851C30.0057 63.4749 30.1311 64.0589 30.3801 64.5941C30.6292 65.1293 30.9957 65.6019 31.4526 65.9773C31.9224 66.3688 32.4621 66.6686 33.0435 66.8608C33.6875 67.0687 34.3612 67.1708 35.0381 67.163C35.9999 67.1918 36.954 66.9846 37.8163 66.5596C38.4805 66.2359 39.0663 65.7727 39.5332 65.2016L40.5722 68.0641V68.2399Z" fill="black"/>
<path d="M44.1581 66.8322C44.3654 66.6252 44.6131 66.4626 44.886 66.3545C45.1589 66.2465 45.4511 66.1953 45.7446 66.2041C46.0382 66.1958 46.3304 66.2472 46.6032 66.3553C46.8762 66.4634 47.124 66.6257 47.3317 66.8325C47.5393 67.0393 47.7025 67.2861 47.811 67.5578C47.9195 67.8295 47.9712 68.1204 47.9629 68.4128C47.9712 68.7051 47.9195 68.996 47.811 69.2677C47.7025 69.5394 47.5393 69.7862 47.3317 69.9931C47.124 70.1998 46.8762 70.3622 46.6032 70.4702C46.3304 70.5783 46.0382 70.6298 45.7446 70.6215C45.4511 70.6296 45.1589 70.5781 44.8861 70.47C44.6133 70.3619 44.3654 70.1995 44.1578 69.9927C43.9502 69.786 43.7871 69.5392 43.6785 69.2676C43.5699 68.9959 43.5181 68.7051 43.5264 68.4128C43.5176 68.1203 43.569 67.8291 43.6777 67.5573C43.7863 67.2855 43.9499 67.0387 44.1581 66.8322Z" fill="black"/>
<path d="M58.4437 69.1206C58.1096 69.5752 57.667 69.9397 57.156 70.1808C56.5498 70.4718 55.8838 70.618 55.211 70.6075C54.6242 70.6553 54.0341 70.5764 53.4808 70.3761C52.9275 70.176 52.4242 69.8592 52.0052 69.4475C51.2476 68.5313 50.8671 67.3632 50.9404 66.1786V60.701H48.7222V59.6673L53.1915 54.0352H54.1764V57.304H58.2926V60.6983H54.1507V65.4754C54.122 65.7192 54.1504 65.9665 54.2336 66.1976C54.3169 66.4288 54.4528 66.6376 54.6308 66.8076C54.9557 67.058 55.3564 67.1911 55.7673 67.1849C56.1502 67.1956 56.5303 67.1182 56.8783 66.9587C57.2198 66.7772 57.5216 66.5293 57.7655 66.2299L58.4468 69.0959L58.4437 69.1206Z" fill="black"/>
<path d="M67.4101 70.629C66.4994 70.6324 65.5976 70.4521 64.759 70.0989C63.945 69.7587 63.2006 69.273 62.5617 68.6659C61.9229 68.0484 61.4079 67.3153 61.0446 66.5059C60.6666 65.6506 60.4768 64.7244 60.4894 63.79C60.4768 62.8558 60.6661 61.9299 61.0446 61.0751C61.4074 60.2647 61.9213 59.5307 62.5602 58.9123C63.199 58.3059 63.9435 57.8209 64.7569 57.4811C65.5971 57.1325 66.4984 56.9531 67.4086 56.9531C68.3182 56.9531 69.2195 57.1325 70.0597 57.4811C70.8737 57.8206 71.6181 58.3057 72.2565 58.9123C72.8953 59.5307 73.4098 60.2647 73.7721 61.0751C74.1516 61.9296 74.3424 62.8556 74.3309 63.79V63.8156C74.3461 64.7501 74.1563 65.6765 73.7757 66.5306C73.4134 67.3336 72.899 68.0593 72.2601 68.6677C71.6218 69.275 70.8773 69.7607 70.0633 70.1007C69.2237 70.4534 68.3214 70.6332 67.4101 70.629ZM67.4582 60.3966C66.9668 60.3893 66.4785 60.4744 66.019 60.6475C65.5903 60.8077 65.1961 61.0475 64.8573 61.3542C64.528 61.6522 64.2692 62.019 64.0998 62.4286C63.9152 62.8679 63.8211 63.3395 63.8227 63.8156V63.866C63.8217 64.3408 63.9158 64.8112 64.0998 65.2495C64.2687 65.6611 64.5274 66.0302 64.8573 66.33C65.1961 66.637 65.5898 66.877 66.019 67.0368C66.4785 67.2101 66.9668 67.2953 67.4582 67.2877C68.3998 67.3067 69.3131 66.9648 70.009 66.3327C70.3383 66.027 70.6044 65.6598 70.7916 65.2522C70.996 64.8195 71.0995 64.3467 71.0953 63.8687C71.1 63.3826 70.996 62.9016 70.7916 62.4604C70.6055 62.0444 70.3399 61.6686 70.009 61.3542C69.6759 61.0526 69.2906 60.8132 68.8724 60.6475C68.4218 60.473 67.9413 60.3878 67.4582 60.3966Z" fill="black"/>
<path d="M83.0628 70.629C82.1965 70.628 81.338 70.4573 80.5376 70.1263C79.743 69.8034 79.0215 69.3245 78.4172 68.718C77.8024 68.0963 77.3141 67.3619 76.9795 66.5553C76.6167 65.6786 76.4358 64.738 76.4473 63.7899L76.4719 63.8659C76.4614 62.9179 76.6423 61.9774 77.0046 61.1006C77.3392 60.2939 77.8275 59.5593 78.4418 58.937C79.0419 58.3363 79.7535 57.8582 80.5376 57.5296C81.3208 57.1993 82.1625 57.0284 83.0131 57.0269C83.8637 57.0007 84.7096 57.164 85.4891 57.5049C86.0678 57.7407 86.5482 58.1669 86.8504 58.7125V51.998H90.0588V70.3021H86.9534V68.9451C86.6481 69.4982 86.1561 69.9258 85.5638 70.152C84.7754 70.4916 83.9217 70.6544 83.0628 70.629ZM83.4413 60.4469C82.9253 60.4352 82.4119 60.5204 81.9272 60.6978C81.4902 60.8563 81.0876 61.0962 80.741 61.4046C80.4106 61.7044 80.1518 62.0738 79.983 62.4859C79.7995 62.9239 79.7048 63.3939 79.7054 63.8686V63.8942C79.7048 64.3689 79.7989 64.839 79.983 65.2769C80.1518 65.6889 80.4106 66.0583 80.741 66.3582C81.0882 66.6663 81.4907 66.9061 81.9272 67.065C82.4119 67.2421 82.9253 67.3271 83.4413 67.316C84.1878 67.3265 84.925 67.1538 85.5884 66.8132C86.1337 66.571 86.5739 66.1418 86.8285 65.6037V62.1582C86.5733 61.62 86.1326 61.1909 85.5868 60.9487C84.9234 60.6087 84.1868 60.4364 83.4413 60.4469Z" fill="black"/>
<path d="M99.6264 70.6326C98.7602 70.6319 97.9017 70.4611 97.1013 70.1299C96.3072 69.8068 95.5857 69.3279 94.9808 68.7217C94.3655 68.099 93.8777 67.3636 93.5432 66.5562C93.185 65.6918 93.0047 64.7649 93.0115 63.8298C93.0036 62.8939 93.185 61.966 93.5432 61.1007C93.8777 60.2943 94.3655 59.5599 94.9798 58.938C95.5852 58.3313 96.3061 57.8524 97.1013 57.5297C97.9017 57.1985 98.7602 57.0278 99.6264 57.027C100.485 57.0016 101.339 57.1648 102.127 57.5049C102.719 57.7308 103.211 58.1585 103.516 58.7118V57.3539H106.621V70.3022H103.516V68.9443C103.211 69.4976 102.718 69.9254 102.127 70.152C101.339 70.4927 100.485 70.6568 99.6264 70.6326ZM99.9814 60.4496C99.4654 60.4381 98.952 60.5235 98.4674 60.7014C98.0309 60.86 97.6278 61.0998 97.2806 61.4082C96.9508 61.7081 96.6914 62.0775 96.5231 62.4896C96.3391 62.9275 96.2444 63.3975 96.245 63.8722V63.897C96.2444 64.372 96.3391 64.8423 96.5231 65.2805C96.6914 65.6924 96.9508 66.0618 97.2806 66.3619C97.6283 66.6698 98.0309 66.9097 98.4674 67.0687C98.952 67.2458 99.4654 67.331 99.9814 67.3196C100.728 67.3299 101.465 67.1569 102.127 66.816C102.674 66.5702 103.113 66.1376 103.365 65.5968V62.1511C103.109 61.6169 102.67 61.1909 102.127 60.9497C101.464 60.6086 100.726 60.4356 99.9798 60.446L99.9814 60.4496Z" fill="black"/>
<path d="M112.404 57.3037L115.812 65.3496L119.22 57.3037H122.786L115.004 75.6077H111.494L114.145 69.4472L108.943 57.3037H112.404Z" fill="black"/>
</svg>
