<svg width="184" height="124" viewBox="0 0 184 124" fill="none" xmlns="http://www.w3.org/2000/svg">
<path d="M60.117 70.2492C56.7419 68.3195 53.1316 67.0847 50.0704 66.39L47.4803 65.0779L56.1925 58.0544C57.4483 57.5913 58.6258 57.051 59.7245 56.5879C63.7276 54.7355 66.1606 54.3496 66.1606 54.3496C66.1606 54.3496 66.71 51.4939 64.0415 48.0979C62.4718 45.8597 60.3524 45.2422 60.3524 45.2422C60.3524 45.2422 56.899 50.4134 49.9921 53.5006C44.8902 55.8933 38.3756 55.4302 34.9222 54.6584C28.8785 53.2691 28.0151 54.5812 28.0151 54.5812C28.0151 54.5812 29.6634 54.8899 30.1343 54.9671C32.489 55.5845 31.8611 55.7389 39.239 58.1315C40.4164 58.5175 41.5152 58.8262 42.614 58.9805C40.6518 60.6014 38.6111 62.2993 37.5123 63.1484C36.6489 63.7659 37.3553 63.9973 37.5123 64.0745C38.4541 64.692 39.4745 65.2323 40.4164 65.6953C39.1605 65.7726 37.9832 65.8498 37.0413 66.0042C31.7041 66.9303 29.5849 68.0881 29.5849 68.0881C29.5849 68.0881 28.643 70.0947 30.3698 74.1853C31.4686 76.7324 33.5094 78.1216 33.5094 78.1216C33.5094 78.1216 37.8262 73.2592 46.8524 72.1786C52.6606 71.4839 59.646 72.7961 63.5705 74.7255C69.3001 77.5813 69.1433 76.5008 69.1433 76.5008C69.1433 76.5008 67.0239 74.2625 60.117 70.2492Z" fill="#E52A1D"/>
<path d="M82.2543 67.5746C82.2543 68.495 81.9262 69.2217 81.3169 69.8515C80.7075 70.4813 79.9576 70.8203 79.114 70.8203H75.9736L76.0205 54.5918H79.1609C80.0045 54.5918 80.7544 54.9309 81.3636 55.5607C81.9731 56.1904 82.3012 56.9655 82.3012 57.8375L82.2543 67.5746ZM79.9109 68.3981V57.014C79.9109 56.8202 79.817 56.6264 79.6765 56.4326C79.5358 56.2873 79.3483 56.1904 79.114 56.1904H78.3171V69.1731H79.114C79.3483 69.1731 79.5358 69.0764 79.6765 68.9311C79.817 68.8342 79.9109 68.6403 79.9109 68.3981Z" fill="#333333"/>
<path d="M90.1284 70.8203H87.7849V65.1524H86.1911V70.8203H83.8477V57.8375C83.8477 56.9171 84.1758 56.1904 84.785 55.5607C85.3945 54.9309 86.1444 54.5918 86.988 54.5918C87.8318 54.5918 88.5815 54.9309 89.191 55.5607C89.8002 56.1904 90.1284 56.9655 90.1284 57.8375V70.8203ZM87.7849 63.5539V57.0624C87.7849 56.8686 87.6911 56.6749 87.5505 56.4811C87.4098 56.3358 87.2224 56.2389 86.988 56.2389C86.7537 56.2389 86.5662 56.3358 86.4255 56.4811C86.285 56.6264 86.1911 56.8202 86.1911 57.014V63.5053L87.7849 63.5539Z" fill="#333333"/>
<path d="M97.3464 56.2393H95.378V70.8691H93.0343V56.2393H91.0659L91.1128 54.6406H97.3464V56.2393Z" fill="#333333"/>
<path d="M104.564 67.623C104.564 68.5436 104.236 69.3187 103.627 69.8999C103.018 70.5297 102.268 70.8203 101.377 70.8203C100.487 70.8203 99.7836 70.4813 99.1742 69.8515C98.565 69.2217 98.2837 68.4466 98.2837 67.5262V57.7891C98.2837 56.8686 98.6119 56.142 99.2211 55.5122C99.8305 54.8825 100.58 54.5918 101.471 54.5918C102.361 54.5918 103.064 54.9309 103.674 55.5607C104.283 56.1904 104.564 56.9655 104.564 57.886V67.623ZM102.221 68.4466V57.0624C102.221 56.8202 102.127 56.6264 101.987 56.4811C101.846 56.3358 101.658 56.2389 101.424 56.2389C101.19 56.2389 101.002 56.3358 100.862 56.4811C100.721 56.6264 100.627 56.8202 100.627 57.0624V68.4466C100.627 68.9795 100.908 69.2701 101.424 69.2701C101.94 69.2217 102.221 68.9795 102.221 68.4466Z" fill="#333333"/>
<path d="M117.923 67.6234C117.923 68.5438 117.595 69.2705 116.985 69.9003C116.376 70.5301 115.626 70.8691 114.782 70.8691H111.642L111.689 54.6406H114.829C115.673 54.6406 116.423 54.9797 117.032 55.6095C117.642 56.2393 117.969 57.0143 117.969 57.8863V60.3085C117.969 61.2773 117.595 62.1009 116.892 62.7306C117.595 63.4088 117.969 64.1839 117.923 65.1528V67.6234ZM115.579 61.132V57.0628C115.579 56.869 115.485 56.6752 115.345 56.4815C115.204 56.3361 115.017 56.2393 114.782 56.2393H113.986V61.9071H114.782C114.97 61.9071 115.157 61.8102 115.345 61.6649C115.485 61.568 115.579 61.3742 115.579 61.132ZM115.579 68.4471V64.3777C115.579 64.1839 115.485 63.9902 115.345 63.7963C115.204 63.651 115.017 63.5543 114.782 63.5543H113.986V69.2705H114.782C115.017 69.2705 115.204 69.1736 115.345 69.0283C115.485 68.883 115.579 68.6891 115.579 68.4471Z" fill="#333333"/>
<path d="M125.75 70.9173H123.406V65.2494H121.813V70.9173H119.469V57.9346C119.469 57.0142 119.797 56.2875 120.407 55.6577C121.016 55.028 121.766 54.7373 122.657 54.7373C123.5 54.7373 124.25 55.0764 124.859 55.7062C125.469 56.3359 125.797 57.111 125.797 57.983L125.75 70.9173ZM123.453 63.6025V57.111C123.453 56.9173 123.36 56.7235 123.219 56.5297C123.078 56.3844 122.891 56.2875 122.657 56.2875C122.422 56.2875 122.235 56.3844 122.094 56.5297C121.953 56.675 121.86 56.8688 121.86 57.111V63.6025H123.453Z" fill="#333333"/>
<path d="M133.015 56.2871H131.046V70.917H128.703V56.2871H126.734V54.6885H133.015V56.2871Z" fill="#333333"/>
<path d="M140.233 67.672C140.233 68.5924 139.905 69.3675 139.296 69.9487C138.687 70.5785 137.937 70.8691 137.046 70.8691C136.155 70.8691 135.452 70.5301 134.843 69.9003C134.234 69.2705 133.953 68.4954 133.953 67.575V57.8379C133.953 56.9174 134.281 56.1908 134.89 55.561C135.499 54.9313 136.249 54.6406 137.14 54.6406C138.03 54.6406 138.733 54.9313 139.343 55.6095C139.952 56.2393 140.233 57.0143 140.233 57.9348V67.672ZM137.89 68.4954V57.1112C137.89 56.869 137.796 56.6752 137.655 56.5299C137.515 56.3846 137.327 56.2877 137.093 56.2877C136.859 56.2877 136.671 56.3846 136.53 56.5299C136.39 56.6752 136.296 56.869 136.296 57.1112V68.4954C136.296 69.0283 136.577 69.3189 137.093 69.3189C137.608 69.3189 137.89 69.0283 137.89 68.4954Z" fill="#333333"/>
<path d="M148.06 70.9173H145.717V57.111C145.717 56.8688 145.623 56.675 145.483 56.5297C145.342 56.3844 145.154 56.2875 144.92 56.2875C144.686 56.2875 144.498 56.3844 144.358 56.5297C144.217 56.675 144.123 56.8688 144.123 57.111V70.9173H141.78V57.9346C141.78 57.0142 142.108 56.2875 142.717 55.6577C143.327 55.028 144.077 54.7373 144.967 54.7373C145.858 54.7373 146.561 55.0764 147.17 55.7062C147.779 56.3359 148.06 57.111 148.06 58.0315V70.9173Z" fill="#333333"/>
<path d="M155.935 67.7197C155.935 68.6401 155.607 69.3668 154.998 69.9966C154.388 70.6264 153.638 70.917 152.748 70.917C151.857 70.917 151.154 70.5778 150.545 69.9481C149.936 69.3183 149.654 68.5432 149.654 67.6228V57.8857C149.654 56.9653 149.982 56.2387 150.592 55.6089C151.201 54.9791 151.951 54.6885 152.842 54.6885C153.732 54.6885 154.435 55.0276 155.045 55.6573C155.654 56.2871 155.935 57.0622 155.935 57.9826V67.7197ZM153.592 68.5432V57.1591C153.592 56.9169 153.498 56.7231 153.357 56.5778C153.217 56.4324 153.029 56.3355 152.795 56.3355C152.56 56.3355 152.373 56.4324 152.232 56.5778C152.092 56.7231 151.998 56.9169 151.998 57.1591V68.5432C151.998 69.0762 152.279 69.3668 152.795 69.3668C153.31 69.3183 153.592 69.0762 153.592 68.5432Z" fill="#333333"/>
</svg>
