<svg width="184" height="124" viewBox="0 0 184 124" fill="none" xmlns="http://www.w3.org/2000/svg">
<path fill-rule="evenodd" clip-rule="evenodd" d="M68.3941 55.9373V46.411C68.3941 45.9346 68.7698 45.5449 69.2288 45.5449H85.9229C87.3001 45.5449 88.427 46.7141 88.427 48.143V75.8562C88.427 77.2851 87.3001 78.4543 85.9229 78.4543H69.2288C68.7698 78.4543 68.3941 78.0645 68.3941 77.5882V68.0618C68.3941 67.5855 68.7698 67.1958 69.2288 67.1958H78.4106C78.8696 67.1958 79.2453 66.8061 79.2453 66.3298V57.6694C79.2453 57.1931 78.8696 56.8034 78.4106 56.8034H69.2288C68.7698 56.8034 68.3941 56.4137 68.3941 55.9373ZM47.5284 57.6707V66.331C47.5284 66.8074 47.904 67.1971 48.3631 67.1971H57.5448C58.0039 67.1971 58.3795 67.5868 58.3795 68.0631V77.5895C58.3795 78.0658 58.0039 78.4555 57.5448 78.4555H40.8508C39.4735 78.4555 38.3467 77.2864 38.3467 75.8574V48.1443C38.3467 46.7153 39.4735 45.5462 40.8508 45.5462H57.5448C58.0039 45.5462 58.3795 45.9359 58.3795 46.4122V55.9386C58.3795 56.4149 58.0039 56.8047 57.5448 56.8047H48.3631C47.904 56.8047 47.5284 57.1944 47.5284 57.6707Z" fill="#2E98FA"/>
<path d="M107.397 51.101C107.397 52.0453 107.25 52.869 106.956 53.5721C106.663 54.2646 106.248 54.8417 105.713 55.3034C105.178 55.7546 104.538 56.0957 103.793 56.3265C103.048 56.5469 102.229 56.657 101.337 56.657C100.897 56.657 100.409 56.636 99.8737 56.5941C99.3491 56.5626 98.8716 56.4944 98.4414 56.3895V45.8125C98.8716 45.7076 99.3491 45.6394 99.8737 45.6079C100.409 45.5659 100.897 45.5449 101.337 45.5449C102.229 45.5449 103.048 45.6603 103.793 45.8912C104.538 46.1115 105.178 46.4526 105.713 46.9143C106.248 47.3655 106.663 47.9426 106.956 48.6456C107.25 49.3381 107.397 50.1566 107.397 51.101ZM101.463 55.3192C102.911 55.3192 103.992 54.9519 104.706 54.2174C105.419 53.4724 105.776 52.4336 105.776 51.101C105.776 49.7684 105.419 48.7348 104.706 48.0003C103.992 47.2553 102.911 46.8828 101.463 46.8828C101.033 46.8828 100.697 46.888 100.456 46.8985C100.225 46.909 100.063 46.9195 99.9681 46.93V55.272C100.063 55.2824 100.225 55.2929 100.456 55.3034C100.697 55.3139 101.033 55.3192 101.463 55.3192Z" fill="#2E98FA"/>
<path d="M116.509 52.3604C116.509 53.0109 116.415 53.5985 116.226 54.1232C116.037 54.6478 115.769 55.099 115.423 55.4768C115.087 55.8545 114.683 56.1483 114.211 56.3582C113.739 56.5576 113.225 56.6573 112.669 56.6573C112.112 56.6573 111.598 56.5576 111.126 56.3582C110.654 56.1483 110.245 55.8545 109.898 55.4768C109.563 55.099 109.3 54.6478 109.111 54.1232C108.923 53.5985 108.828 53.0109 108.828 52.3604C108.828 51.7203 108.923 51.1379 109.111 50.6133C109.3 50.0781 109.563 49.6217 109.898 49.2439C110.245 48.8662 110.654 48.5776 111.126 48.3783C111.598 48.1684 112.112 48.0635 112.669 48.0635C113.225 48.0635 113.739 48.1684 114.211 48.3783C114.683 48.5776 115.087 48.8662 115.423 49.2439C115.769 49.6217 116.037 50.0781 116.226 50.6133C116.415 51.1379 116.509 51.7203 116.509 52.3604ZM114.982 52.3604C114.982 51.437 114.772 50.7077 114.353 50.1726C113.943 49.6269 113.382 49.3541 112.669 49.3541C111.955 49.3541 111.388 49.6269 110.969 50.1726C110.559 50.7077 110.355 51.437 110.355 52.3604C110.355 53.2838 110.559 54.0183 110.969 54.5639C111.388 55.099 111.955 55.3666 112.669 55.3666C113.382 55.3666 113.943 55.099 114.353 54.5639C114.772 54.0183 114.982 53.2838 114.982 52.3604Z" fill="#2E98FA"/>
<path d="M121.954 56.6571C121.292 56.6571 120.71 56.5522 120.206 56.3424C119.713 56.1325 119.294 55.8387 118.947 55.4609C118.611 55.0832 118.36 54.6372 118.192 54.1231C118.024 53.5984 117.94 53.0213 117.94 52.3917C117.94 51.7622 118.029 51.185 118.208 50.6604C118.396 50.1357 118.659 49.6845 118.994 49.3068C119.33 48.9185 119.739 48.6195 120.222 48.4096C120.715 48.1893 121.261 48.0791 121.859 48.0791C122.226 48.0791 122.594 48.1106 122.961 48.1735C123.328 48.2365 123.68 48.3362 124.015 48.4726L123.685 49.716C123.465 49.6111 123.207 49.5271 122.914 49.4642C122.63 49.4012 122.326 49.3697 122.001 49.3697C121.182 49.3697 120.553 49.6268 120.112 50.141C119.682 50.6551 119.467 51.4054 119.467 52.3917C119.467 52.8324 119.514 53.2364 119.608 53.6037C119.713 53.9709 119.871 54.2857 120.081 54.548C120.301 54.8104 120.579 55.015 120.915 55.1619C121.25 55.2983 121.66 55.3665 122.142 55.3665C122.531 55.3665 122.882 55.3298 123.197 55.2563C123.512 55.1829 123.758 55.1042 123.937 55.0202L124.141 56.2479C124.057 56.3004 123.937 56.3528 123.779 56.4053C123.622 56.4473 123.444 56.484 123.244 56.5155C123.045 56.5575 122.83 56.5889 122.599 56.6099C122.378 56.6414 122.163 56.6571 121.954 56.6571Z" fill="#2E98FA"/>
<path d="M127.036 48.2997H130.137V49.5274H127.036V53.3049C127.036 53.7141 127.068 54.0551 127.13 54.3279C127.193 54.5903 127.288 54.8001 127.414 54.9575C127.54 55.1044 127.697 55.2093 127.886 55.2723C128.075 55.3353 128.295 55.3667 128.547 55.3667C128.988 55.3667 129.339 55.3195 129.602 55.2251C129.874 55.1202 130.063 55.0467 130.168 55.0047L130.452 56.2167C130.305 56.2901 130.048 56.3793 129.68 56.4842C129.313 56.5997 128.893 56.6574 128.421 56.6574C127.865 56.6574 127.403 56.5892 127.036 56.4528C126.679 56.3059 126.391 56.0908 126.17 55.8074C125.95 55.5241 125.793 55.1779 125.698 54.7686C125.614 54.3489 125.572 53.8662 125.572 53.3206V46.0175L127.036 45.7656V48.2997Z" fill="#2E98FA"/>
<path d="M139.563 52.3604C139.563 53.0109 139.469 53.5985 139.28 54.1232C139.091 54.6478 138.823 55.099 138.477 55.4768C138.141 55.8545 137.737 56.1483 137.265 56.3582C136.793 56.5576 136.279 56.6573 135.723 56.6573C135.167 56.6573 134.652 56.5576 134.18 56.3582C133.708 56.1483 133.299 55.8545 132.953 55.4768C132.617 55.099 132.355 54.6478 132.166 54.1232C131.977 53.5985 131.882 53.0109 131.882 52.3604C131.882 51.7203 131.977 51.1379 132.166 50.6133C132.355 50.0781 132.617 49.6217 132.953 49.2439C133.299 48.8662 133.708 48.5776 134.18 48.3783C134.652 48.1684 135.167 48.0635 135.723 48.0635C136.279 48.0635 136.793 48.1684 137.265 48.3783C137.737 48.5776 138.141 48.8662 138.477 49.2439C138.823 49.6217 139.091 50.0781 139.28 50.6133C139.469 51.1379 139.563 51.7203 139.563 52.3604ZM138.036 52.3604C138.036 51.437 137.827 50.7077 137.407 50.1726C136.998 49.6269 136.436 49.3541 135.723 49.3541C135.009 49.3541 134.443 49.6269 134.023 50.1726C133.614 50.7077 133.409 51.437 133.409 52.3604C133.409 53.2838 133.614 54.0183 134.023 54.5639C134.443 55.099 135.009 55.3666 135.723 55.3666C136.436 55.3666 136.998 55.099 137.407 54.5639C137.827 54.0183 138.036 53.2838 138.036 52.3604Z" fill="#2E98FA"/>
<path d="M144.016 48.2998C144.142 48.2998 144.284 48.3103 144.441 48.3313C144.609 48.3418 144.772 48.3628 144.929 48.3942C145.086 48.4152 145.228 48.4415 145.354 48.4729C145.49 48.4939 145.59 48.5149 145.653 48.5359L145.401 49.8108C145.286 49.7688 145.092 49.7216 144.819 49.6691C144.557 49.6062 144.216 49.5747 143.796 49.5747C143.523 49.5747 143.25 49.6062 142.977 49.6691C142.715 49.7216 142.542 49.7583 142.458 49.7793V56.6575H140.994V48.8192C141.34 48.6933 141.771 48.5779 142.285 48.4729C142.799 48.3575 143.376 48.2998 144.016 48.2998Z" fill="#2E98FA"/>
<path d="M98.4414 72.6294C98.4414 71.6955 98.5778 70.8718 98.8506 70.1582C99.1339 69.4447 99.5117 68.8519 99.9839 68.3797C100.467 67.897 101.023 67.535 101.652 67.2937C102.292 67.0523 102.969 66.9316 103.683 66.9316C104.386 66.9316 105.047 67.0523 105.666 67.2937C106.295 67.535 106.846 67.897 107.319 68.3797C107.791 68.8519 108.163 69.4447 108.436 70.1582C108.719 70.8718 108.861 71.6955 108.861 72.6294C108.861 73.5632 108.719 74.3869 108.436 75.1005C108.163 75.814 107.791 76.4121 107.319 76.8948C106.846 77.3669 106.295 77.7237 105.666 77.9651C105.047 78.2064 104.386 78.3271 103.683 78.3271C102.969 78.3271 102.292 78.2064 101.652 77.9651C101.023 77.7237 100.467 77.3669 99.9839 76.8948C99.5117 76.4121 99.1339 75.814 98.8506 75.1005C98.5778 74.3869 98.4414 73.5632 98.4414 72.6294ZM100.047 72.6294C100.047 73.2904 100.131 73.8938 100.299 74.4394C100.467 74.9745 100.703 75.431 101.007 75.8087C101.322 76.1865 101.699 76.4803 102.14 76.6901C102.591 76.8895 103.095 76.9892 103.651 76.9892C104.207 76.9892 104.706 76.8895 105.146 76.6901C105.587 76.4803 105.96 76.1865 106.264 75.8087C106.579 75.431 106.82 74.9745 106.988 74.4394C107.156 73.8938 107.24 73.2904 107.24 72.6294C107.24 71.9683 107.156 71.3702 106.988 70.835C106.82 70.2894 106.579 69.8277 106.264 69.45C105.96 69.0722 105.587 68.7837 105.146 68.5843C104.706 68.3744 104.207 68.2695 103.651 68.2695C103.095 68.2695 102.591 68.3744 102.14 68.5843C101.699 68.7837 101.322 69.0722 101.007 69.45C100.703 69.8277 100.467 70.2894 100.299 70.835C100.131 71.3702 100.047 71.9683 100.047 72.6294Z" fill="#2E98FA"/>
<path d="M111.038 70.379C111.374 70.295 111.82 70.2058 112.376 70.1114C112.932 70.0169 113.572 69.9697 114.296 69.9697C114.947 69.9697 115.487 70.0642 115.917 70.253C116.348 70.4314 116.689 70.6885 116.94 71.0243C117.203 71.3496 117.386 71.743 117.491 72.2047C117.596 72.6664 117.649 73.1753 117.649 73.7315V78.3274H116.185V74.0463C116.185 73.5426 116.148 73.1124 116.075 72.7556C116.012 72.3989 115.902 72.1103 115.744 71.8899C115.587 71.6696 115.377 71.5122 115.115 71.4178C114.852 71.3128 114.527 71.2604 114.139 71.2604C113.981 71.2604 113.819 71.2656 113.651 71.2761C113.483 71.2866 113.32 71.3023 113.163 71.3233C113.016 71.3338 112.88 71.3496 112.754 71.3705C112.638 71.3915 112.554 71.4073 112.502 71.4178V78.3274H111.038V70.379Z" fill="#2E98FA"/>
<path d="M122.313 78.3273C121.41 78.3063 120.77 78.1122 120.392 77.745C120.015 77.3777 119.826 76.8058 119.826 76.0294V66.2079L121.289 65.9561V75.7933C121.289 76.0346 121.31 76.234 121.352 76.3914C121.394 76.5488 121.463 76.6747 121.557 76.7691C121.651 76.8635 121.777 76.937 121.935 76.9895C122.092 77.0314 122.286 77.0682 122.517 77.0996L122.313 78.3273Z" fill="#2E98FA"/>
<path d="M126.378 78.3275H124.915V70.1429H126.378V78.3275ZM125.639 68.6634C125.376 68.6634 125.151 68.5794 124.962 68.4116C124.784 68.2332 124.694 67.9971 124.694 67.7033C124.694 67.4095 124.784 67.1786 124.962 67.0107C125.151 66.8324 125.376 66.7432 125.639 66.7432C125.901 66.7432 126.121 66.8324 126.3 67.0107C126.489 67.1786 126.583 67.4095 126.583 67.7033C126.583 67.9971 126.489 68.2332 126.3 68.4116C126.121 68.5794 125.901 68.6634 125.639 68.6634Z" fill="#2E98FA"/>
<path d="M128.76 70.379C129.096 70.295 129.542 70.2058 130.098 70.1114C130.654 70.0169 131.294 69.9697 132.018 69.9697C132.669 69.9697 133.209 70.0642 133.64 70.253C134.07 70.4314 134.411 70.6885 134.663 71.0243C134.925 71.3496 135.109 71.743 135.213 72.2047C135.318 72.6664 135.371 73.1753 135.371 73.7315V78.3274H133.907V74.0463C133.907 73.5426 133.87 73.1124 133.797 72.7556C133.734 72.3989 133.624 72.1103 133.466 71.8899C133.309 71.6696 133.099 71.5122 132.837 71.4178C132.574 71.3128 132.249 71.2604 131.861 71.2604C131.704 71.2604 131.541 71.2656 131.373 71.2761C131.205 71.2866 131.042 71.3023 130.885 71.3233C130.738 71.3338 130.602 71.3496 130.476 71.3705C130.36 71.3915 130.276 71.4073 130.224 71.4178V78.3274H128.76V70.379Z" fill="#2E98FA"/>
<path d="M137.548 74.0617C137.548 73.3376 137.653 72.7081 137.863 72.1729C138.073 71.6273 138.351 71.1761 138.697 70.8193C139.043 70.4626 139.442 70.195 139.893 70.0166C140.344 69.8382 140.806 69.749 141.278 69.749C142.38 69.749 143.225 70.0953 143.812 70.7878C144.4 71.4699 144.694 72.5139 144.694 73.92C144.694 73.983 144.694 74.0669 144.694 74.1718C144.694 74.2663 144.688 74.3555 144.678 74.4394H139.075C139.138 75.2893 139.384 75.9347 139.814 76.3754C140.245 76.8161 140.916 77.0364 141.829 77.0364C142.343 77.0364 142.773 76.9945 143.12 76.9105C143.476 76.8161 143.744 76.7269 143.922 76.6429L144.127 77.8706C143.949 77.9651 143.634 78.0647 143.183 78.1697C142.742 78.2746 142.238 78.3271 141.672 78.3271C140.958 78.3271 140.339 78.2221 139.814 78.0123C139.3 77.7919 138.875 77.4929 138.539 77.1151C138.204 76.7374 137.952 76.2914 137.784 75.7773C137.627 75.2526 137.548 74.6807 137.548 74.0617ZM143.167 73.2589C143.177 72.5979 143.009 72.0575 142.663 71.6378C142.327 71.2076 141.86 70.9924 141.262 70.9924C140.927 70.9924 140.628 71.0607 140.365 71.1971C140.113 71.323 139.898 71.4909 139.72 71.7007C139.542 71.9106 139.4 72.1519 139.295 72.4247C139.201 72.6976 139.138 72.9756 139.106 73.2589H143.167Z" fill="#2E98FA"/>
</svg>
