<svg width="184" height="124" viewBox="0 0 184 124" fill="none" xmlns="http://www.w3.org/2000/svg">
<path d="M47.8823 63.6574H55.0298L51.442 54.4854L47.8823 63.6574Z" fill="#007D32"/>
<path d="M55.8867 65.8887H47.026L44.9548 71.1086C44.4914 72.2702 44.1965 73.6301 45.7412 74.7278H39.5134C41.2266 73.6017 41.8866 72.1001 42.5114 70.5066L49.0973 53.6922C49.2307 53.3594 49.687 52.0986 48.339 51.4683H53.7382L58.8778 64.3093V48.7627H30.4702V77.4264H58.8847V73.4176L55.8867 65.8887Z" fill="#129747"/>
<path d="M74.2328 58.0981H78.1014L76.1566 53.1332L74.2328 58.0981ZM77.4063 51.4971L81.7033 62.2416C81.991 62.9426 82.3421 63.6297 83.2197 64.0972H79.3862C80.2217 63.7217 80.0813 63.1055 79.9198 62.6949L78.5648 59.3093H73.7693L72.646 62.1353C72.3932 62.7657 72.2388 63.5022 73.0742 64.0972H69.7041C70.6308 63.488 70.9889 62.6736 71.3259 61.8095L74.8928 52.7011C74.9629 52.5241 75.2158 51.837 74.4854 51.4971H77.4063Z" fill="black"/>
<path d="M83.9922 64.0902C84.7927 63.5164 84.8137 62.886 84.8137 62.2912V53.2961C84.8137 52.7932 84.8137 52.0708 83.9922 51.4971H88.4156C89.3984 51.4971 92.8599 51.5112 92.8599 54.8259C92.8599 57.2199 90.8237 58.424 88.8298 58.424C88.3102 58.424 87.7556 58.3177 87.3131 58.1902C88.7386 58.1336 90.8098 57.4536 90.8098 55.1872C90.8098 53.7139 89.8128 52.8286 88.1346 52.8286C87.6361 52.8286 87.1166 52.8994 86.6392 53.0057V62.0007C86.6392 62.5744 86.7304 63.6015 87.7485 64.0902H83.9922Z" fill="black"/>
<path d="M104.999 53.905C104.662 53.6713 103.342 52.7506 101.468 52.7506C99.1298 52.7506 96.7916 54.3158 96.7916 57.3968C96.7916 60.0245 98.2872 62.8292 101.896 62.8292C104.36 62.8292 105.554 61.9439 106.088 61.4977L104.873 63.9057C103.82 64.2458 102.928 64.359 101.756 64.359C96.4054 64.359 94.7485 60.669 94.7485 57.8784C94.7485 54.4221 97.1778 51.2207 101.685 51.2207C102.774 51.2207 103.413 51.3836 104.002 51.5111C104.36 51.6032 104.606 51.6527 104.999 51.7094V53.905Z" fill="black"/>
<path d="M114.576 51.4971V53.5652C114.239 53.1686 113.755 52.8994 112.702 52.9136L110.293 52.9703V56.5683H112.863C113.095 56.5683 113.305 56.547 113.509 56.5116V58.4735C113.172 58.1336 112.779 58.0061 112.154 58.0061H110.3V62.5247C111.388 62.631 112.259 62.6522 112.617 62.6522C114.576 62.6522 115.559 62.2558 116.345 61.5545L115.433 64.0902H107.653C108.475 63.5164 108.475 62.7585 108.475 62.2912V53.2961C108.475 52.8286 108.475 52.0708 107.653 51.4971H114.576Z" fill="black"/>
<path d="M127.242 56.462V53.2961C127.242 52.7011 127.221 52.0708 126.421 51.4971H129.882C129.082 52.0708 129.061 52.7011 129.061 53.2961V62.2912C129.061 62.886 129.075 63.5164 129.882 64.0902H126.421C127.221 63.5164 127.242 62.886 127.242 62.2912V57.8998H120.376V62.2912C120.376 62.886 120.397 63.5164 121.197 64.0902H117.736C118.536 63.5164 118.557 62.886 118.557 62.2912V53.2961C118.557 52.7011 118.536 52.0708 117.736 51.4971H121.197C120.397 52.0708 120.376 52.7011 120.376 53.2961V56.462H127.242Z" fill="black"/>
<path d="M135.176 58.0981H139.045L137.1 53.1332L135.176 58.0981ZM138.35 51.4971L142.647 62.2416C142.934 62.9426 143.285 63.6297 144.163 64.0972H140.33C141.165 63.7217 141.025 63.1055 140.863 62.6949L139.508 59.3093H134.713L133.589 62.1353C133.337 62.7657 133.182 63.5022 134.018 64.0972H130.647C131.574 63.488 131.932 62.6736 132.269 61.8095L135.836 52.7011C135.906 52.5241 136.159 51.837 135.429 51.4971H138.35Z" fill="black"/>
<path d="M153.923 62.2905C153.923 62.7932 153.923 63.5157 154.744 64.0895H151.283C152.104 63.5157 152.104 62.7932 152.104 62.2905V52.9341H148.516V54.9102C148.516 59.4077 148.158 64.3584 144.915 64.3584C144.578 64.3584 144.29 64.2876 144.037 64.1955L143.805 62.1275C144.283 62.6161 144.711 62.6515 144.915 62.6515C146.628 62.6515 146.986 58.2957 146.986 55.1085C146.986 53.182 146.894 51.9213 145.687 51.4893H154.765C153.944 52.0842 153.93 52.7146 153.93 53.2883V62.2905H153.923Z" fill="black"/>
<path d="M90.3814 70.6903C90.2409 70.5983 89.7073 70.2228 88.949 70.2228C88.0013 70.2228 87.0534 70.8602 87.0534 72.1069C87.0534 73.1764 87.6643 74.3095 89.1246 74.3095C90.1217 74.3095 90.6061 73.9555 90.8237 73.7712L90.3323 74.7486C89.9039 74.8903 89.5389 74.9328 89.0614 74.9328C86.8919 74.9328 86.2178 73.4314 86.2178 72.3052C86.2178 70.9029 87.2008 69.5996 89.0332 69.5996C89.4757 69.5996 89.7355 69.6632 89.9742 69.7199C90.1217 69.7553 90.2199 69.7767 90.3814 69.7979V70.6903Z" fill="black"/>
<path d="M93.2883 74.0903C93.2883 74.2956 93.2883 74.586 93.6183 74.8198H92.214C92.5441 74.586 92.5441 74.2956 92.5441 74.0903V70.2939L91.6804 70.2869C91.5048 70.2869 91.1959 70.3152 90.9292 70.5913L91.2171 69.6777C91.3925 69.7062 91.4907 69.7062 91.6804 69.7062H94.4818C94.6363 69.7062 94.7907 69.6919 94.9243 69.6777L94.6714 70.5347C94.5309 70.2869 94.2712 70.2869 94.0887 70.2869L93.2743 70.2939V74.0903H93.2883Z" fill="black"/>
<path d="M95.3872 74.8267C95.7102 74.5929 95.7173 74.338 95.7173 74.097V70.4424C95.7173 70.237 95.7173 69.9466 95.3872 69.7129H97.1846C97.5848 69.7129 98.9891 69.7199 98.9891 71.0658C98.9891 72.036 98.1607 72.5248 97.3532 72.5248C97.1426 72.5248 96.9179 72.4823 96.7352 72.4327C97.3181 72.4115 98.1535 72.1351 98.1535 71.2145C98.1535 70.6125 97.7463 70.2583 97.0653 70.2583C96.8616 70.2583 96.651 70.2867 96.4544 70.3291V73.9837C96.4544 74.2175 96.4895 74.6354 96.9038 74.8337H95.3872V74.8267Z" fill="black"/>
<path d="M100.625 72.3901H102.198L101.405 70.3715L100.625 72.3901ZM101.917 69.7129L103.666 74.0758C103.778 74.3592 103.925 74.6354 104.283 74.8267H102.725C103.062 74.6708 103.005 74.4228 102.942 74.2529L102.395 72.8788H100.45L99.9934 74.0264C99.8952 74.2813 99.825 74.5787 100.169 74.8267H98.7998C99.1791 74.5787 99.3193 74.2529 99.4598 73.8987L100.906 70.2016C100.934 70.1308 101.04 69.8546 100.738 69.7129H101.917Z" fill="black"/>
<path d="M104.894 70.2441C104.69 69.9537 104.529 69.805 104.325 69.713L104.943 69.6917C105.498 69.6705 105.428 69.6279 105.729 70.0672L106.712 71.505L107.555 70.3716C107.597 70.315 107.709 70.1521 107.709 70.0246C107.709 69.9467 107.674 69.7908 107.428 69.72H108.819L107.043 71.9937L108.538 74.1751C108.798 74.5576 109.036 74.7275 109.247 74.8338H108.047C107.878 74.6639 107.808 74.5504 107.716 74.4017L106.53 72.5885L105.42 74.0617C105.301 74.2246 105.224 74.352 105.224 74.4655C105.224 74.6354 105.357 74.7629 105.519 74.8268H103.988C104.199 74.607 104.353 74.4229 104.515 74.2106L106.165 72.0927L104.894 70.2441Z" fill="black"/>
<path d="M110.343 69.7131L111.754 72.7657L112.723 70.5418C112.765 70.4568 112.821 70.2726 112.821 70.0673C112.821 69.968 112.786 69.7981 112.61 69.7061H113.72L111.901 73.7856C111.473 74.7488 110.862 74.8975 110.356 74.8975C110.055 74.8975 109.83 74.8551 109.577 74.6994L110.062 74.154C110.16 74.2319 110.279 74.2885 110.462 74.2885C110.911 74.2885 111.185 73.9627 111.311 73.6935L111.452 73.4103C111.136 73.1836 111.052 73.0064 110.953 72.8081L109.675 70.2514C109.493 69.883 109.289 69.7627 109.17 69.7131H110.343Z" fill="black"/>
<path d="M115.32 74.2183C115.517 74.2467 115.805 74.2821 116.072 74.2821C117.181 74.2821 117.293 73.5951 117.293 73.2834C117.293 72.8584 117.047 72.2209 115.917 72.2209C115.861 72.2209 115.714 72.2209 115.313 72.2494V74.2183H115.32ZM115.32 71.7464L115.72 71.7534C116.479 71.7676 116.83 71.357 116.83 70.9391C116.83 70.5494 116.556 70.2166 115.896 70.2166C115.741 70.2166 115.489 70.2378 115.32 70.259V71.7464ZM116.198 69.6712C117.055 69.657 117.651 70.1033 117.651 70.8186C117.651 71.4702 117.16 71.7534 116.886 71.8527C117.609 71.9305 118.129 72.4617 118.129 73.2266C118.129 73.8782 117.771 74.8203 116.008 74.8203H114.246C114.576 74.5865 114.576 74.2961 114.576 74.0908V70.4361C114.576 70.2308 114.576 69.9404 114.246 69.7067L116.198 69.6712Z" fill="black"/>
<path d="M120.067 72.3901H121.64L120.846 70.3715L120.067 72.3901ZM121.352 69.7129L123.1 74.0758C123.219 74.3592 123.36 74.6354 123.718 74.8267H122.159C122.496 74.6708 122.44 74.4228 122.377 74.2529L121.829 72.8788H119.884L119.428 74.0264C119.33 74.2813 119.259 74.5787 119.603 74.8267H118.234C118.613 74.5787 118.754 74.2529 118.894 73.8987L120.341 70.2016C120.369 70.1308 120.474 69.8546 120.172 69.7129H121.352Z" fill="black"/>
<path d="M127.881 71.7244V70.4424C127.881 70.2016 127.874 69.9466 127.551 69.7129H128.955C128.632 69.9466 128.625 70.2016 128.625 70.4424V74.097C128.625 74.338 128.632 74.5929 128.955 74.8267H127.551C127.874 74.5929 127.881 74.338 127.881 74.097V72.3122H125.094V74.097C125.094 74.338 125.101 74.5929 125.424 74.8267H124.02C124.343 74.5929 124.357 74.338 124.357 74.097V70.4424C124.357 70.2016 124.35 69.9466 124.02 69.7129H125.424C125.101 69.9466 125.094 70.2016 125.094 70.4424V71.7244H127.881Z" fill="black"/>
<path d="M133.8 71.7244V70.4424C133.8 70.2016 133.793 69.9466 133.47 69.7129H134.874C134.551 69.9466 134.544 70.2016 134.544 70.4424V74.097C134.544 74.338 134.551 74.5929 134.874 74.8267H133.47C133.793 74.5929 133.8 74.338 133.8 74.097V72.3122H131.013V74.097C131.013 74.338 131.02 74.5929 131.343 74.8267H129.938C130.261 74.5929 130.276 74.338 130.276 74.097V70.4424C130.276 70.2016 130.268 69.9466 129.938 69.7129H131.343C131.02 69.9466 131.013 70.2016 131.013 70.4424V71.7244H133.8Z" fill="black"/>
<path d="M138.413 70.2661C138.266 70.2379 138.118 70.2237 137.929 70.2237C137.135 70.2237 136.896 70.6982 136.896 71.1515C136.896 71.874 137.648 72.1432 138.202 72.1005C137.697 73.0356 136.566 74.87 135.745 74.87C135.647 74.87 135.513 74.863 134.958 74.8276C135.836 74.4237 136.833 73.0568 137.297 72.3697C136.651 72.2565 136.068 71.8244 136.068 71.1233C136.068 70.6558 136.215 69.6855 137.9 69.6855C138.111 69.6855 138.322 69.6925 138.532 69.6995C138.848 69.7068 139.171 69.7138 139.487 69.7138C139.157 69.9475 139.157 70.2379 139.157 70.4432V74.0979C139.157 74.3034 139.157 74.5938 139.487 74.8276H138.083C138.413 74.5938 138.413 74.3034 138.413 74.0979V70.2661Z" fill="black"/>
</svg>
