<svg width="184" height="124" viewBox="0 0 184 124" fill="none" xmlns="http://www.w3.org/2000/svg">
<g clip-path="url(#clip0)">
<path d="M64.8695 83C76.3955 83 85.7391 73.598 85.7391 62C85.7391 50.402 76.3955 41 64.8695 41C53.3436 41 44 50.402 44 62C44 73.598 53.3436 83 64.8695 83Z" fill="white"/>
<path d="M61.1024 55.2819C61.1024 56.7852 59.874 58.0067 58.3622 58.0067C56.8504 58.0067 55.6221 56.7852 55.6221 55.2819C55.6221 53.7785 56.8504 52.557 58.3622 52.557C59.874 52.651 61.1024 53.8725 61.1024 55.2819ZM70.3622 69.3759V71.349H64.126V52.557H66.1102V69.3759H70.3622ZM77.7323 74.5436C74.3307 77.9262 69.8898 79.7114 65.0709 79.7114C60.3464 79.7114 55.811 77.8322 52.4094 74.5436C49.0079 71.1611 47.2126 66.745 47.2126 61.953C47.3071 52.1812 55.3386 44.2886 65.1654 44.2886H66.2047V46.0738V46.2617H65.1654C60.9134 46.2617 56.9449 47.859 53.9213 50.8657C50.8976 53.8725 49.2913 57.8188 49.2913 62.047C49.2913 66.2752 50.8976 70.2215 53.9213 73.2282C56.9449 76.2349 60.9134 77.8322 65.1654 77.8322C73.4803 77.8322 80.4724 71.349 81.0394 63.0805C81.0394 63.0805 81.0394 63.0805 81.0394 62.9866H70.3622V61.0134H82.1732H83.0236V61.953C83.0236 66.745 81.1339 71.2551 77.7323 74.5436ZM65.1654 41C53.4488 41 44 50.396 44 62.047C44 73.698 53.4488 83.094 65.1654 83.094C76.8819 83.094 86.3307 73.698 86.3307 62.047C86.2362 50.396 76.7874 41 65.1654 41Z" fill="#B7002E"/>
<path d="M102.016 48.3291H95.6851V75.4835H115.149V70.2217H102.016V48.3291Z" fill="#6D6E71"/>
<path d="M129.04 65.1476H134.142V69.9395C133.197 70.3153 131.308 70.6912 129.606 70.6912C123.938 70.6912 122.048 67.7784 122.048 61.953C122.048 56.4093 123.843 53.1207 129.512 53.1207C132.63 53.1207 134.426 54.1543 135.938 56.0335L139.906 52.463C137.544 49.0805 133.292 48.0469 129.418 48.0469C120.536 48.0469 115.906 52.8389 115.906 61.953C115.906 71.067 120.063 75.9529 129.323 75.9529C133.575 75.9529 137.733 74.9194 140 73.3221V60.1677H129.04V65.1476Z" fill="#6D6E71"/>
</g>
<defs>
<clipPath id="clip0">
<rect width="96" height="42" fill="white" transform="translate(44 41)"/>
</clipPath>
</defs>
</svg>
