<svg width="184" height="124" viewBox="0 0 184 124" fill="none" xmlns="http://www.w3.org/2000/svg">
<g clip-path="url(#clip0)">
<path d="M91.8719 64.8632C91.6373 64.8632 91.5093 64.9905 91.4026 65.0966C90.3359 66.1572 89.3759 66.5178 87.9253 66.5178C85.4079 66.5178 83.5093 64.5026 83.5093 61.8723C83.5093 59.2632 85.4293 57.2269 87.9253 57.2269C89.2479 57.2269 90.1866 57.6935 91.2746 58.542C91.4026 58.6693 91.6373 58.7754 91.7439 58.7754C92.1066 58.7754 92.4693 58.4148 92.4693 58.0541C92.4693 57.9269 92.3413 57.6935 92.2346 57.4602C91.2746 56.6329 90.0799 55.8057 87.9253 55.8057C84.5759 55.8057 82.0586 58.4148 82.0586 61.8723V61.9996C82.0586 65.4572 84.5759 68.0663 87.9253 68.0663C89.7173 68.0663 91.0399 67.5996 92.3413 66.2845C92.4693 66.1572 92.5759 65.9239 92.5759 65.8178C92.5759 65.2238 92.2133 64.8632 91.8719 64.8632Z" fill="black"/>
<path d="M98.0798 55.8271C97.7172 55.8271 97.3545 56.1878 97.3545 56.5484V66.8787C97.3545 67.2393 97.7172 67.5999 98.0798 67.5999C98.4425 67.5999 98.8052 67.2393 98.8052 66.8787V56.5271C98.8052 56.1878 98.4425 55.8271 98.0798 55.8271Z" fill="black"/>
<path d="M109.323 61.172L113.397 57.1205C113.632 56.8872 113.632 56.7599 113.632 56.6538C113.632 56.2932 113.269 55.9326 112.907 55.9326C112.672 55.9326 112.544 56.0599 112.437 56.166L105.845 62.8478V56.675C105.845 56.3144 105.483 55.9538 105.12 55.9538C104.757 55.9538 104.395 56.1872 104.395 56.675V67.0266C104.395 67.3872 104.757 67.7478 105.12 67.7478C105.483 67.7478 105.845 67.3872 105.845 67.0266V64.6508L108.363 62.1478L112.672 67.3872C112.8 67.6205 113.035 67.6205 113.269 67.6205C113.632 67.6205 113.995 67.2599 113.995 66.8993C113.995 66.6659 113.867 66.5387 113.76 66.4326L109.323 61.172Z" fill="black"/>
<path d="M126.048 66.2845H120.075V56.5269C120.075 56.1663 119.712 55.8057 119.349 55.8057C118.987 55.8057 118.624 56.1663 118.624 56.5269V66.8784C118.624 67.239 118.987 67.5996 119.349 67.5996H126.048C126.411 67.5996 126.773 67.239 126.773 66.8784C126.773 66.539 126.411 66.2845 126.048 66.2845Z" fill="black"/>
<path d="M139.082 55.8271C138.72 55.8271 138.357 56.1878 138.357 56.5484V62.7211C138.357 65.0968 137.162 66.412 134.88 66.412C132.725 66.412 131.402 64.9908 131.402 62.615V56.5484C131.402 56.1878 131.04 55.8271 130.677 55.8271C130.314 55.8271 129.952 56.1878 129.952 56.5484V62.7211C129.952 65.8181 131.872 67.8332 134.858 67.8332C137.845 67.8332 139.765 65.8181 139.765 62.5938V56.5271C139.808 56.1878 139.445 55.8271 139.082 55.8271Z" fill="black"/>
<path d="M155.232 55.9544C154.869 55.9544 154.635 56.0817 154.507 56.315L150.432 62.2544L146.251 56.1878C146.123 56.0605 146.016 55.8271 145.653 55.8271H145.547C145.184 55.8271 144.821 56.1878 144.821 56.5484V66.8787C144.821 67.2393 145.184 67.5999 145.547 67.5999C145.909 67.5999 146.272 67.2393 146.272 66.8787V58.6696L149.749 63.7817C149.877 64.015 150.112 64.1423 150.347 64.1423C150.581 64.1423 150.816 64.015 150.944 63.7817L154.421 58.6696V66.9847C154.421 67.3453 154.784 67.7059 155.147 67.7059C155.509 67.7059 155.872 67.3453 155.872 66.9847V56.6332C156.064 56.1878 155.701 55.9544 155.232 55.9544Z" fill="black"/>
<path d="M48.8216 82.7032C60.3797 82.7032 69.7495 73.3866 69.7495 61.8941C69.7495 50.4015 60.3797 41.085 48.8216 41.085C37.2633 41.085 27.8936 50.4015 27.8936 61.8941C27.8936 73.3866 37.2633 82.7032 48.8216 82.7032Z" fill="#F0F0F0"/>
<path d="M49.2911 71.3969C44.1497 71.7575 39.6057 67.8333 39.2431 62.5939C38.8804 58.0757 41.7604 54.1515 45.8137 52.8363L44.6404 49.0605C38.7737 50.8424 34.7204 56.5484 35.1897 62.9757C35.6591 70.3363 42.1231 76.0424 49.5257 75.4484C50.5924 75.3212 51.5524 75.2151 52.5124 74.8545L51.3177 71.0575C50.7417 71.1636 50.0164 71.2909 49.2911 71.3969Z" fill="#00AAF0"/>
<path d="M42.3575 68.1937C45.8348 71.6513 51.4455 71.6513 54.7948 68.1937L52.7681 66.0513C50.5068 68.2998 46.7948 68.2998 44.5121 66.0513C42.2295 63.8028 42.2508 59.9847 44.5121 57.7362L42.4855 55.5938C38.9015 59.0513 38.9015 64.7362 42.3575 68.1937Z" fill="#50468C"/>
<path d="M58.5068 71.8853C53.1308 77.358 44.2774 77.358 38.7734 71.8853C36.0214 69.149 34.6988 65.5853 34.6988 61.8944C34.6988 58.3308 36.0214 54.7671 38.7734 51.9035C44.1494 46.4308 53.0028 46.4308 58.5068 51.9035L62.5815 47.852C54.8161 40.0035 42.6134 39.8974 34.7201 47.852C30.7734 51.7974 28.9814 56.9096 28.9814 62.0217C28.9814 67.1338 30.9014 72.2459 34.7201 76.0429C42.3788 83.7641 54.9228 83.7641 62.5815 76.0429L58.5068 71.8853Z" fill="#F06428"/>
</g>
<defs>
<clipPath id="clip0">
<rect width="128" height="42" fill="white" transform="translate(28 41)"/>
</clipPath>
</defs>
</svg>
