<svg width="184" height="124" viewBox="0 0 184 124" fill="none" xmlns="http://www.w3.org/2000/svg">
<path d="M17.0682 47.9862C17.0682 58.5476 8.19043 60.524 8.19043 70.6753C8.19043 74.6383 10.6966 78.0703 13.6547 78.4803C13.4388 77.7576 13.368 77.1996 13.368 76.4198C13.368 69.092 25.1871 66.8198 25.1871 54.3223C25.1871 48.3459 20.9573 43.2937 16.0225 42.0938C16.0225 42.0938 17.0649 45.3375 17.0649 47.9828L17.0682 47.9862Z" fill="#EA203A"/>
<path d="M16.3198 76.8635C16.3198 78.9374 17.7938 81.1458 19.7164 81.8651C19.6153 81.5593 19.568 81.2904 19.568 80.84C19.568 76.7559 31.6907 75.4551 31.6907 64.7828C31.6907 61.8315 30.4528 58.6282 28.0006 56.5273C26.341 68.6584 16.3198 70.3291 16.3198 76.8635Z" fill="#75BD4C"/>
<path d="M9.96826 45.4824C9.96826 45.4824 10.5518 46.5278 10.5518 47.6942C10.5518 51.4421 7 52.8706 7 56.679C7 58.4774 7.98155 59.953 9.36786 60.8101C9.40496 60.4841 9.43869 60.1782 9.52301 59.9228C10.3528 57.2774 14.2452 54.3497 14.2452 50.1984C14.2452 47.711 12.1742 45.6639 9.96826 45.4824Z" fill="#1BA6E2"/>
<path d="M48.5284 67.2506C50.8254 69.3145 53.0044 70.5279 56.1481 70.5279C57.8919 70.5279 61.0693 69.7952 61.0693 67.5094C61.0693 66.1884 60.0709 65.5195 58.1179 65.1901L52.6367 64.3027C47.7593 63.533 45.0913 60.9514 45.0913 57.0825C45.0913 50.7498 50.2351 48.1279 55.858 48.1279C60.2226 48.1279 64.5165 49.896 67.4713 53.1767L62.4758 56.7498C60.7353 54.649 58.182 53.4288 55.4093 53.4288C53.9016 53.4288 51.6754 54.3868 51.6754 56.0842C51.6754 57.4825 52.8256 58.1851 55.3351 58.5918L57.8582 58.9952C63.1066 59.8422 67.4375 61.4624 67.4375 66.4708C67.4375 74.3599 60.2935 75.8389 55.379 75.8389C50.9063 75.8389 46.707 74.3968 43.1147 70.4943L48.5284 67.2506ZM83.6311 75.8422C75.2292 75.8422 70.3114 69.3514 70.3114 61.9767C70.3114 54.6153 75.2292 48.1279 83.6311 48.1279C92.0233 48.1279 96.9381 54.6153 96.9381 61.9767C96.9381 69.3481 92.0199 75.8422 83.6311 75.8422ZM83.6311 53.6506C79.7792 53.6506 76.8989 56.0876 76.8989 61.9767C76.8989 65.8153 78.4537 70.3128 83.6311 70.3128C88.5086 70.3128 90.3606 66.0338 90.3606 61.9767C90.3606 57.8523 88.5086 53.6506 83.6311 53.6506ZM118.468 57.6002C117.541 55.1632 115.284 53.6472 112.983 53.6472C109.367 53.6472 106.487 56.091 106.487 61.9801C106.487 65.8153 108.039 70.3128 113.219 70.3128C114.993 70.3128 117.584 68.9884 118.617 66.6254L123.831 69.133C121.574 73.2237 117.655 75.8389 113.219 75.8389C104.818 75.8389 99.8958 69.3514 99.8958 61.9801C99.8958 54.6187 104.487 48.1313 112.697 48.1313C117.871 48.1313 121.271 50.6355 123.717 54.9783L118.468 57.6002ZM134.078 48.8708H140.882L150.832 75.0994H143.762L142.433 70.975H132.712L131.376 75.0994H124.357L134.078 48.8708ZM140.841 66.1078L137.593 55.2775H137.522L134.263 66.1078H140.841ZM153.442 48.8674H166.608C172.527 48.8674 176.157 51.5968 176.157 57.4859C176.157 60.8809 174.008 63.6002 170.713 64.5616L176.75 75.0994H169.384L164.206 65.6674H160.03V75.0994H153.442V48.8674ZM160.03 60.7935H166.058C168.166 60.7632 169.572 59.701 169.572 57.2641C169.572 54.8271 168.166 53.7615 166.058 53.7245H160.03V60.7935Z" fill="black"/>
</svg>
