<svg width="184" height="124" viewBox="0 0 184 124" fill="none" xmlns="http://www.w3.org/2000/svg">
<path d="M34.1708 47.7817L30.4907 58.862H37.8509L34.1708 47.7817ZM34.1708 41.2119C36.9793 41.2119 37.8509 43.2711 38.6256 45.2322L46.47 66.8046C46.5668 67.0006 46.47 67.2948 46.2762 67.393L41.9183 69.0598C41.7247 69.1578 41.4341 69.0598 41.4341 68.7656L39.5941 63.7649H28.7475L26.9075 68.8636C26.8106 69.0598 26.617 69.1578 26.4233 69.1578L22.1621 67.491C21.9684 67.393 21.8716 67.1968 21.9684 66.9026L29.8128 45.3303C30.4907 43.2711 31.3623 41.2119 34.1708 41.2119ZM21.3874 77.1985C21.1937 77.1985 21 77.3945 21 77.5907V82.3955C21 82.5915 21.1937 82.7877 21.3874 82.7877H47.051C47.2448 82.7877 47.4384 82.5915 47.4384 82.3955V77.6887C47.4384 77.4927 47.2448 77.2965 47.051 77.2965L21.3874 77.1985Z" fill="#EF002F"/>
<path d="M120.078 61.5964C119.229 61.5964 118.521 62.3048 118.521 63.1545C118.521 64.0045 119.229 64.7128 120.078 64.7128C120.928 64.7128 121.636 64.0045 121.636 63.1545C121.636 62.4463 120.928 61.5964 120.078 61.5964ZM64.7297 63.1545C64.7297 63.1545 65.5789 60.4632 65.7205 60.0382C66.0036 58.905 66.5699 57.2051 66.5699 57.2051H66.7115C66.7115 57.2051 67.136 58.905 67.4192 60.0382C67.5607 60.4632 68.2686 63.1545 68.2686 63.1545H64.7297ZM69.5426 67.9707H72.3738L67.9855 54.6554C67.5607 54.5137 66.9944 54.3721 66.2868 54.3721C65.5789 54.3721 65.4373 54.5137 64.8713 54.6554L60.4829 67.9707H63.314C63.314 67.9707 63.7387 66.8376 64.1634 65.421H68.9763C69.2594 66.8376 69.5426 67.9707 69.5426 67.9707ZM162.97 67.9707C162.97 67.9707 161.555 64.9962 161.272 64.4296C160.847 63.7213 160.564 63.1545 159.714 63.013C160.281 62.8713 160.705 62.588 161.13 61.5964C161.555 60.6049 161.696 60.4632 161.979 60.1799C162.262 59.8966 162.546 60.0382 162.546 60.0382L162.687 58.3384C162.262 58.3384 161.979 58.3384 161.555 58.3384C160.847 58.3384 160.564 58.6217 160.139 58.905C159.856 59.1883 159.714 59.6133 159.431 60.0382C159.148 60.4632 159.007 60.8882 158.723 61.4548C158.441 62.0214 158.299 62.163 157.733 62.163H157.308V58.6217H154.76V67.9707H157.308V64.1462H157.591C158.299 64.1462 158.441 64.2879 158.865 65.1379C159.29 65.9876 160.139 68.1124 160.139 68.1124H162.97V67.9707ZM152.778 67.9707V58.48H150.23V62.0214H147.399V58.48H144.851V67.9707H147.399V64.1462H150.23V67.9707H152.778ZM83.6982 58.48V67.5459C84.8308 68.1124 86.2463 68.2541 87.3787 68.2541C90.0684 68.2541 91.4839 66.8376 91.4839 64.5711C91.4839 62.5879 90.21 61.3131 87.8034 61.3131C87.2371 61.3131 86.8126 61.4548 86.2463 61.5964V58.48H83.6982ZM88.7944 64.7128C88.7944 65.7044 88.5113 66.271 87.2371 66.271C86.8126 66.271 86.671 66.271 86.1047 66.1293V63.4379C86.8126 63.2962 86.8126 63.2962 87.2371 63.2962C88.5113 63.2962 88.7944 63.8628 88.7944 64.7128ZM143.577 67.121C142.869 66.1293 142.728 65.5627 142.728 64.2879V61.7381C142.728 60.3215 142.586 59.8966 142.161 59.33C141.595 58.6217 140.746 58.3384 139.189 58.3384C138.056 58.3384 137.065 58.48 135.933 58.7633L136.358 60.6048C137.065 60.4632 137.773 60.4632 138.339 60.4632C140.038 60.4632 140.179 60.7465 140.179 61.8797V62.3048C139.755 62.163 139.33 62.163 138.906 62.163C136.358 62.163 135.083 63.4379 135.083 65.421C135.083 67.2625 136.499 68.3958 138.198 68.3958C138.906 68.3958 139.472 68.2541 140.038 68.1124C140.321 67.9707 140.463 67.8293 140.887 67.6876C141.17 68.1124 141.595 68.3958 141.878 68.5375L143.577 67.121ZM140.321 65.9876C139.755 66.1293 139.472 66.271 138.906 66.271C138.056 66.271 137.49 65.9876 137.49 64.9962C137.49 64.0045 138.198 63.7213 139.33 63.7213C139.613 63.7213 139.897 63.7213 140.038 63.8628V64.5711C140.18 65.1379 140.321 65.7044 140.321 65.9876ZM115.69 67.121C114.982 66.1293 114.841 65.5627 114.841 64.2879V61.7381C114.841 60.3215 114.699 59.8966 114.275 59.33C113.708 58.6217 112.859 58.3384 111.302 58.3384C110.169 58.3384 109.178 58.48 108.046 58.7633L108.471 60.6048C109.178 60.4632 109.886 60.4632 110.453 60.4632C112.151 60.4632 112.293 60.7465 112.293 61.8797V62.3048C111.868 62.163 111.443 62.163 111.019 62.163C108.471 62.163 107.197 63.4379 107.197 65.421C107.197 67.2625 108.612 68.3958 110.311 68.3958C111.019 68.3958 111.585 68.2541 112.151 68.1124C112.434 67.9707 112.576 67.8293 113.001 67.6876C113.284 68.1124 113.708 68.3958 113.992 68.5375L115.69 67.121ZM112.576 65.9876C112.01 66.1293 111.727 66.271 111.16 66.271C110.311 66.271 109.745 65.9876 109.745 64.9962C109.745 64.0045 110.453 63.7213 111.585 63.7213C111.868 63.7213 112.151 63.7213 112.293 63.8628V64.5711C112.434 65.1379 112.434 65.7044 112.576 65.9876ZM81.7164 67.9707V58.7633C80.3009 58.3384 79.3101 58.1967 77.8943 58.1967C76.4788 58.1967 75.488 58.3384 74.0725 58.7633V63.4379C74.0725 64.7128 74.0725 65.1379 73.9309 65.5627C73.7893 65.9876 73.6478 66.4127 73.0815 66.6959L73.7893 68.1124C75.7712 67.5459 76.6204 66.6959 76.6204 63.8628V60.4632C77.3283 60.3215 77.4698 60.3215 77.8943 60.3215C78.4606 60.3215 78.6022 60.3215 79.1685 60.4632V67.9707H81.7164ZM100.544 71.0872V67.6876C100.827 67.8293 101.535 68.1124 102.525 68.1124C104.649 68.1124 106.206 66.4127 106.206 63.1545C106.206 59.7549 104.649 58.1967 102.101 58.1967C101.393 58.1967 100.968 58.1967 100.544 58.48V54.3721H97.9956V58.48C97.4294 58.1967 97.0046 58.1967 96.4383 58.1967C93.8904 58.1967 92.3333 59.7549 92.3333 63.1545C92.3333 66.4127 93.7489 68.1124 96.0138 68.1124C97.1462 68.1124 97.7125 67.8293 97.9956 67.6876V71.0872H100.544ZM95.0228 63.2962C95.0228 61.4548 95.5891 60.3215 96.7215 60.3215C97.1462 60.3215 97.5709 60.3215 98.137 60.6048V65.8461C97.5709 65.9876 97.2878 65.9876 96.8631 65.9876C95.4475 66.1293 95.0228 64.9962 95.0228 63.2962ZM103.799 63.1545C103.799 64.8545 103.092 65.9876 101.959 65.9876C101.535 65.9876 101.251 65.9876 100.685 65.8461V60.6048C101.251 60.3215 101.676 60.3215 102.101 60.3215C103.092 60.3215 103.799 61.3131 103.799 63.1545ZM134.234 63.8628C134.234 61.4548 132.819 59.8966 129.987 59.8966C129.28 59.8966 128.713 59.8966 128.006 60.1799V56.7802C128.43 56.7802 129.28 56.6385 130.271 56.6385C131.12 56.6385 132.252 56.6385 133.102 56.7802V54.797C131.969 54.5137 130.412 54.3721 129.28 54.3721C128.147 54.3721 126.165 54.6554 125.316 54.9387V67.4042C126.732 67.9707 128.006 68.1124 129.421 68.1124C132.536 68.2541 134.234 66.5544 134.234 63.8628ZM131.545 64.1462C131.545 65.421 130.837 66.271 129.563 66.271C128.997 66.271 128.572 66.271 128.006 66.1293V62.3048C128.289 62.3048 128.855 62.163 129.563 62.163C130.837 62.0214 131.545 62.7296 131.545 64.1462Z" fill="#EF002F"/>
</svg>
