<svg width="184" height="124" viewBox="0 0 184 124" fill="none" xmlns="http://www.w3.org/2000/svg">
<path d="M71.8537 56.7976V50.4841H73.6235V56.5788C73.6235 57.7665 74.1729 58.6416 75.5461 58.6416C76.8276 58.6416 77.4684 57.954 77.4684 56.5788V50.4841H79.2382V56.6726C79.2382 58.9542 77.7431 60.2669 75.5461 60.2669C73.3492 60.2669 71.8537 59.1104 71.8537 56.7976ZM80.8555 53.2033H82.4118V54.0472H82.4423C82.9001 53.3908 83.602 53.047 84.3646 53.047C85.8906 53.047 86.7144 54.0159 86.7144 55.6724V60.1106H85.097V56.11C85.097 55.0786 84.6699 54.516 83.8461 54.516C82.9612 54.516 82.4423 55.0786 82.4423 56.235V60.1106H80.825L80.8555 53.2033ZM88.3925 50.3904H90.0098V52.1406H88.3925V50.3904ZM88.3925 53.2033H90.0098V60.1106H88.3925V53.2033ZM91.963 58.4854V54.516H91.0476V53.2033H91.963V51.1092H93.58V53.2033H95.0449V54.516H93.58V58.1103C93.58 58.6104 93.8547 58.7666 94.2207 58.7666C94.5566 58.7666 94.7396 58.7666 95.0449 58.7041V60.1106C94.6785 60.2043 94.0989 60.2356 93.8547 60.2356C92.8174 60.2043 91.963 59.7043 91.963 58.4854ZM95.8075 57.4539V56.11C95.8075 54.1722 97.2419 53.0783 98.9204 53.0783C100.385 53.0783 101.819 53.9534 101.819 55.7974V57.1414H97.486V57.5164C97.486 58.3916 98.1879 58.9229 99.0422 58.9229C99.5917 58.9229 100.141 58.5479 100.507 58.0478L101.758 58.7666C101.239 59.8606 100.171 60.2982 98.9811 60.2982C97.303 60.2669 95.8075 59.3292 95.8075 57.4539ZM100.232 55.985V55.7974C100.232 54.8598 99.5917 54.4847 98.9204 54.4847C98.2491 54.4847 97.486 54.8598 97.486 55.8912V55.985H100.232ZM102.948 57.5477V55.8599C102.948 53.9847 104.23 53.047 105.725 53.047C106.488 53.047 107.098 53.4221 107.434 53.8909H107.464V50.4528H109.081V60.0794H107.525V59.298C107.159 59.8293 106.244 60.2356 105.634 60.2356C104.138 60.2669 102.948 59.3292 102.948 57.5477ZM107.495 57.4852V55.7662C107.495 54.9223 106.823 54.4222 106 54.4222C105.328 54.4222 104.596 54.7973 104.596 55.7974V57.5164C104.596 58.3603 105.237 58.8292 106.061 58.8292C106.732 58.8604 107.495 58.4854 107.495 57.4852ZM114.238 50.4841H115.947L120.036 57.0476H120.067V50.4841H121.745V60.1106H120.036L115.947 53.5471H115.917V60.1106H114.238V50.4841ZM123.118 58.1416C123.118 56.7976 124.308 56.0162 125.621 56.0162H127.421V55.3911C127.421 54.6723 126.933 54.3597 126.139 54.3597C125.437 54.3597 124.919 54.6097 124.919 55.0473V55.2974H123.454V55.1098C123.454 53.6096 124.858 53.0783 126.139 53.0783C127.635 53.0783 129.038 53.5784 129.038 55.2661V58.6416C129.038 58.9542 129.068 59.9856 129.16 60.1419H127.573C127.543 60.0481 127.512 59.6105 127.512 59.5168H127.482C126.872 60.1419 126.383 60.2982 125.498 60.2982C124.064 60.2356 123.118 59.4542 123.118 58.1416ZM127.421 57.5477V57.2039H125.834C125.163 57.2039 124.705 57.4539 124.705 58.0478C124.705 58.6416 125.163 58.9229 125.925 58.9229C127.207 58.9542 127.421 58.2978 127.421 57.5477ZM130.93 58.4854V54.516H130.015V53.2033H130.93V51.1092H132.547V53.2033H134.012V54.516H132.547V58.1103C132.547 58.6104 132.822 58.7666 133.188 58.7666C133.524 58.7666 133.707 58.7666 134.012 58.7041V60.1106C133.646 60.2043 133.066 60.2356 132.822 60.2356C131.754 60.2043 130.93 59.7043 130.93 58.4854ZM135.08 50.3904H136.697V52.1406H135.08V50.3904ZM135.08 53.2033H136.697V60.1106H135.08V53.2033ZM138.101 57.5477V55.9537C138.101 54.0784 139.657 53.047 141.152 53.047C142.8 53.047 144.265 54.1409 144.265 55.9225V57.3289C144.265 59.2042 142.708 60.2356 141.213 60.2356C139.565 60.2669 138.101 59.3292 138.101 57.5477ZM142.617 57.5164V55.7974C142.617 54.9535 141.976 54.4847 141.152 54.4847C140.481 54.4847 139.749 54.8598 139.749 55.8599V57.579C139.749 58.4228 140.39 58.9229 141.213 58.9229C141.885 58.8917 142.617 58.5166 142.617 57.5164ZM145.668 53.2033H147.225V54.0472H147.255C147.713 53.3908 148.415 53.047 149.178 53.047C150.703 53.047 151.527 54.0159 151.527 55.6724V60.1106H149.91V56.11C149.91 55.0786 149.483 54.516 148.659 54.516C147.774 54.516 147.255 55.0786 147.255 56.235V60.1106H145.638L145.668 53.2033ZM152.778 58.9229L153.907 58.0478C154.335 58.6104 155.006 58.9542 155.769 58.9542C156.44 58.9542 157.111 58.7354 157.111 58.1103C157.111 57.579 156.745 57.4539 155.86 57.2977L154.976 57.1414C153.877 56.9226 153.145 56.3913 153.145 55.3286C153.145 53.8909 154.396 53.047 155.83 53.047C157.05 53.047 157.905 53.3595 158.485 54.1722L157.325 54.9848C156.928 54.516 156.471 54.2972 155.83 54.2972C155.189 54.2972 154.731 54.5472 154.731 55.0786C154.731 55.5787 155.311 55.6412 156.013 55.7662L157.02 55.985C158.179 56.2037 158.82 56.8601 158.82 57.9228C158.82 59.5168 157.234 60.2669 155.83 60.2669C154.579 60.2669 153.449 59.9231 152.778 58.9229ZM71.8537 71.5499V68.1118C71.8537 66.1428 73.3186 64.7363 75.3631 64.7363C77.2548 64.7363 78.6586 65.8615 78.6586 67.4868V68.0181H77.865V67.643C77.865 66.3303 76.8888 65.5177 75.3326 65.5177C73.8069 65.5177 72.708 66.5491 72.708 68.1118V71.4249C72.708 72.9876 73.8069 73.9878 75.3933 73.9878C76.9495 73.9878 77.9261 73.1439 77.9261 71.8312V70.456H75.302V69.7059H78.7197V71.9562C78.7197 73.6752 77.4072 74.7379 75.3933 74.7379C73.4099 74.7379 71.8537 73.644 71.8537 71.5499ZM80.6114 72.9564V64.9238H81.405V73.0188C81.405 73.5502 81.6793 73.9565 82.3506 73.9565C82.6253 73.9565 82.8695 73.9252 83.0831 73.894V74.4878C82.7782 74.5816 82.4118 74.6129 82.1069 74.6129C80.9473 74.6129 80.6114 73.8002 80.6114 72.9564ZM84.0597 72.1437V70.3309C84.0597 68.5807 85.2193 67.6743 86.7144 67.6743C88.3317 67.6743 89.3691 68.6119 89.3691 70.3309V72.0812C89.3691 73.8315 88.24 74.7379 86.7449 74.7379C85.1276 74.7379 84.0597 73.8628 84.0597 72.1437ZM88.6065 72.0812V70.2684C88.6065 69.1745 88.0264 68.3619 86.7144 68.3619C85.4635 68.3619 84.8223 69.112 84.8223 70.3309V72.1437C84.8223 73.3002 85.4329 74.0815 86.7449 74.0815C87.9959 74.0503 88.6065 73.3627 88.6065 72.0812ZM91.8102 73.3627H91.7796V74.5504H91.0476V64.9238H91.8102V69.0182H91.8408C92.2679 68.0494 93.1834 67.643 93.9464 67.643C95.3196 67.643 96.2653 68.5494 96.2653 69.9559V72.1437C96.2653 73.9565 95.0449 74.7066 93.7936 74.7066C92.9698 74.7379 92.0849 74.2378 91.8102 73.3627ZM95.5026 72.2687V69.9871C95.5026 69.0495 94.8313 68.3619 93.7328 68.3619C92.8174 68.3619 91.8102 69.2058 91.8102 70.6122V71.9562C91.8102 73.2689 92.6951 74.0815 93.7328 74.0815C94.5872 74.0503 95.5026 73.4877 95.5026 72.2687ZM97.5777 72.7688C97.5777 71.2686 98.9204 70.7685 100.019 70.7685H101.941V69.7371C101.941 68.6744 101.27 68.3306 100.263 68.3306C99.4388 68.3306 98.5845 68.6119 98.5845 69.5183V69.7059H97.8826V69.4871C97.8826 68.1431 99.1034 67.643 100.324 67.643C101.606 67.643 102.735 68.1118 102.735 69.5808V72.8626C102.735 73.2376 102.795 74.2378 102.826 74.5504H102.063C102.033 74.3316 102.002 73.6752 102.002 73.4877H101.972C101.422 74.5191 100.537 74.7066 99.7441 74.7066C98.5539 74.7066 97.5777 74.019 97.5777 72.7688ZM101.972 72.1125V71.3623H100.202C99.317 71.3623 98.3709 71.5811 98.3709 72.7376C98.3709 73.644 99.1339 74.0815 99.9577 74.0815C101.3 74.0815 101.972 73.2689 101.972 72.1125ZM104.626 72.9564V64.9238H105.389V73.0188C105.389 73.5502 105.694 73.9565 106.335 73.9565C106.61 73.9565 106.854 73.9252 107.067 73.894V74.4878C106.763 74.5816 106.396 74.6129 106.091 74.6129C104.962 74.6129 104.626 73.8002 104.626 72.9564ZM111.431 71.5499V68.1118C111.431 66.1428 112.896 64.7363 114.94 64.7363C116.832 64.7363 118.236 65.8928 118.236 67.518V68.0494H117.443V67.643C117.443 66.3303 116.466 65.4864 114.91 65.4864C113.384 65.4864 112.286 66.5178 112.286 68.0806V71.3936C112.286 72.9564 113.384 73.9565 115.001 73.9565C116.558 73.9565 117.443 73.0814 117.443 71.7686V71.5811H118.236V71.9562C118.236 73.6752 116.863 74.7379 114.971 74.7379C112.987 74.7379 111.431 73.644 111.431 71.5499ZM119.609 72.1437V70.3309C119.609 68.5807 120.769 67.6743 122.264 67.6743C123.881 67.6743 124.919 68.6119 124.919 70.3309V72.0812C124.919 73.8315 123.79 74.7379 122.294 74.7379C120.677 74.7379 119.609 73.8628 119.609 72.1437ZM124.156 72.0812V70.2684C124.156 69.1745 123.546 68.3619 122.264 68.3619C121.013 68.3619 120.372 69.112 120.372 70.3309V72.1437C120.372 73.3002 120.982 74.0815 122.294 74.0815C123.515 74.0503 124.156 73.3627 124.156 72.0812ZM126.566 67.8306H127.299V69.112H127.329C127.787 68.1431 128.672 67.6743 129.618 67.6743C130.686 67.6743 131.296 68.3619 131.479 69.1433C131.967 68.1743 132.852 67.6743 133.798 67.6743C135.08 67.6743 135.843 68.5181 135.843 69.7371V74.5816H135.08V70.1434C135.08 68.9245 134.5 68.3619 133.554 68.3619C132.547 68.3619 131.601 69.237 131.571 70.4247V74.5504H130.808V70.1122C130.778 68.9557 130.259 68.3619 129.313 68.3619C128.397 68.3619 127.329 69.1433 127.329 70.456V74.5504H126.566V67.8306ZM137.826 67.8306H138.559V69.0182H138.589C139.047 68.0494 139.993 67.643 140.725 67.643C142.098 67.643 143.044 68.5181 143.044 69.9246V72.1437C143.044 73.9565 141.824 74.7066 140.603 74.7066C139.749 74.7066 138.894 74.2066 138.62 73.3314H138.589V77.1445H137.826V67.8306ZM142.251 72.2687V70.0184C142.251 69.0807 141.579 68.3619 140.481 68.3619C139.565 68.3619 138.559 69.1745 138.559 70.581V71.9562C138.559 73.2689 139.444 74.0815 140.481 74.0815C141.366 74.0503 142.251 73.4877 142.251 72.2687ZM144.356 72.7688C144.356 71.2686 145.73 70.7685 146.797 70.7685H148.72V69.7371C148.72 68.6744 148.049 68.3306 147.042 68.3306C146.218 68.3306 145.363 68.6119 145.363 69.5183V69.7059H144.662V69.4871C144.662 68.1431 145.882 67.643 147.103 67.643C148.384 67.643 149.513 68.1118 149.513 69.5808V72.8626C149.513 73.2376 149.574 74.2378 149.605 74.5504H148.842C148.811 74.3316 148.781 73.6752 148.781 73.4877H148.75C148.201 74.5191 147.316 74.7066 146.523 74.7066C145.333 74.7066 144.356 74.019 144.356 72.7688ZM148.72 72.1125V71.3623H146.95C146.065 71.3623 145.119 71.5811 145.119 72.7376C145.119 73.644 145.882 74.0815 146.706 74.0815C148.049 74.0815 148.72 73.2689 148.72 72.1125ZM151.039 72.0187V70.456C151.039 68.7057 152.077 67.6743 153.663 67.6743C155.22 67.6743 156.165 68.5494 156.165 69.8934V70.1122H155.403V69.8309C155.403 69.1433 154.914 68.3306 153.663 68.3306C152.443 68.3306 151.833 69.2058 151.833 70.3935V72.0187C151.833 73.2064 152.382 74.019 153.663 74.019C154.914 74.019 155.403 73.2064 155.403 72.5188V72.3H156.165V72.4875C156.165 73.8315 155.22 74.7066 153.663 74.7066C152.046 74.7379 151.039 73.769 151.039 72.0187ZM158.179 73.2064V68.4869H156.959V67.8306H158.179V65.7052H158.942V67.8306H160.895V68.4869H158.942V72.9876C158.942 73.7065 159.308 73.9565 159.98 73.9565C160.315 73.9565 160.651 73.894 160.987 73.8002V74.4878C160.56 74.6129 160.041 74.6754 159.766 74.6754C158.942 74.6754 158.179 74.3628 158.179 73.2064ZM50.4631 64.0175C50.3716 63.955 50.341 63.6111 50.341 63.6111C50.1274 61.8296 49.6697 60.0481 49.0289 58.2978C48.9984 58.204 48.9679 58.1416 48.9679 58.079C48.9679 57.9853 49.0289 57.9228 49.212 57.7978C50.0969 57.3602 50.7988 56.8601 51.348 56.2975C51.4395 56.2037 51.5006 56.1725 51.5311 56.1725C51.5616 56.1725 51.6226 56.2037 51.6837 56.3288C52.4771 57.7352 53.0568 59.298 53.4535 60.9232C53.484 61.1107 53.5146 61.2358 53.5146 61.3608C53.5146 61.6108 53.423 61.7359 53.2399 61.9546C52.7212 62.486 51.7752 63.2673 50.7988 63.8925C50.7988 63.9237 50.5546 64.08 50.4631 64.0175ZM49.6392 66.049C49.6392 66.049 49.6392 65.7365 49.5477 65.674C49.4561 65.6114 49.212 65.7052 49.212 65.7052C47.5032 66.3303 45.6418 66.6429 43.6889 66.7054C43.3227 66.7366 43.3227 66.8304 43.3227 67.1117C43.2922 68.8932 43.2617 70.5497 43.2311 72.05C43.2311 72.05 43.2311 72.2063 43.2617 72.2687C43.3227 72.3312 43.4448 72.3 43.4448 72.3C45.3977 72.175 47.2285 71.7374 48.9374 71.0185C49.1815 70.9248 49.2425 70.7685 49.3035 70.456C49.7613 68.5807 49.6392 66.049 49.6392 66.049ZM48.8763 56.9538C49.6392 56.5476 50.341 56.0162 50.7988 55.5474C50.8903 55.4536 50.9208 55.3599 50.9208 55.2661C50.9208 55.1723 50.8598 55.0473 50.7682 54.8911C49.7307 53.4221 48.5102 52.2344 47.1675 51.3592C46.8013 51.6093 46.191 51.8593 45.5503 52.0468C46.6488 53.4221 47.6252 54.9848 48.4186 56.7351C48.5102 56.9226 48.5407 57.0164 48.6017 57.0164C48.6933 57.0789 48.7848 57.0164 48.8763 56.9538ZM47.5337 57.5477C47.6252 57.5164 47.6862 57.4852 47.7168 57.3915C47.7473 57.2977 47.6558 57.1101 47.6558 57.1101C46.8929 55.2349 45.9775 53.4846 45.001 52.1406C44.4822 52.2344 43.4448 52.2969 43.1091 52.2969C43.1701 54.2034 43.2006 56.11 43.2311 57.9228C43.2311 58.079 43.2617 58.1728 43.3227 58.2353C43.3532 58.2666 43.4448 58.2978 43.5363 58.2978C44.7874 58.3291 46.5267 57.954 47.5337 57.5477ZM48.8458 71.9249C48.8458 71.8937 48.8153 71.8937 48.8153 71.8937C48.7848 71.8937 48.7237 71.9249 48.5712 71.9562C46.4352 72.6438 44.5738 72.8313 43.3837 72.8313C43.2006 72.8313 43.1701 72.8938 43.1701 73.0814L43.0786 74.7066C43.0786 74.7066 45.4892 74.7691 47.9304 73.7065C48.2661 73.2376 48.5712 72.7063 48.7848 72.1125C48.8153 72.0187 48.8458 71.9562 48.8458 71.9249ZM53.8502 62.9235C53.8502 62.8923 53.8197 62.9235 53.8197 62.9235C53.2399 63.4861 52.2024 64.2988 50.9819 64.9238C50.5851 65.1426 50.5241 65.2989 50.5241 65.6427C50.5546 67.643 50.3105 69.2058 49.8833 70.5185C49.8833 70.5185 49.8528 70.6122 49.9748 70.5497C50.0969 70.4872 51.8668 69.6121 53.0874 68.3619C53.5146 67.9556 53.8197 67.3305 53.8807 66.6741C54.1248 64.4238 53.8502 62.9235 53.8502 62.9235ZM54.4605 60.3294C55.2844 58.8917 55.2844 57.704 55.2844 57.704C55.2844 57.6415 55.2844 57.5477 55.2844 57.5164C54.9182 55.8599 54.0638 54.2972 52.7822 52.8595C52.8127 52.9845 52.8127 53.1408 52.8127 53.2658C52.8127 53.7659 52.6906 54.2972 52.4771 54.8285C52.3855 55.0161 52.355 55.1411 52.355 55.2349C52.355 55.3286 52.416 55.3911 52.4465 55.5161C52.416 55.5474 53.6976 57.3602 54.4605 60.3294ZM35.8771 64.455C35.9992 62.4235 36.5485 60.2669 37.3113 58.2353C37.3113 58.204 37.3418 58.1416 37.3418 58.1416C37.3418 58.079 37.3113 58.0478 37.1892 57.9853C35.9382 57.4227 34.9617 56.6413 34.3514 55.8287C34.3514 55.8287 34.3209 55.7662 34.3514 55.7349C34.3819 55.7037 34.443 55.7349 34.443 55.7349C35.1448 56.4538 36.2128 57.0476 37.4029 57.4852C37.4639 57.5164 37.4944 57.5164 37.5249 57.5164C37.586 57.5164 37.6164 57.4852 37.708 57.2977C38.5319 55.3599 39.5999 53.5471 40.79 52.0468C39.783 51.7968 38.7455 51.2342 38.5014 50.6404C38.5014 50.6404 38.4709 50.5779 38.5014 50.5466C38.5624 50.5154 38.5929 50.5779 38.5929 50.5779C39.722 51.8281 42.987 51.7343 42.987 51.7343C44.3602 51.7343 47.198 51.2342 47.198 50.0778C47.198 49.0151 45.7028 48.4525 42.9565 48.4213C34.6871 48.4213 30.2625 55.7349 30.2625 61.5483C30.2625 68.5494 36.0907 74.6754 42.8039 74.6754C42.8039 74.5504 42.7124 73.0188 42.7124 73.0188C42.7124 72.8626 42.6514 72.8001 42.4683 72.7688C42.4683 72.7688 39.5389 72.55 38.5624 72.05C38.5319 72.0187 38.5624 71.9875 38.5929 71.9875C38.5929 71.9875 40.5764 72.3312 42.4377 72.3312C42.4377 72.3312 42.6514 72.3312 42.6514 72.1125C42.6514 71.8937 42.5598 67.143 42.5598 67.143C42.5598 66.7679 42.4988 66.7366 42.1631 66.7054C40.1187 66.6116 38.1352 66.174 36.3959 65.4239C36.3349 65.3927 36.3349 65.3927 36.3043 65.4239C36.2738 65.4552 36.2738 65.5177 36.2738 65.5177C36.1213 67.7368 36.3654 69.8621 36.3654 69.8621C36.3654 69.8934 36.3654 69.9246 36.3349 69.9246C36.3043 69.9246 36.2738 69.8934 36.2738 69.8934C35.9687 68.7057 35.8161 67.4242 35.8161 66.049C35.8161 65.9553 35.8161 65.3927 35.8161 65.3927C35.8161 65.2364 35.7551 65.1426 35.633 65.0801C34.8091 64.6738 34.0768 64.1425 33.436 63.6111C33.436 63.6111 33.3749 63.5799 33.436 63.5174C33.4665 63.4861 33.497 63.5174 33.497 63.5174C34.1683 63.955 34.9312 64.33 35.7246 64.6738H35.8161C35.8771 64.6113 35.8771 64.5488 35.8771 64.455ZM51.7142 54.1409C51.9278 53.5471 51.9888 52.7345 51.7447 52.1719C51.5311 51.6093 50.7988 51.078 50.7988 51.078C49.7002 50.2028 48.4796 49.6715 47.8999 49.4215C47.9914 49.609 48.0524 49.7965 48.0524 49.9841C48.0524 50.3278 47.8999 50.6716 47.6252 51.0154C49.0594 51.8593 50.28 52.8908 51.3175 54.1409C51.3175 54.1409 51.5006 54.3597 51.5921 54.3597C51.6532 54.3285 51.7142 54.1409 51.7142 54.1409ZM54.8267 63.8299C54.8267 64.7363 54.7351 65.6114 54.5826 66.4554C55.2844 65.2052 55.8642 63.3924 55.8642 61.267C55.8642 60.6732 55.8031 60.0481 55.7116 59.423C55.5895 60.0481 55.3759 60.6732 55.0403 61.267C54.7962 61.6421 54.7351 61.9234 54.7351 62.2047C54.8267 63.0486 54.8267 63.8299 54.8267 63.8299ZM49.3035 72.05C49.0899 72.5188 48.8153 72.9876 48.5102 73.3939C50.0359 72.6126 51.7752 71.1123 52.9348 69.5496C52.0193 70.2997 50.9819 70.9561 49.8223 71.4561C49.6087 71.5499 49.3951 71.8312 49.3035 72.05ZM42.5903 59.5168C42.5903 59.2355 42.4683 59.1104 42.2242 59.0792C40.729 59.0167 39.2643 58.7354 38.0132 58.2666C37.9521 58.2353 37.8911 58.2353 37.8606 58.2353C37.8301 58.2353 37.7995 58.2666 37.7385 58.3603C36.5485 61.3921 36.3043 64.6738 36.3043 64.6738C36.3043 64.8301 36.3349 64.8613 36.4264 64.8926C36.4264 64.8926 38.9286 65.8615 42.1326 65.8615C42.1326 65.8615 42.3462 65.8615 42.4073 65.799C42.4988 65.7052 42.4988 65.6427 42.4988 65.3927C42.5598 63.7987 42.5903 59.5168 42.5903 59.5168ZM38.1047 57.4227C38.0132 57.6102 38.0742 57.6415 38.0742 57.6415C38.1047 57.6727 38.1352 57.704 38.1352 57.704C39.1117 58.0165 40.9425 58.3291 42.2547 58.3291C42.4073 58.3291 42.4683 58.2978 42.5293 58.2666C42.5904 58.204 42.6208 58.1103 42.6208 57.9228C42.6514 56.0787 42.7124 54.1722 42.8039 52.3282C42.2547 52.3282 41.5834 52.2344 41.0951 52.1094C39.905 53.7033 38.9286 55.4849 38.1047 57.4227ZM43.5668 65.8928C44.4517 65.8302 46.7403 65.674 49.0594 64.7676C49.3646 64.6426 49.4561 64.4863 49.4561 64.2363C49.4561 64.1737 49.4561 64.1112 49.4561 64.0487C49.212 62.2359 48.8153 60.4232 48.205 58.6104C48.1134 58.3603 48.083 58.3291 48.0219 58.3291C47.9914 58.3291 47.9304 58.3291 47.8389 58.3916C46.5572 58.8292 45.1535 59.0792 43.6583 59.1104C43.3837 59.1104 43.2922 59.3292 43.2922 59.5168C43.2922 60.4544 43.3227 61.9234 43.3227 63.9237C43.3227 64.4238 43.3227 65.1114 43.3227 65.5802C43.3227 65.5802 43.3227 65.7365 43.3837 65.799C43.4142 65.8615 43.4752 65.8928 43.5668 65.8928ZM24.0375 70.4872C25.014 73.1439 27.4246 73.3627 29.0724 74.9879C29.3776 75.3005 29.6827 75.5818 30.0183 75.7693L30.0489 75.738C29.6827 75.3317 29.2249 74.8629 28.9808 74.3316C28.0349 72.7063 28.3706 70.456 27.6382 68.737C28.279 69.6746 28.8588 70.6747 29.286 71.7374C29.8658 73.4877 30.0794 75.4568 31.4525 76.7694C29.9878 76.1756 28.279 76.3006 26.9974 75.2692C25.5937 74.1753 24.2816 72.4563 24.0375 70.4872ZM37.6164 78.1447C37.8301 78.1447 37.9826 78.0821 37.9826 78.0821C36.701 77.8009 35.6635 77.5508 34.565 76.6444C33.1308 75.4255 32.0323 74.1753 30.4761 73.1751C30.6592 73.3002 31.5746 75.1754 32.3375 76.3319C32.8562 77.1133 33.7106 77.5821 34.443 77.7696C35.0837 77.9259 35.2058 77.9884 35.2058 77.9884C35.2058 77.9884 35.1143 78.0509 34.8702 77.9884C34.8702 77.9884 32.7647 77.5508 31.6356 77.5508C27.1195 77.5508 25.9294 75.7693 25.9294 75.7693C27.2721 78.2697 30.0183 79.1761 31.8492 79.1761C34.443 79.1448 36.3654 78.1447 37.6164 78.1447ZM54.2164 79.1448C56.0167 79.1448 58.7935 78.2072 60.1362 75.738C60.1362 75.738 58.9766 77.5196 54.43 77.5196C53.3009 77.5196 51.1954 77.9571 51.1954 77.9571C50.9513 78.0196 50.8598 77.9571 50.8598 77.9571C50.8598 77.9571 50.9819 77.8946 51.6532 77.7383C52.3855 77.5508 53.2399 77.1133 53.7587 76.3006C54.5215 75.1754 55.4064 73.2689 55.6201 73.1439C54.0333 74.144 52.9348 75.3942 51.5311 76.6132C50.4326 77.5508 49.3646 77.7696 48.1134 78.0509C48.1134 78.0509 48.2661 78.1134 48.4796 78.1134C49.7002 78.1447 51.6532 79.1448 54.2164 79.1448ZM26.143 71.7374C26.5702 72.1125 27.4856 72.9876 27.6687 73.2376C27.6687 73.2376 27.5772 72.8938 27.4551 72.4563C27.3636 72.0187 27.211 70.9561 26.7838 70.0497C26.4481 69.3308 25.075 66.9867 24.8004 65.7052C24.8004 65.674 23.8239 69.7371 26.143 71.7374ZM54.6741 76.8007C56.1388 76.2069 57.8171 76.3319 59.1292 75.3005C60.5024 74.2066 61.784 72.4875 62.0586 70.5185C61.0821 73.1751 58.641 73.3939 57.0237 75.0191C56.7186 75.3317 56.4134 75.613 56.0777 75.8006L56.0473 75.7693C56.4134 75.363 56.8711 74.8942 57.1153 74.3628C58.0612 72.7376 57.7255 70.4872 58.4579 68.7682C57.8171 69.7059 57.2068 70.706 56.8406 71.7686C56.2304 73.5189 56.0167 75.488 54.6741 76.8007ZM51.0734 79.7386C48.8153 78.801 46.4657 77.6133 43.7804 78.1759C43.4752 78.2384 43.2311 78.3009 42.9565 78.3009C42.6819 78.3009 42.4377 78.2384 42.1326 78.1759C39.4168 77.6133 37.0672 78.801 34.8091 79.7386C33.1308 80.3638 30.9338 80.27 29.4386 79.3011C30.1709 80.1762 31.1474 80.7076 32.1544 81.0826C34.0463 81.8015 36.2738 81.3014 37.8301 80.27C39.1727 79.5511 40.3018 78.1447 42.0716 78.676C40.2712 79.4886 38.654 80.5825 37.1892 82.0203L38.1047 82.7391C38.1047 82.7391 39.844 80.3638 42.9565 78.926C46.0385 80.3325 47.7778 82.7391 47.7778 82.7391L48.6933 82.0203C47.2285 80.5825 45.5807 79.4574 43.7804 78.676C45.5503 78.1447 46.6793 79.5511 48.0219 80.27C49.5782 81.3014 51.8057 81.8015 53.6976 81.0826C54.7046 80.7076 55.6811 80.1762 56.4134 79.3011C54.9487 80.27 52.7517 80.3638 51.0734 79.7386ZM59.9531 71.7374C62.2722 69.7059 61.2958 65.674 61.2958 65.674C61.0211 66.9554 59.648 69.2995 59.3123 70.0184C58.8851 70.9248 58.7325 72.0187 58.641 72.425C58.5494 72.8626 58.4274 73.2064 58.4274 73.2064C58.58 72.9876 59.4954 72.1437 59.9531 71.7374ZM23.3662 60.2669C24.0375 60.3294 24.7393 60.3919 25.4106 60.4544C25.9599 60.5169 26.2345 60.2982 26.2956 59.7668C26.3261 59.5168 26.2956 59.3292 26.204 59.173C26.082 58.9542 25.8989 58.8604 25.5327 58.8292C24.8614 58.7666 24.2206 58.6729 23.5493 58.6104C23.4882 58.7666 23.3967 58.8917 23.3357 59.048C23.2746 59.048 23.2441 59.048 23.1831 59.048C23.2441 58.6104 23.2746 58.1728 23.3357 57.7352C23.3967 57.7352 23.4272 57.7352 23.4882 57.7665C23.5187 57.9228 23.5798 58.079 23.6103 58.2353C24.2511 58.2978 24.8614 58.3916 25.5022 58.4541C25.9904 58.5166 26.2651 58.6729 26.4481 59.0167C26.6007 59.298 26.6312 59.6105 26.6007 59.9856C26.5092 60.8295 26.1125 61.2358 25.4106 61.2045C24.7393 61.142 24.0375 61.0795 23.3662 61.0483C23.3051 61.2045 23.2136 61.3295 23.1526 61.4858C23.0915 61.4858 23.061 61.4858 23 61.4858C23.0305 60.9545 23.0915 60.4232 23.1221 59.8918C23.1831 59.8918 23.2136 59.8918 23.2746 59.8918C23.2746 59.9543 23.3051 60.1106 23.3662 60.2669ZM24.4647 56.1413C25.197 56.3913 25.9294 56.6413 26.6923 56.8914C26.7838 56.7663 26.8753 56.6726 26.9974 56.5476C27.0279 56.5476 27.0889 56.5788 27.1195 56.61C26.9974 56.9851 26.8753 57.3602 26.7533 57.7352C26.7228 57.7352 26.6617 57.704 26.6312 57.704C26.6007 57.5477 26.6007 57.3915 26.6007 57.2352C25.7158 56.9538 24.8614 56.6726 23.9765 56.36C23.8849 56.4851 23.7629 56.6101 23.6713 56.7351C23.6103 56.7351 23.5798 56.7038 23.5493 56.7038C23.6408 56.36 23.7629 56.0162 23.8544 55.7037C24.7698 55.3599 25.6853 55.0473 26.6007 54.7348C25.9904 54.516 25.3496 54.2659 24.7393 54.0472C24.6478 54.1722 24.5257 54.2659 24.4342 54.391C24.3732 54.391 24.3426 54.3597 24.3121 54.3285C24.4342 53.9534 24.5868 53.5471 24.7088 53.172C24.7393 53.172 24.8004 53.2033 24.8309 53.2346C24.8309 53.3908 24.8309 53.5471 24.8614 53.7346C25.8379 54.1097 26.8143 54.4535 27.7908 54.8285C27.7603 54.9223 27.7297 54.9848 27.6993 55.0786C26.6007 55.3599 25.5327 55.7349 24.4647 56.1413ZM29.286 50.0153L30.0489 50.5779C29.8658 51.0467 29.7437 51.3592 29.5301 51.6406C28.9198 52.5469 28.0044 52.7345 27.15 52.0781C26.2651 51.453 25.9904 50.5154 26.7533 49.4527C26.9364 49.2026 27.1805 48.9526 27.4856 48.6401L27.5467 48.5776L28.218 49.0777L28.0654 49.2964L27.3941 49.1089C27.3025 49.1714 27.2415 49.2339 27.15 49.3277C26.4787 50.1716 26.6923 50.9217 27.5162 51.5155C28.2485 52.0156 28.9808 51.9218 29.4386 51.2342C29.5301 51.1092 29.5301 51.0154 29.5301 51.0154L28.8588 50.5154L28.4621 50.7654L28.34 50.6716L29.225 49.4527L29.347 49.5152L29.286 50.0153ZM30.6897 49.6402L28.7367 47.6087L28.3095 47.7962L28.218 47.7024L29.286 46.6085L29.3776 46.7023L29.1945 47.1398L31.1779 49.2026L31.7882 48.5776L31.5746 47.89L31.7272 47.7337L32.2764 48.4213C32.2764 48.4213 31.422 49.2339 30.5981 50.1403L30.5066 50.0465L30.6897 49.6402ZM31.6356 46.8585C30.9948 45.9209 31.1474 44.9207 32.0933 44.2957C32.9782 43.7331 33.8327 43.9831 34.3209 44.8582C34.8702 45.7959 34.7176 46.8273 33.8632 47.3899C33.0698 47.9212 32.2154 47.7024 31.6356 46.8585ZM32.1238 46.3585C32.6731 47.1398 33.3139 47.3899 33.8021 47.0773C34.2599 46.796 34.2599 46.0459 33.8021 45.2646C33.375 44.5144 32.7341 44.1706 32.1544 44.5457C31.5746 44.952 31.6051 45.6083 32.1238 46.3585ZM35.9077 45.7959L34.8091 43.1705H34.3514L34.2904 43.0455L35.8161 42.3891C36.1823 42.2328 36.4264 42.2328 36.6705 42.3266C36.8841 42.3891 37.0367 42.5454 37.1282 42.7642C37.3113 43.2017 37.0672 43.6393 36.5179 43.9518C37.1892 43.7018 37.647 43.8581 37.8301 44.3582C37.9216 44.6395 37.8911 44.9207 37.7385 45.1395C37.586 45.3583 37.3723 45.5146 36.9451 45.7021L35.633 46.2647L35.572 46.1084L35.9077 45.7959ZM35.9077 44.0769L36.1213 43.9831C36.4874 43.8268 36.6705 43.4518 36.5179 43.0767C36.3654 42.6704 36.0602 42.5454 35.694 42.7017L35.3889 42.8267L35.9077 44.0769ZM36.5179 45.5771L36.701 45.4834C36.9757 45.3583 37.0672 45.2958 37.1892 45.1083C37.2808 44.9207 37.2808 44.7332 37.1892 44.5457C37.0367 44.1081 36.6705 43.9831 36.2128 44.1706L35.9687 44.2957L36.5179 45.5771ZM39.1727 43.5768L38.9896 44.6395L39.4168 44.7332L39.4473 44.8582L38.3183 45.1395L38.2878 45.0145L38.6235 44.7645L39.3863 41.2952L39.6609 41.2639L41.4003 44.2331L41.797 44.3269L41.8275 44.4832L40.3628 44.702L40.3322 44.5769L40.6984 44.3269L40.2102 43.3893L39.1727 43.5768ZM39.2337 43.2955L40.0881 43.1392L39.5084 42.0453L39.2337 43.2955ZM42.5598 44.1706L42.5903 41.3577L42.1631 41.1702V41.0139C42.9565 40.9826 43.6583 41.0139 43.6583 41.0139V41.1389L43.2311 41.3264L43.2006 44.2331L43.994 44.2644L44.3297 43.6393H44.5433L44.4517 44.5457C44.4517 44.5457 43.1701 44.4832 42.1326 44.5144V44.3894L42.5598 44.1706ZM48.2661 45.0458L48.6933 44.4519L48.9068 44.5144L48.6627 45.3271H48.5712C48.083 45.3271 47.8389 45.2958 47.5337 45.202C46.5267 44.9207 46.0995 44.1394 46.3436 43.0767C46.5877 41.9828 47.3201 41.4827 48.6017 41.7953C48.9068 41.8578 49.212 42.014 49.5782 42.2328L49.3646 43.0455L49.151 42.9829L49.0899 42.2328C49.0899 42.2328 48.9679 42.1703 48.8153 42.1391C47.7168 41.8578 47.198 42.3891 47.0149 43.233C46.8319 44.1081 47.1675 44.7645 47.9304 44.9833C48.0524 45.0145 48.144 45.0145 48.2661 45.0458ZM54.6436 47.8587L56.9932 46.7648L57.7561 47.5461L57.6645 47.6712L57.2068 47.5149L55.2844 49.5464L55.498 49.9841L55.4064 50.109C54.8877 49.5777 54.3995 49.0777 54.3995 49.0777L54.491 48.9526L54.9182 49.1089L56.4745 47.4211L53.9112 48.6088L53.8197 48.5151L54.5826 45.7334L53.1789 47.5461L53.3619 47.9525L53.2704 48.0775L52.294 47.3586L52.355 47.2023L52.7822 47.3586L54.552 45.1708L54.3384 44.7332L54.43 44.6082L55.3149 45.2646L54.6436 47.8587ZM57.4814 50.3904L56.627 51.078L56.7186 51.5468L56.5965 51.6406C56.1693 51.0467 55.6811 50.4216 55.6811 50.4216L55.8031 50.3278L56.1998 50.5466L58.3663 48.8276L58.2748 48.39L58.3969 48.2963L59.2818 49.484C59.5869 49.8903 59.6785 50.1403 59.6785 50.4528C59.6785 50.7342 59.5564 51.0154 59.3123 51.203C58.7935 51.578 58.1833 51.3905 57.695 50.7342L57.4814 50.3904ZM57.7561 50.3904C57.9086 50.6091 58.0307 50.7029 58.1833 50.7654C58.3969 50.8279 58.641 50.7966 58.8546 50.6091C59.0682 50.4528 59.1597 50.2966 59.1903 50.109C59.2207 49.9215 59.1903 49.7965 59.0377 49.5777L58.8241 49.3277L57.634 50.2966L57.7561 50.3904ZM58.8241 52.7657L57.7866 52.8282L57.8171 53.2658L57.695 53.3283C57.4204 52.8282 57.1153 52.3282 57.1153 52.3282L57.2373 52.2656L57.573 52.5469L61.0211 52.3594L61.1432 52.6407L58.8241 55.1411V55.5787L58.702 55.6412C58.4274 54.9223 58.1528 54.2972 58.1528 54.2972L58.2748 54.2347L58.6104 54.516L59.3123 53.7659L58.8241 52.7657ZM59.0987 52.7345L59.4649 53.5158L60.3498 52.6407L59.0987 52.7345ZM59.6175 57.8602L60.3498 57.9228L60.4108 58.1416L59.5869 58.3291L59.5564 58.2666C59.3123 57.829 59.2207 57.6102 59.1292 57.2977C58.8546 56.2663 59.3123 55.5161 60.2888 55.1723C61.3568 54.7973 62.2112 55.3599 62.5163 56.5163C62.6079 56.8289 62.6384 57.2039 62.6384 57.6415L61.8145 57.8602L61.7534 57.6415L62.3333 57.2039C62.3333 57.1101 62.3027 56.9851 62.3027 56.8914C62.0281 55.9225 61.3568 55.5474 60.4718 55.8599C59.6175 56.1413 59.2207 56.7351 59.4649 57.5477C59.5259 57.6727 59.5564 57.7352 59.6175 57.8602ZM62.7604 60.3294L59.9531 60.5482L59.831 61.142H59.709C59.6785 60.2044 59.5869 59.3292 59.5869 59.3292H59.7395L59.9531 59.8918L62.7299 59.673L62.6689 58.9542L61.9365 58.7666L61.9061 58.5479L62.852 58.4854C62.852 58.4854 63.0656 60.0168 63.0656 61.5483L62.1196 61.6108L62.0891 61.3921L62.7604 61.0795V60.3294ZM49.8528 44.1081C50.3105 43.0767 51.2565 42.7017 52.2634 43.233C53.2094 43.7331 53.3925 44.6082 52.9348 45.4834C52.416 46.4522 51.4701 46.8273 50.5546 46.3585C49.6697 45.9209 49.4256 45.0458 49.8528 44.1081ZM50.5241 44.2957C50.1579 45.1708 50.28 45.8896 50.7377 46.1397C51.226 46.3897 51.8363 46.0459 52.294 45.2333C52.6906 44.4519 52.6601 43.7331 52.0804 43.4205C51.4395 43.0767 50.8903 43.4518 50.5241 44.2957ZM50.4631 64.0175C50.3716 63.955 50.341 63.6111 50.341 63.6111C50.1274 61.8296 49.6697 60.0481 49.0289 58.2978C48.9984 58.204 48.9679 58.1416 48.9679 58.079C48.9679 57.9853 49.0289 57.9228 49.212 57.7978C50.0969 57.3602 50.7988 56.8601 51.348 56.2975C51.4395 56.2037 51.5006 56.1725 51.5311 56.1725C51.5616 56.1725 51.6226 56.2037 51.6837 56.3288C52.4771 57.7352 53.0568 59.298 53.4535 60.9232C53.484 61.1107 53.5146 61.2358 53.5146 61.3608C53.5146 61.6108 53.423 61.7359 53.2399 61.9546C52.7212 62.486 51.7752 63.2673 50.7988 63.8925C50.7988 63.9237 50.5546 64.08 50.4631 64.0175ZM49.6392 66.049C49.6392 66.049 49.6392 65.7365 49.5477 65.674C49.4561 65.6114 49.212 65.7052 49.212 65.7052C47.5032 66.3303 45.6418 66.6429 43.6889 66.7054C43.3227 66.7366 43.3227 66.8304 43.3227 67.1117C43.2922 68.8932 43.2617 70.5497 43.2311 72.05C43.2311 72.05 43.2311 72.2063 43.2617 72.2687C43.3227 72.3312 43.4448 72.3 43.4448 72.3C45.3977 72.175 47.2285 71.7374 48.9374 71.0185C49.1815 70.9248 49.2425 70.7685 49.3035 70.456C49.7613 68.5807 49.6392 66.049 49.6392 66.049ZM48.8763 56.9538C49.6392 56.5476 50.341 56.0162 50.7988 55.5474C50.8903 55.4536 50.9208 55.3599 50.9208 55.2661C50.9208 55.1723 50.8598 55.0473 50.7682 54.8911C49.7307 53.4221 48.5102 52.2344 47.1675 51.3592C46.8013 51.6093 46.191 51.8593 45.5503 52.0468C46.6488 53.4221 47.6252 54.9848 48.4186 56.7351C48.5102 56.9226 48.5407 57.0164 48.6017 57.0164C48.6933 57.0789 48.7848 57.0164 48.8763 56.9538ZM47.5337 57.5477C47.6252 57.5164 47.6862 57.4852 47.7168 57.3915C47.7473 57.2977 47.6558 57.1101 47.6558 57.1101C46.8929 55.2349 45.9775 53.4846 45.001 52.1406C44.4822 52.2344 43.4448 52.2969 43.1091 52.2969C43.1701 54.2034 43.2006 56.11 43.2311 57.9228C43.2311 58.079 43.2617 58.1728 43.3227 58.2353C43.3532 58.2666 43.4448 58.2978 43.5363 58.2978C44.7874 58.3291 46.5267 57.954 47.5337 57.5477ZM48.8458 71.9249C48.8458 71.8937 48.8153 71.8937 48.8153 71.8937C48.7848 71.8937 48.7237 71.9249 48.5712 71.9562C46.4352 72.6438 44.5738 72.8313 43.3837 72.8313C43.2006 72.8313 43.1701 72.8938 43.1701 73.0814L43.0786 74.7066C43.0786 74.7066 45.4892 74.7691 47.9304 73.7065C48.2661 73.2376 48.5712 72.7063 48.7848 72.1125C48.8153 72.0187 48.8458 71.9562 48.8458 71.9249ZM53.8502 62.9235C53.8502 62.8923 53.8197 62.9235 53.8197 62.9235C53.2399 63.4861 52.2024 64.2988 50.9819 64.9238C50.5851 65.1426 50.5241 65.2989 50.5241 65.6427C50.5546 67.643 50.3105 69.2058 49.8833 70.5185C49.8833 70.5185 49.8528 70.6122 49.9748 70.5497C50.0969 70.4872 51.8668 69.6121 53.0874 68.3619C53.5146 67.9556 53.8197 67.3305 53.8807 66.6741C54.1248 64.4238 53.8502 62.9235 53.8502 62.9235ZM54.4605 60.3294C55.2844 58.8917 55.2844 57.704 55.2844 57.704C55.2844 57.6415 55.2844 57.5477 55.2844 57.5164C54.9182 55.8599 54.0638 54.2972 52.7822 52.8595C52.8127 52.9845 52.8127 53.1408 52.8127 53.2658C52.8127 53.7659 52.6906 54.2972 52.4771 54.8285C52.3855 55.0161 52.355 55.1411 52.355 55.2349C52.355 55.3286 52.416 55.3911 52.4465 55.5161C52.416 55.5474 53.6976 57.3602 54.4605 60.3294ZM35.8771 64.455C35.9992 62.4235 36.5485 60.2669 37.3113 58.2353C37.3113 58.204 37.3418 58.1416 37.3418 58.1416C37.3418 58.079 37.3113 58.0478 37.1892 57.9853C35.9382 57.4227 34.9617 56.6413 34.3514 55.8287C34.3514 55.8287 34.3209 55.7662 34.3514 55.7349C34.3819 55.7037 34.443 55.7349 34.443 55.7349C35.1448 56.4538 36.2128 57.0476 37.4029 57.4852C37.4639 57.5164 37.4944 57.5164 37.5249 57.5164C37.586 57.5164 37.6164 57.4852 37.708 57.2977C38.5319 55.3599 39.5999 53.5471 40.79 52.0468C39.783 51.7968 38.7455 51.2342 38.5014 50.6404C38.5014 50.6404 38.4709 50.5779 38.5014 50.5466C38.5624 50.5154 38.5929 50.5779 38.5929 50.5779C39.722 51.8281 42.987 51.7343 42.987 51.7343C44.3602 51.7343 47.198 51.2342 47.198 50.0778C47.198 49.0151 45.7028 48.4525 42.9565 48.4213C34.6871 48.4213 30.2625 55.7349 30.2625 61.5483C30.2625 68.5494 36.0907 74.6754 42.8039 74.6754C42.8039 74.5504 42.7124 73.0188 42.7124 73.0188C42.7124 72.8626 42.6514 72.8001 42.4683 72.7688C42.4683 72.7688 39.5389 72.55 38.5624 72.05C38.5319 72.0187 38.5624 71.9875 38.5929 71.9875C38.5929 71.9875 40.5764 72.3312 42.4377 72.3312C42.4377 72.3312 42.6514 72.3312 42.6514 72.1125C42.6514 71.8937 42.5598 67.143 42.5598 67.143C42.5598 66.7679 42.4988 66.7366 42.1631 66.7054C40.1187 66.6116 38.1352 66.174 36.3959 65.4239C36.3349 65.3927 36.3349 65.3927 36.3043 65.4239C36.2738 65.4552 36.2738 65.5177 36.2738 65.5177C36.1213 67.7368 36.3654 69.8621 36.3654 69.8621C36.3654 69.8934 36.3654 69.9246 36.3349 69.9246C36.3043 69.9246 36.2738 69.8934 36.2738 69.8934C35.9687 68.7057 35.8161 67.4242 35.8161 66.049C35.8161 65.9553 35.8161 65.3927 35.8161 65.3927C35.8161 65.2364 35.7551 65.1426 35.633 65.0801C34.8091 64.6738 34.0768 64.1425 33.436 63.6111C33.436 63.6111 33.3749 63.5799 33.436 63.5174C33.4665 63.4861 33.497 63.5174 33.497 63.5174C34.1683 63.955 34.9312 64.33 35.7246 64.6738H35.8161C35.8771 64.6113 35.8771 64.5488 35.8771 64.455ZM51.7142 54.1409C51.9278 53.5471 51.9888 52.7345 51.7447 52.1719C51.5311 51.6093 50.7988 51.078 50.7988 51.078C49.7002 50.2028 48.4796 49.6715 47.8999 49.4215C47.9914 49.609 48.0524 49.7965 48.0524 49.9841C48.0524 50.3278 47.8999 50.6716 47.6252 51.0154C49.0594 51.8593 50.28 52.8908 51.3175 54.1409C51.3175 54.1409 51.5006 54.3597 51.5921 54.3597C51.6532 54.3285 51.7142 54.1409 51.7142 54.1409ZM54.8267 63.8299C54.8267 64.7363 54.7351 65.6114 54.5826 66.4554C55.2844 65.2052 55.8642 63.3924 55.8642 61.267C55.8642 60.6732 55.8031 60.0481 55.7116 59.423C55.5895 60.0481 55.3759 60.6732 55.0403 61.267C54.7962 61.6421 54.7351 61.9234 54.7351 62.2047C54.8267 63.0486 54.8267 63.8299 54.8267 63.8299ZM49.3035 72.05C49.0899 72.5188 48.8153 72.9876 48.5102 73.3939C50.0359 72.6126 51.7752 71.1123 52.9348 69.5496C52.0193 70.2997 50.9819 70.9561 49.8223 71.4561C49.6087 71.5499 49.3951 71.8312 49.3035 72.05ZM42.5903 59.5168C42.5903 59.2355 42.4683 59.1104 42.2242 59.0792C40.729 59.0167 39.2643 58.7354 38.0132 58.2666C37.9521 58.2353 37.8911 58.2353 37.8606 58.2353C37.8301 58.2353 37.7995 58.2666 37.7385 58.3603C36.5485 61.3921 36.3043 64.6738 36.3043 64.6738C36.3043 64.8301 36.3349 64.8613 36.4264 64.8926C36.4264 64.8926 38.9286 65.8615 42.1326 65.8615C42.1326 65.8615 42.3462 65.8615 42.4073 65.799C42.4988 65.7052 42.4988 65.6427 42.4988 65.3927C42.5598 63.7987 42.5903 59.5168 42.5903 59.5168ZM38.1047 57.4227C38.0132 57.6102 38.0742 57.6415 38.0742 57.6415C38.1047 57.6727 38.1352 57.704 38.1352 57.704C39.1117 58.0165 40.9425 58.3291 42.2547 58.3291C42.4073 58.3291 42.4683 58.2978 42.5293 58.2666C42.5904 58.204 42.6208 58.1103 42.6208 57.9228C42.6514 56.0787 42.7124 54.1722 42.8039 52.3282C42.2547 52.3282 41.5834 52.2344 41.0951 52.1094C39.905 53.7033 38.9286 55.4849 38.1047 57.4227ZM43.5668 65.8928C44.4517 65.8302 46.7403 65.674 49.0594 64.7676C49.3646 64.6426 49.4561 64.4863 49.4561 64.2363C49.4561 64.1737 49.4561 64.1112 49.4561 64.0487C49.212 62.2359 48.8153 60.4232 48.205 58.6104C48.1134 58.3603 48.083 58.3291 48.0219 58.3291C47.9914 58.3291 47.9304 58.3291 47.8389 58.3916C46.5572 58.8292 45.1535 59.0792 43.6583 59.1104C43.3837 59.1104 43.2922 59.3292 43.2922 59.5168C43.2922 60.4544 43.3227 61.9234 43.3227 63.9237C43.3227 64.4238 43.3227 65.1114 43.3227 65.5802C43.3227 65.5802 43.3227 65.7365 43.3837 65.799C43.4142 65.8615 43.4752 65.8928 43.5668 65.8928ZM24.0375 70.4872C25.014 73.1439 27.4246 73.3627 29.0724 74.9879C29.3776 75.3005 29.6827 75.5818 30.0183 75.7693L30.0489 75.738C29.6827 75.3317 29.2249 74.8629 28.9808 74.3316C28.0349 72.7063 28.3706 70.456 27.6382 68.737C28.279 69.6746 28.8588 70.6747 29.286 71.7374C29.8658 73.4877 30.0794 75.4568 31.4525 76.7694C29.9878 76.1756 28.279 76.3006 26.9974 75.2692C25.5937 74.1753 24.2816 72.4563 24.0375 70.4872ZM37.6164 78.1447C37.8301 78.1447 37.9826 78.0821 37.9826 78.0821C36.701 77.8009 35.6635 77.5508 34.565 76.6444C33.1308 75.4255 32.0323 74.1753 30.4761 73.1751C30.6592 73.3002 31.5746 75.1754 32.3375 76.3319C32.8562 77.1133 33.7106 77.5821 34.443 77.7696C35.0837 77.9259 35.2058 77.9884 35.2058 77.9884C35.2058 77.9884 35.1143 78.0509 34.8702 77.9884C34.8702 77.9884 32.7647 77.5508 31.6356 77.5508C27.1195 77.5508 25.9294 75.7693 25.9294 75.7693C27.2721 78.2697 30.0183 79.1761 31.8492 79.1761C34.443 79.1448 36.3654 78.1447 37.6164 78.1447ZM54.2164 79.1448C56.0167 79.1448 58.7935 78.2072 60.1362 75.738C60.1362 75.738 58.9766 77.5196 54.43 77.5196C53.3009 77.5196 51.1954 77.9571 51.1954 77.9571C50.9513 78.0196 50.8598 77.9571 50.8598 77.9571C50.8598 77.9571 50.9819 77.8946 51.6532 77.7383C52.3855 77.5508 53.2399 77.1133 53.7587 76.3006C54.5215 75.1754 55.4064 73.2689 55.6201 73.1439C54.0333 74.144 52.9348 75.3942 51.5311 76.6132C50.4326 77.5508 49.3646 77.7696 48.1134 78.0509C48.1134 78.0509 48.2661 78.1134 48.4796 78.1134C49.7002 78.1447 51.6532 79.1448 54.2164 79.1448ZM26.143 71.7374C26.5702 72.1125 27.4856 72.9876 27.6687 73.2376C27.6687 73.2376 27.5772 72.8938 27.4551 72.4563C27.3636 72.0187 27.211 70.9561 26.7838 70.0497C26.4481 69.3308 25.075 66.9867 24.8004 65.7052C24.8004 65.674 23.8239 69.7371 26.143 71.7374ZM54.6741 76.8007C56.1388 76.2069 57.8171 76.3319 59.1292 75.3005C60.5024 74.2066 61.784 72.4875 62.0586 70.5185C61.0821 73.1751 58.641 73.3939 57.0237 75.0191C56.7186 75.3317 56.4134 75.613 56.0777 75.8006L56.0473 75.7693C56.4134 75.363 56.8711 74.8942 57.1153 74.3628C58.0612 72.7376 57.7255 70.4872 58.4579 68.7682C57.8171 69.7059 57.2068 70.706 56.8406 71.7686C56.2304 73.5189 56.0167 75.488 54.6741 76.8007ZM51.0734 79.7386C48.8153 78.801 46.4657 77.6133 43.7804 78.1759C43.4752 78.2384 43.2311 78.3009 42.9565 78.3009C42.6819 78.3009 42.4377 78.2384 42.1326 78.1759C39.4168 77.6133 37.0672 78.801 34.8091 79.7386C33.1308 80.3638 30.9338 80.27 29.4386 79.3011C30.1709 80.1762 31.1474 80.7076 32.1544 81.0826C34.0463 81.8015 36.2738 81.3014 37.8301 80.27C39.1727 79.5511 40.3018 78.1447 42.0716 78.676C40.2712 79.4886 38.654 80.5825 37.1892 82.0203L38.1047 82.7391C38.1047 82.7391 39.844 80.3638 42.9565 78.926C46.0385 80.3325 47.7778 82.7391 47.7778 82.7391L48.6933 82.0203C47.2285 80.5825 45.5807 79.4574 43.7804 78.676C45.5503 78.1447 46.6793 79.5511 48.0219 80.27C49.5782 81.3014 51.8057 81.8015 53.6976 81.0826C54.7046 80.7076 55.6811 80.1762 56.4134 79.3011C54.9487 80.27 52.7517 80.3638 51.0734 79.7386ZM59.9531 71.7374C62.2722 69.7059 61.2958 65.674 61.2958 65.674C61.0211 66.9554 59.648 69.2995 59.3123 70.0184C58.8851 70.9248 58.7325 72.0187 58.641 72.425C58.5494 72.8626 58.4274 73.2064 58.4274 73.2064C58.58 72.9876 59.4954 72.1437 59.9531 71.7374ZM23.3662 60.2669C24.0375 60.3294 24.7393 60.3919 25.4106 60.4544C25.9599 60.5169 26.2345 60.2982 26.2956 59.7668C26.3261 59.5168 26.2956 59.3292 26.204 59.173C26.082 58.9542 25.8989 58.8604 25.5327 58.8292C24.8614 58.7666 24.2206 58.6729 23.5493 58.6104C23.4882 58.7666 23.3967 58.8917 23.3357 59.048C23.2746 59.048 23.2441 59.048 23.1831 59.048C23.2441 58.6104 23.2746 58.1728 23.3357 57.7352C23.3967 57.7352 23.4272 57.7352 23.4882 57.7665C23.5187 57.9228 23.5798 58.079 23.6103 58.2353C24.2511 58.2978 24.8614 58.3916 25.5022 58.4541C25.9904 58.5166 26.2651 58.6729 26.4481 59.0167C26.6007 59.298 26.6312 59.6105 26.6007 59.9856C26.5092 60.8295 26.1125 61.2358 25.4106 61.2045C24.7393 61.142 24.0375 61.0795 23.3662 61.0483C23.3051 61.2045 23.2136 61.3295 23.1526 61.4858C23.0915 61.4858 23.061 61.4858 23 61.4858C23.0305 60.9545 23.0915 60.4232 23.1221 59.8918C23.1831 59.8918 23.2136 59.8918 23.2746 59.8918C23.2746 59.9543 23.3051 60.1106 23.3662 60.2669ZM24.4647 56.1413C25.197 56.3913 25.9294 56.6413 26.6923 56.8914C26.7838 56.7663 26.8753 56.6726 26.9974 56.5476C27.0279 56.5476 27.0889 56.5788 27.1195 56.61C26.9974 56.9851 26.8753 57.3602 26.7533 57.7352C26.7228 57.7352 26.6617 57.704 26.6312 57.704C26.6007 57.5477 26.6007 57.3915 26.6007 57.2352C25.7158 56.9538 24.8614 56.6726 23.9765 56.36C23.8849 56.4851 23.7629 56.6101 23.6713 56.7351C23.6103 56.7351 23.5798 56.7038 23.5493 56.7038C23.6408 56.36 23.7629 56.0162 23.8544 55.7037C24.7698 55.3599 25.6853 55.0473 26.6007 54.7348C25.9904 54.516 25.3496 54.2659 24.7393 54.0472C24.6478 54.1722 24.5257 54.2659 24.4342 54.391C24.3732 54.391 24.3426 54.3597 24.3121 54.3285C24.4342 53.9534 24.5868 53.5471 24.7088 53.172C24.7393 53.172 24.8004 53.2033 24.8309 53.2346C24.8309 53.3908 24.8309 53.5471 24.8614 53.7346C25.8379 54.1097 26.8143 54.4535 27.7908 54.8285C27.7603 54.9223 27.7297 54.9848 27.6993 55.0786C26.6007 55.3599 25.5327 55.7349 24.4647 56.1413ZM29.286 50.0153L30.0489 50.5779C29.8658 51.0467 29.7437 51.3592 29.5301 51.6406C28.9198 52.5469 28.0044 52.7345 27.15 52.0781C26.2651 51.453 25.9904 50.5154 26.7533 49.4527C26.9364 49.2026 27.1805 48.9526 27.4856 48.6401L27.5467 48.5776L28.218 49.0777L28.0654 49.2964L27.3941 49.1089C27.3025 49.1714 27.2415 49.2339 27.15 49.3277C26.4787 50.1716 26.6923 50.9217 27.5162 51.5155C28.2485 52.0156 28.9808 51.9218 29.4386 51.2342C29.5301 51.1092 29.5301 51.0154 29.5301 51.0154L28.8588 50.5154L28.4621 50.7654L28.34 50.6716L29.225 49.4527L29.347 49.5152L29.286 50.0153ZM30.6897 49.6402L28.7367 47.6087L28.3095 47.7962L28.218 47.7024L29.286 46.6085L29.3776 46.7023L29.1945 47.1398L31.1779 49.2026L31.7882 48.5776L31.5746 47.89L31.7272 47.7337L32.2764 48.4213C32.2764 48.4213 31.422 49.2339 30.5981 50.1403L30.5066 50.0465L30.6897 49.6402ZM31.6356 46.8585C30.9948 45.9209 31.1474 44.9207 32.0933 44.2957C32.9782 43.7331 33.8327 43.9831 34.3209 44.8582C34.8702 45.7959 34.7176 46.8273 33.8632 47.3899C33.0698 47.9212 32.2154 47.7024 31.6356 46.8585ZM32.1238 46.3585C32.6731 47.1398 33.3139 47.3899 33.8021 47.0773C34.2599 46.796 34.2599 46.0459 33.8021 45.2646C33.375 44.5144 32.7341 44.1706 32.1544 44.5457C31.5746 44.952 31.6051 45.6083 32.1238 46.3585ZM35.9077 45.7959L34.8091 43.1705H34.3514L34.2904 43.0455L35.8161 42.3891C36.1823 42.2328 36.4264 42.2328 36.6705 42.3266C36.8841 42.3891 37.0367 42.5454 37.1282 42.7642C37.3113 43.2017 37.0672 43.6393 36.5179 43.9518C37.1892 43.7018 37.647 43.8581 37.8301 44.3582C37.9216 44.6395 37.8911 44.9207 37.7385 45.1395C37.586 45.3583 37.3723 45.5146 36.9451 45.7021L35.633 46.2647L35.572 46.1084L35.9077 45.7959ZM35.9077 44.0769L36.1213 43.9831C36.4874 43.8268 36.6705 43.4518 36.5179 43.0767C36.3654 42.6704 36.0602 42.5454 35.694 42.7017L35.3889 42.8267L35.9077 44.0769ZM36.5179 45.5771L36.701 45.4834C36.9757 45.3583 37.0672 45.2958 37.1892 45.1083C37.2808 44.9207 37.2808 44.7332 37.1892 44.5457C37.0367 44.1081 36.6705 43.9831 36.2128 44.1706L35.9687 44.2957L36.5179 45.5771ZM39.1727 43.5768L38.9896 44.6395L39.4168 44.7332L39.4473 44.8582L38.3183 45.1395L38.2878 45.0145L38.6235 44.7645L39.3863 41.2952L39.6609 41.2639L41.4003 44.2331L41.797 44.3269L41.8275 44.4832L40.3628 44.702L40.3322 44.5769L40.6984 44.3269L40.2102 43.3893L39.1727 43.5768ZM39.2337 43.2955L40.0881 43.1392L39.5084 42.0453L39.2337 43.2955ZM42.5598 44.1706L42.5903 41.3577L42.1631 41.1702V41.0139C42.9565 40.9826 43.6583 41.0139 43.6583 41.0139V41.1389L43.2311 41.3264L43.2006 44.2331L43.994 44.2644L44.3297 43.6393H44.5433L44.4517 44.5457C44.4517 44.5457 43.1701 44.4832 42.1326 44.5144V44.3894L42.5598 44.1706ZM48.2661 45.0458L48.6933 44.4519L48.9068 44.5144L48.6627 45.3271H48.5712C48.083 45.3271 47.8389 45.2958 47.5337 45.202C46.5267 44.9207 46.0995 44.1394 46.3436 43.0767C46.5877 41.9828 47.3201 41.4827 48.6017 41.7953C48.9068 41.8578 49.212 42.014 49.5782 42.2328L49.3646 43.0455L49.151 42.9829L49.0899 42.2328C49.0899 42.2328 48.9679 42.1703 48.8153 42.1391C47.7168 41.8578 47.198 42.3891 47.0149 43.233C46.8319 44.1081 47.1675 44.7645 47.9304 44.9833C48.0524 45.0145 48.144 45.0145 48.2661 45.0458ZM54.6436 47.8587L56.9932 46.7648L57.7561 47.5461L57.6645 47.6712L57.2068 47.5149L55.2844 49.5464L55.498 49.9841L55.4064 50.109C54.8877 49.5777 54.3995 49.0777 54.3995 49.0777L54.491 48.9526L54.9182 49.1089L56.4745 47.4211L53.9112 48.6088L53.8197 48.5151L54.5826 45.7334L53.1789 47.5461L53.3619 47.9525L53.2704 48.0775L52.294 47.3586L52.355 47.2023L52.7822 47.3586L54.552 45.1708L54.3384 44.7332L54.43 44.6082L55.3149 45.2646L54.6436 47.8587ZM57.4814 50.3904L56.627 51.078L56.7186 51.5468L56.5965 51.6406C56.1693 51.0467 55.6811 50.4216 55.6811 50.4216L55.8031 50.3278L56.1998 50.5466L58.3663 48.8276L58.2748 48.39L58.3969 48.2963L59.2818 49.484C59.5869 49.8903 59.6785 50.1403 59.6785 50.4528C59.6785 50.7342 59.5564 51.0154 59.3123 51.203C58.7935 51.578 58.1833 51.3905 57.695 50.7342L57.4814 50.3904ZM57.7561 50.3904C57.9086 50.6091 58.0307 50.7029 58.1833 50.7654C58.3969 50.8279 58.641 50.7966 58.8546 50.6091C59.0682 50.4528 59.1597 50.2966 59.1903 50.109C59.2207 49.9215 59.1903 49.7965 59.0377 49.5777L58.8241 49.3277L57.634 50.2966L57.7561 50.3904ZM58.8241 52.7657L57.7866 52.8282L57.8171 53.2658L57.695 53.3283C57.4204 52.8282 57.1153 52.3282 57.1153 52.3282L57.2373 52.2656L57.573 52.5469L61.0211 52.3594L61.1432 52.6407L58.8241 55.1411V55.5787L58.702 55.6412C58.4274 54.9223 58.1528 54.2972 58.1528 54.2972L58.2748 54.2347L58.6104 54.516L59.3123 53.7659L58.8241 52.7657ZM59.0987 52.7345L59.4649 53.5158L60.3498 52.6407L59.0987 52.7345ZM59.6175 57.8602L60.3498 57.9228L60.4108 58.1416L59.5869 58.3291L59.5564 58.2666C59.3123 57.829 59.2207 57.6102 59.1292 57.2977C58.8546 56.2663 59.3123 55.5161 60.2888 55.1723C61.3568 54.7973 62.2112 55.3599 62.5163 56.5163C62.6079 56.8289 62.6384 57.2039 62.6384 57.6415L61.8145 57.8602L61.7534 57.6415L62.3333 57.2039C62.3333 57.1101 62.3027 56.9851 62.3027 56.8914C62.0281 55.9225 61.3568 55.5474 60.4718 55.8599C59.6175 56.1413 59.2207 56.7351 59.4649 57.5477C59.5259 57.6727 59.5564 57.7352 59.6175 57.8602ZM62.7604 60.3294L59.9531 60.5482L59.831 61.142H59.709C59.6785 60.2044 59.5869 59.3292 59.5869 59.3292H59.7395L59.9531 59.8918L62.7299 59.673L62.6689 58.9542L61.9365 58.7666L61.9061 58.5479L62.852 58.4854C62.852 58.4854 63.0656 60.0168 63.0656 61.5483L62.1196 61.6108L62.0891 61.3921L62.7604 61.0795V60.3294ZM49.8528 44.1081C50.3105 43.0767 51.2565 42.7017 52.2634 43.233C53.2094 43.7331 53.3925 44.6082 52.9348 45.4834C52.416 46.4522 51.4701 46.8273 50.5546 46.3585C49.6697 45.9209 49.4256 45.0458 49.8528 44.1081ZM50.5241 44.2957C50.1579 45.1708 50.28 45.8896 50.7377 46.1397C51.226 46.3897 51.8363 46.0459 52.294 45.2333C52.6906 44.4519 52.6601 43.7331 52.0804 43.4205C51.4395 43.0767 50.8903 43.4518 50.5241 44.2957Z" fill="#17243F"/>
</svg>
