<svg width="184" height="124" viewBox="0 0 184 124" fill="none" xmlns="http://www.w3.org/2000/svg">
<path d="M53.2223 47.9756C55.4905 47.9756 57.2064 48.539 58.3117 49.6657C59.4167 50.7925 59.9984 52.2751 59.9984 54.0839C59.9984 55.8334 59.4457 57.2567 58.3117 58.3242C57.1774 59.3917 55.5487 59.9254 53.4258 59.9254H50.5467V62.9204C50.5467 64.136 49.9359 64.7586 48.7436 64.7586H46.417V47.9756H53.2223ZM53.5711 56.3968C54.3563 56.3968 54.9672 56.1892 55.316 55.7444C55.6942 55.2997 55.8687 54.7659 55.8687 54.1136C55.8687 53.4612 55.6942 52.9275 55.316 52.4531C54.938 51.9786 54.3563 51.7414 53.5711 51.7414H50.5467V56.3968H53.5711Z" fill="#003A5D"/>
<path d="M66.2507 51.7117V54.4397H72.8815V56.1299C72.8815 57.3457 72.2708 57.9684 71.0784 57.9684H66.2507V61.0522H72.9397C74.132 61.0522 74.7427 61.6749 74.7427 62.8906V64.7883H62.1211V47.9756H74.7137V49.8733C74.7137 51.0891 74.1029 51.7117 72.9107 51.7117H66.2507Z" fill="#003A5D"/>
<path d="M89.4001 49.8733C89.4001 51.0891 88.7894 51.7117 87.597 51.7117H84.9506V62.9204C84.9506 64.136 84.3397 64.7586 83.1473 64.7586H80.7918V51.7117H76.3423V49.814C76.3423 48.5983 76.953 47.9756 78.1453 47.9756H89.4291V49.8733H89.4001Z" fill="#003A5D"/>
<path d="M95.5365 62.9204C95.5365 64.136 94.9258 64.7586 93.7334 64.7586H91.436V47.9756H98.6193C100.713 47.9756 102.284 48.5093 103.389 49.6064C104.465 50.7036 105.017 52.1269 105.017 53.9357C105.017 56.3078 103.97 57.9387 101.906 58.7986L106.268 64.7586H102.662C101.731 64.7586 101.004 64.3732 100.481 63.6023L97.6304 59.4213H95.5657V62.9204H95.5365ZM95.5365 56.1299H98.7646C99.3463 56.1299 99.8407 55.9223 100.277 55.5369C100.713 55.1514 100.917 54.6177 100.917 53.9653C100.917 53.2833 100.713 52.7496 100.277 52.3344C99.8698 51.949 99.3463 51.7414 98.7646 51.7414H95.5365V56.1299Z" fill="#003A5D"/>
<path d="M115.109 65.0551C112.928 65.0551 111.153 64.4029 109.845 63.0981C108.507 61.7935 107.867 60.0737 107.867 57.909V47.9756H110.194C111.386 47.9756 111.997 48.5983 111.997 49.814V57.8794C111.997 59.0655 112.346 59.955 113.015 60.5184C113.684 61.0818 114.382 61.3784 115.138 61.3784C115.865 61.3784 116.563 61.0818 117.232 60.5184C117.901 59.955 118.25 59.0655 118.25 57.8794V49.814C118.25 48.5983 118.86 47.9756 120.053 47.9756H122.379V57.8794C122.379 60.044 121.71 61.7935 120.402 63.0981C119.093 64.4029 117.319 65.0551 115.109 65.0551Z" fill="#003A5D"/>
<path d="M125.491 60.6666C126.16 59.8067 126.974 59.6584 127.992 60.2218C129.213 60.9038 130.464 61.2597 131.743 61.2597C132.441 61.2597 132.994 61.1411 133.43 60.8742C133.837 60.6073 134.041 60.2811 134.041 59.8364C134.041 59.5695 133.983 59.3619 133.866 59.184C133.75 59.0061 133.517 58.8578 133.226 58.7392C132.907 58.6206 132.645 58.5316 132.47 58.4724C132.267 58.413 131.918 58.3537 131.423 58.2648C131.249 58.2351 131.133 58.2055 131.074 58.2055C130.667 58.1462 130.405 58.1165 130.289 58.0869C130.173 58.0572 129.882 57.9979 129.446 57.909C129.01 57.82 128.661 57.7311 128.486 57.6421C128.282 57.5828 127.992 57.4642 127.585 57.2863C127.177 57.138 126.858 56.9601 126.654 56.7822C126.45 56.6043 126.188 56.3967 125.898 56.1298C125.607 55.863 125.374 55.5961 125.229 55.2996C125.083 55.0031 124.938 54.6472 124.822 54.2618C124.705 53.8763 124.647 53.4315 124.647 52.9867C124.647 52.1861 124.793 51.5041 125.054 50.8814C125.316 50.2587 125.665 49.7546 126.101 49.3691C126.538 48.9837 127.061 48.6575 127.643 48.4203C128.224 48.1534 128.806 48.0052 129.388 47.8865C129.969 47.7976 130.551 47.7383 131.161 47.7383C133.692 47.7383 135.873 48.5982 137.705 50.3477L136.571 51.9192C135.96 52.7791 135.117 52.9274 134.07 52.364C133.081 51.8599 132.063 51.5931 131.016 51.5931C129.533 51.5931 128.777 52.0082 128.777 52.8681C128.777 53.0163 128.806 53.135 128.835 53.2239C128.864 53.3425 128.951 53.4315 129.039 53.5205C129.126 53.6094 129.213 53.6687 129.3 53.7577C129.388 53.817 129.504 53.8763 129.678 53.9652C129.853 54.0245 129.998 54.0838 130.115 54.1135C130.231 54.1431 130.405 54.2024 130.638 54.2321C130.871 54.2914 131.045 54.3211 131.191 54.3507C131.336 54.3803 131.54 54.41 131.801 54.4693C132.063 54.5286 132.296 54.5583 132.441 54.5879C134.099 54.8844 135.291 55.2403 135.989 55.6258C137.472 56.4264 138.229 57.82 138.199 59.7177C138.199 61.4672 137.618 62.8312 136.455 63.7208C135.291 64.6399 133.721 65.0847 131.743 65.0847C130.115 65.0847 128.748 64.8476 127.643 64.3731C126.509 63.8988 125.432 63.1871 124.356 62.2085L125.491 60.6666Z" fill="#003A5D"/>
<path d="M107.373 75.4627L110.31 69.3545H110.485L113.422 75.4627H112.84C112.637 75.4627 112.492 75.3739 112.433 75.1959L112.026 74.3063H108.769L108.362 75.1959C108.275 75.3739 108.129 75.4627 107.955 75.4627H107.373ZM109.118 73.654H111.735L110.427 70.8073L109.118 73.654Z" fill="#003A5D"/>
<path d="M116.068 75.4627V69.3545H116.476C116.708 69.3545 116.825 69.4731 116.825 69.7102V74.8105H119.82C120.053 74.8105 120.169 74.929 120.169 75.1662V75.433H116.068V75.4627Z" fill="#003A5D"/>
<path d="M125.2 75.6112C124.327 75.6112 123.571 75.3147 122.99 74.6921C122.408 74.0693 122.117 73.328 122.117 72.4385C122.117 71.5489 122.408 70.8075 122.99 70.185C123.571 69.5622 124.298 69.2656 125.2 69.2656C125.753 69.2656 126.247 69.3844 126.683 69.6513C127.119 69.9181 127.497 70.2441 127.759 70.6593L127.352 70.8372C127.178 70.9263 127.003 70.8669 126.858 70.7187C126.421 70.2441 125.869 69.9773 125.2 69.9773C124.531 69.9773 123.979 70.2147 123.542 70.689C123.106 71.1635 122.873 71.7566 122.873 72.4385C122.873 73.1205 123.106 73.7136 123.542 74.1879C123.979 74.6624 124.531 74.8996 125.2 74.8996C125.869 74.8996 126.421 74.6624 126.858 74.1582C127.003 73.9804 127.178 73.9507 127.352 74.0396L127.759 74.2176C127.497 74.6327 127.178 74.9887 126.741 75.2258C126.305 75.463 125.811 75.6112 125.2 75.6112Z" fill="#003A5D"/>
<path d="M133.372 75.5817C132.5 75.5817 131.773 75.2852 131.191 74.6626C130.609 74.0398 130.318 73.2987 130.318 72.409C130.318 71.5194 130.609 70.7782 131.191 70.1554C131.773 69.5327 132.5 69.2363 133.372 69.2363C134.245 69.2363 135.001 69.5327 135.582 70.1554C136.164 70.7782 136.455 71.5194 136.455 72.409C136.455 73.2987 136.164 74.0695 135.582 74.6626C135.001 75.2852 134.273 75.5817 133.372 75.5817ZM133.372 74.8997C134.012 74.8997 134.564 74.6626 135.001 74.1584C135.466 73.6544 135.67 73.091 135.67 72.409C135.67 71.7568 135.437 71.1637 135.001 70.6594C134.535 70.1554 134.012 69.9183 133.372 69.9183C132.732 69.9183 132.209 70.1554 131.743 70.6594C131.278 71.1637 131.075 71.7271 131.075 72.409C131.075 73.0613 131.307 73.6544 131.743 74.1584C132.209 74.6329 132.761 74.8997 133.372 74.8997Z" fill="#003A5D"/>
<path d="M94.5477 68.999L91.3485 75.5523H93.2679L96.4671 68.999H94.5477ZM100.771 68.999L97.5721 75.5523H100.102L103.301 68.999H100.771ZM97.8629 68.999L94.664 75.5523H96.7287L99.9279 68.999H97.8629ZM104.086 68.999L100.888 75.5523H103.999L107.198 68.999H104.086ZM46.0098 68.999V75.5523H88.7603L91.9594 68.999H46.0098Z" fill="#CCB38D"/>
</svg>
