<svg width="184" height="124" viewBox="0 0 184 124" fill="none" xmlns="http://www.w3.org/2000/svg">
<path d="M104.628 44.5332V63.6296H98.7139V53.3448L92.7672 61.1169L86.8536 53.3721V63.6296H80.9067V44.5332H86.8536L92.7672 52.6902L98.7139 44.5332H104.628Z" fill="#003A5D"/>
<path d="M127.292 63.6296H120.647L116.993 58.5554L113.338 63.6296H106.661L113.671 53.8905L106.926 44.5332H113.604L116.993 49.2528L120.382 44.5332H127.059L120.315 53.9177L127.292 63.6296Z" fill="#003A5D"/>
<path d="M147.253 44.5332V63.6296H141.306V49.2528H135.26V63.6296H129.313V44.5332H147.253Z" fill="#003A5D"/>
<path d="M83.8098 70.8165L83.631 70.2009H82.242L82.0632 70.8165H80.9067L82.2838 66.5488H83.5832L84.9603 70.8165H83.8098ZM82.5161 69.2621H83.3567L82.9334 67.8109L82.5161 69.2621Z" fill="#003A5D"/>
<path d="M87.8507 66.5488V67.6035H86.4499V70.8165H85.3828V66.5488H87.8507Z" fill="#003A5D"/>
<path d="M89.9526 66.5488C90.3737 66.5488 90.7274 66.6893 91.0135 66.9695C91.2998 67.2501 91.4427 67.6077 91.4427 68.0426C91.4427 68.4774 91.2998 68.8351 91.0135 69.1157C90.7274 69.3959 90.3737 69.5363 89.9526 69.5363H89.3981V70.8165H88.3311V66.5488H89.9526ZM89.9526 68.4999C90.0716 68.4999 90.171 68.4571 90.2506 68.3718C90.334 68.2865 90.3756 68.1769 90.3756 68.0426C90.3756 67.9083 90.334 67.8008 90.2506 67.7195C90.171 67.634 90.0716 67.5914 89.9526 67.5914H89.3981V68.4999H89.9526Z" fill="#003A5D"/>
<path d="M95.5491 70.2674C95.1278 70.6944 94.6113 70.9078 93.9993 70.9078C93.3874 70.9078 92.8686 70.6944 92.4434 70.2674C92.0221 69.8368 91.8115 69.3084 91.8115 68.6822C91.8115 68.0564 92.0221 67.5302 92.4434 67.1034C92.8686 66.6725 93.3874 66.457 93.9993 66.457C94.6113 66.457 95.1278 66.6725 95.5491 67.1034C95.9743 67.5302 96.187 68.0564 96.187 68.6822C96.187 69.3084 95.9743 69.8368 95.5491 70.2674ZM93.1946 69.5177C93.4092 69.733 93.6773 69.8408 93.9993 69.8408C94.321 69.8408 94.5893 69.733 94.8039 69.5177C95.0186 69.298 95.1259 69.0197 95.1259 68.6822C95.1259 68.3449 95.0186 68.0685 94.8039 67.8532C94.5893 67.6337 94.321 67.524 93.9993 67.524C93.6773 67.524 93.4092 67.6337 93.1946 67.8532C92.9799 68.0685 92.8726 68.3449 92.8726 68.6822C92.8726 69.0197 92.9799 69.298 93.1946 69.5177Z" fill="#003A5D"/>
<path d="M96.8013 66.5488H97.8682V70.8165H96.8013V66.5488Z" fill="#003A5D"/>
<path d="M100.885 66.5488H101.946V70.8165H100.885V69.1766H99.7104V70.8165H98.6436V66.5488H99.7104V68.1281H100.885V66.5488Z" fill="#003A5D"/>
<path d="M106.089 69.7618H106.536V71.6336H105.475V70.8165H103.525V71.6336H102.458V69.7618H102.9C103.09 69.449 103.186 68.9978 103.186 68.4083V66.5488H106.089V69.7618ZM104.008 69.7618H105.028V67.5611H104.247V68.4206C104.247 68.9895 104.167 69.4366 104.008 69.7618Z" fill="#003A5D"/>
<path d="M109.204 66.5488H110.295L109.091 69.5058C108.9 69.9691 108.65 70.3085 108.34 70.524C108.034 70.7393 107.654 70.8369 107.201 70.8165V69.7983C107.579 69.8308 107.857 69.7273 108.036 69.4876L106.671 66.5488H107.768L108.536 68.2925L109.204 66.5488Z" fill="#003A5D"/>
<path d="M112.53 70.9078C111.902 70.9078 111.382 70.6963 110.968 70.2735C110.559 69.8467 110.354 69.3164 110.354 68.6822C110.354 68.0484 110.559 67.52 110.968 67.0972C111.382 66.6704 111.902 66.457 112.53 66.457C112.908 66.457 113.258 66.5485 113.579 66.7315C113.901 66.9144 114.154 67.1602 114.336 67.4691L113.412 68.0117C113.333 67.8613 113.214 67.7433 113.055 67.6583C112.9 67.5685 112.725 67.524 112.53 67.524C112.196 67.524 111.926 67.6315 111.72 67.8471C111.517 68.0585 111.416 68.3369 111.416 68.6822C111.416 69.0279 111.517 69.3084 111.72 69.5237C111.926 69.7349 112.196 69.8408 112.53 69.8408C112.725 69.8408 112.9 69.7979 113.055 69.7129C113.214 69.6232 113.333 69.5014 113.412 69.3468L114.336 69.8955C114.154 70.2086 113.901 70.4566 113.579 70.6394C113.261 70.8182 112.912 70.9078 112.53 70.9078Z" fill="#003A5D"/>
<path d="M117.722 66.5488V67.6035H116.691V70.8165H115.624V67.6035H114.593V66.5488H117.722Z" fill="#003A5D"/>
<path d="M119.85 66.5488C120.271 66.5488 120.625 66.6893 120.911 66.9695C121.197 67.2501 121.34 67.6077 121.34 68.0426C121.34 68.4774 121.197 68.8351 120.911 69.1157C120.625 69.3959 120.271 69.5363 119.85 69.5363H119.296V70.8165H118.229V66.5488H119.85ZM119.85 68.4999C119.969 68.4999 120.069 68.4571 120.148 68.3718C120.231 68.2865 120.273 68.1769 120.273 68.0426C120.273 67.9083 120.231 67.8008 120.148 67.7195C120.069 67.634 119.969 67.5914 119.85 67.5914H119.296V68.4999H119.85Z" fill="#003A5D"/>
<path d="M121.875 66.5488H122.943V70.8165H121.875V66.5488Z" fill="#003A5D"/>
<path d="M126.263 70.8165L126.085 70.2009H124.696L124.517 70.8165H123.36L124.737 66.5488H126.037L127.414 70.8165H126.263ZM124.97 69.2621H125.81L125.387 67.8109L124.97 69.2621Z" fill="#003A5D"/>
<path d="M127.637 70.8165V69.7983C127.86 69.827 128.021 69.7945 128.12 69.7007C128.223 69.6034 128.275 69.4042 128.275 69.1034V66.5488H131.244V70.8165H130.177V67.6035H129.342V69.1522C129.342 69.5018 129.292 69.7983 129.193 70.0423C129.098 70.2822 128.965 70.4591 128.794 70.5728C128.627 70.6865 128.448 70.7618 128.257 70.7985C128.066 70.8347 127.86 70.8409 127.637 70.8165Z" fill="#003A5D"/>
<path d="M133.64 67.8292C134.062 67.8292 134.415 67.9694 134.701 68.2498C134.988 68.5305 135.131 68.8881 135.131 69.323C135.131 69.7578 134.988 70.1154 134.701 70.3959C134.415 70.6763 134.062 70.8165 133.64 70.8165H132.019V66.5488H133.086V67.8292H133.64ZM133.64 69.7741C133.76 69.7741 133.859 69.7334 133.938 69.6522C134.022 69.5669 134.064 69.457 134.064 69.323C134.064 69.1887 134.022 69.079 133.938 68.9937C133.859 68.9083 133.76 68.8656 133.64 68.8656H133.086V69.7741H133.64Z" fill="#003A5D"/>
<path d="M137.907 66.5488H138.968V70.8165H137.907V69.1766H136.733V70.8165H135.666V66.5488H136.733V68.1281H137.907V66.5488Z" fill="#003A5D"/>
<path d="M142.051 70.8165V68.6705L140.578 70.8165H139.75V66.5488H140.816V68.6951L142.289 66.5488H143.111V70.8165H142.051Z" fill="#003A5D"/>
<path d="M144.606 66.22V65.3662H146.532V66.22H144.606ZM146.192 70.8167V68.6706L144.72 70.8167H143.891V66.549H144.958V68.6952L146.43 66.549H147.253V70.8167H146.192Z" fill="#003A5D"/>
<path d="M104.121 78.4376H102.929L102.273 77.3038L101.617 78.4376H100.419L101.677 76.2612L100.467 74.1699H101.665L102.273 75.2248L102.881 74.1699H104.079L102.869 76.2674L104.121 78.4376Z" fill="#003A5D"/>
<path d="M107.917 77.8885C107.496 78.3155 106.979 78.5289 106.367 78.5289C105.755 78.5289 105.237 78.3155 104.812 77.8885C104.39 77.4579 104.18 76.9295 104.18 76.3035C104.18 75.6775 104.39 75.1512 104.812 74.7245C105.237 74.2936 105.755 74.0781 106.367 74.0781C106.979 74.0781 107.496 74.2936 107.917 74.7245C108.343 75.1512 108.555 75.6775 108.555 76.3035C108.555 76.9295 108.343 77.4579 107.917 77.8885ZM105.563 77.1388C105.777 77.3541 106.045 77.4619 106.367 77.4619C106.689 77.4619 106.957 77.3541 107.172 77.1388C107.387 76.9193 107.494 76.6408 107.494 76.3035C107.494 75.966 107.387 75.6896 107.172 75.4743C106.957 75.2548 106.689 75.1451 106.367 75.1451C106.045 75.1451 105.777 75.2548 105.563 75.4743C105.348 75.6896 105.241 75.966 105.241 76.3035C105.241 76.6408 105.348 76.9193 105.563 77.1388Z" fill="#003A5D"/>
<path d="M108.662 78.4376V77.4194C108.885 77.448 109.045 77.4156 109.145 77.3218C109.248 77.2245 109.3 77.0253 109.3 76.7245V74.1699H112.269V78.4376H111.201V75.2248H110.367V76.7733C110.367 77.1229 110.317 77.4194 110.218 77.6633C110.123 77.9032 109.989 78.0802 109.818 78.1939C109.652 78.3076 109.473 78.3829 109.282 78.4196C109.091 78.4558 108.885 78.4622 108.662 78.4376Z" fill="#003A5D"/>
<path d="M116.405 77.3831H116.852V79.2547H115.791V78.4376H113.842V79.2547H112.775V77.3831H113.216C113.407 77.07 113.502 76.6189 113.502 76.0294V74.1699H116.405V77.3831ZM114.325 77.3831H115.344V75.1822H114.563V76.0417C114.563 76.6106 114.484 77.058 114.325 77.3831Z" fill="#003A5D"/>
<path d="M119.708 78.4376V76.2916L118.235 78.4376H117.407V74.1699H118.474V76.3162L119.946 74.1699H120.769V78.4376H119.708Z" fill="#003A5D"/>
<path d="M123.79 74.1699H124.851V78.4376H123.79V76.7977H122.615V78.4376H121.548V74.1699H122.615V75.7492H123.79V74.1699Z" fill="#003A5D"/>
<path d="M128.1 74.1699V75.2248H126.699V78.4376H125.632V74.1699H128.1Z" fill="#003A5D"/>
<path fill-rule="evenodd" clip-rule="evenodd" d="M48.4898 47.3105L58.5927 57.8871V65.2869H56.7299V58.6046L48.4898 49.9781L40.2495 58.6046V65.2869H38.3867V57.8871L48.4898 47.3105Z" fill="#003A5D"/>
<path fill-rule="evenodd" clip-rule="evenodd" d="M38.3867 74.2754H58.5927V81.1488H38.3867V74.2754ZM40.2495 76.078V79.3464H56.7299V76.078H40.2495Z" fill="#003A5D"/>
<path fill-rule="evenodd" clip-rule="evenodd" d="M48.4736 54.4873L55.243 61.2183L48.4736 67.9495L41.7041 61.2183L48.4736 54.4873ZM48.4736 57.0662L44.2977 61.2183L48.4736 65.3705L52.6496 61.2183L48.4736 57.0662Z" fill="#003A5D"/>
<path fill-rule="evenodd" clip-rule="evenodd" d="M45.2993 63.4425L50.4579 57.8857L51.6803 59.2024L46.5217 64.7591L45.2993 63.4425Z" fill="#003A5D"/>
<path fill-rule="evenodd" clip-rule="evenodd" d="M46.5217 57.8857L51.6803 63.4425L50.4579 64.7591L45.2993 59.2024L46.5217 57.8857Z" fill="#003A5D"/>
<path fill-rule="evenodd" clip-rule="evenodd" d="M54.1476 68.4592L50.6167 64.5583L51.8717 63.1719L55.4024 67.0728L54.1476 68.4592Z" fill="#003A5D"/>
<path fill-rule="evenodd" clip-rule="evenodd" d="M54.3389 72.4298L59.4975 66.873L60.7199 68.1897L55.5613 73.7464L54.3389 72.4298Z" fill="#003A5D"/>
<path fill-rule="evenodd" clip-rule="evenodd" d="M56.9976 75.0741L62.5858 69.5176L63.9102 70.8342L58.3217 76.3909L56.9976 75.0741Z" fill="#003A5D"/>
<path fill-rule="evenodd" clip-rule="evenodd" d="M50.8252 70.2877L57.5947 63.5566L67.1004 73.0083L60.3309 79.7394L50.8252 70.2877ZM53.4187 70.2877L60.3309 77.1606L64.5069 73.0083L57.5947 66.1354L53.4187 70.2877Z" fill="#003A5D"/>
<path fill-rule="evenodd" clip-rule="evenodd" d="M55.4024 55.4324L51.8717 58.943L50.6167 57.6952L54.1476 54.1846L55.4024 55.4324Z" fill="#003A5D"/>
<path fill-rule="evenodd" clip-rule="evenodd" d="M59.4975 55.7708L54.3389 50.2141L55.5613 48.8975L60.7199 54.4541L59.4975 55.7708Z" fill="#003A5D"/>
<path fill-rule="evenodd" clip-rule="evenodd" d="M62.5858 52.5985L56.9976 47.4693L58.3217 46.2539L63.9102 51.3831L62.5858 52.5985Z" fill="#003A5D"/>
<path fill-rule="evenodd" clip-rule="evenodd" d="M57.5947 58.8801L50.8252 52.1491L60.3311 42.6973L67.1006 49.4283L57.5947 58.8801ZM57.5947 56.3012L64.5069 49.4283L60.3311 45.2761L53.4189 52.1491L57.5947 56.3012Z" fill="#003A5D"/>
<path fill-rule="evenodd" clip-rule="evenodd" d="M41.5771 67.0726L45.1079 63.1719L46.3628 64.5585L42.832 68.4592L41.5771 67.0726Z" fill="#003A5D"/>
<path fill-rule="evenodd" clip-rule="evenodd" d="M37.0522 66.873L42.6406 72.4298L41.3165 73.7464L35.728 68.1897L37.0522 66.873Z" fill="#003A5D"/>
<path fill-rule="evenodd" clip-rule="evenodd" d="M34.3936 69.5176L39.982 75.0741L38.6577 76.3909L33.0693 70.8342L34.3936 69.5176Z" fill="#003A5D"/>
<path fill-rule="evenodd" clip-rule="evenodd" d="M39.3525 63.5566L46.122 70.2877L36.6162 79.7396L29.8467 73.0085L39.3525 63.5566ZM39.3525 66.1356L32.4403 73.0085L36.6162 77.1606L43.5284 70.2877L39.3525 66.1356Z" fill="#003A5D"/>
<path fill-rule="evenodd" clip-rule="evenodd" d="M42.8321 54.1846L46.3628 57.6953L45.1078 58.943L41.5771 55.4324L42.8321 54.1846Z" fill="#003A5D"/>
<path fill-rule="evenodd" clip-rule="evenodd" d="M42.6406 50.2142L37.0523 55.7708L35.728 54.4541L41.3164 48.8975L42.6406 50.2142Z" fill="#003A5D"/>
<path fill-rule="evenodd" clip-rule="evenodd" d="M39.982 47.4693L34.3936 52.5985L33.0693 51.3831L38.6577 46.2539L39.982 47.4693Z" fill="#003A5D"/>
<path fill-rule="evenodd" clip-rule="evenodd" d="M46.122 52.1491L39.3525 58.8801L29.8467 49.4283L36.6162 42.6973L46.122 52.1491ZM43.5284 52.1491L36.6162 45.2761L32.4403 49.4283L39.3525 56.3012L43.5284 52.1491Z" fill="#003A5D"/>
</svg>
