<svg width="184" height="124" viewBox="0 0 184 124" fill="none" xmlns="http://www.w3.org/2000/svg">
<path d="M61.7941 80.7952C61.7941 71.6568 47.7891 67.1047 45.5965 59.9898L46.9824 60.0149C48.5499 60.0428 49.3268 59.5219 49.3268 59.5219C50.7313 58.6474 51.818 59.48 52.7509 59.9852L56.3976 62.1379C56.6619 62.3268 57.0276 62.2812 57.2377 62.0337L61.1894 57.3785C61.4007 57.1301 61.3847 56.7617 61.155 56.5319L51.1399 46.5022C51.0403 46.4027 50.5881 46.0808 50.4607 46.0194L46.9444 44.423L46.0048 41.3818L31.0881 56.3393C30.7011 56.7282 30.4834 57.2538 30.4834 57.8027V80.7952H42.1534V75.6263L46.9816 75.6246L47.0094 80.7952H61.7941Z" fill="url(#paint0_linear)"/>
<path d="M39.4744 80.7949C39.6977 73.7592 30.4834 71.531 30.4834 67.1353V57.542C30.4834 67.1233 51.9769 69.517 51.9769 80.7949H47.0093L46.9816 75.6243L42.1534 75.6263L45.7256 76.5129V81.5738L42.1534 80.7949V75.6263L41.9209 75.6272L41.9395 80.7949H39.4744Z" fill="url(#paint1_linear)"/>
<path d="M76.1699 78.6095L76.9877 78.5379C77.0264 78.8655 77.1157 79.1353 77.2558 79.3466C77.3986 79.5551 77.6191 79.7249 77.9169 79.8561C78.2147 79.9841 78.5501 80.0482 78.9223 80.0482C79.253 80.0482 79.5448 79.999 79.798 79.9007C80.0511 79.8025 80.2389 79.6685 80.3609 79.4987C80.4861 79.3257 80.5485 79.1382 80.5485 78.9357C80.5485 78.7301 80.4889 78.5514 80.3698 78.3993C80.2507 78.2444 80.0542 78.115 79.7802 78.0107C79.6044 77.9423 79.2158 77.8363 78.6139 77.6934C78.0123 77.5474 77.5908 77.4105 77.3497 77.2825C77.0367 77.1184 76.803 76.916 76.6481 76.6749C76.4961 76.4306 76.4202 76.158 76.4202 75.857C76.4202 75.5265 76.5141 75.2181 76.7017 74.932C76.8892 74.6431 77.1633 74.4243 77.5238 74.2754C77.8843 74.1265 78.2849 74.0518 78.7256 74.0518C79.2112 74.0518 79.6388 74.1308 80.0079 74.2886C80.3804 74.4435 80.6662 74.6729 80.8658 74.9767C81.0653 75.2805 81.1727 75.6248 81.1876 76.0091L80.3566 76.0715C80.312 75.6574 80.1599 75.3447 79.9008 75.1331C79.6445 74.9217 79.2648 74.8161 78.7614 74.8161C78.2371 74.8161 77.8545 74.9129 77.6131 75.1064C77.3749 75.2972 77.2558 75.528 77.2558 75.7989C77.2558 76.0343 77.3405 76.2278 77.5103 76.3799C77.6773 76.5317 78.1122 76.688 78.8149 76.849C79.5211 77.0067 80.005 77.1453 80.267 77.2645C80.6484 77.4403 80.9299 77.6637 81.1115 77.9348C81.2933 78.2029 81.3841 78.5127 81.3841 78.8641C81.3841 79.2126 81.2844 79.5419 81.0848 79.8515C80.8852 80.1585 80.5977 80.3982 80.2223 80.5708C79.8501 80.7406 79.43 80.8257 78.9624 80.8257C78.3697 80.8257 77.8723 80.7392 77.4702 80.5665C77.0711 80.3939 76.7569 80.1347 76.5276 79.7891C76.3011 79.4406 76.1819 79.0474 76.1699 78.6095ZM84.2347 80.714V74.9366H82.0767V74.1637H87.2685V74.9366H85.1014V80.714H84.2347ZM88.1754 80.714V74.1637H91.0796C91.6634 74.1637 92.1073 74.2233 92.4111 74.3424C92.7149 74.4584 92.9577 74.6654 93.1393 74.9635C93.3211 75.2614 93.4119 75.5904 93.4119 75.9509C93.4119 76.4157 93.2615 76.8071 92.9606 77.1259C92.6596 77.4446 92.1952 77.6473 91.5666 77.7335C91.796 77.8438 91.9701 77.9526 92.0892 78.0597C92.3426 78.2922 92.5823 78.5826 92.8085 78.9311L93.9479 80.714H92.8578L91.991 79.3512C91.7379 78.958 91.5294 78.6571 91.3656 78.4486C91.2018 78.2401 91.0544 78.0941 90.9232 78.0107C90.7952 77.9274 90.6641 77.8693 90.5301 77.8363C90.4318 77.8157 90.2709 77.8051 90.0476 77.8051H89.0422V80.714H88.1754ZM89.0422 77.0546H90.9055C91.3015 77.0546 91.6113 77.0142 91.8347 76.934C92.058 76.8504 92.2278 76.7195 92.3441 76.5405C92.46 76.359 92.5182 76.1623 92.5182 75.9509C92.5182 75.6411 92.4051 75.3865 92.1786 75.1869C91.9552 74.9873 91.6007 74.8874 91.1154 74.8874H89.0422V77.0546ZM94.0553 80.714L96.5706 74.1637H97.5044L100.185 80.714H99.1978L98.4339 78.7301H95.6949L94.9756 80.714H94.0553ZM95.9452 78.0242H98.1658L97.482 76.2101C97.2736 75.6588 97.1187 75.2061 97.0176 74.8516C96.934 75.2717 96.8166 75.6886 96.6645 76.1027L95.9452 78.0242ZM101.865 80.714V74.9366H99.7073V74.1637H104.899V74.9366H102.732V80.714H101.865ZM105.811 80.714V74.1637H110.546V74.9366H106.677V76.9429H110.301V77.7112H106.677V79.9408H110.698V80.714H105.811ZM114.961 78.1448V77.3762L117.735 77.3719V79.8025C117.309 80.1421 116.87 80.3982 116.417 80.5708C115.964 80.7406 115.5 80.8257 115.023 80.8257C114.38 80.8257 113.794 80.6885 113.267 80.4145C112.743 80.1376 112.347 79.7384 112.079 79.2172C111.811 78.6957 111.677 78.1135 111.677 77.4701C111.677 76.8326 111.809 76.2384 112.074 75.6872C112.342 75.1331 112.727 74.7221 113.227 74.4541C113.727 74.1861 114.304 74.0518 114.956 74.0518C115.43 74.0518 115.857 74.1294 116.238 74.2843C116.623 74.4361 116.924 74.6491 117.141 74.9232C117.359 75.1972 117.524 75.5546 117.637 75.9956L116.855 76.2101C116.757 75.8765 116.635 75.6142 116.489 75.4237C116.343 75.233 116.134 75.081 115.863 74.9678C115.592 74.8516 115.292 74.7937 114.961 74.7937C114.564 74.7937 114.222 74.8547 113.933 74.9767C113.644 75.0958 113.41 75.2539 113.232 75.4504C113.056 75.6471 112.919 75.863 112.821 76.0984C112.654 76.5033 112.57 76.9429 112.57 77.4165C112.57 78.0001 112.67 78.4887 112.87 78.8819C113.072 79.2753 113.366 79.5671 113.75 79.7578C114.134 79.9483 114.542 80.0436 114.974 80.0436C115.349 80.0436 115.716 79.9723 116.073 79.8291C116.431 79.6834 116.702 79.5285 116.886 79.3647V78.1448H114.961ZM119.165 80.714V74.1637H120.032V80.714H119.165ZM121.582 80.714V74.1637H126.318V74.9366H122.449V76.9429H126.073V77.7112H122.449V79.9408H126.47V80.714H121.582ZM127.373 78.6095L128.19 78.5379C128.229 78.8655 128.318 79.1353 128.458 79.3466C128.601 79.5551 128.822 79.7249 129.12 79.8561C129.417 79.9841 129.753 80.0482 130.125 80.0482C130.456 80.0482 130.748 79.999 131.001 79.9007C131.254 79.8025 131.442 79.6685 131.564 79.4987C131.689 79.3257 131.751 79.1382 131.751 78.9357C131.751 78.7301 131.692 78.5514 131.572 78.3993C131.453 78.2444 131.257 78.115 130.983 78.0107C130.807 77.9423 130.419 77.8363 129.817 77.6934C129.215 77.5474 128.793 77.4105 128.552 77.2825C128.239 77.1184 128.006 76.916 127.851 76.6749C127.699 76.4306 127.623 76.158 127.623 75.857C127.623 75.5265 127.717 75.2181 127.904 74.932C128.092 74.6431 128.366 74.4243 128.726 74.2754C129.087 74.1265 129.488 74.0518 129.928 74.0518C130.414 74.0518 130.841 74.1308 131.211 74.2886C131.583 74.4435 131.869 74.6729 132.068 74.9767C132.268 75.2805 132.375 75.6248 132.39 76.0091L131.559 76.0715C131.515 75.6574 131.363 75.3447 131.103 75.1331C130.847 74.9217 130.467 74.8161 129.964 74.8161C129.44 74.8161 129.057 74.9129 128.816 75.1064C128.578 75.2972 128.458 75.528 128.458 75.7989C128.458 76.0343 128.543 76.2278 128.713 76.3799C128.88 76.5317 129.315 76.688 130.018 76.849C130.724 77.0067 131.208 77.1453 131.47 77.2645C131.851 77.4403 132.133 77.6637 132.314 77.9348C132.496 78.2029 132.587 78.5127 132.587 78.8641C132.587 79.2126 132.487 79.5419 132.288 79.8515C132.088 80.1585 131.8 80.3982 131.425 80.5708C131.053 80.7406 130.633 80.8257 130.165 80.8257C129.572 80.8257 129.075 80.7392 128.673 80.5665C128.274 80.3939 127.96 80.1347 127.73 79.7891C127.504 79.4406 127.385 79.0474 127.373 78.6095ZM136.282 80.714V74.1637H137.149V79.9408H140.375V80.714H136.282ZM141.375 80.714V74.1637H142.242V79.9408H145.468V80.714H141.375ZM151.178 78.4174L152.045 78.6362C151.863 79.3481 151.535 79.8919 151.062 80.267C150.591 80.6396 150.015 80.8257 149.333 80.8257C148.627 80.8257 148.052 80.6828 147.608 80.3967C147.167 80.1078 146.831 79.6908 146.598 79.1456C146.369 78.6004 146.254 78.015 146.254 77.3896C146.254 76.7075 146.384 76.1133 146.643 75.6067C146.905 75.0976 147.276 74.7118 147.756 74.4495C148.238 74.1843 148.768 74.0518 149.346 74.0518C150.001 74.0518 150.553 74.2187 150.999 74.5523C151.446 74.8859 151.757 75.355 151.933 75.9598L151.08 76.1608C150.928 75.6843 150.707 75.3372 150.418 75.1199C150.129 74.9023 149.766 74.7937 149.328 74.7937C148.825 74.7937 148.403 74.9143 148.064 75.1554C147.727 75.3968 147.49 75.7215 147.353 76.1296C147.216 76.5348 147.148 76.9532 147.148 77.385C147.148 77.9423 147.228 78.4291 147.389 78.8463C147.553 79.2604 147.806 79.57 148.149 79.7756C148.491 79.9812 148.862 80.084 149.261 80.084C149.747 80.084 150.158 79.944 150.494 79.6639C150.831 79.3839 151.059 78.9683 151.178 78.4174Z" fill="#362510"/>
<path d="M70.3136 69.6045C70.2882 69.707 70.2518 69.7904 70.2048 69.8542C70.1622 69.9141 70.096 69.961 70.0064 69.9951C69.9168 70.0252 69.8014 70.0444 69.6605 70.0529C69.5196 70.0655 69.3404 70.0721 69.1227 70.0721C68.8793 70.0721 68.6829 70.0655 68.5334 70.0529C68.3882 70.0444 68.2731 70.0252 68.1878 69.9951C68.1022 69.961 68.0403 69.9141 68.002 69.8542C67.9636 69.7904 67.9338 69.707 67.9123 69.6045L66.5868 64.3532H66.5739L65.3189 69.6045C65.2974 69.7027 65.2676 69.7838 65.2292 69.8479C65.1909 69.9078 65.129 69.9547 65.0434 69.9888C64.9624 70.0229 64.8493 70.0444 64.7041 70.0529C64.5632 70.0655 64.3753 70.0721 64.1405 70.0721C63.8928 70.0721 63.6944 70.0655 63.5449 70.0529C63.4 70.0444 63.2846 70.0252 63.1993 69.9951C63.114 69.961 63.0518 69.9141 63.0135 69.8542C62.9751 69.7904 62.943 69.707 62.9175 69.6045L61.0348 62.3744C60.9964 62.2208 60.9749 62.1012 60.9707 62.0159C60.9666 61.9262 60.9901 61.8579 61.0411 61.8109C61.0966 61.764 61.1843 61.7362 61.3037 61.7277C61.4277 61.7149 61.5983 61.7085 61.816 61.7085C62.0167 61.7085 62.1747 61.7127 62.2899 61.7213C62.4096 61.7256 62.4992 61.7405 62.559 61.7661C62.6186 61.7874 62.6593 61.8216 62.6804 61.8686C62.7019 61.9113 62.7191 61.9732 62.7317 62.0543L64.1855 68.4006H64.1918L65.7031 62.0991C65.72 62.018 65.7415 61.9518 65.767 61.9006C65.7971 61.8493 65.844 61.8109 65.9079 61.7853C65.9763 61.7554 66.068 61.7362 66.1834 61.7277C66.2985 61.7149 66.4522 61.7085 66.6444 61.7085C66.8494 61.7085 67.0115 61.7127 67.1312 61.7213C67.2549 61.7298 67.3488 61.749 67.4129 61.7789C67.4811 61.8045 67.5303 61.843 67.5601 61.8942C67.5899 61.9454 67.6134 62.0137 67.6306 62.0991L69.1932 68.4006H69.2058L70.6596 62.0735C70.6722 62.0052 70.6893 61.9475 70.7108 61.9006C70.732 61.8493 70.7727 61.8109 70.8322 61.7853C70.8921 61.7554 70.9774 61.7362 71.0885 61.7277C71.1996 61.7149 71.3554 61.7085 71.5561 61.7085C71.7437 61.7085 71.8889 61.7149 71.9914 61.7277C72.0982 61.7362 72.1749 61.764 72.2219 61.8109C72.2688 61.8579 72.288 61.9283 72.2797 62.0223C72.2754 62.1119 72.254 62.2357 72.2156 62.3936L70.3136 69.6045ZM80.7642 65.7941C80.7642 66.4814 80.6789 67.0962 80.5082 67.6386C80.3376 68.1807 80.0836 68.6418 79.7463 69.0218C79.409 69.3975 78.9906 69.6855 78.4912 69.8863C77.9958 70.0827 77.4217 70.181 76.7685 70.181C76.124 70.181 75.5604 70.0976 75.0779 69.9312C74.5997 69.7603 74.2006 69.502 73.8804 69.1563C73.5603 68.8104 73.3192 68.3706 73.1568 67.8371C72.999 67.3033 72.92 66.6716 72.92 65.9413C72.92 65.2712 73.0053 64.6693 73.176 64.1355C73.3469 63.5977 73.6009 63.1407 73.9383 62.765C74.2753 62.3893 74.6916 62.1012 75.1867 61.9006C75.6864 61.6999 76.2648 61.5996 76.9223 61.5996C77.5497 61.5996 78.1026 61.6829 78.5808 61.8493C79.063 62.0159 79.4645 62.272 79.7847 62.6178C80.1091 62.9637 80.3525 63.4013 80.5145 63.9305C80.6812 64.4557 80.7642 65.0768 80.7642 65.7941ZM78.9969 65.8838C78.9969 65.4485 78.9628 65.0533 78.8944 64.6991C78.8262 64.3406 78.7088 64.0353 78.5425 63.7833C78.3801 63.5273 78.1625 63.3308 77.8893 63.1943C77.6158 63.0534 77.2745 62.9829 76.8645 62.9829C76.4504 62.9829 76.1048 63.062 75.8273 63.2197C75.5498 63.3735 75.3256 63.5806 75.155 63.8409C74.984 64.1015 74.8623 64.4067 74.7899 64.7567C74.7214 65.1026 74.6873 65.4697 74.6873 65.8583C74.6873 66.3107 74.7214 66.7185 74.7899 67.0814C74.858 67.4399 74.9734 67.7474 75.1355 68.0034C75.2978 68.2597 75.5155 68.4562 75.7886 68.5928C76.0621 68.7251 76.4057 68.7912 76.8198 68.7912C77.2339 68.7912 77.5798 68.7145 77.8572 68.5607C78.1347 68.4069 78.3586 68.1979 78.5296 67.933C78.7002 67.6684 78.8199 67.3611 78.8881 67.0109C78.9608 66.6567 78.9969 66.281 78.9969 65.8838ZM89.6399 65.7941C89.6399 66.4814 89.5543 67.0962 89.3836 67.6386C89.213 68.1807 88.959 68.6418 88.6217 69.0218C88.2843 69.3975 87.866 69.6855 87.3666 69.8863C86.8712 70.0827 86.2971 70.181 85.6439 70.181C84.9993 70.181 84.4358 70.0976 83.9533 69.9312C83.4751 69.7603 83.0762 69.502 82.7558 69.1563C82.4357 68.8104 82.1946 68.3706 82.0322 67.8371C81.8744 67.3033 81.7954 66.6716 81.7954 65.9413C81.7954 65.2712 81.8807 64.6693 82.0514 64.1355C82.2223 63.5977 82.4763 63.1407 82.8137 62.765C83.1507 62.3893 83.567 62.1012 84.0621 61.9006C84.5618 61.6999 85.1402 61.5996 85.7977 61.5996C86.4251 61.5996 86.978 61.6829 87.4562 61.8493C87.9384 62.0159 88.3399 62.272 88.66 62.6178C88.9845 62.9637 89.2279 63.4013 89.3899 63.9305C89.5566 64.4557 89.6399 65.0768 89.6399 65.7941ZM87.8723 65.8838C87.8723 65.4485 87.8382 65.0533 87.7701 64.6991C87.7016 64.3406 87.5842 64.0353 87.4179 63.7833C87.2555 63.5273 87.0379 63.3308 86.7647 63.1943C86.4912 63.0534 86.1499 62.9829 85.7401 62.9829C85.3258 62.9829 84.9802 63.062 84.7027 63.2197C84.4252 63.3735 84.201 63.5806 84.0303 63.8409C83.8594 64.1015 83.7377 64.4067 83.6653 64.7567C83.5968 65.1026 83.5627 65.4697 83.5627 65.8583C83.5627 66.3107 83.5968 66.7185 83.6653 67.0814C83.7334 67.4399 83.8488 67.7474 84.0112 68.0034C84.1732 68.2597 84.3909 68.4562 84.6643 68.5928C84.9375 68.7251 85.2811 68.7912 85.6952 68.7912C86.1092 68.7912 86.4551 68.7145 86.7326 68.5607C87.0101 68.4069 87.2343 68.1979 87.405 67.933C87.5756 67.6684 87.6953 67.3611 87.7635 67.0109C87.8362 66.6567 87.8723 66.281 87.8723 65.8838ZM97.9452 65.7687C97.9452 66.5284 97.845 67.1796 97.6442 67.7217C97.4481 68.2597 97.164 68.6993 96.7926 69.0409C96.4212 69.3826 95.9688 69.6343 95.4351 69.7967C94.9056 69.9547 94.2739 70.0335 93.5397 70.0335H91.5608C91.4202 70.0335 91.3005 69.9931 91.2022 69.9121C91.1083 69.8264 91.0614 69.6898 91.0614 69.502V62.2784C91.0614 62.0906 91.1083 61.9561 91.2022 61.875C91.3005 61.7896 91.4202 61.7469 91.5608 61.7469H93.6869C94.4254 61.7469 95.0508 61.8344 95.5631 62.0095C96.0796 62.1802 96.5132 62.4362 96.8631 62.7779C97.2173 63.1152 97.4865 63.5336 97.67 64.033C97.8536 64.5327 97.9452 65.1112 97.9452 65.7687ZM96.2036 65.8262C96.2036 65.4333 96.1567 65.0685 96.0627 64.7312C95.9731 64.3938 95.8256 64.1015 95.6209 63.8537C95.4202 63.606 95.1596 63.4142 94.8395 63.2773C94.5236 63.1364 94.1075 63.066 93.591 63.066H92.7391V68.7016H93.6165C94.0775 68.7016 94.4661 68.6417 94.7819 68.5223C95.0977 68.4026 95.3603 68.2234 95.5696 67.9843C95.783 67.7408 95.941 67.4399 96.0436 67.0814C96.1501 66.7228 96.2036 66.3044 96.2036 65.8262ZM104.247 69.374C104.247 69.4977 104.24 69.6025 104.227 69.6878C104.219 69.7689 104.204 69.835 104.182 69.8863C104.161 69.9375 104.133 69.9759 104.099 70.0017C104.069 70.0229 104.035 70.0335 103.997 70.0335H99.8342C99.6934 70.0335 99.5739 69.9931 99.4757 69.9121C99.3818 69.8264 99.3348 69.6898 99.3348 69.502V62.2784C99.3348 62.0906 99.3818 61.9561 99.4757 61.875C99.5739 61.7896 99.6934 61.7469 99.8342 61.7469H103.971C104.009 61.7469 104.044 61.7576 104.074 61.7789C104.103 61.8003 104.129 61.8387 104.15 61.8942C104.172 61.9454 104.187 62.0137 104.195 62.0991C104.208 62.1802 104.215 62.2848 104.215 62.4128C104.215 62.5325 104.208 62.635 104.195 62.7203C104.187 62.8014 104.172 62.8675 104.15 62.9188C104.129 62.97 104.103 63.0084 104.074 63.0342C104.044 63.0554 104.009 63.066 103.971 63.066H101.013V65.0897H103.516C103.555 65.0897 103.589 65.1026 103.619 65.1281C103.653 65.1495 103.681 65.1859 103.702 65.2372C103.723 65.2841 103.738 65.3503 103.747 65.4356C103.76 65.5167 103.766 65.6169 103.766 65.7366C103.766 65.8603 103.76 65.9628 103.747 66.0439C103.738 66.1252 103.723 66.1913 103.702 66.2426C103.681 66.2896 103.653 66.3236 103.619 66.3448C103.589 66.3663 103.555 66.3769 103.516 66.3769H101.013V68.7145H103.997C104.035 68.7145 104.069 68.7271 104.099 68.7529C104.133 68.774 104.161 68.8104 104.182 68.8617C104.204 68.9129 104.219 68.9811 104.227 69.0667C104.24 69.1478 104.247 69.2503 104.247 69.374ZM112.571 69.4444C112.571 69.5427 112.554 69.6303 112.52 69.707C112.486 69.7838 112.439 69.8479 112.379 69.8992C112.324 69.9504 112.255 69.9888 112.174 70.0143C112.097 70.0358 112.018 70.0464 111.937 70.0464H111.22C111.071 70.0464 110.94 70.0315 110.829 70.0017C110.723 69.9716 110.622 69.9184 110.529 69.8416C110.439 69.7603 110.351 69.6538 110.266 69.5212C110.181 69.3846 110.084 69.2096 109.978 68.9963L107.916 65.1218C107.796 64.8912 107.674 64.6435 107.551 64.3789C107.427 64.11 107.316 63.8495 107.218 63.5977H107.205C107.222 63.905 107.235 64.2123 107.243 64.5198C107.252 64.8228 107.256 65.1367 107.256 65.4611V69.7967C107.256 69.8393 107.243 69.8777 107.218 69.9121C107.196 69.9461 107.156 69.9759 107.096 70.0017C107.041 70.0229 106.964 70.0401 106.866 70.0529C106.767 70.0655 106.641 70.0721 106.488 70.0721C106.338 70.0721 106.214 70.0655 106.116 70.0529C106.018 70.0401 105.941 70.0229 105.886 70.0017C105.83 69.9759 105.792 69.9461 105.771 69.9121C105.749 69.8777 105.738 69.8393 105.738 69.7967V62.3489C105.738 62.1482 105.796 61.9988 105.911 61.9006C106.031 61.7981 106.176 61.7469 106.347 61.7469H107.25C107.412 61.7469 107.548 61.7618 107.66 61.7917C107.771 61.8173 107.869 61.8621 107.954 61.9262C108.044 61.9902 108.127 62.0799 108.204 62.1952C108.281 62.3062 108.36 62.4448 108.441 62.6115L110.055 65.6404C110.149 65.8239 110.24 66.0055 110.33 66.1847C110.424 66.36 110.513 66.537 110.599 66.7162C110.684 66.8915 110.768 67.0642 110.849 67.2351C110.93 67.4058 111.009 67.5765 111.085 67.7474H111.092C111.079 67.4485 111.069 67.1369 111.06 66.8125C111.056 66.488 111.053 66.1785 111.053 65.8838V61.9967C111.053 61.954 111.066 61.9155 111.092 61.8814C111.118 61.8472 111.16 61.8173 111.22 61.7917C111.28 61.7661 111.359 61.749 111.457 61.7405C111.555 61.7277 111.681 61.7213 111.835 61.7213C111.98 61.7213 112.102 61.7277 112.2 61.7405C112.298 61.749 112.373 61.7661 112.424 61.7917C112.479 61.8173 112.518 61.8472 112.539 61.8814C112.56 61.9155 112.571 61.954 112.571 61.9967V69.4444ZM123.822 69.803C123.822 69.8456 123.807 69.8843 123.778 69.9184C123.752 69.9524 123.707 69.9802 123.643 70.0017C123.579 70.0229 123.494 70.0401 123.387 70.0529C123.28 70.0655 123.146 70.0721 122.984 70.0721C122.817 70.0721 122.678 70.0655 122.567 70.0529C122.46 70.0401 122.375 70.0229 122.311 70.0017C122.251 69.9802 122.206 69.9524 122.177 69.9184C122.151 69.8843 122.138 69.8456 122.138 69.803V66.4539H119.039V69.803C119.039 69.8456 119.026 69.8843 119 69.9184C118.975 69.9524 118.93 69.9802 118.866 70.0017C118.802 70.0229 118.716 70.0401 118.61 70.0529C118.503 70.0655 118.366 70.0721 118.2 70.0721C118.038 70.0721 117.901 70.0655 117.79 70.0529C117.684 70.0401 117.598 70.0229 117.534 70.0017C117.47 69.9802 117.423 69.9524 117.393 69.9184C117.367 69.8843 117.355 69.8456 117.355 69.803V61.9774C117.355 61.9347 117.367 61.8963 117.393 61.8621C117.423 61.828 117.47 61.8003 117.534 61.7789C117.598 61.7576 117.684 61.7405 117.79 61.7277C117.901 61.7149 118.038 61.7085 118.2 61.7085C118.366 61.7085 118.503 61.7149 118.61 61.7277C118.716 61.7405 118.802 61.7576 118.866 61.7789C118.93 61.8003 118.975 61.828 119 61.8621C119.026 61.8963 119.039 61.9347 119.039 61.9774V65.0192H122.138V61.9774C122.138 61.9347 122.151 61.8963 122.177 61.8621C122.206 61.828 122.251 61.8003 122.311 61.7789C122.375 61.7576 122.46 61.7405 122.567 61.7277C122.678 61.7149 122.817 61.7085 122.984 61.7085C123.146 61.7085 123.28 61.7149 123.387 61.7277C123.494 61.7405 123.579 61.7576 123.643 61.7789C123.707 61.8003 123.752 61.828 123.778 61.8621C123.807 61.8963 123.822 61.9347 123.822 61.9774V69.803ZM133.082 65.7941C133.082 66.4814 132.997 67.0962 132.826 67.6386C132.655 68.1807 132.401 68.6418 132.064 69.0218C131.727 69.3975 131.308 69.6855 130.809 69.8863C130.314 70.0827 129.739 70.181 129.086 70.181C128.441 70.181 127.878 70.0976 127.396 69.9312C126.917 69.7603 126.518 69.502 126.198 69.1563C125.878 68.8104 125.637 68.3706 125.475 67.8371C125.316 67.3033 125.237 66.6716 125.237 65.9413C125.237 65.2712 125.323 64.6693 125.494 64.1355C125.664 63.5977 125.918 63.1407 126.256 62.765C126.593 62.3893 127.009 62.1012 127.504 61.9006C128.004 61.6999 128.582 61.5996 129.24 61.5996C129.867 61.5996 130.42 61.6829 130.898 61.8493C131.381 62.0159 131.782 62.272 132.102 62.6178C132.427 62.9637 132.67 63.4013 132.832 63.9305C132.999 64.4557 133.082 65.0768 133.082 65.7941ZM131.315 65.8838C131.315 65.4485 131.281 65.0533 131.212 64.6991C131.144 64.3406 131.027 64.0353 130.86 63.7833C130.698 63.5273 130.48 63.3308 130.207 63.1943C129.934 63.0534 129.592 62.9829 129.182 62.9829C128.768 62.9829 128.422 63.062 128.145 63.2197C127.867 63.3735 127.643 63.5806 127.472 63.8409C127.302 64.1015 127.18 64.4067 127.107 64.7567C127.039 65.1026 127.005 65.4697 127.005 65.8583C127.005 66.3107 127.039 66.7185 127.107 67.0814C127.176 67.4399 127.291 67.7474 127.453 68.0034C127.616 68.2597 127.833 68.4562 128.106 68.5928C128.38 68.7251 128.723 68.7912 129.137 68.7912C129.552 68.7912 129.897 68.7145 130.175 68.5607C130.452 68.4069 130.676 68.1979 130.847 67.933C131.018 67.6684 131.137 67.3611 131.206 67.0109C131.278 66.6567 131.315 66.281 131.315 65.8838ZM140.651 69.8158C140.651 69.8628 140.642 69.9035 140.626 69.9375C140.608 69.9673 140.568 69.9931 140.504 70.0143C140.44 70.0358 140.346 70.0507 140.222 70.0592C140.098 70.0678 139.93 70.0721 139.716 70.0721C139.537 70.0721 139.394 70.0678 139.287 70.0592C139.18 70.0507 139.095 70.0358 139.031 70.0143C138.971 69.9888 138.929 69.959 138.903 69.9247C138.877 69.8863 138.856 69.8416 138.839 69.7904L138.096 67.9396C138.006 67.7303 137.919 67.5447 137.833 67.3823C137.748 67.2202 137.652 67.0856 137.545 66.9788C137.443 66.868 137.323 66.7847 137.187 66.7291C137.05 66.6736 136.892 66.6458 136.713 66.6458H136.188V69.803C136.188 69.8456 136.173 69.8843 136.143 69.9184C136.117 69.9524 136.073 69.9802 136.008 70.0017C135.944 70.0229 135.859 70.0401 135.752 70.0529C135.646 70.0655 135.509 70.0721 135.342 70.0721C135.18 70.0721 135.044 70.0655 134.933 70.0529C134.826 70.0401 134.74 70.0229 134.676 70.0017C134.612 69.9802 134.568 69.9524 134.542 69.9184C134.516 69.8843 134.504 69.8456 134.504 69.803V62.2784C134.504 62.0906 134.551 61.9561 134.645 61.875C134.743 61.7896 134.862 61.7469 135.003 61.7469H137.148C137.366 61.7469 137.545 61.7512 137.686 61.7597C137.827 61.7682 137.955 61.7789 138.07 61.7917C138.403 61.8387 138.702 61.9198 138.967 62.0351C139.236 62.1503 139.462 62.3019 139.646 62.4898C139.833 62.6734 139.977 62.8933 140.075 63.1493C140.173 63.4013 140.222 63.6917 140.222 64.0204C140.222 64.2979 140.186 64.5519 140.113 64.7824C140.045 65.0087 139.942 65.2114 139.806 65.3907C139.669 65.5699 139.5 65.726 139.3 65.8583C139.099 65.9906 138.871 66.0974 138.615 66.1785C138.738 66.2383 138.854 66.3107 138.96 66.3961C139.072 66.4814 139.174 66.5862 139.268 66.7099C139.366 66.8294 139.458 66.9682 139.543 67.1263C139.629 67.2798 139.712 67.4551 139.793 67.6512L140.491 69.2844C140.555 69.4464 140.598 69.5661 140.619 69.6429C140.64 69.7156 140.651 69.7732 140.651 69.8158ZM138.48 64.1931C138.48 63.9199 138.418 63.6894 138.295 63.5015C138.171 63.3137 137.968 63.1814 137.686 63.1046C137.601 63.0831 137.503 63.066 137.392 63.0534C137.285 63.0405 137.136 63.0342 136.943 63.0342H136.188V65.3844H137.046C137.285 65.3844 137.494 65.3566 137.673 65.301C137.853 65.2412 138.002 65.1601 138.122 65.0576C138.241 64.9511 138.331 64.8251 138.391 64.6799C138.45 64.5347 138.48 64.3726 138.48 64.1931ZM146.677 67.549C146.677 67.9843 146.596 68.3666 146.434 68.6953C146.271 69.024 146.052 69.2992 145.774 69.5212C145.497 69.7391 145.172 69.9035 144.8 70.0143C144.429 70.1254 144.032 70.181 143.61 70.181C143.324 70.181 143.057 70.1575 142.809 70.1105C142.566 70.0635 142.35 70.008 142.162 69.9438C141.975 69.8757 141.816 69.8052 141.688 69.7325C141.565 69.6601 141.475 69.5959 141.42 69.5404C141.364 69.4851 141.323 69.4061 141.298 69.3035C141.276 69.1967 141.266 69.0452 141.266 68.8488C141.266 68.7165 141.27 68.6054 141.279 68.5157C141.287 68.4261 141.3 68.3537 141.317 68.2981C141.338 68.2426 141.364 68.2042 141.394 68.183C141.428 68.1572 141.467 68.1443 141.509 68.1443C141.569 68.1443 141.652 68.1807 141.759 68.2534C141.87 68.3216 142.011 68.3983 142.182 68.484C142.352 68.5693 142.555 68.6483 142.79 68.7208C143.029 68.7892 143.304 68.8233 143.616 68.8233C143.821 68.8233 144.004 68.7998 144.167 68.7529C144.329 68.7016 144.465 68.6312 144.577 68.5415C144.692 68.4519 144.779 68.3408 144.839 68.2085C144.899 68.0762 144.929 67.9287 144.929 67.7666C144.929 67.5788 144.878 67.4187 144.775 67.2864C144.673 67.1498 144.538 67.0301 144.372 66.9276C144.209 66.821 144.024 66.7228 143.815 66.6332C143.605 66.5393 143.39 66.441 143.168 66.3385C142.946 66.236 142.73 66.1209 142.521 65.9926C142.312 65.8603 142.124 65.7045 141.957 65.5253C141.795 65.3417 141.663 65.1261 141.56 64.8784C141.458 64.6309 141.407 64.334 141.407 63.9883C141.407 63.5912 141.479 63.2432 141.624 62.9445C141.774 62.6413 141.972 62.3916 142.22 62.1952C142.472 61.9945 142.766 61.8451 143.104 61.7469C143.445 61.6487 143.806 61.5996 144.186 61.5996C144.382 61.5996 144.579 61.6145 144.775 61.6444C144.971 61.6743 145.155 61.7149 145.326 61.7661C145.497 61.8173 145.648 61.875 145.78 61.939C145.913 62.003 146 62.0564 146.043 62.0991C146.086 62.1418 146.113 62.1781 146.126 62.208C146.143 62.2379 146.156 62.2784 146.165 62.3297C146.177 62.3767 146.186 62.4385 146.19 62.5153C146.194 62.588 146.197 62.6797 146.197 62.7908C146.197 62.9145 146.192 63.019 146.184 63.1046C146.18 63.19 146.169 63.2604 146.152 63.316C146.139 63.3712 146.118 63.4119 146.088 63.4377C146.062 63.4632 146.026 63.476 145.979 63.476C145.932 63.476 145.857 63.446 145.755 63.3864C145.652 63.3266 145.526 63.2624 145.377 63.1943C145.227 63.1215 145.054 63.0577 144.858 63.0021C144.662 62.9423 144.446 62.9125 144.211 62.9125C144.028 62.9125 143.868 62.936 143.731 62.9829C143.595 63.0256 143.479 63.0874 143.385 63.1685C143.296 63.2455 143.228 63.3394 143.181 63.4503C143.138 63.5614 143.116 63.6788 143.116 63.8025C143.116 63.986 143.165 64.1461 143.264 64.2827C143.366 64.4153 143.501 64.5347 143.667 64.6415C143.838 64.7441 144.03 64.842 144.244 64.9359C144.457 65.0258 144.675 65.1218 144.897 65.2243C145.119 65.3268 145.336 65.4442 145.55 65.5765C145.763 65.7045 145.953 65.8603 146.12 66.0439C146.286 66.2231 146.421 66.4367 146.523 66.6845C146.626 66.9276 146.677 67.2159 146.677 67.549ZM152.876 69.374C152.876 69.4977 152.869 69.6025 152.856 69.6878C152.848 69.7689 152.833 69.835 152.812 69.8863C152.79 69.9375 152.762 69.9759 152.728 70.0017C152.698 70.0229 152.664 70.0335 152.626 70.0335H148.463C148.323 70.0335 148.203 69.9931 148.105 69.9121C148.011 69.8264 147.964 69.6898 147.964 69.502V62.2784C147.964 62.0906 148.011 61.9561 148.105 61.875C148.203 61.7896 148.323 61.7469 148.463 61.7469H152.6C152.639 61.7469 152.673 61.7576 152.703 61.7789C152.733 61.8003 152.758 61.8387 152.78 61.8942C152.801 61.9454 152.816 62.0137 152.824 62.0991C152.837 62.1802 152.843 62.2848 152.843 62.4128C152.843 62.5325 152.837 62.635 152.824 62.7203C152.816 62.8014 152.801 62.8675 152.78 62.9188C152.758 62.97 152.733 63.0084 152.703 63.0342C152.673 63.0554 152.639 63.066 152.6 63.066H149.642V65.0897H152.146C152.184 65.0897 152.218 65.1026 152.248 65.1281C152.282 65.1495 152.31 65.1859 152.331 65.2372C152.353 65.2841 152.368 65.3503 152.376 65.4356C152.389 65.5167 152.395 65.6169 152.395 65.7366C152.395 65.8603 152.389 65.9628 152.376 66.0439C152.368 66.1252 152.353 66.1913 152.331 66.2426C152.31 66.2896 152.282 66.3236 152.248 66.3448C152.218 66.3663 152.184 66.3769 152.146 66.3769H149.642V68.7145H152.626C152.664 68.7145 152.698 68.7271 152.728 68.7529C152.762 68.774 152.79 68.8104 152.812 68.8617C152.833 68.9129 152.848 68.9811 152.856 69.0667C152.869 69.1478 152.876 69.2503 152.876 69.374Z" fill="#362510"/>
<defs>
<linearGradient id="paint0_linear" x1="31.9359" y1="82.2992" x2="59.9314" y2="55.2657" gradientUnits="userSpaceOnUse">
<stop stop-color="#362510"/>
<stop offset="0.1555" stop-color="#181100"/>
<stop offset="0.4699" stop-color="#362510"/>
<stop offset="1" stop-color="#362510"/>
</linearGradient>
<linearGradient id="paint1_linear" x1="30.4834" y1="69.5577" x2="51.9775" y2="69.5577" gradientUnits="userSpaceOnUse">
<stop stop-color="#2287BA"/>
<stop offset="0.2169" stop-color="#2A576E"/>
<stop offset="1" stop-color="#2A576E"/>
</linearGradient>
</defs>
</svg>
