<svg width="220" height="124" viewBox="0 0 220 124" fill="none" xmlns="http://www.w3.org/2000/svg">
<g clip-path="url(#clip0)">
<path d="M88.9077 54.13C88.9077 55.3137 89.0356 56.2735 89.2595 56.9774C89.5154 57.6812 89.8352 58.4491 90.2829 59.2809C90.4428 59.5368 90.5068 59.7928 90.5068 60.0167C90.5068 60.3367 90.3149 60.6566 89.8992 60.9765L87.8843 62.3203C87.5964 62.5122 87.3086 62.6082 87.0527 62.6082C86.7329 62.6082 86.4131 62.4482 86.0933 62.1603C85.6455 61.6804 85.2618 61.1685 84.9419 60.6566C84.6221 60.1127 84.3023 59.5048 83.9505 58.769C81.4559 61.7124 78.3216 63.1841 74.5478 63.1841C71.8613 63.1841 69.7185 62.4162 68.1513 60.8806C66.5842 59.3449 65.7847 57.2973 65.7847 54.7378C65.7847 52.0184 66.7441 49.8109 68.695 48.1472C70.6459 46.4835 73.2365 45.6517 76.5306 45.6517C77.618 45.6517 78.7374 45.7477 79.9207 45.9077C81.1041 46.0676 82.3194 46.3236 83.5987 46.6115V44.276C83.5987 41.8445 83.087 40.1489 82.0955 39.1571C81.0721 38.1653 79.3451 37.6854 76.8824 37.6854C75.7631 37.6854 74.6117 37.8133 73.4284 38.1013C72.245 38.3892 71.0937 38.7411 69.9743 39.1891C69.4626 39.413 69.0788 39.541 68.8549 39.605C68.6311 39.669 68.4712 39.7009 68.3432 39.7009C67.8955 39.7009 67.6716 39.381 67.6716 38.7091V37.1415C67.6716 36.6296 67.7356 36.2457 67.8955 36.0217C68.0554 35.7978 68.3432 35.5738 68.791 35.3498C69.9104 34.774 71.2536 34.2941 72.8207 33.9101C74.3878 33.4942 76.0509 33.3023 77.8099 33.3023C81.6158 33.3023 84.3982 34.1661 86.1892 35.8937C87.9482 37.6214 88.8437 40.2448 88.8437 43.7641V54.13H88.9077ZM75.923 58.993C76.9784 58.993 78.0658 58.801 79.2171 58.4171C80.3685 58.0332 81.3919 57.3293 82.2554 56.3695C82.7672 55.7616 83.1509 55.0898 83.3428 54.3219C83.5347 53.5541 83.6626 52.6263 83.6626 51.5385V50.1948C82.7352 49.9708 81.7437 49.7789 80.7203 49.6509C79.6969 49.5229 78.7054 49.4589 77.714 49.4589C75.5712 49.4589 74.0041 49.8748 72.9487 50.7387C71.8932 51.6025 71.3815 52.8182 71.3815 54.4179C71.3815 55.9216 71.7653 57.0414 72.5649 57.8092C73.3324 58.609 74.4518 58.993 75.923 58.993ZM101.605 62.4482C101.029 62.4482 100.645 62.3523 100.389 62.1283C100.133 61.9363 99.9095 61.4884 99.7177 60.8806L92.2019 36.1497C92.01 35.5098 91.914 35.0939 91.914 34.8699C91.914 34.358 92.1699 34.0701 92.6816 34.0701H95.8158C96.4235 34.0701 96.8393 34.1661 97.0631 34.39C97.319 34.582 97.5109 35.0299 97.7028 35.6378L103.076 56.8174L108.065 35.6378C108.225 34.9979 108.417 34.582 108.673 34.39C108.928 34.1981 109.376 34.0701 109.952 34.0701H112.51C113.118 34.0701 113.534 34.1661 113.79 34.39C114.046 34.582 114.269 35.0299 114.397 35.6378L119.451 57.0733L124.983 35.6378C125.175 34.9979 125.399 34.582 125.623 34.39C125.879 34.1981 126.295 34.0701 126.87 34.0701H129.845C130.356 34.0701 130.644 34.3261 130.644 34.8699C130.644 35.0299 130.612 35.1899 130.58 35.3818C130.548 35.5738 130.484 35.8297 130.356 36.1817L122.649 60.9126C122.457 61.5524 122.233 61.9683 121.977 62.1603C121.721 62.3523 121.306 62.4802 120.762 62.4802H118.011C117.404 62.4802 116.988 62.3843 116.732 62.1603C116.476 61.9363 116.252 61.5204 116.124 60.8806L111.167 40.2448L106.242 60.8486C106.082 61.4884 105.89 61.9044 105.634 62.1283C105.378 62.3523 104.931 62.4482 104.355 62.4482H101.605ZM142.702 63.3121C141.038 63.3121 139.375 63.1201 137.776 62.7362C136.177 62.3523 134.93 61.9363 134.098 61.4564C133.587 61.1685 133.235 60.8486 133.107 60.5606C132.979 60.2727 132.915 59.9528 132.915 59.6648V58.0332C132.915 57.3613 133.171 57.0414 133.651 57.0414C133.843 57.0414 134.034 57.0734 134.226 57.1373C134.418 57.2013 134.706 57.3293 135.026 57.4573C136.113 57.9372 137.297 58.3211 138.544 58.577C139.823 58.833 141.07 58.961 142.35 58.961C144.365 58.961 145.932 58.609 147.019 57.9052C148.107 57.2013 148.682 56.1775 148.682 54.8658C148.682 53.97 148.394 53.2341 147.819 52.6263C147.243 52.0184 146.156 51.4745 144.589 50.9626L139.951 49.5229C137.616 48.7871 135.889 47.6993 134.834 46.2596C133.779 44.8519 133.235 43.2842 133.235 41.6205C133.235 40.2768 133.523 39.0931 134.098 38.0693C134.674 37.0455 135.442 36.1497 136.401 35.4458C137.361 34.71 138.448 34.1661 139.727 33.7822C141.007 33.3982 142.35 33.2383 143.757 33.2383C144.461 33.2383 145.196 33.2703 145.9 33.3663C146.635 33.4622 147.307 33.5902 147.979 33.7182C148.618 33.8781 149.226 34.0381 149.802 34.2301C150.377 34.422 150.825 34.614 151.145 34.806C151.593 35.0619 151.912 35.3179 152.104 35.6058C152.296 35.8617 152.392 36.2137 152.392 36.6616V38.1653C152.392 38.8371 152.136 39.1891 151.657 39.1891C151.401 39.1891 150.985 39.0611 150.441 38.8051C148.618 37.9733 146.571 37.5574 144.301 37.5574C142.478 37.5574 141.038 37.8453 140.047 38.4532C139.056 39.0611 138.544 39.9889 138.544 41.3006C138.544 42.1964 138.864 42.9643 139.503 43.5721C140.143 44.18 141.326 44.7879 143.021 45.3318L147.563 46.7715C149.866 47.5073 151.529 48.5311 152.52 49.8428C153.511 51.1546 153.991 52.6583 153.991 54.3219C153.991 55.6976 153.703 56.9454 153.16 58.0332C152.584 59.1209 151.816 60.0807 150.825 60.8486C149.834 61.6484 148.65 62.2243 147.275 62.6402C145.836 63.0881 144.333 63.3121 142.702 63.3121Z" fill="#252F3E"/>
<path fill-rule="evenodd" clip-rule="evenodd" d="M148.747 78.8605C138.225 86.6349 122.937 90.7621 109.792 90.7621C91.3708 90.7621 74.7721 83.9475 62.2351 72.6218C61.2436 71.726 62.1391 70.5103 63.3225 71.2141C76.8829 79.0845 93.6095 83.8515 110.912 83.8515C122.585 83.8515 135.41 81.42 147.211 76.429C148.971 75.6292 150.474 77.5808 148.747 78.8605Z" fill="#FF9900"/>
<path fill-rule="evenodd" clip-rule="evenodd" d="M153.128 73.8701C151.785 72.1424 144.237 73.0383 140.815 73.4542C139.792 73.5821 139.632 72.6863 140.559 72.0145C146.572 67.7913 156.454 69.0071 157.606 70.4148C158.757 71.8545 157.286 81.7405 151.657 86.4755C150.793 87.2113 149.962 86.8274 150.346 85.8676C151.625 82.7003 154.471 75.5657 153.128 73.8701Z" fill="#FF9900"/>
</g>
<defs>
<clipPath id="clip0">
<rect width="98.1293" height="57.5241" fill="white" transform="translate(60.9355 33.2383)"/>
</clipPath>
</defs>
</svg>
