<svg width="220" height="124" viewBox="0 0 220 124" fill="none" xmlns="http://www.w3.org/2000/svg">
<path d="M60.5714 62.1287H52.8113V54.3487H60.9928C63.9874 54.3487 65.4847 55.6653 65.4847 58.2993C65.4847 60.8527 63.8463 62.13 60.5714 62.13V62.1287ZM66.1488 54.258C65.0788 53.3087 63.5975 52.834 61.6856 52.834L50.5723 52.8953V71.5087H52.8113L52.7912 63.5847H61.061C63.1341 63.5847 64.7672 63.11 65.9582 62.1607C67.1493 61.2113 67.7451 59.894 67.7451 58.2093C67.7451 56.5247 67.2135 55.208 66.1502 54.258H66.1488ZM80.642 67.6C80.428 68.2089 80.0621 68.7536 79.5796 69.1833C78.5759 70.1593 77.0461 70.6467 74.9876 70.6467C73.1285 70.6467 71.7028 70.18 70.7077 69.224C69.7126 68.268 69.2144 67.006 69.2144 65.4153C69.2144 64.5873 69.3448 63.852 69.6049 63.2107C69.865 62.5693 70.2429 62.028 70.7378 61.5867C71.7677 60.6513 73.1838 60.1833 74.9883 60.1833C78.9846 60.1833 80.9837 61.9273 80.9837 65.4153C80.9837 66.244 80.8698 66.972 80.6496 67.6H80.642ZM81.0555 60.7333C79.6908 59.4933 77.6716 58.8667 74.9952 58.8667C72.4672 58.8667 70.5131 59.5 69.1354 60.7667C67.8916 61.9133 67.263 63.46 67.263 65.408C67.263 67.3413 67.905 68.9013 69.189 70.088C69.8978 70.728 70.7237 71.192 71.6673 71.4787C72.6108 71.7653 73.7174 71.9087 74.9883 71.9087C77.6502 71.9087 79.6694 71.2953 81.0686 70.0687C82.3126 68.9487 82.9408 67.402 82.9408 65.4073C82.9408 63.4073 82.3126 61.8473 81.0555 60.726V60.7333ZM97.9864 68.138C97.9864 70.6433 95.7352 71.896 91.2323 71.896C89.8558 71.896 88.696 71.8093 87.7544 71.6347C86.8128 71.46 86.0472 71.1713 85.4598 70.7693C85.0062 70.4634 84.6342 70.0514 84.3767 69.5693C84.1095 69.076 83.9355 68.456 83.8555 67.7027L85.9506 67.6827C85.9506 68.6693 86.3172 69.3947 87.0503 69.8613C87.8379 70.4213 89.231 70.7013 91.2323 70.7013C94.3794 70.7013 95.9534 69.9147 95.9534 68.3427C95.9534 67.4227 95.4184 66.7907 94.3698 66.4427C94.1558 66.376 92.8835 66.1993 90.5578 65.9133C88.2328 65.6273 86.7728 65.37 86.1991 65.1433C84.9565 64.65 84.3352 63.7633 84.3352 62.4847C84.3352 61.2313 84.8903 60.298 86.0072 59.686C86.556 59.4327 87.2408 59.2367 88.0644 59.096C88.8879 58.9553 89.8406 58.886 90.9237 58.886C95.2589 58.886 97.4265 60.242 97.4265 62.9527H95.4336C95.4336 61.046 93.9086 60.086 90.8622 60.086C89.3125 60.086 88.1562 60.286 87.3941 60.666C86.6326 61.046 86.2523 61.646 86.2523 62.446C86.2523 63.1927 86.7673 63.7327 87.7958 64.066C88.3971 64.2393 89.7805 64.4393 91.946 64.666C93.8838 64.8393 95.214 65.086 95.9354 65.3993C97.3133 65.9327 98.0009 66.8393 98.0009 68.1173L97.9864 68.138ZM106.216 71.5333L105.364 71.6533L104.832 71.6933C103.468 71.6933 102.491 71.4967 101.88 71.102C101.27 70.7073 100.976 70.0173 100.976 69.0353V60.532H98.4979V59.2827H100.963L100.983 55.2693H102.893V59.2827H106.22V60.552L102.893 60.532V68.7967C102.893 69.412 103.057 69.8367 103.385 70.0633C103.713 70.29 104.297 70.414 105.139 70.414C105.26 70.4273 105.394 70.4233 105.541 70.4007C105.764 70.3611 105.984 70.3107 106.203 70.25L106.223 71.5167L106.216 71.5333ZM119.427 68.7133C118.906 69.14 118.312 69.4653 117.644 69.6933C116.976 69.9213 116.207 70.0267 115.339 70.0267C111.344 70.0267 109.348 68.382 109.348 65.0933C109.348 63.562 109.859 62.3633 110.881 61.4973C111.903 60.6313 113.342 60.1987 115.2 60.1987C117.07 60.1987 118.49 60.6353 119.458 61.5073C120.427 62.3793 120.911 63.5487 120.911 65.014C120.911 66.612 120.416 67.844 119.428 68.7093L119.427 68.7133ZM122.822 59.286H120.912L120.892 61.386C120.049 60.5327 119.448 59.9947 119.086 59.768C118.016 59.1813 116.633 58.8893 114.935 58.8893C112.449 58.8893 110.55 59.456 109.241 60.588C107.997 61.628 107.376 63.1327 107.376 65.104C107.376 66.0773 107.533 66.9453 107.848 67.704C108.162 68.4627 108.62 69.1193 109.223 69.652C110.535 70.744 112.389 71.2907 114.787 71.2907C117.665 71.2907 119.707 70.506 120.913 68.936V71.1093C120.913 72.496 120.475 73.568 119.599 74.328C118.724 75.088 117.284 75.4613 115.278 75.4613C113.392 75.4613 112.049 75.1947 111.247 74.6853C110.646 74.2873 110.231 73.5973 110.004 72.6153H108.037C108.251 73.9867 108.84 74.9787 109.776 75.5907C110.873 76.296 112.719 76.6487 115.327 76.6487C120.316 76.6487 122.817 74.8 122.817 71.102V59.2913L122.822 59.286ZM133.154 60.5213C132.579 60.428 132.046 60.388 131.552 60.388C128.412 60.388 126.843 62.1047 126.843 65.5367V71.506H124.952L124.932 59.2913L126.843 59.31V61.49H126.943C127.264 60.6313 127.773 59.98 128.467 59.5367C129.228 59.1073 130.363 58.8927 131.874 58.8927H133.156V60.5327L133.154 60.5213ZM134.931 64.6267C135.172 63.2387 135.713 62.164 136.554 61.4027C137.103 60.9627 137.724 60.6313 138.419 60.4113C139.113 60.1913 139.89 60.0807 140.764 60.0807C142.462 60.0807 143.841 60.5447 144.924 61.4727C146.007 62.4007 146.537 63.4527 146.537 64.626H134.931V64.6267ZM146.723 60.858C146.054 60.1893 145.225 59.6953 144.235 59.374C143.245 59.0527 142.095 58.8927 140.758 58.8927C138.283 58.8927 136.364 59.466 134.999 60.6127C133.633 61.7593 132.952 63.3193 132.952 65.294C132.952 67.2687 133.608 68.8273 134.919 69.994C136.336 71.274 138.329 71.914 140.915 71.914C141.945 71.914 142.897 71.7973 143.773 71.5653C144.649 71.3333 145.415 71.004 146.07 70.5787C147.22 69.7553 147.948 68.7387 148.256 67.532H146.192C145.483 69.6207 143.719 70.6653 140.899 70.6653C138.907 70.6653 137.377 70.1547 136.308 69.1333C135.385 68.258 134.925 67.124 134.925 65.7307H148.543C148.543 63.6587 147.941 62.034 146.717 60.864L146.723 60.858Z" fill="#231F20"/>
<path d="M168.73 66.5177C168.73 70.1443 165.796 71.9577 159.927 71.9577C156.412 71.9577 153.845 71.333 152.228 70.091C150.904 69.0643 150.244 67.499 150.244 65.3923H152.605C152.605 68.7777 155.046 70.4703 159.927 70.4703C162.268 70.4703 163.96 70.1237 165.01 69.4317C165.892 68.8197 166.334 67.8603 166.334 66.5557C166.334 65.2637 165.732 64.3583 164.528 63.8383C163.846 63.5583 162.187 63.205 159.532 62.7797C156.202 62.273 154.043 61.7677 153.053 61.2617C151.622 60.515 150.913 59.2503 150.913 57.4657C150.913 55.801 151.515 54.5623 152.739 53.7497C154.05 52.8577 156.297 52.411 159.479 52.411C165.23 52.411 168.106 54.315 168.106 58.123H165.723C165.723 55.2697 163.588 53.8443 159.317 53.8443C157.176 53.8443 155.61 54.131 154.619 54.711C153.681 55.3243 153.215 56.2243 153.215 57.411C153.215 58.651 153.817 59.5243 155.02 60.031C155.662 60.3243 157.548 60.731 160.678 61.251C163.62 61.691 165.607 62.2043 166.63 62.7843C168.034 63.5043 168.736 64.751 168.736 66.5177H168.73ZM187.923 68.3683C187.04 69.073 186.042 69.6017 184.932 69.955C183.82 70.3083 182.576 70.4837 181.197 70.4837C178.385 70.4837 176.115 69.7283 174.38 68.2183C172.645 66.7083 171.78 64.6957 171.78 62.1803C171.78 59.559 172.64 57.5163 174.36 56.0523C176.08 54.5883 178.359 53.857 181.196 53.857C184.074 53.857 186.336 54.6223 187.983 56.1523C188.852 56.899 189.494 57.7697 189.91 58.7677C190.326 59.7657 190.532 60.9037 190.532 62.181C190.532 64.789 189.662 66.8517 187.921 68.3677L187.923 68.3683ZM189.177 69.6023C190.408 68.737 191.319 67.689 191.908 66.457C192.497 65.225 192.792 63.8037 192.792 62.1917C192.792 59.3017 191.829 56.9917 189.903 55.2397C188.873 54.281 187.629 53.5683 186.172 53.1023C184.714 52.6363 183.048 52.4023 181.176 52.4023C177.538 52.4023 174.689 53.2823 172.616 55.039C170.543 56.7957 169.506 59.1803 169.506 62.1903C169.506 65.1197 170.552 67.4837 172.645 69.281C174.737 71.0783 177.595 71.9777 181.218 71.9777C182.636 71.9777 183.871 71.8823 184.928 71.691C185.983 71.4997 186.88 71.2063 187.616 70.811L191.105 73.2223L192.563 71.8877L189.184 69.603L189.177 69.6023ZM210.477 71.507H194.329V52.867L196.548 52.827V69.945H210.49L210.47 71.501L210.477 71.507Z" fill="#367FAF"/>
<path d="M35.2586 68.3778C35.4833 66.7978 35.4158 66.5658 36.8088 66.8218L37.1632 66.8485C38.2345 66.8898 39.6356 66.7032 40.4588 66.3798C42.231 65.6852 43.2809 64.5252 41.5342 64.8298C37.5484 65.5245 37.2742 64.3832 37.2742 64.3832C41.4827 59.1065 43.2421 52.4078 41.7241 50.7678C37.5745 46.2965 30.4122 48.4112 30.2851 48.4665L30.247 48.4732C29.4592 48.3352 28.5778 48.2532 27.588 48.2398C25.7844 48.2145 24.4162 48.6398 23.3776 49.3045C23.3776 49.3045 10.5871 44.8512 11.1823 54.9045C11.3093 57.0432 14.8102 71.0865 18.9852 66.8445C20.5113 65.2932 21.9866 63.9818 21.9866 63.9818C22.7559 64.4113 23.6365 64.6012 24.5151 64.5272L24.586 64.4758C24.564 64.6692 24.5726 64.8558 24.6148 65.0798C23.5394 66.0952 23.8551 66.2732 21.7044 66.6478C19.5289 67.0265 20.8069 67.7012 21.6415 67.8778C22.6533 68.0912 24.994 68.3945 26.5756 66.5245L26.5127 66.7378C26.934 67.0232 26.9059 68.7878 26.9661 70.0492C27.0263 71.3105 27.1266 72.4872 27.4302 73.1812C27.7338 73.8752 28.0936 75.6612 30.9198 75.1505C33.2818 74.7225 35.0881 74.1072 35.2533 68.3805" fill="#231F20"/>
<path d="M35.2586 68.3778C35.4833 66.7978 35.4158 66.5658 36.8088 66.8218L37.1632 66.8485C38.2345 66.8898 39.6356 66.7032 40.4588 66.3798C42.231 65.6852 43.2809 64.5252 41.5342 64.8298C37.5484 65.5245 37.2742 64.3832 37.2742 64.3832C41.4827 59.1065 43.2421 52.4078 41.7241 50.7678C37.5745 46.2965 30.4122 48.4112 30.2851 48.4665L30.247 48.4732C29.4592 48.3352 28.5778 48.2532 27.588 48.2398C25.7844 48.2145 24.4162 48.6398 23.3776 49.3045C23.3776 49.3045 10.5871 44.8512 11.1823 54.9045C11.3093 57.0432 14.8102 71.0865 18.9852 66.8445C20.5113 65.2932 21.9866 63.9818 21.9866 63.9818C22.7559 64.4113 23.6365 64.6012 24.5151 64.5272L24.586 64.4758C24.564 64.6692 24.5726 64.8558 24.6148 65.0798C23.5394 66.0952 23.8551 66.2732 21.7044 66.6478C19.5289 67.0265 20.8069 67.7012 21.6415 67.8778C22.6533 68.0912 24.994 68.3945 26.5756 66.5245L26.5127 66.7378C26.934 67.0232 26.9059 68.7878 26.9661 70.0492C27.0263 71.3105 27.1266 72.4872 27.4302 73.1812C27.7338 73.8752 28.0936 75.6612 30.9198 75.1505C33.2818 74.7225 35.0881 74.1072 35.2533 68.3805" stroke="#231F20" stroke-width="4.108"/>
<path d="M41.5334 64.8295C37.5476 65.5242 37.2734 64.3829 37.2734 64.3829C41.4819 59.1055 43.2414 52.4069 41.7233 50.7675C37.5811 46.2962 30.4121 48.4115 30.285 48.4668L30.2462 48.4735C29.4584 48.3355 28.577 48.2535 27.5866 48.2402C25.783 48.2155 24.4147 48.6402 23.3768 49.3049C23.3768 49.3049 10.5856 44.8515 11.1808 54.9049C11.3079 57.0435 14.8081 71.0875 18.9838 66.8449C20.5099 65.2935 21.9845 63.9822 21.9845 63.9822C22.7538 64.4116 23.6344 64.6015 24.513 64.5275L24.5846 64.4762C24.5625 64.6695 24.5725 64.8562 24.6133 65.0802C23.538 66.0955 23.8536 66.2735 21.7043 66.6482C19.5282 67.0269 20.8068 67.7015 21.6414 67.8782C22.6532 68.0915 24.9938 68.3949 26.5754 66.5249L26.5126 66.7382C26.9339 67.0235 27.2301 68.5935 27.1813 70.0182C27.1325 71.4429 27.0984 72.4182 27.4308 73.1822C27.7631 73.9462 28.0942 75.6622 30.9216 75.1515C33.2837 74.7235 34.5082 73.6155 34.678 71.7662C34.7984 70.4515 35.0726 70.6462 35.0893 69.4709L35.3086 68.9149C35.5614 67.1329 35.3488 66.5582 36.804 66.8255L37.1584 66.8522C38.2297 66.8935 39.6314 66.7069 40.454 66.3835C42.2262 65.6889 43.2761 64.5289 41.5294 64.8335L41.5334 64.8295Z" fill="#417BA2"/>
<path d="M23.3634 49.229C23.3634 49.229 10.5569 44.809 11.1587 54.867C11.2925 57.0056 14.786 71.0496 18.9631 66.8003C20.4892 65.249 21.8688 64.0323 21.8688 64.0323L23.3634 49.229ZM30.285 48.4223C29.8416 48.5396 37.4052 46.0863 41.7032 50.727C43.2213 52.367 41.4625 59.0656 37.2534 64.343" fill="#417BA2"/>
<path d="M26.7527 65.8516C26.643 69.167 26.7794 72.5063 27.1639 73.3183C27.5485 74.1303 28.3704 75.7083 31.1979 75.1963C33.5599 74.7683 34.4192 73.9403 34.7917 72.1123C35.0592 70.7676 35.5962 67.0323 35.6638 66.2676L26.7527 65.8516ZM30.285 48.4223C29.8416 48.5396 37.4052 46.0863 41.7032 50.727C43.2213 52.367 41.4625 59.0656 37.2534 64.343L30.285 48.4223ZM23.3634 49.229C23.3634 49.229 10.5569 44.809 11.1587 54.867C11.2925 57.0056 14.786 71.0496 18.9631 66.8003C20.4892 65.249 21.8688 64.0323 21.8688 64.0323L23.3634 49.229Z" stroke="white" stroke-width="1.369"/>
<path d="M37.2469 64.3423C37.2469 64.3423 37.5144 65.4823 41.5068 64.7877C43.2536 64.483 42.2023 65.643 40.4301 66.3383C38.9763 66.9083 35.7168 67.0543 35.664 66.267C35.5269 64.2337 37.3793 64.8517 37.2455 64.3423C37.1252 63.8837 36.2959 63.4337 35.7475 62.311C35.2694 61.331 29.1871 53.8163 37.4341 54.9323C37.7364 54.879 35.2828 48.303 27.5634 48.1964C19.844 48.0897 20.1001 56.2163 20.1001 56.2163" fill="#417BA2"/>
<path d="M37.2469 64.3423C37.2469 64.3423 37.5144 65.4823 41.5068 64.7877C43.2536 64.483 42.2023 65.643 40.4301 66.3383C38.9763 66.9083 35.7168 67.0543 35.664 66.267C35.5269 64.2337 37.3793 64.8517 37.2455 64.3423C37.1252 63.8837 36.2959 63.4337 35.7475 62.311C35.2694 61.331 29.1871 53.8163 37.4341 54.9323C37.7364 54.879 35.2828 48.303 27.5634 48.1964C19.844 48.0897 20.1001 56.2163 20.1001 56.2163" stroke="white" stroke-width="1.369" stroke-linejoin="bevel"/>
<path d="M24.5925 65.037C23.5158 66.0524 23.8328 66.2304 21.6821 66.605C19.506 66.985 20.7846 67.6584 21.6192 67.835C22.631 68.0484 24.9717 68.3517 26.5533 66.4804C27.0348 65.9104 26.5506 65.0004 25.8892 64.7697C25.5695 64.6577 25.1422 64.5177 24.5918 65.0364L24.5925 65.037Z" stroke="white" stroke-width="1.369"/>
<path d="M24.5226 65.0197C24.4142 64.4224 24.7546 63.713 25.1198 62.881C25.6681 61.6344 26.9334 60.3864 25.9223 56.4297C25.1679 53.481 20.1061 55.8164 20.1041 56.2164C20.1021 56.6164 20.3328 58.243 20.0192 60.1364C19.6099 62.6084 21.8803 64.6984 24.4945 64.485" fill="#417BA2"/>
<path d="M24.5226 65.0197C24.4142 64.4224 24.7546 63.713 25.1198 62.881C25.6681 61.6344 26.9334 60.3864 25.9223 56.4297C25.1679 53.481 20.1061 55.8164 20.1041 56.2164C20.1021 56.6164 20.3328 58.243 20.0192 60.1364C19.6099 62.6084 21.8803 64.6984 24.4945 64.485" stroke="white" stroke-width="1.369"/>
<path d="M23.318 56.1557C23.2953 56.2923 23.6143 56.6557 24.0296 56.705C24.4449 56.7543 24.7986 56.469 24.822 56.333C24.8455 56.197 24.5265 56.0463 24.1105 55.997C23.6945 55.9477 23.3401 56.0197 23.318 56.1557Z" fill="white"/>
<path d="M35.9511 55.8768C35.9739 56.0135 35.6556 56.3768 35.2396 56.4262C34.8236 56.4755 34.4692 56.1902 34.4465 56.0528C34.4237 55.9155 34.7427 55.7662 35.158 55.7168C35.5733 55.6675 35.9271 55.7388 35.9505 55.8755L35.9511 55.8768Z" fill="white"/>
<path d="M37.4358 54.9316C37.5041 56.003 37.163 56.7316 37.1195 57.873C37.056 59.5303 38.0544 61.4263 36.5498 63.3263" stroke="white" stroke-width="1.369"/>
</svg>
