<svg width="220" height="124" viewBox="0 0 220 124" fill="none" xmlns="http://www.w3.org/2000/svg">
<path d="M94.9277 65.4562H106.396L100.332 55.5318L89.2024 73.4753H84.137L97.6744 51.9214C98.2631 51.0504 99.2441 50.5244 100.332 50.5244C101.384 50.5244 102.365 51.0324 102.936 51.8849L116.527 73.4753H111.462L109.072 69.4657H97.4605L94.9277 65.4562ZM147.544 69.4657V50.7419H143.246V71.298C143.246 71.8605 143.46 72.4049 143.87 72.8222C144.28 73.2394 144.833 73.4753 145.439 73.4753H165.041L167.574 69.4657H147.544ZM76.4319 66.1093C80.6055 66.1093 83.9943 62.68 83.9943 58.4348C83.9943 54.1893 80.6055 50.7419 76.4319 50.7419H57.6272V73.4753H61.9238V54.7515H76.1464C78.1441 54.7515 79.7493 56.4028 79.7493 58.4348C79.7493 60.4666 78.1441 62.1178 76.1464 62.1178L64.0287 62.0997L76.8599 73.4753H83.1025L74.4698 66.1093H76.4319ZM31.176 73.475C25.0067 73.475 20 68.395 20 62.1175C20 55.84 25.0067 50.7419 31.176 50.7419H44.166C50.3373 50.7419 55.3404 55.84 55.3404 62.1175C55.3404 68.395 50.3376 73.475 44.1663 73.475H31.176ZM43.8769 69.4654C47.8744 69.4654 51.1114 66.1816 51.1114 62.1175C51.1114 58.0534 47.8744 54.7515 43.8774 54.7515H31.4635C27.4682 54.7515 24.2292 58.0537 24.2292 62.1178C24.2292 66.1819 27.4682 69.4657 31.4635 69.4657L43.8769 69.4654ZM125.499 73.475C119.327 73.475 114.316 68.395 114.316 62.1175C114.316 55.84 119.327 50.7419 125.499 50.7419H140.927L138.412 54.7512H125.784C121.788 54.7512 118.542 58.0534 118.542 62.1175C118.542 66.1816 121.788 69.4654 125.784 69.4654H141.283L138.751 73.475H125.499ZM178.061 69.4654C174.762 69.4654 171.961 67.2156 171.105 64.1134H189.477L192.009 60.1035H171.105C171.962 57.0192 174.762 54.7515 178.062 54.7515H190.672L193.222 50.7417H177.776C171.605 50.7417 166.593 55.84 166.593 62.1172C166.593 68.395 171.605 73.475 177.776 73.475H191.028L193.561 69.4654H178.061ZM195.523 53.1551C195.522 52.8928 195.573 52.6329 195.671 52.3904C195.769 52.1479 195.914 51.9276 196.096 51.7421C196.278 51.5566 196.495 51.4096 196.733 51.3096C196.972 51.2095 197.227 51.1584 197.485 51.1592C198.591 51.1592 199.465 52.0482 199.465 53.1551C199.465 54.28 198.591 55.1691 197.485 55.1691C196.397 55.1691 195.523 54.28 195.523 53.1551ZM197.485 55.7312C198.876 55.7312 200 54.5882 200 53.1732C200 51.7581 198.876 50.6151 197.485 50.6151C196.112 50.6151 194.988 51.7581 194.988 53.1732C194.988 54.5882 196.112 55.7312 197.485 55.7312ZM197.253 51.6491C197.645 51.6491 197.806 51.6674 197.985 51.7397C198.484 51.9033 198.538 52.3567 198.538 52.5381C198.538 52.5745 198.537 52.6652 198.502 52.774C198.484 52.883 198.413 53.1006 198.163 53.2639C198.127 53.2819 198.109 53.3003 198.038 53.3365L198.68 54.5159H198.056L197.485 53.4271H197.093V54.5159H196.54V51.6491H197.253ZM197.449 52.9554C197.628 52.9373 197.806 52.9373 197.913 52.774C197.967 52.7014 197.985 52.6288 197.985 52.52C197.985 52.3748 197.895 52.248 197.77 52.1754C197.645 52.1208 197.521 52.1208 197.253 52.1208H197.093V52.9554H197.449Z" fill="#F80000"/>
</svg>
