<svg width="220" height="124" viewBox="0 0 220 124" fill="none" xmlns="http://www.w3.org/2000/svg">
<g clip-path="url(#clip0)">
<path d="M65.6932 37.7646V39.256H67.1826V37.7646H65.6932ZM65.6932 40.7475V42.2389H67.1826V40.7475H65.6932ZM61.2252 42.2389V43.7303H62.7146V42.2389H61.2252ZM41.7388 43.3564C29.9135 43.3564 20.3301 52.9531 20.3301 64.7948C20.3301 76.6365 29.9135 86.2352 41.7388 86.2352C53.5641 86.2352 63.1475 76.6385 63.1475 64.7948C63.1475 52.9511 53.5641 43.3564 41.7408 43.3564H41.7388ZM41.7388 50.193C49.7851 50.193 56.3223 56.7373 56.3223 64.7948C56.3223 72.8523 49.7851 79.3986 41.7388 79.3986C33.6924 79.3986 27.2187 72.8523 27.2187 64.7948C27.2187 56.7373 33.6924 50.193 41.7388 50.193Z" fill="#FDB511"/>
<path d="M75.5726 76.1393C72.4947 76.1393 69.9132 75.3737 67.8281 73.8425L69.8238 70.5614C71.4919 71.7347 73.3783 72.3213 75.4833 72.3213C76.5159 72.3213 77.33 72.1224 77.9258 71.7247C78.5215 71.3071 78.8194 70.7305 78.8194 69.9947C78.8194 69.7959 78.7995 69.6169 78.7598 69.4578C78.7192 69.2968 78.6484 69.145 78.5513 69.0104C78.452 68.8513 78.3527 68.722 78.2534 68.6226C78.1176 68.4753 77.9561 68.354 77.7768 68.2647C77.5783 68.1454 77.3995 68.0459 77.2407 67.9664C76.7611 67.7359 76.2628 67.5463 75.7514 67.3997C75.5528 67.3201 75.245 67.2108 74.828 67.0716C74.4109 66.9324 74.0634 66.8131 73.7854 66.7136C73.1402 66.4938 72.5128 66.2246 71.9089 65.9083C71.3494 65.5792 70.821 65.1998 70.3302 64.7748C69.794 64.2976 69.3869 63.701 69.1089 62.9851C68.8309 62.2494 68.6919 61.4142 68.6919 60.4796C68.6919 58.5905 69.3472 57.1289 70.6578 56.0949C71.9684 55.0409 73.6961 54.514 75.8407 54.514C78.4222 54.514 80.5172 54.9912 82.1257 55.9457L80.6066 59.3759C79.1673 58.6763 77.5895 58.3093 75.9896 58.3021C73.9244 58.3021 72.8918 58.9782 72.8918 60.3304C72.8918 60.6486 72.9514 60.927 73.0705 61.1656C73.1897 61.4042 73.3188 61.6031 73.4578 61.7622C73.5968 61.9213 73.845 62.0803 74.2024 62.2394C74.5797 62.3985 74.8875 62.5178 75.1258 62.5974L76.3769 62.9851L76.9726 63.1641C77.6676 63.3828 78.2634 63.5916 78.7598 63.7905C79.2563 63.9893 79.8023 64.2777 80.3981 64.6555C80.9938 65.0134 81.4803 65.4211 81.8576 65.8784C82.2349 66.3358 82.5526 66.9125 82.8108 67.6085C83.0689 68.3045 83.198 69.08 83.198 69.9351C83.198 71.8043 82.5328 73.3056 81.2023 74.4391C79.8917 75.5726 78.0151 76.1393 75.5726 76.1393ZM90.5494 76.5569L84.9197 60.4199H89.5962L92.4855 71.6949L94.928 60.4199H99.3067L94.6897 76.0498C93.6174 79.6689 91.3834 81.4785 87.9877 81.4785C87.1934 81.4785 86.3495 81.389 85.4559 81.21L85.9324 78.0483C86.7268 78.1278 87.2331 78.1676 87.4516 78.1676C88.2657 78.1676 88.9012 78.0383 89.3579 77.7798C89.8146 77.5412 90.2118 77.1335 90.5494 76.5569ZM114.075 62.4482C115.564 60.8574 117.153 60.062 118.841 60.062C120.41 60.062 121.512 60.5989 122.147 61.6727C122.802 62.7465 123.13 64.0888 123.13 65.6995V75.841H118.602V65.6398C118.602 64.4069 118.126 63.7905 117.173 63.7905C116.418 63.7905 115.574 64.2081 114.641 65.0433V75.841H110.113V65.6398C110.113 64.4069 109.637 63.7905 108.684 63.7905C107.81 63.7905 106.966 64.228 106.152 65.1029V75.841H101.624V60.4199H104.424L105.318 62.7763C106.886 60.9668 108.564 60.062 110.352 60.062C112.139 60.062 113.38 60.8574 114.075 62.4482ZM134.439 65.9679V65.5802C134.439 64.8842 134.28 64.3771 133.962 64.0589C133.665 63.7408 133.138 63.5817 132.384 63.5817C131.212 63.5817 129.772 63.9794 128.065 64.7748L126.516 61.792C128.502 60.6387 130.587 60.062 132.771 60.062C134.816 60.062 136.355 60.5691 137.388 61.5832C138.44 62.5775 138.967 63.9993 138.967 65.8486V75.841H136.167C135.65 74.7473 135.382 74.2005 135.362 74.2005C133.953 75.493 132.443 76.1393 130.835 76.1393C129.465 76.1393 128.313 75.7416 127.38 74.9462C126.466 74.1309 126.009 73.0272 126.009 71.6353C126.009 70.0047 126.536 68.8115 127.588 68.0559C128.819 67.1412 131.103 66.4452 134.439 65.9679ZM134.439 72.023V68.7718C132.473 69.1695 131.282 69.6069 130.865 70.0842C130.587 70.3825 130.448 70.7901 130.448 71.3071C130.448 72.4008 130.974 72.9477 132.026 72.9477C132.9 72.9477 133.704 72.6395 134.439 72.023ZM142.581 75.841V60.4199H145.381L146.274 62.7763C147.843 60.9668 149.561 60.062 151.427 60.062C154.366 60.062 155.836 61.9411 155.836 65.6995V75.841H151.308V65.6398C151.308 64.4069 150.792 63.7905 149.759 63.7905C148.806 63.7905 147.923 64.228 147.108 65.1029V75.841H142.581ZM160.522 63.522H158.259V60.4199H160.582L161.356 56.0352H165.05V60.4199H168.326V63.522H165.05V70.9492C165.05 71.6253 165.159 72.0926 165.378 72.3511C165.596 72.6096 166.043 72.7389 166.718 72.7389C167.095 72.7389 167.621 72.6395 168.297 72.4406L168.833 75.5726C167.701 75.9504 166.549 76.1393 165.378 76.1393C162.141 76.1393 160.522 74.4888 160.522 71.1878V63.522ZM175.366 69.4578C175.465 70.5117 175.753 71.2873 176.23 71.7844C176.726 72.2815 177.461 72.5301 178.434 72.5301C178.97 72.5301 179.506 72.4506 180.043 72.2915C180.599 72.1324 181.006 71.9832 181.264 71.844C181.542 71.7049 181.949 71.4861 182.485 71.1878L184.272 74.0513C183.657 74.5087 183.13 74.8666 182.694 75.1251C182.257 75.3638 181.631 75.5924 180.817 75.8112C180.003 76.0299 179.099 76.1393 178.106 76.1393C175.843 76.1393 174.036 75.4433 172.685 74.0513C171.355 72.6395 170.689 70.7205 170.689 68.2945C170.689 65.8685 171.325 63.8899 172.596 62.3587C173.867 60.8276 175.614 60.062 177.838 60.062C180.122 60.062 181.83 60.8276 182.962 62.3587C184.093 63.8899 184.659 65.8586 184.659 68.2647V69.4578H175.366ZM175.366 66.8031H180.043C180.043 64.4765 179.298 63.3132 177.809 63.3132C177.094 63.3132 176.538 63.5916 176.14 64.1484C175.743 64.6853 175.485 65.5702 175.366 66.8031ZM194.338 76.1393C191.876 76.1393 190.019 75.4135 188.768 73.9618C187.537 72.4903 186.921 70.5714 186.921 68.205C186.921 65.8387 187.567 63.8899 188.857 62.3587C190.148 60.8276 191.975 60.062 194.338 60.062C196.423 60.062 198.121 60.6387 199.432 61.792L197.317 64.8046C196.781 64.4069 196.314 64.1385 195.917 63.9993C195.52 63.8402 195.003 63.7607 194.368 63.7607C192.521 63.7607 191.598 65.2222 191.598 68.1454C191.598 71.0089 192.541 72.4406 194.427 72.4406C195.44 72.4406 196.463 72.033 197.496 71.2177L199.67 74.0215C198.26 75.4334 196.483 76.1393 194.338 76.1393ZM47.8214 54.17C43.9332 59.0339 42.9542 61.1696 41.4053 65.1049C39.6479 61.5454 37.5509 59.0896 33.9189 57.463C33.2318 57.286 32.8943 57.1846 32.4296 57.8348C31.9649 58.4851 32.2489 59.0717 32.8029 59.7617C34.2565 61.5713 35.8908 63.2417 37.0227 65.2918C38.3512 67.696 40.0034 71.6551 40.5594 72.6872C41.0022 73.5065 42.0745 73.8684 42.4856 73.8684C44.6818 73.6079 44.6818 72.4883 45.1008 70.5495C45.78 67.3698 46.6597 64.0828 50.8 60.1336V54.168L47.8214 54.17Z" fill="black"/>
<path d="M64.2039 39.2559V40.7473H65.6932V39.2559H64.2039ZM64.2039 40.7473H61.2252V42.2387H64.2039V40.7473ZM61.2252 42.2387H59.7359V45.2215H61.2252V42.2387ZM61.2252 45.2215V46.7129H62.7145V45.2215H61.2252ZM62.7145 45.2215H64.2039V43.7301H62.7145V45.2215ZM61.2252 46.7129H59.7359V48.2043H58.2465V46.7129H55.2679V48.2043H53.7785V49.6957H55.2679V51.1871H53.7785V49.6957H52.2892V51.1871H50.7999V52.6785H49.3105V58.6441H52.2892V57.1527H53.7785V55.6613H55.2679V54.1699H53.7785V52.6785H55.2679V54.1699H56.7572V52.6785H58.2465V51.1871H59.7359V49.6957H61.2252V46.7129ZM58.2465 46.7129H59.7359V45.2215H58.2465V46.7129ZM58.2465 45.2215V43.7301H56.7572V45.2215H58.2465Z" fill="black"/>
</g>
<defs>
<clipPath id="clip0">
<rect width="179.34" height="56.6781" fill="white" transform="translate(20.3301 33.6611)"/>
</clipPath>
</defs>
</svg>
