<svg width="220" height="124" viewBox="0 0 220 124" fill="none" xmlns="http://www.w3.org/2000/svg">
<g clip-path="url(#clip0)">
<path fill-rule="evenodd" clip-rule="evenodd" d="M84.0403 75.8695C83.2061 75.6724 82.3523 75.5702 81.4951 75.5647C80.005 75.5647 78.649 75.8239 77.6487 76.2385C77.5926 76.2669 77.5455 76.3101 77.5124 76.3635C77.4793 76.4169 77.4616 76.4783 77.4612 76.5411C77.4612 76.5867 77.4736 76.6358 77.4916 76.6759C77.6099 77.0186 77.4148 77.391 76.447 77.6032C75.0122 77.9176 74.1052 79.397 73.587 79.8883C72.9789 80.466 71.2605 80.8198 71.5178 80.4757C71.7198 80.2069 72.4946 79.3673 72.9651 78.4607C73.3864 77.6509 73.7607 77.4201 74.2775 76.6468C74.4283 76.4188 75.0149 75.6228 75.1858 74.9919C75.3788 74.3748 75.3138 73.603 75.3878 73.2844C75.4916 72.827 75.9267 71.8306 75.9579 71.2681C75.9772 70.9523 74.6303 71.7228 73.991 71.7228C73.3518 71.7228 72.7285 71.3406 72.1577 71.3123C71.4514 71.2785 70.9969 71.8575 70.3563 71.7566C69.9924 71.6972 69.6838 71.3773 69.046 71.3531C68.1376 71.3192 67.0266 71.8575 64.9407 71.7905C62.8888 71.7241 60.9946 69.202 60.7359 68.7998C60.4329 68.3286 60.0614 68.3286 59.6588 68.6976C59.2547 69.0672 58.7573 68.7784 58.6155 68.5317C58.3464 68.0605 57.6255 66.684 56.5124 66.3979C54.9717 65.9985 54.1921 67.2478 54.2917 68.2456C54.3954 69.2552 55.0492 69.5385 55.3515 70.0754C55.6545 70.6137 55.8102 70.9606 56.3789 71.1983C56.7829 71.3655 56.9337 71.6157 56.8133 71.9473C56.7068 72.2348 56.2876 72.3011 56.0101 72.3143C55.4228 72.3426 55.0125 72.1837 54.7116 71.9902C54.3629 71.7691 54.0793 71.4595 53.7749 70.9364C53.4228 70.3573 52.8665 70.1051 52.2211 70.1051C51.9125 70.1051 51.6234 70.1874 51.3681 70.32C50.2786 70.8762 49.0716 71.1636 47.8481 71.1582H46.3849C45.6545 68.9908 45.2832 66.7189 45.2857 64.432C45.2857 52.8108 54.7178 43.3896 66.3541 43.3896C77.9897 43.3896 87.4212 52.8108 87.4212 64.432C87.4268 68.4911 86.2523 72.4644 84.0403 75.8695Z" fill="#020002"/>
<path fill-rule="evenodd" clip-rule="evenodd" d="M70.9927 73.9398C71.102 74.0449 71.2888 74.3987 71.0605 74.8506C70.9366 75.0874 70.7612 75.2936 70.5472 75.4538C70.2518 75.6916 69.6727 75.9638 68.8771 75.4621C68.451 75.1906 68.4254 75.1007 67.8353 75.1761C67.4133 75.2313 67.2465 74.8078 67.3974 74.4526C67.5496 74.1015 68.1701 73.8168 68.9456 74.2688C69.2929 74.4726 69.836 74.9045 70.3106 74.5224C70.5091 74.3634 70.626 74.2591 70.8993 73.9433C70.9057 73.9366 70.9135 73.9312 70.922 73.9275C70.9306 73.9238 70.9398 73.9219 70.9491 73.9219C70.9653 73.9226 70.9807 73.9289 70.9927 73.9398Z" fill="#020002"/>
<path fill-rule="evenodd" clip-rule="evenodd" d="M78.2422 58.8314C78.034 59.5321 77.7379 60.4241 76.4214 61.1006C76.2291 61.1981 76.1564 61.0377 76.2436 60.8864C76.7431 60.0406 76.8302 59.8292 76.9755 59.4954C77.1775 59.0076 77.2834 58.3145 76.8807 56.8662C76.0893 54.0192 74.4352 50.2125 73.2342 48.977C72.074 47.7857 69.9744 47.4506 68.0747 47.9364C67.3745 48.1153 66.0075 48.8271 63.47 48.2556C59.0776 47.2682 58.4287 49.4642 58.1762 50.4205C57.9237 51.3776 57.3184 54.0973 57.3184 54.0973C57.117 55.2043 56.8528 57.1294 63.6713 58.4278C66.8481 59.0318 67.0093 59.8527 67.1497 60.4407C67.4008 61.4986 67.8035 62.104 68.2594 62.4059C68.7125 62.7086 68.2594 62.958 67.755 63.0092C66.4025 63.1494 61.4028 61.717 58.4453 60.0392C56.0247 58.5619 55.9845 57.2317 56.5394 56.1033C52.8831 55.7094 50.1401 56.446 49.6427 58.1749C48.7883 61.1407 56.172 66.2085 64.5796 68.75C73.4016 71.4207 82.4761 69.5571 83.4841 64.0166C83.9435 61.5 81.8203 59.6385 78.2422 58.8314Z" fill="#C1342C"/>
<path fill-rule="evenodd" clip-rule="evenodd" d="M86.6382 74.951H86.7806L86.9942 75.3031H87.1324L86.8995 74.9441C87.0204 74.9317 87.1117 74.8675 87.1117 74.7232C87.1117 74.563 87.0163 74.4912 86.8248 74.4912H86.5151V75.3031H86.6382V74.951ZM86.6382 74.8475V74.5955H86.8075C86.8932 74.5955 86.9831 74.6141 86.9831 74.7142C86.9831 74.8399 86.8905 74.8475 86.7854 74.8475H86.6382Z" fill="#020002"/>
<path fill-rule="evenodd" clip-rule="evenodd" d="M87.5809 74.8989C87.5811 75.0561 87.5345 75.2099 87.4472 75.3408C87.3598 75.4716 87.2356 75.5737 87.0902 75.634C86.9448 75.6944 86.7847 75.7103 86.6302 75.6798C86.4758 75.6493 86.3338 75.5737 86.2223 75.4627C86.1108 75.3516 86.0348 75.21 86.0039 75.0558C85.973 74.9016 85.9885 74.7417 86.0485 74.5963C86.1086 74.4509 86.2104 74.3266 86.3412 74.239C86.472 74.1514 86.6258 74.1045 86.7833 74.1042C86.888 74.1038 86.9917 74.124 87.0886 74.1637C87.1854 74.2035 87.2734 74.262 87.3476 74.3358C87.4217 74.4097 87.4805 74.4974 87.5205 74.5941C87.5606 74.6907 87.5811 74.7943 87.5809 74.8989ZM86.7833 74.2445C86.6149 74.2522 86.456 74.3245 86.3396 74.4462C86.2232 74.568 86.1582 74.7298 86.1582 74.8982C86.1582 75.0665 86.2232 75.2284 86.3396 75.3501C86.456 75.4719 86.6149 75.5441 86.7833 75.5519C87.1437 75.5519 87.4405 75.2616 87.4405 74.8989C87.4405 74.5361 87.143 74.2445 86.7833 74.2445ZM64.7137 53.4067C62.2806 53.5829 62.0274 53.8455 61.5715 54.3305C60.9288 55.0139 60.0827 53.4433 60.0827 53.4433C59.5743 53.3362 58.9585 52.518 59.2899 51.7545C59.6178 50.9992 60.2225 51.2252 60.412 51.4594C60.6424 51.7462 61.1336 52.2147 61.7728 52.1981C62.4107 52.1829 63.1489 52.0482 64.1769 52.0482C65.2174 52.0482 65.9189 52.4365 65.9583 52.7689C65.9922 53.0543 65.8739 53.3231 64.7137 53.4067ZM67.27 49.3913H67.2596C67.2216 49.3913 67.1911 49.3629 67.1911 49.3277C67.1911 49.3028 67.207 49.2807 67.2299 49.2703C67.701 49.0216 68.4053 48.8233 69.2098 48.7403C69.4845 48.7131 69.7605 48.7004 70.0365 48.7023C71.3863 48.7327 72.4683 49.269 72.4524 49.8991C72.4358 50.5293 71.3295 51.0165 69.9777 50.9868C69.5722 50.9795 69.1693 50.9203 68.7788 50.8106C68.7359 50.8002 68.7055 50.7657 68.7055 50.7242C68.7055 50.6814 68.7359 50.6447 68.7788 50.6351C69.6215 50.4409 70.1894 50.1223 70.1486 49.8204C70.096 49.4217 68.994 49.2054 67.6872 49.336C67.5446 49.3519 67.4049 49.3705 67.27 49.3913ZM98.4832 66.5999C98.4832 64.7108 98.4438 63.3205 98.367 62.0642H101.461L101.594 64.7446H101.694C102.389 62.758 104.038 61.7443 105.563 61.7443C105.911 61.7443 106.115 61.7581 106.401 61.821V65.1813C106.046 65.112 105.685 65.0784 105.324 65.0811C103.621 65.0811 102.44 66.1632 102.121 67.7802C102.057 68.1361 102.026 68.4972 102.028 68.8588V76.1765H98.4535L98.4832 66.5999ZM110.712 70.0819C110.809 72.6365 112.789 73.7566 115.078 73.7566C116.72 73.7566 117.895 73.5003 118.975 73.1023L119.507 75.5602C118.296 76.0701 116.619 76.455 114.566 76.455C109.98 76.455 107.292 73.6247 107.292 69.2997C107.292 65.4031 109.657 61.7187 114.203 61.7187C118.797 61.7187 120.293 65.4923 120.293 68.5831C120.293 69.2458 120.236 69.7785 120.164 70.1068L110.712 70.0819ZM116.928 67.595C116.944 66.2869 116.374 64.1559 113.981 64.1559C111.781 64.1559 110.867 66.1494 110.708 67.595H116.928ZM162.039 72.8715C162.039 73.9729 162.082 75.1117 162.242 76.1765H160.972L160.771 74.183H160.704C160.028 75.2561 158.476 76.4951 156.261 76.4951C153.459 76.4951 152.155 74.523 152.155 72.669C152.155 69.4586 154.993 67.5231 160.661 67.5798V67.2101C160.661 65.835 160.391 63.0869 157.096 63.1097C155.877 63.1097 154.607 63.4352 153.599 64.1462L153.16 63.1449C154.434 62.284 155.987 61.9426 157.247 61.9426C161.268 61.9426 162.039 64.9561 162.039 67.4423V72.8715H162.039ZM160.661 68.7393C157.627 68.6515 153.619 69.1117 153.619 72.4534C153.619 74.4525 154.941 75.3508 156.392 75.3508C158.715 75.3508 160.034 73.9149 160.513 72.5612C160.617 72.2627 160.661 71.9649 160.661 71.7272V68.7393ZM167.718 59.1945V62.2612H171.689V63.3785H167.718V72.4223C167.718 74.192 168.27 75.2996 169.766 75.2996C170.483 75.2996 170.991 75.2064 171.348 75.0827L171.515 76.1489C171.064 76.3375 170.432 76.4819 169.593 76.4819C168.574 76.4819 167.733 76.1634 167.189 75.4966C166.558 74.7634 166.34 73.5977 166.34 72.1763V63.3785H163.99V62.2612H166.34V59.7024L167.718 59.1945ZM145.026 61.9426C144.035 61.9413 143.062 62.2176 142.22 62.74C141.412 63.2206 140.754 63.9152 140.317 64.7467H140.259V57.8616L138.881 57.4863V76.1765H140.259V67.6675C140.259 67.1023 140.302 66.7105 140.448 66.2966C141.042 64.5663 142.675 63.1449 144.65 63.1449C147.501 63.1449 148.489 65.4315 148.489 67.9363V76.1772H149.867V67.785C149.868 62.6011 146.346 61.9426 145.026 61.9426ZM135.685 56.6219L132.114 55.6559V63.5837H132.056C131.424 62.5417 130.031 61.7443 128.096 61.7443C124.699 61.7443 121.738 64.5525 121.761 69.2817C121.761 73.6205 124.434 76.4951 127.808 76.4951C129.847 76.4951 131.552 75.5235 132.395 73.9432H132.46L132.621 76.1765H135.803C135.724 74.8584 135.685 73.5382 135.685 72.2178V56.6219ZM132.114 70.0563C132.114 70.4315 132.087 70.7812 132.006 71.0984C131.646 72.6434 130.382 73.6385 128.922 73.6385C126.672 73.6385 125.384 71.7438 125.384 69.1511C125.384 66.5329 126.661 64.5069 128.962 64.5069C130.569 64.5069 131.717 65.6395 132.035 67.0118C132.096 67.302 132.114 67.6586 132.114 67.9433V70.0563ZM173.584 75.556H173.755L174.012 75.9796H174.177L173.9 75.5505C174.043 75.5318 174.152 75.4572 174.152 75.2817C174.152 75.0903 174.039 75.0053 173.806 75.0053H173.438V75.9796H173.584V75.556ZM173.584 75.4316V75.1304H173.786C173.887 75.1304 173.999 75.1518 173.999 75.272C173.999 75.422 173.888 75.4309 173.762 75.4309H173.584V75.4316Z" fill="#020002"/>
<path fill-rule="evenodd" clip-rule="evenodd" d="M174.715 75.4948C174.715 75.7479 174.614 75.9906 174.435 76.1696C174.256 76.3485 174.013 76.4491 173.759 76.4491C173.506 76.4491 173.263 76.3485 173.084 76.1696C172.904 75.9906 172.804 75.7479 172.804 75.4948C172.813 75.248 172.918 75.0144 173.096 74.8432C173.274 74.6719 173.512 74.5762 173.759 74.5762C174.006 74.5762 174.244 74.6719 174.422 74.8432C174.6 75.0144 174.705 75.248 174.715 75.4948ZM173.759 74.7091C173.551 74.7091 173.35 74.7919 173.203 74.9393C173.055 75.0866 172.973 75.2864 172.973 75.4948C172.973 75.7032 173.055 75.903 173.203 76.0504C173.35 76.1977 173.551 76.2805 173.759 76.2805C174.193 76.2805 174.543 75.9281 174.543 75.4948C174.543 75.0602 174.193 74.7091 173.759 74.7091Z" fill="#020002"/>
</g>
<defs>
<clipPath id="clip0">
<rect width="129.429" height="37.2215" fill="white" transform="translate(45.2856 43.3896)"/>
</clipPath>
</defs>
</svg>
