<svg width="220" height="124" viewBox="0 0 220 124" fill="none" xmlns="http://www.w3.org/2000/svg">
<g clip-path="url(#clip0)">
<path d="M43 56.1273V31.4473H58.2887V34.3644H46.2515V41.127H57.4676V44.0442H46.2515V53.2101H58.2887V56.1273H43Z" fill="#333333"/>
<path d="M77.6577 38.8894C77.6577 39.9612 77.4661 40.9778 77.083 41.9392C76.7107 42.8894 76.1907 43.7016 75.5228 44.3756C74.6799 45.2154 73.6891 45.8508 72.5505 46.2817C71.4119 46.7127 69.9723 46.9282 68.2316 46.9282H65.4727V56.1273H62.2212V31.4473H68.363C69.8081 31.4473 71.0397 31.5688 72.0579 31.8119C73.076 32.055 73.9737 32.4473 74.751 32.9887C75.6597 33.6186 76.3713 34.4197 76.8858 35.3921C77.4004 36.3534 77.6577 37.5192 77.6577 38.8894ZM74.2748 38.9722C74.2748 38.1214 74.127 37.3811 73.8314 36.7512C73.5467 36.1214 73.1088 35.6076 72.5177 35.2098C72.0031 34.8672 71.401 34.6241 70.7113 34.4805C70.0325 34.3368 69.184 34.265 68.1659 34.265H65.4727V44.127H67.6896C69.0034 44.127 70.0653 44.0221 70.8755 43.8121C71.6856 43.5911 72.3589 43.2044 72.8953 42.6519C73.377 42.1546 73.7274 41.6132 73.9463 41.0275C74.1653 40.4419 74.2748 39.7568 74.2748 38.9722Z" fill="#333333"/>
<path d="M100.049 56.1273H95.8282L88.0771 46.3149H84.3658V56.1273H81.1143V31.4473H87.4202C88.8216 31.4473 89.993 31.5246 90.9345 31.6793C91.887 31.834 92.7902 32.1931 93.6441 32.7567C94.4981 33.3092 95.1714 34.0219 95.664 34.8948C96.1676 35.7678 96.4195 36.8507 96.4195 38.1435C96.4195 39.9557 95.9651 41.4695 95.0564 42.685C94.1477 43.9005 92.9106 44.8011 91.3451 45.3867L100.049 56.1273ZM93.0201 38.3921C93.0201 37.6739 92.8942 37.0385 92.6424 36.486C92.3906 35.9225 92.002 35.4639 91.4765 35.1103C91.0166 34.8009 90.4802 34.5854 89.8671 34.4639C89.254 34.3313 88.4932 34.265 87.5845 34.265H84.3658V43.5801H87.2232C88.1538 43.5801 88.9913 43.4972 89.7357 43.3315C90.4802 43.1657 91.1152 42.8231 91.6407 42.3038C92.1114 41.8397 92.4563 41.2872 92.6753 40.6463C92.9052 40.0054 93.0201 39.254 93.0201 38.3921Z" fill="#333333"/>
<path d="M99.6953 56.1273L107.939 31.4473H111.946L120.19 56.1273H116.758L114.541 49.2321H105.197L102.98 56.1273H99.6953ZM113.637 46.4309L109.86 34.7954L106.1 46.4309H113.637Z" fill="#333333"/>
<path d="M129.591 56.575C127.817 56.575 126.306 56.3926 125.058 56.028C123.822 55.6524 122.656 55.1938 121.561 54.6523V50.5418H121.791C122.863 51.5583 124.079 52.3484 125.436 52.912C126.794 53.4645 128.102 53.7407 129.361 53.7407C131.157 53.7407 132.514 53.365 133.434 52.6136C134.353 51.8511 134.813 50.8512 134.813 49.6136C134.813 48.6301 134.572 47.829 134.091 47.2102C133.609 46.5915 132.843 46.1328 131.792 45.8345C131.036 45.6135 130.346 45.4312 129.722 45.2875C129.099 45.1439 128.316 44.9505 127.374 44.7074C126.531 44.4864 125.776 44.2046 125.108 43.8621C124.44 43.5195 123.849 43.072 123.334 42.5195C122.831 41.9781 122.437 41.3427 122.152 40.6134C121.878 39.8731 121.741 39.0223 121.741 38.0609C121.741 36.0609 122.513 34.3868 124.057 33.0387C125.601 31.6796 127.571 31 129.968 31C131.337 31 132.629 31.1381 133.844 31.4144C135.071 31.6906 136.204 32.0829 137.244 32.5912V36.5194H136.997C136.22 35.8012 135.224 35.1769 134.009 34.6465C132.793 34.105 131.518 33.8343 130.182 33.8343C128.671 33.8343 127.45 34.1934 126.52 34.9117C125.59 35.6189 125.124 36.5526 125.124 37.7128C125.124 38.7626 125.398 39.5968 125.945 40.2156C126.493 40.8344 127.286 41.2874 128.326 41.5747C129.017 41.7626 129.859 41.9781 130.855 42.2211C131.851 42.4533 132.679 42.6687 133.336 42.8676C135.021 43.387 136.253 44.1715 137.03 45.2212C137.807 46.271 138.196 47.5638 138.196 49.0997C138.196 50.061 137.999 51.0114 137.605 51.9507C137.222 52.8899 136.68 53.6854 135.979 54.3374C135.191 55.0556 134.298 55.6081 133.302 55.9949C132.317 56.3816 131.08 56.575 129.591 56.575Z" fill="#333333"/>
<path d="M158.977 31.4473L150.717 45.2044V56.1273H147.466V45.5525L139.206 31.4473H142.818L149.124 42.3369L155.529 31.4473H158.977Z" fill="#333333"/>
<path d="M168.395 56.575C166.622 56.575 165.111 56.3926 163.863 56.028C162.626 55.6524 161.46 55.1938 160.365 54.6523V50.5418H160.595C161.668 51.5583 162.883 52.3484 164.241 52.912C165.598 53.4645 166.906 53.7407 168.165 53.7407C169.961 53.7407 171.318 53.365 172.238 52.6136C173.157 51.8511 173.618 50.8512 173.618 49.6136C173.618 48.6301 173.377 47.829 172.895 47.2102C172.413 46.5915 171.646 46.1328 170.595 45.8345C169.84 45.6135 169.151 45.4312 168.526 45.2875C167.902 45.1439 167.12 44.9505 166.178 44.7074C165.335 44.4864 164.58 44.2046 163.912 43.8621C163.244 43.5195 162.653 43.072 162.139 42.5195C161.635 41.9781 161.241 41.3427 160.956 40.6134C160.682 39.8731 160.545 39.0223 160.545 38.0609C160.545 36.0609 161.317 34.3868 162.861 33.0387C164.405 31.6796 166.375 31 168.773 31C170.141 31 171.433 31.1381 172.649 31.4144C173.875 31.6906 175.008 32.0829 176.047 32.5912V36.5194H175.801C175.024 35.8012 174.028 35.1769 172.813 34.6465C171.598 34.105 170.322 33.8343 168.986 33.8343C167.475 33.8343 166.255 34.1934 165.324 34.9117C164.393 35.6189 163.929 36.5526 163.929 37.7128C163.929 38.7626 164.202 39.5968 164.75 40.2156C165.297 40.8344 166.09 41.2874 167.131 41.5747C167.82 41.7626 168.663 41.9781 169.66 42.2211C170.656 42.4533 171.482 42.6687 172.139 42.8676C173.825 43.387 175.057 44.1715 175.834 45.2212C176.611 46.271 177 47.5638 177 49.0997C177 50.061 176.803 51.0114 176.409 51.9507C176.026 52.8899 175.484 53.6854 174.783 54.3374C173.995 55.0556 173.103 55.6081 172.106 55.9949C171.121 56.3816 169.884 56.575 168.395 56.575Z" fill="#333333"/>
<path d="M45.0307 90.7915H43.7326V92.9274H43V87.6475H44.8295C45.452 87.6475 45.9303 87.7829 46.2643 88.0536C46.6008 88.3243 46.7691 88.7184 46.7691 89.2357C46.7691 89.5646 46.6755 89.851 46.4882 90.0952C46.3035 90.3394 46.0454 90.5219 45.7139 90.6428L47.012 92.8839V92.9274H46.2301L45.0307 90.7915ZM43.7326 90.2222H44.8523C45.2141 90.2222 45.5013 90.1327 45.7139 89.9538C45.929 89.7749 46.0365 89.5356 46.0365 89.2357C46.0365 88.9094 45.9341 88.6592 45.7291 88.4852C45.5267 88.3111 45.2331 88.2228 44.8485 88.2204H43.7326V90.2222Z" fill="#1C8798"/>
<path d="M54.8045 90.4869H52.4095V92.3581H55.1916V92.9274H51.6807V87.6475H55.1537V88.2204H52.4095V89.9175H54.8045V90.4869Z" fill="#1C8798"/>
<path d="M61.8154 92.0027L63.3944 87.6475H64.1914L62.1418 92.9274H61.4965L59.4507 87.6475H60.2439L61.8154 92.0027Z" fill="#1C8798"/>
<path d="M73.0199 90.4581C73.0199 90.9755 72.9288 91.4276 72.7466 91.8144C72.5644 92.1988 72.3064 92.4925 71.9723 92.6956C71.6383 92.8987 71.2486 93.0002 70.8032 93.0002C70.368 93.0002 69.9821 92.8987 69.6456 92.6956C69.309 92.4901 69.0471 92.1988 68.8598 91.8217C68.6751 91.4421 68.5802 91.0033 68.5752 90.5052V90.1245C68.5752 89.6169 68.6675 89.1684 68.8523 88.7792C69.037 88.3899 69.2976 88.0926 69.6342 87.8871C69.9733 87.6791 70.3604 87.5752 70.7956 87.5752C71.2385 87.5752 71.6281 87.678 71.9647 87.8834C72.3038 88.0865 72.5644 88.3827 72.7466 88.7719C72.9288 89.1587 73.0199 89.6096 73.0199 90.1245V90.4581ZM72.295 90.1173C72.295 89.4911 72.1634 89.0112 71.9002 88.6776C71.6371 88.3416 71.2688 88.1736 70.7956 88.1736C70.3351 88.1736 69.972 88.3416 69.7063 88.6776C69.4431 89.0112 69.3078 89.4754 69.3002 90.0702V90.4581C69.3002 91.0649 69.433 91.5424 69.6987 91.8905C69.9669 92.2363 70.3351 92.4091 70.8032 92.4091C71.2739 92.4091 71.6383 92.2459 71.8964 91.9195C72.1545 91.5908 72.2874 91.1205 72.295 90.5089V90.1173Z" fill="#1C8798"/>
<path d="M78.7326 92.3581H81.3516V92.9274H78V87.6475H78.7326V92.3581Z" fill="#1C8798"/>
<path d="M89.755 87.6475V91.2375C89.7525 91.7355 89.588 92.1429 89.2616 92.4596C88.9377 92.7763 88.4974 92.954 87.9407 92.9926L87.7471 92.9999C87.1423 92.9999 86.6603 92.844 86.301 92.5321C85.9417 92.2203 85.7595 91.7912 85.7544 91.2448V87.6475H86.4756V91.223C86.4756 91.605 86.5857 91.9024 86.8058 92.1151C87.0259 92.3254 87.3397 92.4306 87.7471 92.4306C88.1596 92.4306 88.4747 92.3254 88.6922 92.1151C88.9124 91.9048 89.0225 91.6086 89.0225 91.2266V87.6475H89.755Z" fill="#1C8798"/>
<path d="M98.6103 88.2204H96.8339V92.9274H96.109V88.2204H94.3364V87.6475H98.6103V88.2204Z" fill="#1C8798"/>
<path d="M104.099 92.9274H103.37V87.6475H104.099V92.9274Z" fill="#1C8798"/>
<path d="M113.573 90.4581C113.573 90.9755 113.482 91.4276 113.3 91.8144C113.118 92.1988 112.86 92.4925 112.526 92.6956C112.192 92.8987 111.802 93.0002 111.356 93.0002C110.921 93.0002 110.535 92.8987 110.199 92.6956C109.862 92.4901 109.6 92.1988 109.413 91.8217C109.228 91.4421 109.133 91.0033 109.128 90.5052V90.1245C109.128 89.6169 109.221 89.1684 109.405 88.7792C109.59 88.3899 109.851 88.0926 110.187 87.8871C110.527 87.6791 110.914 87.5752 111.349 87.5752C111.792 87.5752 112.181 87.678 112.518 87.8834C112.857 88.0865 113.118 88.3827 113.3 88.7719C113.482 89.1587 113.573 89.6096 113.573 90.1245V90.4581ZM112.848 90.1173C112.848 89.4911 112.717 89.0112 112.453 88.6776C112.19 88.3416 111.822 88.1736 111.349 88.1736C110.888 88.1736 110.525 88.3416 110.26 88.6776C109.996 89.0112 109.861 89.4754 109.853 90.0702V90.4581C109.853 91.0649 109.986 91.5424 110.252 91.8905C110.52 92.2363 110.888 92.4091 111.356 92.4091C111.827 92.4091 112.192 92.2459 112.45 91.9195C112.708 91.5908 112.841 91.1205 112.848 90.5089V90.1173Z" fill="#1C8798"/>
<path d="M122.8 92.9274H122.068L119.285 88.8586V92.9274H118.553V87.6475H119.285L122.075 91.7343V87.6475H122.8V92.9274Z" fill="#1C8798"/>
<path d="M135.122 92.9274H134.394V87.6475H135.122V92.9274Z" fill="#1C8798"/>
<path d="M144.593 92.9274H143.86L141.078 88.8586V92.9274H140.345V87.6475H141.078L143.868 91.7343V87.6475H144.593V92.9274Z" fill="#1C8798"/>
<path d="M159.839 90.4581C159.839 90.9755 159.749 91.4276 159.567 91.8144C159.384 92.1988 159.126 92.4925 158.792 92.6956C158.458 92.8987 158.069 93.0002 157.623 93.0002C157.188 93.0002 156.802 92.8987 156.465 92.6956C156.129 92.4901 155.867 92.1988 155.68 91.8217C155.495 91.4421 155.4 91.0033 155.395 90.5052V90.1245C155.395 89.6169 155.487 89.1684 155.672 88.7792C155.857 88.3899 156.118 88.0926 156.454 87.8871C156.793 87.6791 157.18 87.5752 157.616 87.5752C158.058 87.5752 158.448 87.678 158.785 87.8834C159.124 88.0865 159.384 88.3827 159.567 88.7719C159.749 89.1587 159.839 89.6096 159.839 90.1245V90.4581ZM159.114 90.1173C159.114 89.4911 158.984 89.0112 158.72 88.6776C158.457 88.3416 158.089 88.1736 157.616 88.1736C157.155 88.1736 156.792 88.3416 156.526 88.6776C156.263 89.0112 156.128 89.4754 156.12 90.0702V90.4581C156.12 91.0649 156.253 91.5424 156.519 91.8905C156.787 92.2363 157.155 92.4091 157.623 92.4091C158.094 92.4091 158.458 92.2459 158.716 91.9195C158.974 91.5908 159.108 91.1205 159.114 90.5089V90.1173Z" fill="#1C8798"/>
<path d="M166.448 90.5742C165.823 90.4025 165.368 90.1922 165.082 89.9432C164.798 89.6918 164.657 89.3823 164.657 89.0148C164.657 88.599 164.83 88.2557 165.176 87.9849C165.526 87.7118 165.979 87.5752 166.536 87.5752C166.915 87.5752 167.253 87.6453 167.549 87.7855C167.848 87.9257 168.078 88.1192 168.24 88.3658C168.404 88.6123 168.486 88.8819 168.486 89.1744H167.754C167.754 88.8553 167.647 88.6051 167.435 88.4237C167.223 88.24 166.922 88.1482 166.536 88.1482C166.176 88.1482 165.895 88.2243 165.693 88.3766C165.493 88.5265 165.393 88.7356 165.393 89.004C165.393 89.2191 165.488 89.4016 165.678 89.5515C165.87 89.699 166.195 89.8344 166.654 89.9577C167.114 90.081 167.473 90.2176 167.731 90.3674C167.992 90.5149 168.184 90.6878 168.308 90.8861C168.434 91.0843 168.498 91.3176 168.498 91.5859C168.498 92.0139 168.323 92.3571 167.974 92.6158C167.625 92.8721 167.158 93.0002 166.574 93.0002C166.194 93.0002 165.839 92.9313 165.511 92.7935C165.182 92.6533 164.928 92.4623 164.748 92.2205C164.571 91.9787 164.482 91.7044 164.482 91.3973H165.214C165.214 91.7165 165.338 91.9691 165.583 92.1553C165.831 92.339 166.161 92.4309 166.574 92.4309C166.958 92.4309 167.253 92.3559 167.458 92.2061C167.663 92.0562 167.765 91.8519 167.765 91.5932C167.765 91.3345 167.671 91.1351 167.481 90.9948C167.291 90.8522 166.947 90.712 166.448 90.5742Z" fill="#1C8798"/>
<path d="M174.951 90.5742C174.325 90.4025 173.87 90.1922 173.584 89.9432C173.301 89.6918 173.159 89.3823 173.159 89.0148C173.159 88.599 173.332 88.2557 173.679 87.9849C174.028 87.7118 174.481 87.5752 175.038 87.5752C175.418 87.5752 175.755 87.6453 176.051 87.7855C176.349 87.9257 176.58 88.1192 176.742 88.3658C176.906 88.6123 176.988 88.8819 176.988 89.1744H176.256C176.256 88.8553 176.15 88.6051 175.937 88.4237C175.724 88.24 175.425 88.1482 175.038 88.1482C174.679 88.1482 174.397 88.2243 174.195 88.3766C173.995 88.5265 173.895 88.7356 173.895 89.004C173.895 89.2191 173.99 89.4016 174.18 89.5515C174.372 89.699 174.697 89.8344 175.155 89.9577C175.616 90.081 175.975 90.2176 176.233 90.3674C176.494 90.5149 176.686 90.6878 176.81 90.8861C176.937 91.0843 177 91.3176 177 91.5859C177 92.0139 176.826 92.3571 176.476 92.6158C176.127 92.8721 175.66 93.0002 175.076 93.0002C174.696 93.0002 174.342 92.9313 174.013 92.7935C173.684 92.6533 173.429 92.4623 173.25 92.2205C173.073 91.9787 172.984 91.7044 172.984 91.3973H173.717C173.717 91.7165 173.84 91.9691 174.085 92.1553C174.333 92.339 174.663 92.4309 175.076 92.4309C175.46 92.4309 175.755 92.3559 175.96 92.2061C176.165 92.0562 176.267 91.8519 176.267 91.5932C176.267 91.3345 176.173 91.1351 175.983 90.9948C175.793 90.8522 175.449 90.712 174.951 90.5742Z" fill="#1C8798"/>
<path d="M101.48 61.6123H99.9307V63.1623H101.48V61.6123Z" fill="white" stroke="#1C8798"/>
<path d="M113.098 61.6123H109.226V65.4873H113.098V61.6123Z" fill="white" stroke="#1C8798"/>
<path d="M130.139 61.6123H122.393V69.3623H130.139V61.6123Z" fill="white" stroke="#1C8798"/>
<path d="M151.052 61.6123H140.982V71.6873H151.052V61.6123Z" fill="white" stroke="#1C8798"/>
<path d="M176.613 61.6123H161.896V76.3373H176.613V61.6123Z" fill="white" stroke="#1C8798"/>
<path d="M177 83.7002H43V84.4752H177V83.7002Z" fill="#1C8798"/>
</g>
<defs>
<clipPath id="clip0">
<rect width="134" height="62" fill="white" transform="translate(43 31)"/>
</clipPath>
</defs>
</svg>
