<svg width="220" height="124" viewBox="0 0 220 124" fill="none" xmlns="http://www.w3.org/2000/svg">
<g clip-path="url(#clip0)">
<path d="M96.7289 74.2108L88.4652 51.2068C88.3539 50.9008 88.2148 50.4557 88.2148 50.0941C88.2148 49.0927 89.0495 48.147 90.2737 48.147C91.331 48.147 92.0266 48.8424 92.3327 49.816L99.1773 69.6211L106.078 49.7603C106.384 48.8146 107.024 48.147 108.081 48.147H108.304C109.416 48.147 110.084 48.8424 110.418 49.7603L117.263 69.5933L124.219 49.6769C124.497 48.8424 125.053 48.0913 126.166 48.0913C127.335 48.0913 128.17 48.9815 128.17 49.9829C128.17 50.3445 128.003 50.7617 127.919 51.0955L119.6 74.1274C119.183 75.3235 118.348 75.9633 117.374 75.9633H117.207C116.15 75.9633 115.371 75.3235 114.981 74.1274L108.192 54.6004L101.348 74.1274C100.986 75.3235 100.179 75.9633 99.1495 75.9633H99.0382C97.9809 76.0467 97.1462 75.4069 96.7289 74.2108ZM156.939 50.1219C156.939 49.0093 157.83 48.0635 158.943 48.0635C160.111 48.0635 161.002 48.9537 161.002 50.1219V54.7951C163.005 50.261 167.429 48.1192 170.378 48.1192C171.603 48.1192 172.382 49.0093 172.382 50.1776C172.382 51.2902 171.63 52.0691 170.573 52.236C165.314 52.8757 160.974 56.8257 160.974 64.6699V73.9049C160.974 75.0175 160.139 75.9633 158.971 75.9633C157.802 75.9633 156.912 75.0731 156.912 73.9049L156.939 50.1219ZM185.403 76.2136C178.058 76.2136 172.076 70.5391 172.076 62.1942V62.0829C172.076 54.3222 177.501 48.0635 184.875 48.0635C192.776 48.0635 197.284 54.5725 197.284 61.7213C197.284 62.8062 196.394 63.6128 195.42 63.6128H176.11C176.667 69.4543 180.757 72.7366 185.514 72.7366C188.826 72.7366 191.246 71.4292 193.222 69.5933C193.528 69.343 193.889 69.1205 194.362 69.1205C195.336 69.1205 196.115 69.8993 196.115 70.8451C196.115 71.3179 195.921 71.7908 195.503 72.1524C192.943 74.5724 189.938 76.2136 185.403 76.2136ZM193.305 60.6087C192.888 55.713 190.105 51.4293 184.791 51.4293C180.144 51.4293 176.639 55.3236 176.11 60.6087H193.305ZM128.142 67.7853V67.674C128.142 61.9439 132.872 58.9119 139.744 58.9119C143.222 58.9119 145.671 59.3848 148.119 60.0802V59.1344C148.119 54.2387 145.114 51.7353 140.023 51.7353C137.296 51.7353 135.71 52.0969 133.707 52.987C133.456 53.0983 133.178 53.1539 132.983 53.1539C132.037 53.1539 131.202 52.3751 131.202 51.4293C131.202 50.5948 131.564 50.0663 132.315 49.7325C134.987 48.5642 137.018 48.1748 140.468 48.1748C144.307 48.1748 147.257 49.1762 149.232 51.179C151.069 53.0148 152.015 55.6574 152.015 59.1066V74.0996C152.015 75.24 151.18 76.1023 150.067 76.1023C148.926 76.1023 148.147 75.2679 148.147 74.2108V71.6239C146.255 74.0996 143.083 76.2971 138.325 76.2971C133.261 76.2414 128.142 73.3485 128.142 67.7853ZM148.175 65.6712V63.0565C146.172 62.4724 143.501 61.8882 140.19 61.8882C135.098 61.8882 132.26 64.0857 132.26 67.5071V67.6184C132.26 71.0398 135.404 73.0426 139.104 73.0426C144.085 73.0426 148.175 69.9828 148.175 65.6712ZM23.1072 49.8994C22.2168 47.9523 20.0188 47.0621 17.9598 47.9801C15.9008 48.898 15.1496 51.179 16.0678 53.1261L24.6931 71.8743C26.0565 74.8228 27.4755 76.3527 30.1744 76.3527C33.0403 76.3527 34.2923 74.6837 35.6557 71.8743C35.6557 71.8743 43.1681 55.4905 43.2516 55.3236C43.3351 55.1567 43.5577 54.6282 44.3367 54.6282C44.9767 54.6282 45.5331 55.1567 45.5331 55.8521V71.8743C45.5331 74.3499 46.8965 76.3805 49.5398 76.3805C52.183 76.3805 53.602 74.3499 53.602 71.8743V58.7728C53.602 56.2415 55.4106 54.6004 57.8869 54.6004C60.3632 54.6004 62.0048 56.2972 62.0048 58.7728V71.8743C62.0048 74.3499 63.3682 76.3805 66.0114 76.3805C68.6547 76.3805 70.0737 74.3499 70.0737 71.8743V58.7728C70.0737 56.2415 71.8822 54.6004 74.3586 54.6004C76.8349 54.6004 78.4765 56.2972 78.4765 58.7728V71.8743C78.4765 74.3499 79.8398 76.3805 82.4831 76.3805C85.1264 76.3805 86.5454 74.3499 86.5454 71.8743V56.9647C86.5454 51.4849 82.1492 47.6463 76.8349 47.6463C71.5484 47.6463 68.2095 51.318 68.2095 51.318C66.4566 49.0093 64.0081 47.6185 59.8902 47.6185C55.5497 47.6185 51.7378 51.2902 51.7378 51.2902C49.9849 49.0093 46.98 47.6185 44.4758 47.6185C40.6362 47.6463 37.5755 49.3431 35.7114 53.599L30.2023 66.5892L23.1072 49.8994ZM197.59 51.4293C197.59 49.5656 199.065 48.0357 200.957 48.0357C202.849 48.0357 204.323 49.5378 204.323 51.3737V51.4015C204.323 53.2374 202.849 54.7951 200.957 54.7951C199.065 54.7951 197.59 53.2652 197.59 51.4293ZM203.683 51.4015C203.683 49.8716 202.515 48.6477 200.957 48.6477C199.426 48.6477 198.23 49.8994 198.23 51.4015V51.4293C198.23 52.9314 199.399 54.1831 200.957 54.1831C202.487 54.1831 203.683 52.9036 203.683 51.4015Z" fill="#717073"/>
<path d="M199.676 50.095C199.676 49.9003 199.843 49.7334 200.037 49.7334H201.15C201.568 49.7334 201.902 49.8447 202.096 50.0672C202.291 50.2341 202.375 50.5123 202.375 50.8182C202.375 51.3189 202.124 51.6527 201.735 51.8196L202.236 52.4316C202.291 52.515 202.347 52.5985 202.347 52.7097C202.347 52.9045 202.18 53.0435 202.013 53.0435C201.846 53.0435 201.735 52.9601 201.651 52.8488L200.956 51.9587H200.371V52.6541C200.371 52.8488 200.204 53.0157 200.01 53.0157C199.815 53.0157 199.648 52.8488 199.648 52.6541L199.676 50.095ZM201.123 51.3189C201.484 51.3189 201.651 51.1242 201.651 50.846C201.651 50.5401 201.457 50.3732 201.095 50.3732H200.371V51.3189H201.123Z" fill="#717073"/>
</g>
<defs>
<clipPath id="clip0">
<rect width="188.645" height="28.762" fill="white" transform="translate(15.6772 47.6191)"/>
</clipPath>
</defs>
</svg>
