<svg width="220" height="124" viewBox="0 0 220 124" fill="none" xmlns="http://www.w3.org/2000/svg">
<g clip-path="url(#clip0)">
<path d="M116.242 48.6455C118.497 48.6455 120.612 50.3163 120.612 53.1242C120.612 55.9552 118.497 57.6028 116.242 57.6028C113.987 57.6028 111.871 55.932 111.871 53.1242C111.848 50.2931 113.964 48.6455 116.242 48.6455ZM116.242 56.2105C117.706 56.2105 119.124 55.1894 119.124 53.1009C119.124 51.0357 117.683 49.9914 116.242 49.9914C114.8 49.9914 113.359 51.0125 113.359 53.1009C113.359 55.1894 114.777 56.2105 116.242 56.2105Z" fill="#5C3DCC"/>
<path d="M124.193 57.4178V48.8086H125.657V56.0255H129.61V57.4178H124.193Z" fill="#5C3DCC"/>
<path d="M132.98 57.4178V48.8086H134.445V56.0255H138.373V57.4178H132.98Z" fill="#5C3DCC"/>
<path d="M147.371 55.2591H143.721L142.93 57.4172H141.396L144.744 48.8312H146.441L149.788 57.4172H148.208L147.371 55.2591ZM144.255 53.9132H146.882L145.581 50.4092L144.255 53.9132ZM156.53 48.808C158.181 48.808 159.157 49.7827 159.157 51.1286C159.157 52.0336 158.622 52.7065 157.878 52.985C158.785 53.2171 159.413 54.0061 159.413 55.0271C159.413 56.4194 158.343 57.394 156.739 57.394H153.554V48.808H156.53ZM156.321 52.4513C157.181 52.4513 157.692 51.964 157.692 51.2446C157.692 50.5252 157.181 50.0379 156.298 50.0379H155.019V52.4281H156.321V52.4513ZM156.484 56.1642C157.367 56.1642 157.925 55.7 157.925 54.9343C157.925 54.1917 157.437 53.6812 156.53 53.6812H154.996V56.1874H156.484V56.1642ZM167.387 48.6456C169.642 48.6456 171.78 50.3164 171.78 53.1242C171.78 55.9553 169.665 57.6029 167.387 57.6029C165.132 57.6029 163.016 55.9321 163.016 53.1242C163.039 50.2932 165.132 48.6456 167.387 48.6456ZM167.387 56.2106C168.851 56.2106 170.269 55.1895 170.269 53.101C170.269 51.0358 168.828 49.9915 167.387 49.9915C165.945 49.9915 164.504 51.0126 164.504 53.101C164.527 55.1895 165.945 56.2106 167.387 56.2106ZM190.959 55.2591H187.309L186.519 57.4172H184.985L188.332 48.8312H190.029L193.377 57.4172H191.796L190.959 55.2591ZM187.821 53.9132H190.448L189.146 50.4092L187.821 53.9132ZM107.362 54.3773C106.897 55.584 105.804 56.2106 104.689 56.2106C103.247 56.2106 101.806 55.1895 101.806 53.101C101.806 51.0358 103.247 49.9915 104.689 49.9915C105.804 49.9915 106.92 50.5949 107.362 51.8247H108.92C108.385 49.7827 106.595 48.6224 104.689 48.6224C102.434 48.6224 100.318 50.27 100.318 53.101C100.318 55.9321 102.434 57.5797 104.689 57.5797C106.572 57.5797 108.385 56.4194 108.92 54.3773H107.362ZM178.406 54.0757H177.15V57.4637H175.686V48.8777H179.103C180.754 48.8777 181.8 50.0379 181.8 51.4767C181.8 52.7065 181.126 53.6348 179.917 53.9132L181.986 57.4405H180.335L178.406 54.0757ZM178.917 52.7994C179.824 52.7994 180.335 52.2889 180.335 51.4999C180.335 50.6877 179.754 50.1772 178.847 50.1772H177.15V52.7994H178.917ZM74.2812 70.6907C69.469 70.6907 65.5635 66.7922 65.5635 61.9887C65.5635 57.1852 69.469 53.2867 74.2812 53.2867C79.0934 53.2867 82.9989 57.1852 82.9989 61.9887C83.0222 66.8154 79.1166 70.6907 74.2812 70.6907ZM74.2812 48.46C66.7956 48.46 60.728 54.5166 60.728 61.9887C60.728 69.4608 66.7956 75.5175 74.2812 75.5175C81.7668 75.5175 87.8343 69.4608 87.8343 61.9887C87.8576 54.5166 81.7668 48.46 74.2812 48.46Z" fill="#5C3DCC"/>
<path d="M52.87 55.0498L49.4526 58.4842L53.2652 62.081L49.4759 65.6315L52.8932 69.0427L59.8906 62.081L52.87 55.0498Z" fill="#5C3DCC"/>
<path d="M40.2681 75.6779C36.8973 75.6779 33.8286 74.5177 31.1552 72.1971C28.1795 69.5749 26.6685 66.1405 26.6685 61.9868C26.6685 58.2739 28.04 55.0715 30.7367 52.4261C33.4102 49.8039 36.688 48.458 40.4541 48.458C44.1969 48.458 47.4283 49.8039 50.1017 52.4725L46.5449 55.9998C44.8246 54.2826 42.8253 53.4472 40.4541 53.4472C38.0131 53.4472 35.9906 54.2826 34.2471 55.9766C32.5035 57.6706 31.6666 59.643 31.6666 61.9868C31.6666 64.6786 32.5733 66.7903 34.4563 68.4379C36.1998 69.9462 38.1061 70.6888 40.2914 70.6888C42.7788 70.6888 44.8246 69.8534 46.5681 68.1594L50.0552 71.733C47.3585 74.3552 44.0807 75.6779 40.2681 75.6779Z" fill="#8B8B89"/>
</g>
<defs>
<clipPath id="clip0">
<rect width="167.497" height="27.9161" fill="white" transform="translate(26.252 48.042)"/>
</clipPath>
</defs>
</svg>
