<svg width="220" height="124" viewBox="0 0 220 124" fill="none" xmlns="http://www.w3.org/2000/svg">
<path fill-rule="evenodd" clip-rule="evenodd" d="M112.712 75.5965C113.971 75.5965 114.733 76.0318 115.387 76.6484L114.614 77.5256C114.071 77.0216 113.483 76.6856 112.704 76.6856C111.405 76.6856 110.45 77.7452 110.45 79.0663V79.0873C110.45 80.4084 111.396 81.4794 112.703 81.4794C113.542 81.4794 114.081 81.151 114.666 80.6107L115.436 81.3839C114.723 82.117 113.941 82.5771 112.664 82.5771C110.675 82.5771 109.193 81.0441 109.193 79.1073V79.0863C109.193 77.1677 110.645 75.5955 112.712 75.5955V75.5965ZM125.033 75.7129V79.5502C125.033 80.8035 125.686 81.4689 126.759 81.4689C127.822 81.4689 128.477 80.8417 128.477 79.5989V75.7129H129.675V79.5407C129.675 81.5548 128.525 82.5666 126.74 82.5666C124.964 82.5666 123.833 81.5548 123.833 79.5989V75.7129H125.033ZM84.3309 75.6146C85.3254 75.6146 86.1165 75.9134 86.8077 76.4642L86.1645 77.3595C85.5481 76.909 84.9337 76.6656 84.3097 76.6656C83.608 76.6656 83.1971 77.0216 83.1971 77.4664V77.4865C83.1971 78.0067 83.5101 78.2396 84.8291 78.5499C86.272 78.8935 87.015 79.4042 87.015 80.5239V80.542C87.015 81.8087 86.007 82.557 84.5737 82.557C83.5219 82.5619 82.5059 82.1774 81.7235 81.4784L82.4483 80.6289C83.1011 81.1882 83.7635 81.508 84.6025 81.508C85.3456 81.508 85.8121 81.1624 85.8121 80.6594V80.6403C85.8121 80.1592 85.5395 79.8977 84.2713 79.6065C82.8179 79.261 82 78.8362 82 77.5924V77.5734C82 76.4145 82.9753 75.6146 84.3309 75.6146ZM177.976 75.7129L179.877 78.6911L181.805 75.7129H183.18L180.471 79.7717V82.4635H179.26V79.8003L176.548 75.7129H177.976ZM168.412 75.7129V76.8107H166.246V82.4635H165.036V76.8097H162.871V75.712H168.412V75.7129ZM154.372 75.7129V82.4635H153.17V75.7129H154.372ZM141.778 75.7129C142.638 75.7129 143.312 75.9621 143.749 76.3878C144.113 76.7534 144.316 77.2564 144.316 77.8425V77.8616C144.316 78.9689 143.643 79.6371 142.697 79.9053L144.54 82.4635H143.116L141.437 80.1086H139.935V82.4635H138.737V75.7129H141.778ZM100.828 75.7129V76.7725H96.9635V78.5269H100.388V79.5884H96.9635V81.402H100.874V82.4635H95.7635V75.7129H100.828ZM141.682 76.7916H139.935V79.0577H141.692C142.549 79.0577 143.093 78.6148 143.093 77.9313V77.9122C143.093 77.1868 142.568 76.7925 141.682 76.7925V76.7916ZM167.203 53.2334C174.844 53.2334 178.527 57.0726 178.527 62.1584C178.527 67.2442 174.843 71.0844 167.203 71.0844C159.559 71.0844 155.877 67.2442 155.877 62.1594C155.877 57.0726 159.559 53.2344 167.203 53.2344V53.2334ZM78.0544 53.5226C82.4512 53.5226 84.2406 55.4079 84.2848 58.1617H81.0697C80.8557 57.0544 80.0723 56.4817 78.0544 56.4817H69.9107C66.8896 56.4817 66.6467 58.0529 66.6467 58.2925L66.6429 58.4376C66.6429 59.8942 67.5155 60.4259 69.8493 60.4259H78.7753C83.2269 60.4259 85.0537 62.2854 85.0537 65.0984V65.9518C85.0537 68.7639 83.2729 70.6968 78.8233 70.6968H69.8944C65.4419 70.6968 63.3203 68.7639 63.3203 65.9518L63.3213 65.9384H66.6861C66.8579 67.1239 67.8054 67.7368 69.8944 67.7368H78.8233C81.0438 67.7368 81.9779 67.0419 82.0576 65.7017V65.5394C82.0576 64.0723 81.1456 63.3478 78.8233 63.3478H69.8944C65.4285 63.3478 63.639 61.4282 63.639 58.6419V58.2276C63.6573 55.4374 65.4784 53.5226 69.9107 53.5226H78.0544ZM181.824 53.5799L189.175 59.8637L196.638 53.5789H201.584L191.132 61.9179L201.584 70.6968H196.638L189.175 63.9482L181.824 70.6968H176.876L187.219 61.9179L176.876 53.5789H181.824V53.5799ZM112.567 53.5789L119.895 61.4434L127.072 53.5789H131.129L121.491 63.9854V70.6968H118.3V63.9854L108.536 53.5789H112.567ZM90.4614 53.5789V60.4278H97.3667L103.818 53.5789H107.643L99.6601 61.893L110.189 70.6949H105.698L97.3667 63.3621H90.4614V70.6968H87.2723V53.5789H90.4614ZM146.863 53.5789C150.673 53.5789 153.171 54.7282 153.171 57.9317C153.171 59.8637 152.231 60.9404 150.795 61.6239C152.925 62.2109 154.407 63.4594 154.407 65.9518C154.407 68.7639 152.627 70.6968 148.177 70.6968H132.608V53.5789H146.863ZM167.203 56.1686C161.514 56.1686 159.117 58.6619 159.117 62.1584C159.117 65.6301 161.514 68.1262 167.203 68.1262C172.89 68.1262 175.263 65.6301 175.263 62.1584C175.263 58.6619 172.89 56.1686 167.203 56.1686ZM147.877 63.3621H135.8V67.7377H148.177C150.501 67.7377 151.416 66.9789 151.416 65.5117C151.416 63.8728 150.204 63.3621 147.877 63.3621ZM146.863 56.5142H135.799V60.4278H146.591C148.991 60.4278 150.178 60.0116 150.178 58.4939C150.178 57.0506 149.164 56.5142 146.863 56.5142ZM204.055 53.6181C204.889 53.6181 205.536 54.2844 205.536 55.0833V55.0929C205.536 55.8918 204.88 56.5657 204.055 56.5657C203.22 56.5657 202.574 55.9004 202.574 55.1005V55.0919C202.574 54.2929 203.23 53.6181 204.055 53.6181ZM204.055 53.7784C203.314 53.7784 202.744 54.3769 202.744 55.0919V55.1014C202.744 55.8174 203.306 56.4054 204.055 56.4054C204.795 56.4054 205.365 55.8078 205.365 55.0919V55.0833C205.365 54.3674 204.804 53.7784 204.055 53.7784ZM204.157 54.3178C204.488 54.3178 204.735 54.4772 204.735 54.7884C204.739 54.8927 204.707 54.9953 204.643 55.0784C204.58 55.1615 204.489 55.22 204.387 55.2437L204.787 55.8069H204.437L204.08 55.2943H203.765V55.8078H203.476V54.3178H204.157ZM204.131 54.5698H203.765V55.0585H204.13C204.327 55.0585 204.437 54.9573 204.437 54.8141C204.437 54.6547 204.327 54.5698 204.13 54.5698H204.131Z" fill="#454D51"/>
<path fill-rule="evenodd" clip-rule="evenodd" d="M34.0863 52.4355L26.6722 56.7596L33.0898 60.5358L34.0853 59.9917L34.0863 52.4355ZM20.6655 67.8591L22.3397 66.8673L15.9116 63.0902C15.134 63.4539 14.5791 64.3025 14.5791 64.3025L20.6655 67.8591ZM53.4581 64.291L34.0863 75.6997V82.7634C34.2149 82.7605 34.3647 82.749 34.4895 82.7319C34.8337 82.6821 35.1678 82.5783 35.4793 82.4245L52.4962 72.4161C52.8972 72.1336 53.2261 71.7618 53.4568 71.3304C53.6875 70.899 53.8135 70.4199 53.8249 69.9314V65.5997C53.8249 64.7568 53.4601 64.291 53.4601 64.291" fill="#008CC1"/>
<path fill-rule="evenodd" clip-rule="evenodd" d="M34.0861 75.6997L14.5789 64.3025C14.426 64.5853 14.324 64.8925 14.2774 65.2102C14.2635 65.3045 14.2555 65.3995 14.2534 65.4947V70.129C14.2534 71.1933 14.8889 72.1049 15.7981 72.5402L32.6672 82.4579C32.7613 82.5056 32.8601 82.5438 32.9619 82.5801L32.984 82.5896H32.9859L33.0483 82.6087L33.199 82.6526C33.272 82.6689 33.3488 82.688 33.4256 82.7042C33.4714 82.7161 33.5179 82.7253 33.5648 82.7319C33.7383 82.7468 33.9121 82.7576 34.0861 82.7643V75.7007V75.6997ZM53.4579 64.291C53.2882 63.9973 53.0641 63.7382 52.7974 63.5274C52.6874 63.4449 52.574 63.3669 52.4576 63.2935L34.0861 52.4355V59.9917L47.4061 67.8553L53.4579 64.291Z" fill="#005DA1"/>
<path fill-rule="evenodd" clip-rule="evenodd" d="M53.8767 53.9468C53.8767 53.1927 53.5599 52.7059 53.5599 52.7059L45.7945 57.2056L52.2399 60.9761C52.7167 60.7761 53.1251 60.443 53.4155 60.0171C53.706 59.5913 53.8662 59.0908 53.8767 58.5764V53.9468ZM35.0453 63.5381L34.0853 64.0841V71.6412L41.4629 67.3124L35.0453 63.5381ZM34.0853 48.3742V41.3105C34.0853 41.3105 33.7887 41.323 33.6437 41.343C33.5583 41.3525 33.3519 41.3974 33.3298 41.3984C33.0927 41.4604 32.869 41.5435 32.6578 41.6465L15.6428 51.6635C15.2653 51.931 14.9508 52.2769 14.7212 52.6773L20.7356 56.2205L34.0853 48.3751V48.3742Z" fill="#5ECE58"/>
<path fill-rule="evenodd" clip-rule="evenodd" d="M20.7353 56.2186L14.7219 52.6744L14.719 52.6801C14.4646 53.1274 14.3242 53.6298 14.3101 54.1434V58.4723C14.3101 59.465 14.8669 60.3174 15.6761 60.7804L34.0851 71.6412V64.0831L20.7353 56.2177V56.2186ZM53.5606 52.7049C53.4262 52.4548 53.1651 52.1322 53.0384 52.0205C52.7696 51.7819 52.3357 51.5347 52.3357 51.5347L35.4704 41.6131C35.4704 41.6131 35.3293 41.5368 35.1497 41.4843C34.9619 41.4233 34.7697 41.3767 34.5747 41.3449L34.568 41.342C34.4078 41.3217 34.2466 41.3109 34.0851 41.3096V48.3732L47.4771 56.2301L53.5597 52.704L53.5606 52.7049Z" fill="#54AB49"/>
</svg>
