<svg width="220" height="124" viewBox="0 0 220 124" fill="none" xmlns="http://www.w3.org/2000/svg">
<g clip-path="url(#clip0)">
<path d="M194 60.287V57.323H190.331V52.715L190.208 52.7532L186.762 53.811L186.694 53.8317V57.3231H181.254V55.3781C181.254 54.4724 181.456 53.7793 181.854 53.3171C182.249 52.8605 182.814 52.6283 183.535 52.6283C184.053 52.6283 184.589 52.7507 185.129 52.9922L185.265 53.0528V49.9313L185.201 49.9079C184.697 49.7262 184.012 49.6348 183.163 49.6348C182.093 49.6348 181.121 49.8684 180.273 50.3314C179.424 50.7951 178.757 51.457 178.289 52.2986C177.823 53.1393 177.587 54.1101 177.587 55.1846V57.323H175.032V60.287H177.587V72.7739H181.254V60.287H186.694V68.2222C186.694 71.4903 188.23 73.1464 191.261 73.1464C191.759 73.1464 192.283 73.0879 192.818 72.9733C193.363 72.8555 193.734 72.738 193.952 72.6125L194 72.5838V69.5923L193.851 69.6913C193.652 69.8244 193.404 69.9331 193.114 70.014C192.822 70.0963 192.578 70.1375 192.389 70.1375C191.679 70.1375 191.154 69.9457 190.828 69.5669C190.499 69.1848 190.331 68.5165 190.331 67.5816V60.287H194ZM166.842 70.138C165.511 70.138 164.461 69.6952 163.722 68.823C162.978 67.9463 162.6 66.6965 162.6 65.1085C162.6 63.4701 162.978 62.1878 163.722 61.2957C164.462 60.4094 165.502 59.9596 166.812 59.9596C168.084 59.9596 169.096 60.3892 169.821 61.2372C170.55 62.0895 170.92 63.3615 170.92 65.019C170.92 66.6968 170.572 67.9856 169.886 68.8478C169.205 69.7034 168.181 70.138 166.842 70.138ZM167.005 56.9507C164.465 56.9507 162.448 57.6973 161.01 59.1697C159.573 60.6422 158.844 62.68 158.844 65.227C158.844 67.6462 159.555 69.592 160.958 71.0096C162.362 72.4277 164.271 73.1461 166.634 73.1461C169.095 73.1461 171.072 72.3891 172.51 70.8963C173.947 69.4052 174.676 67.3866 174.676 64.8991C174.676 62.4422 173.992 60.4818 172.644 59.0737C171.295 57.6649 169.397 56.9507 167.005 56.9507ZM152.931 56.9507C151.203 56.9507 149.774 57.394 148.683 58.2681C147.584 59.1474 147.027 60.3005 147.027 61.696C147.027 62.4213 147.148 63.0656 147.384 63.6121C147.622 64.1604 147.991 64.6432 148.48 65.0483C148.966 65.4502 149.716 65.8712 150.709 66.2995C151.545 66.6443 152.168 66.936 152.563 67.1659C152.95 67.3912 153.225 67.6176 153.38 67.8382C153.53 68.0541 153.607 68.3495 153.607 68.7141C153.607 69.7521 152.832 70.2572 151.237 70.2572C150.646 70.2572 149.971 70.1333 149.232 69.8891C148.499 69.6485 147.806 69.2963 147.179 68.8447L147.027 68.7351V72.2774L147.083 72.3035C147.602 72.5438 148.256 72.7465 149.027 72.9059C149.797 73.0655 150.496 73.1467 151.104 73.1467C152.978 73.1467 154.488 72.7013 155.589 71.822C156.698 70.9368 157.26 69.7564 157.26 68.3127C157.26 67.2712 156.957 66.3781 156.361 65.6578C155.769 64.9433 154.742 64.2874 153.308 63.7077C152.166 63.2479 151.435 62.8662 151.133 62.5733C150.842 62.2902 150.695 61.89 150.695 61.3831C150.695 60.9338 150.877 60.5738 151.251 60.2823C151.628 59.9893 152.153 59.8403 152.812 59.8403C153.423 59.8403 154.048 59.9371 154.67 60.1269C155.291 60.3167 155.837 60.5708 156.293 60.8817L156.442 60.9845V57.6243L156.385 57.5995C155.965 57.4187 155.41 57.2639 154.737 57.1384C154.067 57.0137 153.459 56.9507 152.931 56.9507ZM137.466 70.138C136.135 70.138 135.086 69.6952 134.346 68.823C133.602 67.9463 133.225 66.6968 133.225 65.1085C133.225 63.4701 133.602 62.1878 134.347 61.2957C135.086 60.4094 136.126 59.9596 137.437 59.9596C138.708 59.9596 139.72 60.3892 140.446 61.2372C141.175 62.0895 141.544 63.3615 141.544 65.019C141.544 66.6968 141.196 67.9856 140.511 68.8478C139.829 69.7034 138.806 70.138 137.466 70.138ZM137.63 56.9507C135.09 56.9507 133.072 57.6973 131.635 59.1697C130.197 60.6422 129.468 62.68 129.468 65.227C129.468 67.6471 130.18 69.592 131.583 71.0096C132.986 72.4277 134.896 73.1461 137.258 73.1461C139.72 73.1461 141.697 72.3891 143.135 70.8963C144.572 69.4052 145.301 67.3866 145.301 64.8991C145.301 62.4422 144.617 60.4818 143.268 59.0737C141.919 57.6649 140.022 56.9507 137.63 56.9507ZM123.901 59.9987V57.323H120.278V72.7735H123.901V64.87C123.901 63.526 124.205 62.422 124.804 61.588C125.396 60.764 126.184 60.3465 127.147 60.3465C127.474 60.3465 127.84 60.4005 128.237 60.5072C128.629 60.6134 128.914 60.7287 129.081 60.85L129.234 60.9607V57.2965L129.175 57.2713C128.838 57.1275 128.36 57.0549 127.756 57.0549C126.846 57.0549 126.031 57.3484 125.333 57.9262C124.721 58.4341 124.278 59.1304 123.94 59.9987H123.901ZM113.791 56.9507C112.128 56.9507 110.646 57.3083 109.385 58.0131C108.121 58.7195 107.144 59.7281 106.479 61.0105C105.818 62.2899 105.481 63.7843 105.481 65.4509C105.481 66.9107 105.807 68.2504 106.451 69.4311C107.096 70.6138 108.008 71.539 109.162 72.1807C110.315 72.8216 111.648 73.1466 113.123 73.1466C114.845 73.1466 116.315 72.8013 117.493 72.1202L117.541 72.0929V68.7631L117.388 68.8747C116.855 69.2648 116.258 69.5762 115.616 69.8005C114.976 70.0247 114.392 70.138 113.88 70.138C112.459 70.138 111.317 69.6918 110.489 68.812C109.659 67.9312 109.238 66.6942 109.238 65.1377C109.238 63.5714 109.677 62.3026 110.542 61.3665C111.404 60.4331 112.548 59.9596 113.94 59.9596C115.131 59.9596 116.291 60.3641 117.389 61.163L117.541 61.2737V57.7653L117.492 57.7376C117.079 57.5056 116.515 57.314 115.816 57.1687C115.119 57.0238 114.438 56.9507 113.791 56.9507ZM102.986 57.3231H99.3635V72.7735H102.986V57.3231ZM101.212 50.7411C100.616 50.7411 100.096 50.9448 99.6684 51.3483C99.2394 51.7529 99.0217 52.2624 99.0217 52.8637C99.0217 53.4555 99.2368 53.9557 99.6617 54.3496C100.084 54.7424 100.606 54.9415 101.212 54.9415C101.818 54.9415 102.342 54.7424 102.769 54.3503C103.199 53.9557 103.417 53.4557 103.417 52.8637C103.417 52.2835 103.205 51.7792 102.787 51.3646C102.369 50.9508 101.839 50.7411 101.212 50.7411ZM92.1729 56.1832V72.7735H95.8701V51.2141H90.753L84.2487 67.2278L77.9368 51.2141H72.6113V72.7734H76.0857V56.1815H76.205L82.8703 72.7735H85.4923L92.0536 56.1832H92.1729Z" fill="#706D6E"/>
<path d="M43.0427 61.1062H26V44.0088H43.0427V61.1062Z" fill="#F1511B"/>
<path d="M61.8598 61.1072H44.8174V44.0098H61.8598V61.1072Z" fill="#80CC28"/>
<path d="M43.0422 79.9908H26V62.8936H43.0422V79.9908Z" fill="#00ADEF"/>
<path d="M61.8598 79.9908H44.8174V62.8936H61.8598V79.9908Z" fill="#FBBC09"/>
</g>
<defs>
<clipPath id="clip0">
<rect width="168" height="36" fill="white" transform="translate(26 44)"/>
</clipPath>
</defs>
</svg>
