<svg width="25" height="795" viewBox="0 0 25 795" fill="none" xmlns="http://www.w3.org/2000/svg">
<path opacity="0.2" d="M8.64 789.243C8.64 788.197 8.97067 787.354 9.632 786.714C10.272 786.053 11.1147 785.723 12.16 785.723L13.44 785.723C14.4853 785.722 15.3387 786.053 16 786.714C16.64 787.354 16.96 788.197 16.96 789.242L16.96 790.522C16.96 791.568 16.64 792.421 16 793.082C15.3387 793.722 14.4853 794.043 13.44 794.043L12.16 794.043C11.1147 794.043 10.272 793.723 9.632 793.083C8.97067 792.421 8.64 791.568 8.64 790.522L8.64 789.243ZM8.64 755.318C10.4533 755.318 12.0213 756.086 13.344 757.622C13.7493 758.091 14.1547 758.603 14.56 759.158L19.52 766.038L19.52 755.318L24 755.318L24 772.598L17.92 772.598L9.6 761.078L8 761.078C6.72 761.078 6.08 761.718 6.08 762.998L6.08 771.958L1.6 771.958L1.6 761.718C1.6 759.478 2.112 757.856 3.136 756.854C4.13866 755.83 5.76 755.318 8 755.318L8.64 755.318ZM24 748.442L6.56 748.442L7.84 752.122L4.16 753.722L1.6 747.802L1.6 742.682L24 742.682L24 748.442ZM15.04 739.154L10.56 739.154L10.56 726.034L15.04 726.034L15.04 739.154ZM24.32 711.963C24.32 715.525 24.1067 719.472 23.68 723.803L19.36 723.803C19.68 719.088 19.84 715.568 19.84 713.243C19.84 712.752 19.7013 712.368 19.424 712.091C19.1253 711.792 18.7307 711.643 18.24 711.643L16.64 711.643C15.36 711.643 14.72 712.283 14.72 713.563L14.72 722.843L1.59999 722.843L1.59999 707.483L6.08 707.483L6.08 717.083L10.24 717.083L10.24 711.963C10.24 709.872 10.72 708.336 11.68 707.355C12.6187 706.373 14.0587 705.883 16 705.883L18.24 705.883C20.3307 705.883 21.8667 706.373 22.848 707.355C23.8293 708.336 24.32 709.872 24.32 711.963ZM7.67999 690.215C6.39999 690.215 5.75999 690.855 5.75999 692.135L5.75999 695.655C5.75999 696.935 6.39999 697.575 7.67999 697.575L17.92 697.575C19.2 697.575 19.84 696.935 19.84 695.655L19.84 692.135C19.84 690.855 19.2 690.215 17.92 690.215L7.67999 690.215ZM17.92 684.455C20.16 684.455 21.792 684.967 22.816 685.991C23.8187 686.994 24.32 688.615 24.32 690.855L24.32 696.935C24.32 699.175 23.8187 700.807 22.816 701.831C21.792 702.834 20.16 703.335 17.92 703.335L7.67999 703.335C5.43999 703.335 3.81866 702.834 2.81599 701.831C1.79199 700.807 1.27999 699.175 1.27999 696.935L1.27999 690.855C1.27999 688.615 1.79199 686.994 2.81599 685.991C3.81866 684.967 5.43999 684.455 7.67999 684.455L17.92 684.455ZM7.03999 653.744L24 653.744L24 659.344L11.36 659.344L11.36 665.104L24 665.104L24 670.704L7.03999 670.704L7.03999 653.744ZM19.2 632.628C20.8 632.628 22.0587 633.086 22.976 634.004C23.872 634.9 24.32 636.148 24.32 637.748L24.32 645.108C24.32 646.708 23.872 647.966 22.976 648.884C22.0587 649.78 20.8 650.228 19.2 650.228L11.84 650.228C10.24 650.228 8.99199 649.78 8.09599 648.884C7.17866 647.966 6.71999 646.708 6.71999 645.108L6.71999 637.748C6.71999 636.148 7.17866 634.9 8.09599 634.004C8.99199 633.086 10.24 632.628 11.84 632.628L19.2 632.628ZM12.32 638.228C11.4667 638.228 11.04 638.654 11.04 639.508L11.04 643.348C11.04 644.201 11.4667 644.628 12.32 644.628L18.72 644.628C19.5733 644.628 20 644.201 20 643.348L20 639.508C20 638.654 19.5733 638.228 18.72 638.228L12.32 638.228ZM24.32 627.191C24.32 628.109 24.2133 629.175 24 630.391L19.84 630.391L19.84 629.111C19.84 628.301 19.4133 627.874 18.56 627.831L7.03999 627.191L7.03999 611.831L24 611.831L24 617.431L11.36 617.431L11.36 621.911L19.52 622.391C20.9707 622.477 22.1333 622.957 23.008 623.831C23.8827 624.706 24.32 625.826 24.32 627.191ZM24 608.003L7.03999 608.003L7.03999 602.403L12.32 602.403L12.32 595.843C12.32 594.392 12.7573 593.229 13.632 592.355C14.5067 591.48 15.6693 591.043 17.12 591.043L19.2 591.043C20.6507 591.043 21.8133 591.48 22.688 592.355C23.5627 593.229 24 594.392 24 595.843L24 608.003ZM20 597.763C20 597.443 19.8933 597.176 19.68 596.963C19.4667 596.749 19.2 596.643 18.88 596.643L17.44 596.643C17.12 596.643 16.8533 596.749 16.64 596.963C16.4267 597.176 16.32 597.443 16.32 597.763L16.32 602.403L20 602.403L20 597.763ZM19.84 589.135C20.16 585.06 20.32 581.86 20.32 579.535C20.32 579.215 20.2133 578.948 20 578.735C19.7867 578.522 19.52 578.415 19.2 578.415L18.72 578.415C18.4 578.415 18.1333 578.522 17.92 578.735C17.7067 578.948 17.6 579.215 17.6 579.535L17.6 586.575L13.6 586.575L13.6 580.175C13.6 579.855 13.4933 579.588 13.28 579.375C13.0667 579.162 12.8 579.055 12.48 579.055L12.16 579.055C11.84 579.055 11.5733 579.162 11.36 579.375C11.1467 579.588 11.04 579.855 11.04 580.175L11.04 588.815L7.03999 588.815L7.03999 578.255C7.03999 576.826 7.46666 575.674 8.31999 574.799C9.15199 573.903 10.0907 573.455 11.136 573.455C13.2693 573.455 14.5707 574.415 15.04 576.335C15.2107 575.375 15.68 574.554 16.448 573.871C17.216 573.167 18.2827 572.815 19.648 572.815C21.0133 572.815 22.1333 573.252 23.008 574.127C23.8827 575.002 24.32 576.164 24.32 577.615C24.32 581.178 24.1067 585.018 23.68 589.135L19.84 589.135ZM19.2 552.661C20.8 552.661 22.0587 553.12 22.976 554.037C23.872 554.933 24.32 556.181 24.32 557.781L24.32 565.141C24.32 566.741 23.872 568 22.976 568.917C22.0587 569.813 20.8 570.261 19.2 570.261L11.84 570.261C10.24 570.261 8.99199 569.813 8.09599 568.917C7.17866 568 6.71999 566.741 6.71999 565.141L6.71999 557.781C6.71999 556.181 7.17866 554.933 8.09599 554.037C8.99199 553.12 10.24 552.661 11.84 552.661L19.2 552.661ZM12.32 558.261C11.4667 558.261 11.04 558.688 11.04 559.541L11.04 563.381C11.04 564.235 11.4667 564.661 12.32 564.661L18.72 564.661C19.5733 564.661 20 564.235 20 563.381L20 559.541C20 558.688 19.5733 558.261 18.72 558.261L12.32 558.261ZM24 536.985L24 549.145L7.03999 549.145L7.03999 537.945C7.03999 536.516 7.46665 535.364 8.31999 534.489C9.15199 533.593 10.0907 533.145 11.136 533.145C12.1813 533.145 13.0347 533.369 13.696 533.817C14.3573 534.265 14.8053 534.894 15.04 535.705C15.2107 534.745 15.68 533.924 16.448 533.241C17.216 532.537 18.24 532.185 19.52 532.185C20.8 532.185 21.8667 532.633 22.72 533.529C23.5733 534.404 24 535.556 24 536.985ZM18.56 537.785C18.24 537.785 17.9733 537.892 17.76 538.105C17.5467 538.318 17.44 538.585 17.44 538.905L17.44 543.545L20.16 543.545L20.16 538.905C20.16 538.585 20.0533 538.318 19.84 538.105C19.6267 537.892 19.36 537.785 19.04 537.785L18.56 537.785ZM12 538.745C11.68 538.745 11.4133 538.852 11.2 539.065C10.9867 539.278 10.88 539.545 10.88 539.865L10.88 543.545L13.76 543.545L13.76 539.865C13.76 539.545 13.6533 539.278 13.44 539.065C13.2267 538.852 12.96 538.745 12.64 538.745L12 538.745ZM19.84 522.598C19.84 521.467 19.6267 520.187 19.2 518.758L17.28 518.758L17.28 523.398C17.28 523.718 17.3867 523.984 17.6 524.198C17.8133 524.411 18.08 524.518 18.4 524.518L18.72 524.518C19.04 524.518 19.3067 524.411 19.52 524.198C19.7333 523.984 19.84 523.718 19.84 523.398L19.84 522.598ZM7.35999 528.518C6.93332 524.614 6.71999 521.094 6.71999 517.958C6.71999 516.507 7.15732 515.344 8.03199 514.47C8.90665 513.595 10.0693 513.158 11.52 513.158L24 513.158L24 518.118L22.4 518.438C23.0613 519.44 23.552 520.475 23.872 521.542C24.1707 522.587 24.32 523.472 24.32 524.198L24.32 525.318C24.32 526.768 23.8827 527.931 23.008 528.806C22.1333 529.68 20.9707 530.118 19.52 530.118L18.08 530.118C16.6293 530.118 15.4667 529.68 14.592 528.806C13.7173 527.931 13.28 526.768 13.28 525.318L13.28 518.758L12 518.758C11.68 518.758 11.4133 518.864 11.2 519.078C10.9867 519.291 10.88 519.558 10.88 519.878C10.88 521.264 10.944 522.8 11.072 524.486C11.2 526.15 11.296 527.494 11.36 528.518L7.35999 528.518ZM11.36 500.046L24 500.046L24 505.646L11.36 505.646L11.36 510.926L7.03999 510.926L7.03999 494.766L11.36 494.766L11.36 500.046ZM10.72 485.634C10.72 486.487 11.1467 486.914 12 486.914L13.76 486.914L13.76 481.474L12 481.474C11.1467 481.474 10.72 481.9 10.72 482.754L10.72 485.634ZM23.68 476.514C24.1067 480.631 24.32 484.364 24.32 487.714C24.32 489.164 23.8827 490.327 23.008 491.202C22.1333 492.076 20.9707 492.514 19.52 492.514L11.84 492.514C10.24 492.514 8.99199 492.066 8.09599 491.17C7.17865 490.252 6.71999 488.994 6.71999 487.394L6.71999 480.994C6.71999 479.394 7.17865 478.146 8.09599 477.25C8.99199 476.332 10.24 475.874 11.84 475.874L17.76 475.874L17.76 486.914L19.04 486.914C19.36 486.914 19.6267 486.807 19.84 486.594C20.0533 486.38 20.16 486.114 20.16 485.794C20.16 483.682 20 480.588 19.68 476.514L23.68 476.514ZM24.32 470.446C24.32 471.364 24.2133 472.43 24 473.646L19.84 473.646L19.84 472.366C19.84 471.556 19.4133 471.129 18.56 471.086L7.03998 470.446L7.03998 455.086L24 455.086L24 460.686L11.36 460.686L11.36 465.166L19.52 465.646C20.9707 465.732 22.1333 466.212 23.008 467.086C23.8827 467.961 24.32 469.081 24.32 470.446ZM10.72 444.698C10.72 445.551 11.1467 445.978 12 445.978L13.76 445.978L13.76 440.538L12 440.538C11.1466 440.538 10.72 440.964 10.72 441.818L10.72 444.698ZM23.68 435.578C24.1067 439.695 24.32 443.428 24.32 446.778C24.32 448.228 23.8827 449.391 23.008 450.266C22.1333 451.14 20.9707 451.578 19.52 451.578L11.84 451.578C10.24 451.578 8.99198 451.13 8.09598 450.234C7.17865 449.316 6.71998 448.058 6.71998 446.458L6.71998 440.058C6.71998 438.458 7.17865 437.21 8.09598 436.314C8.99198 435.396 10.24 434.938 11.84 434.938L17.76 434.938L17.76 445.978L19.04 445.978C19.36 445.978 19.6267 445.871 19.84 445.658C20.0533 445.444 20.16 445.178 20.16 444.858C20.16 442.746 20 439.652 19.68 435.578L23.68 435.578ZM5.43998 424.71C5.43998 427.483 4.05332 428.87 1.27998 428.87L0.319983 428.87L0.319983 424.71L1.11998 424.71C1.43998 424.71 1.70665 424.603 1.91998 424.39C2.13332 424.177 2.23998 423.91 2.23998 423.59L2.23998 422.63C2.23998 422.31 2.13332 422.043 1.91998 421.83C1.70665 421.617 1.43998 421.51 1.11998 421.51L0.319983 421.51L0.319983 417.35L1.27998 417.35C4.05332 417.35 5.43998 418.737 5.43998 421.51L5.43998 424.71ZM7.03998 420.39L7.03998 414.47L24 414.47L24 420.07L14.72 420.07L24 425.51L24 431.43L7.03998 431.43L7.03998 425.83L16.32 425.83L7.03998 420.39ZM8.63998 385.366C8.63998 384.321 8.97065 383.478 9.63198 382.838C10.272 382.177 11.1146 381.846 12.16 381.846L13.44 381.846C14.4853 381.846 15.3386 382.177 16 382.838C16.64 383.478 16.96 384.321 16.96 385.366L16.96 386.646C16.96 387.692 16.64 388.545 16 389.206C15.3386 389.846 14.4853 390.166 13.44 390.166L12.16 390.166C11.1146 390.166 10.272 389.846 9.63198 389.206C8.97065 388.545 8.63998 387.692 8.63998 386.646L8.63998 385.366ZM8.63998 341.208C10.4533 341.208 12.0213 341.976 13.344 343.512C13.7493 343.981 14.1546 344.493 14.56 345.048L19.52 351.928L19.52 341.208L24 341.208L24 358.488L17.92 358.488L9.59998 346.968L7.99998 346.968C6.71998 346.968 6.07998 347.608 6.07998 348.888L6.07998 357.848L1.59998 357.848L1.59998 347.608C1.59998 345.368 2.11198 343.746 3.13598 342.744C4.13865 341.72 5.75998 341.208 7.99998 341.208L8.63998 341.208ZM24 334.332L6.55998 334.332L7.83998 338.012L4.15998 339.612L1.59998 333.692L1.59998 328.572L24 328.572L24 334.332ZM15.04 325.044L10.56 325.044L10.56 311.924L15.04 311.924L15.04 325.044ZM24.32 297.852C24.32 301.415 24.1066 305.362 23.68 309.692L19.36 309.692C19.68 304.978 19.84 301.458 19.84 299.132C19.84 298.642 19.7013 298.258 19.424 297.98C19.1253 297.682 18.7306 297.532 18.24 297.532L16.64 297.532C15.36 297.532 14.72 298.172 14.72 299.452L14.72 308.732L1.59998 308.732L1.59998 293.372L6.07998 293.372L6.07998 302.972L10.24 302.972L10.24 297.852C10.24 295.762 10.72 294.226 11.68 293.244C12.6186 292.263 14.0586 291.772 16 291.772L18.24 291.772C20.3306 291.772 21.8666 292.263 22.848 293.244C23.8293 294.226 24.32 295.762 24.32 297.852ZM7.67998 276.105C6.39998 276.105 5.75998 276.745 5.75998 278.025L5.75998 281.545C5.75998 282.825 6.39998 283.465 7.67998 283.465L17.92 283.465C19.2 283.465 19.84 282.825 19.84 281.545L19.84 278.025C19.84 276.745 19.2 276.105 17.92 276.105L7.67998 276.105ZM17.92 270.345C20.16 270.345 21.792 270.857 22.816 271.881C23.8186 272.884 24.32 274.505 24.32 276.745L24.32 282.825C24.32 285.065 23.8186 286.697 22.816 287.721C21.792 288.724 20.16 289.225 17.92 289.225L7.67998 289.225C5.43998 289.225 3.81864 288.724 2.81598 287.721C1.79198 286.697 1.27998 285.065 1.27998 282.825L1.27998 276.745C1.27998 274.505 1.79198 272.884 2.81597 271.881C3.81864 270.857 5.43998 270.345 7.67997 270.345L17.92 270.345ZM7.03997 239.634L24 239.634L24 245.234L11.36 245.234L11.36 250.994L24 250.994L24 256.594L7.03997 256.594L7.03997 239.634ZM19.2 218.517C20.8 218.517 22.0586 218.976 22.976 219.893C23.872 220.789 24.32 222.037 24.32 223.637L24.32 230.997C24.32 232.597 23.872 233.856 22.976 234.773C22.0586 235.669 20.8 236.117 19.2 236.117L11.84 236.117C10.24 236.117 8.99197 235.669 8.09597 234.773C7.17864 233.856 6.71997 232.597 6.71997 230.997L6.71997 223.637C6.71997 222.037 7.17864 220.789 8.09597 219.893C8.99197 218.976 10.24 218.517 11.84 218.517L19.2 218.517ZM12.32 224.117C11.4666 224.117 11.04 224.544 11.04 225.397L11.04 229.237C11.04 230.091 11.4666 230.517 12.32 230.517L18.72 230.517C19.5733 230.517 20 230.091 20 229.237L20 225.397C20 224.544 19.5733 224.117 18.72 224.117L12.32 224.117ZM24.32 213.081C24.32 213.999 24.2133 215.065 24 216.281L19.84 216.281L19.84 215.001C19.84 214.191 19.4133 213.764 18.56 213.721L7.03997 213.081L7.03997 197.721L24 197.721L24 203.321L11.36 203.321L11.36 207.801L19.52 208.281C20.9706 208.367 22.1333 208.847 23.008 209.721C23.8826 210.596 24.32 211.716 24.32 213.081ZM24 193.893L7.03997 193.893L7.03997 188.293L12.32 188.293L12.32 181.733C12.32 180.282 12.7573 179.119 13.632 178.245C14.5066 177.37 15.6693 176.933 17.12 176.933L19.2 176.933C20.6506 176.933 21.8133 177.37 22.688 178.245C23.5626 179.119 24 180.282 24 181.733L24 193.893ZM20 183.653C20 183.333 19.8933 183.066 19.68 182.853C19.4666 182.639 19.2 182.533 18.88 182.533L17.44 182.533C17.12 182.533 16.8533 182.639 16.64 182.853C16.4266 183.066 16.32 183.333 16.32 183.653L16.32 188.293L20 188.293L20 183.653ZM19.84 175.025C20.16 170.95 20.32 167.75 20.32 165.425C20.32 165.105 20.2133 164.838 20 164.625C19.7866 164.412 19.52 164.305 19.2 164.305L18.72 164.305C18.4 164.305 18.1333 164.412 17.92 164.625C17.7066 164.838 17.6 165.105 17.6 165.425L17.6 172.465L13.6 172.465L13.6 166.065C13.6 165.745 13.4933 165.478 13.28 165.265C13.0666 165.052 12.8 164.945 12.48 164.945L12.16 164.945C11.84 164.945 11.5733 165.052 11.36 165.265C11.1466 165.478 11.04 165.745 11.04 166.065L11.04 174.705L7.03997 174.705L7.03997 164.145C7.03997 162.716 7.46664 161.564 8.31997 160.689C9.15197 159.793 10.0906 159.345 11.136 159.345C13.2693 159.345 14.5706 160.305 15.04 162.225C15.2106 161.265 15.68 160.444 16.448 159.761C17.216 159.057 18.2826 158.705 19.648 158.705C21.0133 158.705 22.1333 159.142 23.008 160.017C23.8826 160.892 24.32 162.054 24.32 163.505C24.32 167.068 24.1066 170.908 23.68 175.025L19.84 175.025ZM19.2 138.551C20.8 138.551 22.0586 139.01 22.976 139.927C23.872 140.823 24.32 142.071 24.32 143.671L24.32 151.031C24.32 152.631 23.872 153.89 22.976 154.807C22.0586 155.703 20.8 156.151 19.2 156.151L11.84 156.151C10.24 156.151 8.99197 155.703 8.09597 154.807C7.17864 153.89 6.71997 152.631 6.71997 151.031L6.71997 143.671C6.71997 142.071 7.17864 140.823 8.09597 139.927C8.99197 139.01 10.24 138.551 11.84 138.551L19.2 138.551ZM12.32 144.151C11.4666 144.151 11.04 144.578 11.04 145.431L11.04 149.271C11.04 150.125 11.4666 150.551 12.32 150.551L18.72 150.551C19.5733 150.551 20 150.125 20 149.271L20 145.431C20 144.578 19.5733 144.151 18.72 144.151L12.32 144.151ZM24 122.875L24 135.035L7.03997 135.035L7.03997 123.835C7.03997 122.406 7.46664 121.254 8.31997 120.379C9.15197 119.483 10.0906 119.035 11.136 119.035C12.1813 119.035 13.0346 119.259 13.696 119.707C14.3573 120.155 14.8053 120.784 15.04 121.595C15.2106 120.635 15.68 119.814 16.448 119.131C17.216 118.427 18.24 118.075 19.52 118.075C20.8 118.075 21.8666 118.523 22.72 119.419C23.5733 120.294 24 121.446 24 122.875ZM18.56 123.675C18.24 123.675 17.9733 123.782 17.76 123.995C17.5466 124.208 17.44 124.475 17.44 124.795L17.44 129.435L20.16 129.435L20.16 124.795C20.16 124.475 20.0533 124.208 19.84 123.995C19.6266 123.782 19.36 123.675 19.04 123.675L18.56 123.675ZM12 124.635C11.68 124.635 11.4133 124.742 11.2 124.955C10.9866 125.168 10.88 125.435 10.88 125.755L10.88 129.435L13.76 129.435L13.76 125.755C13.76 125.435 13.6533 125.168 13.44 124.955C13.2266 124.742 12.96 124.635 12.64 124.635L12 124.635ZM19.84 108.487C19.84 107.357 19.6266 106.077 19.2 104.647L17.28 104.647L17.28 109.287C17.28 109.607 17.3866 109.874 17.6 110.087C17.8133 110.301 18.08 110.407 18.4 110.407L18.72 110.407C19.04 110.407 19.3066 110.301 19.52 110.087C19.7333 109.874 19.84 109.607 19.84 109.287L19.84 108.487ZM7.35997 114.407C6.9333 110.503 6.71997 106.983 6.71997 103.847C6.71997 102.397 7.1573 101.234 8.03197 100.359C8.90663 99.4848 10.0693 99.0475 11.52 99.0475L24 99.0475L24 104.007L22.4 104.327C23.0613 105.33 23.552 106.365 23.872 107.431C24.1706 108.477 24.32 109.362 24.32 110.087L24.32 111.207C24.32 112.658 23.8826 113.821 23.008 114.695C22.1333 115.57 20.9706 116.007 19.52 116.007L18.08 116.007C16.6293 116.007 15.4666 115.57 14.592 114.695C13.7173 113.821 13.28 112.658 13.28 111.207L13.28 104.647L12 104.647C11.68 104.647 11.4133 104.754 11.2 104.967C10.9866 105.181 10.88 105.447 10.88 105.767C10.88 107.154 10.944 108.69 11.072 110.375C11.2 112.039 11.296 113.383 11.36 114.407L7.35997 114.407ZM11.36 85.9362L24 85.9362L24 91.5362L11.36 91.5362L11.36 96.8162L7.03997 96.8162L7.03997 80.6562L11.36 80.6562L11.36 85.9362ZM10.72 71.5237C10.72 72.377 11.1466 72.8037 12 72.8037L13.76 72.8037L13.76 67.3637L12 67.3637C11.1466 67.3637 10.72 67.7904 10.72 68.6437L10.72 71.5237ZM23.68 62.4037C24.1066 66.521 24.32 70.2544 24.32 73.6037C24.32 75.0544 23.8826 76.217 23.008 77.0917C22.1333 77.9664 20.9706 78.4037 19.52 78.4037L11.84 78.4037C10.24 78.4037 8.99197 77.9557 8.09597 77.0597C7.17863 76.1424 6.71997 74.8837 6.71997 73.2837L6.71997 66.8837C6.71997 65.2837 7.17863 64.0357 8.09597 63.1397C8.99197 62.2224 10.24 61.7637 11.84 61.7637L17.76 61.7637L17.76 72.8037L19.04 72.8037C19.36 72.8037 19.6266 72.697 19.84 72.4837C20.0533 72.2704 20.16 72.0037 20.16 71.6837C20.16 69.5717 20 66.4784 19.68 62.4037L23.68 62.4037ZM24.32 56.3362C24.32 57.2535 24.2133 58.3202 24 59.5362L19.84 59.5362L19.84 58.2562C19.84 57.4455 19.4133 57.0189 18.56 56.9762L7.03997 56.3362L7.03997 40.9762L24 40.9762L24 46.5762L11.36 46.5762L11.36 51.0562L19.52 51.5362C20.9706 51.6215 22.1333 52.1015 23.008 52.9762C23.8826 53.8509 24.32 54.9709 24.32 56.3362ZM10.72 30.5876C10.72 31.4409 11.1466 31.8676 12 31.8676L13.76 31.8676L13.76 26.4276L12 26.4276C11.1466 26.4276 10.72 26.8542 10.72 27.7076L10.72 30.5876ZM23.68 21.4676C24.1066 25.5849 24.32 29.3182 24.32 32.6676C24.32 34.1182 23.8826 35.2809 23.008 36.1556C22.1333 37.0302 20.9706 37.4676 19.52 37.4676L11.84 37.4676C10.24 37.4676 8.99197 37.0196 8.09597 36.1236C7.17863 35.2062 6.71997 33.9476 6.71997 32.3476L6.71997 25.9476C6.71997 24.3476 7.17863 23.0996 8.09597 22.2036C8.99197 21.2862 10.24 20.8276 11.84 20.8276L17.76 20.8276L17.76 31.8676L19.04 31.8676C19.36 31.8676 19.6266 31.7609 19.84 31.5476C20.0533 31.3342 20.16 31.0676 20.16 30.7476C20.16 28.6356 20 25.5422 19.68 21.4676L23.68 21.4676ZM5.43996 10.6C5.43996 13.3734 4.0533 14.76 1.27996 14.76L0.319965 14.76L0.319965 10.6L1.11996 10.6C1.43996 10.6 1.70663 10.4934 1.91996 10.28C2.1333 10.0667 2.23996 9.80004 2.23996 9.48004L2.23996 8.52004C2.23996 8.20004 2.1333 7.93338 1.91996 7.72004C1.70663 7.50671 1.43996 7.40004 1.11996 7.40004L0.319965 7.40004L0.319965 3.24004L1.27996 3.24004C4.0533 3.24004 5.43996 4.62671 5.43996 7.40004L5.43996 10.6ZM7.03996 6.28004L7.03996 0.360042L24 0.360041L24 5.96004L14.72 5.96004L24 11.4L24 17.32L7.03996 17.32L7.03996 11.72L16.32 11.72L7.03996 6.28004Z" fill="white"/>
</svg>
