<svg width="184" height="124" viewBox="0 0 184 124" fill="none" xmlns="http://www.w3.org/2000/svg"><path d="M34.17 47.782l-3.68 11.08h7.36l-3.68-11.08zm0-6.57c2.81 0 3.68 2.06 4.456 4.02l7.844 21.573c.097.196 0 .49-.194.588l-4.358 1.667c-.193.098-.484 0-.484-.294l-1.84-5.001H28.747l-1.84 5.099a.532.532 0 0 1-.484.294l-4.26-1.667c-.195-.098-.291-.294-.195-.588l7.845-21.573c.678-2.059 1.55-4.118 4.358-4.118zM21.388 77.198c-.193 0-.387.197-.387.393v4.805c0 .195.194.392.387.392h25.664c.194 0 .387-.197.387-.392v-4.707c0-.196-.193-.392-.387-.392l-25.664-.099zm98.69-15.602c-.849 0-1.557.709-1.557 1.559s.708 1.558 1.557 1.558c.85 0 1.558-.709 1.558-1.558 0-.709-.708-1.559-1.558-1.559zM64.73 63.155s.849-2.692.99-3.117c.284-1.133.85-2.833.85-2.833h.142l.707 2.833c.142.425.85 3.117.85 3.117h-3.54zm4.813 4.816h2.83l-4.388-13.316a5.277 5.277 0 0 0-1.698-.283c-.708 0-.85.142-1.416.283l-4.388 13.316h2.831s.425-1.133.85-2.55h4.812a61.17 61.17 0 0 0 .567 2.55zm93.427 0s-1.415-2.975-1.698-3.541c-.425-.709-.708-1.276-1.558-1.417.567-.142.991-.425 1.416-1.417.425-.991.566-1.133.849-1.416.283-.283.567-.142.567-.142l.141-1.7h-1.132c-.708 0-.991.284-1.416.567-.283.283-.425.708-.708 1.133-.283.425-.424.85-.708 1.417-.282.566-.424.708-.99.708h-.425v-3.541h-2.548v9.349h2.548v-3.825h.283c.708 0 .85.142 1.274.992.425.85 1.274 2.974 1.274 2.974h2.831v-.141zm-10.192 0V58.48h-2.548v3.541h-2.831V58.48h-2.548v9.49h2.548v-3.824h2.831v3.825h2.548zm-69.08-9.491v9.066c1.133.566 2.548.708 3.68.708 2.69 0 4.106-1.416 4.106-3.683 0-1.983-1.274-3.258-3.68-3.258-.567 0-.991.142-1.558.283V58.48h-2.548zm5.096 6.233c0 .991-.283 1.558-1.557 1.558-.424 0-.566 0-1.132-.142v-2.691c.708-.142.708-.142 1.132-.142 1.274 0 1.557.567 1.557 1.417zm54.783 2.408c-.708-.992-.849-1.558-.849-2.833v-2.55c0-1.416-.142-1.841-.567-2.408-.566-.708-1.415-.992-2.972-.992-1.133 0-2.124.142-3.256.425l.425 1.842c.707-.142 1.415-.142 1.981-.142 1.699 0 1.84.283 1.84 1.417v.425c-.424-.142-.849-.142-1.273-.142-2.548 0-3.823 1.275-3.823 3.258 0 1.841 1.416 2.975 3.115 2.975.708 0 1.274-.142 1.84-.284.283-.141.425-.283.849-.424.283.424.708.708.991.85l1.699-1.417zm-3.256-1.133c-.566.141-.849.283-1.415.283-.85 0-1.416-.283-1.416-1.275s.708-1.275 1.84-1.275c.283 0 .567 0 .708.142v.708c.142.567.283 1.133.283 1.417zM115.69 67.12c-.708-.992-.849-1.558-.849-2.833v-2.55c0-1.416-.142-1.841-.566-2.408-.567-.708-1.416-.992-2.973-.992-1.133 0-2.124.142-3.256.425l.425 1.842c.707-.142 1.415-.142 1.982-.142 1.698 0 1.84.283 1.84 1.417v.425c-.425-.142-.85-.142-1.274-.142-2.548 0-3.822 1.275-3.822 3.258 0 1.841 1.415 2.975 3.114 2.975.708 0 1.274-.142 1.84-.284.283-.141.425-.283.85-.424.283.424.707.708.991.85l1.698-1.417zm-3.114-1.133c-.566.141-.849.283-1.416.283-.849 0-1.415-.283-1.415-1.275s.708-1.275 1.84-1.275c.283 0 .566 0 .708.142v.708c.141.567.141 1.133.283 1.417zm-30.86 1.983v-9.208c-1.415-.425-2.406-.566-3.822-.566-1.415 0-2.406.141-3.822.566v4.675c0 1.275 0 1.7-.141 2.125-.142.425-.283.85-.85 1.133l.708 1.416c1.982-.566 2.831-1.416 2.831-4.25v-3.399c.708-.142.85-.142 1.274-.142.567 0 .708 0 1.274.142v7.508h2.548zm18.828 3.116v-3.4c.283.142.991.425 1.981.425 2.124 0 3.681-1.7 3.681-4.957 0-3.4-1.557-4.958-4.105-4.958-.708 0-1.133 0-1.557.283v-4.108h-2.548v4.108c-.567-.283-.991-.283-1.558-.283-2.548 0-4.105 1.558-4.105 4.957 0 3.259 1.416 4.958 3.68 4.958 1.133 0 1.7-.283 1.983-.424v3.4h2.548zm-5.521-7.79c0-1.842.566-2.975 1.699-2.975.424 0 .849 0 1.415.283v5.241c-.566.142-.85.142-1.274.142-1.415.141-1.84-.992-1.84-2.692zm8.776-.142c0 1.7-.707 2.833-1.84 2.833-.424 0-.708 0-1.274-.142v-5.241c.566-.283.991-.283 1.416-.283.991 0 1.698.991 1.698 2.832zm30.435.708c0-2.408-1.415-3.966-4.247-3.966-.707 0-1.274 0-1.981.283v-3.4c.424 0 1.274-.142 2.265-.142.849 0 1.981 0 2.831.142v-1.983c-1.133-.283-2.69-.425-3.822-.425-1.133 0-3.115.283-3.964.567v12.465c1.416.567 2.69.708 4.105.708 3.115.142 4.813-1.558 4.813-4.25zm-2.689.283c0 1.275-.708 2.125-1.982 2.125-.566 0-.991 0-1.557-.142v-3.824c.283 0 .849-.142 1.557-.142 1.274-.142 1.982.567 1.982 1.983z" fill="#EF002F"/></svg>