<svg width="184" height="124" viewBox="0 0 184 124" fill="none" xmlns="http://www.w3.org/2000/svg"><path fill-rule="evenodd" clip-rule="evenodd" d="M68.394 55.937v-9.526c0-.476.376-.866.835-.866h16.694c1.377 0 2.504 1.17 2.504 2.598v27.713c0 1.43-1.127 2.598-2.504 2.598H69.229c-.46 0-.835-.39-.835-.866v-9.526c0-.477.376-.866.835-.866h9.182c.459 0 .834-.39.834-.866v-8.66c0-.477-.375-.867-.834-.867h-9.182c-.46 0-.835-.39-.835-.866zm-20.866 1.734v8.66c0 .476.376.866.835.866h9.182c.459 0 .834.39.834.866v9.526c0 .477-.375.867-.834.867H40.85c-1.377 0-2.504-1.17-2.504-2.599V48.144c0-1.429 1.127-2.598 2.504-2.598h16.694c.459 0 .834.39.834.866v9.527c0 .476-.375.866-.834.866h-9.182c-.459 0-.835.39-.835.866z" fill="#2E98FA"/><path d="M107.397 51.101c0 .944-.147 1.768-.441 2.471a4.633 4.633 0 0 1-1.243 1.731c-.535.452-1.175.793-1.92 1.024-.745.22-1.564.33-2.456.33-.44 0-.928-.021-1.463-.063a8.114 8.114 0 0 1-1.433-.205V45.813c.43-.104.908-.173 1.433-.204a18.847 18.847 0 0 1 1.463-.063c.892 0 1.711.115 2.456.346.745.22 1.385.562 1.92 1.023.535.451.95 1.029 1.243 1.732.294.692.441 1.51.441 2.455zm-5.934 4.218c1.448 0 2.529-.367 3.243-1.102.713-.745 1.07-1.783 1.07-3.116 0-1.333-.357-2.366-1.07-3.1-.714-.746-1.795-1.118-3.243-1.118-.43 0-.766.005-1.007.015a8.572 8.572 0 0 0-.488.032v8.342c.095.01.257.02.488.031.241.01.577.016 1.007.016zm15.046-2.959c0 .65-.094 1.239-.283 1.763a3.97 3.97 0 0 1-.803 1.354c-.336.378-.74.671-1.212.881-.472.2-.986.3-1.542.3-.557 0-1.071-.1-1.543-.3a3.68 3.68 0 0 1-1.228-.881 4.12 4.12 0 0 1-.787-1.354 5.2 5.2 0 0 1-.283-1.763c0-.64.095-1.222.283-1.747a4.09 4.09 0 0 1 .787-1.37 3.495 3.495 0 0 1 1.228-.865c.472-.21.986-.315 1.543-.315.556 0 1.07.105 1.542.315.472.2.876.488 1.212.866.346.378.614.834.803 1.37.189.524.283 1.106.283 1.746zm-1.527 0c0-.923-.21-1.652-.629-2.187-.41-.546-.971-.819-1.684-.819-.714 0-1.281.273-1.7.819-.41.535-.614 1.264-.614 2.187 0 .924.204 1.658.614 2.204.419.535.986.803 1.7.803.713 0 1.274-.268 1.684-.803.419-.546.629-1.28.629-2.204zm6.972 4.297c-.662 0-1.244-.105-1.748-.315a3.6 3.6 0 0 1-1.259-.881 3.726 3.726 0 0 1-.755-1.338 5.654 5.654 0 0 1-.252-1.731c0-.63.089-1.207.268-1.732a4.1 4.1 0 0 1 .786-1.353 3.384 3.384 0 0 1 1.228-.897 3.969 3.969 0 0 1 1.637-.33c.367 0 .735.03 1.102.093.367.063.719.163 1.054.3l-.33 1.243a3.506 3.506 0 0 0-.771-.252 4.208 4.208 0 0 0-.913-.094c-.819 0-1.448.257-1.889.771-.43.514-.645 1.264-.645 2.25 0 .441.047.845.141 1.213.105.367.263.682.473.944.22.262.498.467.834.614.335.136.745.205 1.227.205.389 0 .74-.037 1.055-.11.315-.074.561-.153.74-.237l.204 1.228a1.737 1.737 0 0 1-.362.157 5.234 5.234 0 0 1-.535.11 5.573 5.573 0 0 1-.645.095 4.57 4.57 0 0 1-.645.047zm5.082-8.357h3.101v1.227h-3.101v3.778c0 .41.032.75.094 1.023a1.6 1.6 0 0 0 .284.63c.126.146.283.251.472.314s.409.095.661.095c.441 0 .792-.047 1.055-.142.272-.105.461-.178.566-.22l.284 1.212c-.147.073-.404.162-.772.267a4.195 4.195 0 0 1-1.259.173c-.556 0-1.018-.068-1.385-.204a2.074 2.074 0 0 1-.866-.646 2.642 2.642 0 0 1-.472-1.038 7.434 7.434 0 0 1-.126-1.448v-7.303l1.464-.252V48.3zm12.527 4.06c0 .65-.094 1.239-.283 1.763a3.97 3.97 0 0 1-.803 1.354c-.336.378-.74.671-1.212.881-.472.2-.986.3-1.542.3s-1.071-.1-1.543-.3a3.666 3.666 0 0 1-1.227-.881 4.103 4.103 0 0 1-.787-1.354 5.175 5.175 0 0 1-.284-1.763c0-.64.095-1.222.284-1.747a4.09 4.09 0 0 1 .787-1.37 3.482 3.482 0 0 1 1.227-.865c.472-.21.987-.315 1.543-.315.556 0 1.07.105 1.542.315.472.2.876.488 1.212.866.346.378.614.834.803 1.37.189.524.283 1.106.283 1.746zm-1.527 0c0-.923-.209-1.652-.629-2.187-.409-.546-.971-.819-1.684-.819-.714 0-1.28.273-1.7.819-.409.535-.614 1.264-.614 2.187 0 .924.205 1.658.614 2.204.42.535.986.803 1.7.803.713 0 1.275-.268 1.684-.803.42-.546.629-1.28.629-2.204zm5.98-4.06c.126 0 .268.01.425.031.168.01.331.032.488.063.157.021.299.047.425.079.136.02.236.042.299.063l-.252 1.275a4.239 4.239 0 0 0-.582-.142c-.262-.063-.603-.094-1.023-.094a3.63 3.63 0 0 0-.819.094c-.262.053-.435.09-.519.11v6.878h-1.464V48.82a9.287 9.287 0 0 1 1.291-.346 7.925 7.925 0 0 1 1.731-.173zM98.441 72.63c0-.934.137-1.758.41-2.472.283-.713.66-1.306 1.133-1.778a4.738 4.738 0 0 1 1.668-1.086 5.707 5.707 0 0 1 2.031-.362c.703 0 1.364.12 1.983.362a4.59 4.59 0 0 1 1.653 1.086c.472.472.844 1.065 1.117 1.778.283.714.425 1.537.425 2.471 0 .934-.142 1.758-.425 2.471-.273.714-.645 1.312-1.117 1.795a4.695 4.695 0 0 1-1.653 1.07 5.411 5.411 0 0 1-1.983.362c-.714 0-1.391-.12-2.031-.362a4.848 4.848 0 0 1-1.668-1.07c-.472-.483-.85-1.081-1.133-1.794-.273-.714-.41-1.538-.41-2.472zm1.606 0c0 .66.084 1.264.252 1.81.168.535.404.991.708 1.369a3.31 3.31 0 0 0 1.133.881c.451.2.955.3 1.511.3.556 0 1.055-.1 1.495-.3.441-.21.814-.504 1.118-.881.315-.378.556-.834.724-1.37a6.132 6.132 0 0 0 .252-1.81c0-.66-.084-1.259-.252-1.794a3.946 3.946 0 0 0-.724-1.385 3.005 3.005 0 0 0-1.118-.866 3.432 3.432 0 0 0-1.495-.315 3.54 3.54 0 0 0-1.511.315c-.441.2-.818.488-1.133.866-.304.378-.54.84-.708 1.385a5.976 5.976 0 0 0-.252 1.794zm10.991-2.251c.336-.084.782-.173 1.338-.268a11.564 11.564 0 0 1 1.92-.141c.651 0 1.191.094 1.621.283a2.38 2.38 0 0 1 1.023.771c.263.326.446.719.551 1.18.105.462.158.971.158 1.528v4.595h-1.464v-4.28c0-.504-.037-.935-.11-1.291-.063-.357-.173-.646-.331-.866a1.29 1.29 0 0 0-.629-.472c-.263-.105-.588-.158-.976-.158a7.811 7.811 0 0 0-.976.063 4.432 4.432 0 0 0-.661.095v6.91h-1.464v-7.949zm11.275 7.948c-.903-.02-1.543-.215-1.921-.582-.377-.367-.566-.94-.566-1.716v-9.821l1.463-.252v9.837c0 .242.021.441.063.598a.825.825 0 0 0 .205.378.94.94 0 0 0 .378.22c.157.042.351.08.582.11l-.204 1.228zm4.065.001h-1.463v-8.185h1.463v8.184zm-.739-9.665a.984.984 0 0 1-.677-.251c-.178-.179-.268-.415-.268-.709s.09-.524.268-.692a.951.951 0 0 1 .677-.268.9.9 0 0 1 .661.268c.189.168.283.398.283.692 0 .294-.094.53-.283.709a.93.93 0 0 1-.661.251zm3.121 1.716c.336-.084.782-.173 1.338-.268a11.564 11.564 0 0 1 1.92-.141c.651 0 1.191.094 1.622.283.43.178.771.436 1.023.771.262.326.446.719.55 1.18.105.462.158.971.158 1.528v4.595h-1.464v-4.28c0-.504-.037-.935-.11-1.291-.063-.357-.173-.646-.331-.866a1.29 1.29 0 0 0-.629-.472c-.263-.105-.588-.158-.976-.158a7.836 7.836 0 0 0-.976.063 4.432 4.432 0 0 0-.661.095v6.91h-1.464v-7.949zm8.788 3.683c0-.724.105-1.354.315-1.89.21-.545.488-.996.834-1.353a3.387 3.387 0 0 1 1.196-.802 3.736 3.736 0 0 1 1.385-.268c1.102 0 1.947.346 2.534 1.039.588.682.882 1.726.882 3.132v.252c0 .094-.006.184-.016.267h-5.603c.063.85.309 1.496.739 1.936.431.441 1.102.661 2.015.661.514 0 .944-.041 1.291-.126.356-.094.624-.183.802-.267l.205 1.228c-.178.094-.493.194-.944.299a6.56 6.56 0 0 1-1.511.157c-.714 0-1.333-.105-1.858-.315a3.546 3.546 0 0 1-1.275-.897 3.74 3.74 0 0 1-.755-1.338 5.963 5.963 0 0 1-.236-1.715zm5.619-.803c.01-.661-.158-1.201-.504-1.621-.336-.43-.803-.646-1.401-.646a1.92 1.92 0 0 0-.897.205 2.02 2.02 0 0 0-.645.504c-.178.21-.32.45-.425.724-.094.273-.157.55-.189.834h4.061z" fill="#2E98FA"/></svg>