<svg width="184" height="124" viewBox="0 0 184 124" fill="none" xmlns="http://www.w3.org/2000/svg"><path d="M60.117 70.25c-3.375-1.93-6.985-3.165-10.047-3.86l-2.59-1.312 8.713-7.024c1.255-.463 2.433-1.003 3.532-1.466 4.003-1.852 6.436-2.238 6.436-2.238s.549-2.856-2.12-6.252c-1.57-2.238-3.689-2.856-3.689-2.856s-3.453 5.171-10.36 8.259c-5.102 2.392-11.616 1.93-15.07 1.157-6.043-1.389-6.907-.077-6.907-.077s1.648.309 2.12.386c2.354.617 1.726.772 9.104 3.165 1.177.386 2.276.694 3.375.849-1.962 1.62-4.003 3.318-5.102 4.167-.863.618-.157.85 0 .926.942.618 1.962 1.158 2.904 1.621-1.255.078-2.433.155-3.375.31-5.337.925-7.456 2.083-7.456 2.083s-.942 2.007.785 6.097c1.099 2.547 3.14 3.937 3.14 3.937s4.316-4.863 13.342-5.943c5.809-.695 12.794.617 16.719 2.546 5.73 2.856 5.572 1.776 5.572 1.776s-2.12-2.239-9.026-6.252z" fill="#E52A1D"/><path d="M82.254 67.575c0 .92-.328 1.647-.937 2.276-.61.63-1.36.97-2.203.97h-3.14l.046-16.23h3.14c.844 0 1.594.34 2.204.97.61.63.937 1.404.937 2.276l-.047 9.738zm-2.343.823V57.014c0-.194-.094-.388-.234-.581a.765.765 0 0 0-.563-.243h-.797v12.983h.797a.764.764 0 0 0 .563-.242c.14-.097.234-.29.234-.533zm10.217 2.422h-2.343v-5.668H86.19v5.668h-2.343V57.838c0-.92.328-1.648.937-2.277.61-.63 1.36-.97 2.203-.97.844 0 1.594.34 2.203.97.61.63.937 1.404.937 2.276V70.82zm-2.343-7.266v-6.492c0-.193-.094-.387-.234-.58a.764.764 0 0 0-.563-.243.765.765 0 0 0-.563.242.79.79 0 0 0-.234.533v6.491l1.594.049zm9.561-7.314h-1.968v14.63h-2.344V56.24h-1.968l.047-1.6h6.233v1.6zm7.218 11.383c0 .92-.328 1.696-.937 2.277-.609.63-1.359.92-2.25.92-.89 0-1.593-.339-2.203-.968-.609-.63-.89-1.405-.89-2.326V57.79c0-.92.328-1.647.937-2.277.61-.63 1.359-.92 2.25-.92.89 0 1.593.339 2.203.969.609.63.89 1.404.89 2.325v9.737zm-2.343.824V57.062a.818.818 0 0 0-.234-.58.767.767 0 0 0-.563-.243.763.763 0 0 0-.562.242.814.814 0 0 0-.235.581v11.385c0 .532.281.823.797.823.516-.048.797-.29.797-.823zm15.702-.824c0 .92-.328 1.647-.938 2.277-.609.63-1.359.97-2.203.97h-3.14l.047-16.23h3.14c.844 0 1.594.34 2.203.97.61.63.937 1.404.937 2.276v2.422c0 .97-.374 1.793-1.077 2.423.703.678 1.077 1.453 1.031 2.422v2.47zm-2.344-6.491v-4.07c0-.193-.094-.387-.234-.58a.765.765 0 0 0-.563-.243h-.796v5.668h.796c.188 0 .375-.097.563-.242.14-.097.234-.29.234-.533zm0 7.315v-4.07c0-.193-.094-.387-.234-.58a.765.765 0 0 0-.563-.243h-.796v5.716h.796a.765.765 0 0 0 .563-.242.818.818 0 0 0 .234-.58zm10.171 2.47h-2.344V65.25h-1.593v5.668h-2.344V57.935c0-.92.328-1.648.938-2.277.609-.63 1.359-.92 2.25-.92.843 0 1.593.338 2.202.968.61.63.938 1.405.938 2.277l-.047 12.934zm-2.297-7.315v-6.491c0-.194-.093-.387-.234-.581a.764.764 0 0 0-.562-.242.765.765 0 0 0-.563.242.814.814 0 0 0-.234.581v6.492h1.593zm9.562-7.315h-1.969v14.63h-2.343v-14.63h-1.969v-1.599h6.281v1.6zm7.218 11.385c0 .92-.328 1.696-.937 2.277-.609.63-1.359.92-2.25.92s-1.594-.339-2.203-.969c-.609-.63-.89-1.405-.89-2.325v-9.737c0-.92.328-1.647.937-2.277.609-.63 1.359-.92 2.25-.92.89 0 1.593.29 2.203.968.609.63.89 1.405.89 2.326v9.737zm-2.343.823V57.111a.814.814 0 0 0-.235-.581.763.763 0 0 0-.562-.242.767.767 0 0 0-.563.242.818.818 0 0 0-.234.581v11.384c0 .533.281.824.797.824.515 0 .797-.29.797-.824zm10.17 2.422h-2.343V57.111a.818.818 0 0 0-.234-.581.767.767 0 0 0-.563-.242.763.763 0 0 0-.562.242.814.814 0 0 0-.235.581v13.806h-2.343V57.935c0-.92.328-1.648.937-2.277.61-.63 1.36-.92 2.25-.92.891 0 1.594.338 2.203.968.609.63.89 1.405.89 2.325v12.886zm7.875-3.197c0 .92-.328 1.647-.937 2.277-.61.63-1.36.92-2.25.92-.891 0-1.594-.34-2.203-.969-.609-.63-.891-1.405-.891-2.325v-9.737c0-.92.328-1.647.938-2.277.609-.63 1.359-.92 2.25-.92.89 0 1.593.339 2.203.968.609.63.89 1.405.89 2.326v9.737zm-2.343.823V57.16a.814.814 0 0 0-.235-.581.762.762 0 0 0-.562-.242.765.765 0 0 0-.563.242.818.818 0 0 0-.234.581v11.384c0 .533.281.824.797.824.515-.049.797-.29.797-.824z" fill="#333"/></svg>