<svg width="184" height="124" viewBox="0 0 184 124" fill="none" xmlns="http://www.w3.org/2000/svg"><path d="M61.794 80.795c0-9.138-14.005-13.69-16.197-20.805l1.385.025c1.568.028 2.345-.493 2.345-.493 1.404-.875 2.491-.042 3.424.463l3.647 2.153c.264.189.63.143.84-.104l3.951-4.655a.625.625 0 0 0-.034-.847L51.14 46.502c-.1-.1-.552-.421-.68-.483l-3.516-1.596-.94-3.041-14.916 14.957a2.074 2.074 0 0 0-.605 1.464v22.992h11.67v-5.169l4.829-.001.027 5.17h14.785z" fill="url(#a)"/><path d="M39.474 80.795c.224-7.036-8.99-9.264-8.99-13.66v-9.593c0 9.581 21.493 11.975 21.493 23.253h-4.968l-.027-5.17-4.829.001 3.573.887v5.06l-3.573-.778v-5.169l-.232.001.019 5.168h-2.466z" fill="url(#b)"/><path d="M76.17 78.61l.818-.072c.038.328.128.597.268.809.143.208.363.378.66.51.299.127.634.191 1.006.191.331 0 .623-.049.876-.147.253-.099.44-.233.563-.402a.94.94 0 0 0 .188-.563.844.844 0 0 0-.18-.537c-.118-.155-.315-.284-.589-.388-.176-.069-.564-.175-1.166-.318-.602-.146-1.023-.282-1.264-.41-.313-.165-.547-.367-.702-.608a1.517 1.517 0 0 1-.228-.818c0-.33.094-.639.282-.925.187-.289.461-.508.822-.657a3.12 3.12 0 0 1 1.202-.223c.485 0 .913.079 1.282.237.372.154.658.384.858.688.2.303.307.648.322 1.032l-.831.063c-.045-.415-.197-.727-.456-.939-.257-.211-.636-.317-1.14-.317-.524 0-.906.097-1.148.29-.238.191-.357.422-.357.693 0 .235.085.429.254.58.167.153.602.309 1.305.47.706.158 1.19.296 1.452.415.381.176.663.4.845.67.181.269.272.579.272.93 0 .349-.1.678-.3.987a1.976 1.976 0 0 1-.862.72c-.372.17-.792.255-1.26.255-.592 0-1.09-.087-1.492-.26a2.105 2.105 0 0 1-.942-.777 2.233 2.233 0 0 1-.358-1.18zm8.065 2.104v-5.777h-2.158v-.773h5.192v.773H85.1v5.777h-.866zm3.94 0v-6.55h2.905c.583 0 1.027.06 1.331.178.304.116.547.323.728.621.182.298.273.627.273.988 0 .465-.15.856-.451 1.175-.301.319-.766.521-1.394.608.229.11.403.219.522.326.254.232.493.523.72.871l1.139 1.783h-1.09l-.867-1.363a12.407 12.407 0 0 0-.625-.902c-.164-.209-.312-.355-.443-.438a1.282 1.282 0 0 0-.393-.175 2.629 2.629 0 0 0-.482-.03h-1.006v2.908h-.867zm.867-3.66h1.864c.395 0 .705-.04.929-.12a1.014 1.014 0 0 0 .683-.984.973.973 0 0 0-.34-.763c-.223-.2-.577-.3-1.063-.3h-2.073v2.168zm5.013 3.66l2.516-6.55h.933l2.681 6.55h-.987l-.764-1.984h-2.74l-.718 1.984h-.92zm1.89-2.69h2.22l-.683-1.814a17.907 17.907 0 0 1-.464-1.358 8.35 8.35 0 0 1-.353 1.25l-.72 1.922zm5.92 2.69v-5.777h-2.158v-.773h5.192v.773h-2.167v5.777h-.867zm3.946 0v-6.55h4.735v.773h-3.869v2.006h3.624v.768h-3.624v2.23h4.021v.773h-4.887zm9.15-2.57v-.768l2.774-.004v2.43a4.94 4.94 0 0 1-1.318.769c-.453.17-.917.255-1.394.255a3.75 3.75 0 0 1-1.756-.411 2.747 2.747 0 0 1-1.188-1.198 3.765 3.765 0 0 1-.402-1.747c0-.637.132-1.232.397-1.783.268-.554.653-.965 1.153-1.233.5-.268 1.077-.402 1.729-.402.474 0 .901.077 1.282.232.385.152.686.365.903.64.218.273.383.63.496 1.072l-.782.214c-.098-.334-.22-.596-.366-.786a1.489 1.489 0 0 0-.626-.456 2.264 2.264 0 0 0-.902-.174 2.63 2.63 0 0 0-1.028.183 1.91 1.91 0 0 0-.701.473 2.283 2.283 0 0 0-.411.648 3.424 3.424 0 0 0-.251 1.319c0 .583.1 1.072.3 1.465.202.393.496.685.88.876.384.19.792.286 1.224.286a2.93 2.93 0 0 0 1.099-.215c.358-.146.629-.3.813-.464v-1.22h-1.925zm4.204 2.57v-6.55h.867v6.55h-.867zm2.417 0v-6.55h4.736v.773h-3.869v2.006h3.624v.768h-3.624v2.23h4.021v.773h-4.888zm5.791-2.105l.817-.071c.039.328.128.597.268.809.143.208.364.378.662.51a2.52 2.52 0 0 0 1.005.191c.331 0 .623-.049.876-.147.253-.099.441-.233.563-.402a.94.94 0 0 0 .187-.563.84.84 0 0 0-.179-.537c-.119-.155-.315-.284-.589-.388-.176-.069-.564-.175-1.166-.318-.602-.146-1.024-.282-1.265-.41-.313-.165-.546-.367-.701-.608a1.517 1.517 0 0 1-.228-.818c0-.33.094-.639.281-.925.188-.289.462-.508.822-.657a3.125 3.125 0 0 1 1.202-.223c.486 0 .913.079 1.283.237.372.154.658.384.857.688.2.303.307.648.322 1.032l-.831.063c-.044-.415-.196-.727-.456-.939-.256-.211-.636-.317-1.139-.317-.524 0-.907.097-1.148.29-.238.191-.358.422-.358.693 0 .235.085.429.255.58.167.153.602.309 1.305.47.706.158 1.19.296 1.452.415.381.176.663.4.844.67.182.269.273.579.273.93 0 .349-.1.678-.299.987a1.99 1.99 0 0 1-.863.72c-.372.17-.792.255-1.26.255-.593 0-1.09-.087-1.492-.26a2.11 2.11 0 0 1-.943-.777 2.237 2.237 0 0 1-.357-1.18zm8.909 2.105v-6.55h.867v5.777h3.226v.773h-4.093zm5.093 0v-6.55h.867v5.777h3.226v.773h-4.093zm9.803-2.297l.867.22c-.182.711-.51 1.255-.983 1.63-.471.373-1.047.559-1.729.559-.706 0-1.281-.143-1.725-.43-.441-.288-.777-.705-1.01-1.25a4.488 4.488 0 0 1-.344-1.756c0-.683.13-1.277.389-1.783a2.68 2.68 0 0 1 1.113-1.157 3.244 3.244 0 0 1 1.59-.398c.655 0 1.207.167 1.653.5.447.334.758.803.934 1.408l-.853.2c-.152-.476-.373-.823-.662-1.04-.289-.218-.652-.326-1.09-.326-.503 0-.925.12-1.264.361a1.915 1.915 0 0 0-.711.975 3.893 3.893 0 0 0-.205 1.255c0 .557.08 1.044.241 1.461.164.414.417.724.76.93a2.12 2.12 0 0 0 1.112.308c.486 0 .897-.14 1.233-.42.337-.28.565-.696.684-1.247zm-80.864-8.812a.704.704 0 0 1-.11.25.416.416 0 0 1-.198.14c-.09.03-.205.05-.346.058-.14.013-.32.02-.537.02-.244 0-.44-.007-.59-.02a1.3 1.3 0 0 1-.345-.058.376.376 0 0 1-.186-.14.809.809 0 0 1-.09-.25l-1.325-5.252h-.013l-1.255 5.252a.812.812 0 0 1-.09.243.376.376 0 0 1-.186.14 1.062 1.062 0 0 1-.339.065c-.14.013-.329.02-.563.02-.248 0-.447-.007-.596-.02a1.302 1.302 0 0 1-.346-.058.378.378 0 0 1-.185-.14.918.918 0 0 1-.097-.25l-1.882-7.23a2 2 0 0 1-.064-.36c-.004-.089.02-.157.07-.204a.455.455 0 0 1 .263-.083c.124-.013.294-.02.512-.02.2 0 .359.005.474.013.12.005.21.02.269.045.06.021.1.056.121.103a.65.65 0 0 1 .052.185l1.454 6.347h.006l1.511-6.302a.832.832 0 0 1 .064-.198.275.275 0 0 1 .14-.116.86.86 0 0 1 .276-.057 7.17 7.17 0 0 1 .948-.006.827.827 0 0 1 .282.057.273.273 0 0 1 .147.115.67.67 0 0 1 .07.205l1.563 6.302h.013l1.454-6.327a.74.74 0 0 1 .05-.173.216.216 0 0 1 .122-.116.71.71 0 0 1 .257-.057c.11-.013.266-.02.467-.02.188 0 .333.007.435.02.107.008.184.036.23.083.048.047.067.117.059.211a2.22 2.22 0 0 1-.064.372l-1.902 7.21zm10.45-3.81c0 .686-.085 1.301-.256 1.844a3.746 3.746 0 0 1-.762 1.383 3.324 3.324 0 0 1-1.255.864c-.495.197-1.07.295-1.722.295-.645 0-1.209-.083-1.691-.25a2.958 2.958 0 0 1-1.198-.775c-.32-.346-.56-.785-.723-1.319-.158-.534-.237-1.165-.237-1.896 0-.67.085-1.272.256-1.806.17-.537.425-.994.762-1.37a3.328 3.328 0 0 1 1.249-.864c.5-.201 1.078-.301 1.735-.301.628 0 1.18.083 1.659.25.482.166.883.422 1.204.768.324.346.568.783.73 1.313.166.525.25 1.146.25 1.863zm-1.767.089c0-.436-.034-.83-.103-1.185a2.49 2.49 0 0 0-.352-.916 1.613 1.613 0 0 0-.653-.589c-.273-.14-.614-.211-1.024-.211-.415 0-.76.079-1.038.237a1.88 1.88 0 0 0-.672.62 2.62 2.62 0 0 0-.365.917 5.664 5.664 0 0 0-.103 1.101c0 .453.034.86.103 1.223.068.359.183.666.345.922.163.257.38.453.654.59.273.132.617.198 1.03.198.415 0 .76-.076 1.038-.23.278-.154.502-.363.673-.628.17-.265.29-.572.358-.922.073-.354.109-.73.109-1.127zm10.643-.09c0 .687-.086 1.302-.256 1.845a3.746 3.746 0 0 1-.762 1.383 3.325 3.325 0 0 1-1.255.864c-.496.197-1.07.295-1.723.295-.645 0-1.208-.083-1.69-.25a2.96 2.96 0 0 1-1.198-.775c-.32-.346-.561-.785-.724-1.319-.158-.534-.237-1.165-.237-1.896 0-.67.086-1.272.256-1.806.171-.537.425-.994.763-1.37a3.328 3.328 0 0 1 1.248-.864c.5-.201 1.078-.301 1.736-.301.627 0 1.18.083 1.658.25a2.89 2.89 0 0 1 1.204.768c.325.346.568.783.73 1.313.167.525.25 1.146.25 1.863zm-1.768.09a6.3 6.3 0 0 0-.102-1.185 2.496 2.496 0 0 0-.352-.916 1.613 1.613 0 0 0-.653-.589c-.274-.14-.615-.211-1.025-.211-.414 0-.76.079-1.037.237-.278.154-.502.36-.673.62a2.62 2.62 0 0 0-.365.917 5.664 5.664 0 0 0-.102 1.101c0 .453.034.86.102 1.223.068.359.184.666.346.922.162.257.38.453.653.59.273.132.617.198 1.031.198.414 0 .76-.076 1.038-.23a1.86 1.86 0 0 0 .672-.628c.17-.265.29-.572.358-.922.073-.354.11-.73.11-1.127zm10.073-.115c0 .76-.1 1.41-.3 1.953-.197.538-.481.977-.852 1.319a3.457 3.457 0 0 1-1.358.756c-.53.158-1.161.237-1.895.237h-1.98a.54.54 0 0 1-.358-.122c-.094-.086-.14-.222-.14-.41v-7.224c0-.187.046-.322.14-.403a.528.528 0 0 1 .359-.128h2.126c.738 0 1.364.087 1.876.263.517.17.95.426 1.3.768.354.337.624.756.807 1.255.184.5.275 1.078.275 1.736zm-1.741.057c0-.393-.047-.757-.141-1.095a2.274 2.274 0 0 0-.442-.877c-.2-.248-.461-.44-.781-.577-.316-.14-.733-.211-1.249-.211h-.852v5.636h.877c.462 0 .85-.06 1.166-.18a1.94 1.94 0 0 0 .788-.538c.213-.243.371-.544.474-.903a4.44 4.44 0 0 0 .16-1.255zm8.043 3.548c0 .124-.007.229-.02.314a.68.68 0 0 1-.045.198.269.269 0 0 1-.083.116.172.172 0 0 1-.102.032h-4.163a.54.54 0 0 1-.358-.122c-.094-.086-.141-.222-.141-.41v-7.224c0-.187.047-.322.14-.403a.527.527 0 0 1 .36-.128h4.136a.17.17 0 0 1 .103.032.25.25 0 0 1 .076.115c.022.051.037.12.045.205.013.081.02.186.02.314 0 .12-.007.222-.02.307a.68.68 0 0 1-.045.199.31.31 0 0 1-.076.115.175.175 0 0 1-.103.032h-2.958v2.024h2.503c.039 0 .073.013.103.038a.224.224 0 0 1 .083.11.676.676 0 0 1 .045.198c.013.08.019.18.019.3 0 .124-.006.227-.019.308a.751.751 0 0 1-.045.199.223.223 0 0 1-.083.102.172.172 0 0 1-.103.032h-2.503v2.338h2.984a.15.15 0 0 1 .102.038.222.222 0 0 1 .083.109c.022.05.037.12.045.205.013.08.02.183.02.307zm8.324.07a.642.642 0 0 1-.051.263.532.532 0 0 1-.141.192.53.53 0 0 1-.205.115.877.877 0 0 1-.237.032h-.717a1.56 1.56 0 0 1-.391-.044.823.823 0 0 1-.3-.16 1.573 1.573 0 0 1-.263-.32 6.407 6.407 0 0 1-.288-.526l-2.062-3.874c-.12-.23-.242-.478-.365-.743a14.25 14.25 0 0 1-.333-.781h-.013a31.544 31.544 0 0 1 .051 1.863v4.336a.192.192 0 0 1-.038.115.264.264 0 0 1-.122.09 1.041 1.041 0 0 1-.23.05c-.099.013-.225.02-.378.02a3 3 0 0 1-.372-.02 1.041 1.041 0 0 1-.23-.05.255.255 0 0 1-.115-.09.21.21 0 0 1-.033-.115v-7.448c0-.2.058-.35.173-.448a.648.648 0 0 1 .436-.154h.903c.162 0 .298.015.41.045a.76.76 0 0 1 .294.134c.09.064.173.154.25.27.077.11.156.249.237.416l1.614 3.028c.094.184.185.365.275.545.094.175.183.352.269.531a48.138 48.138 0 0 1 .486 1.031h.007c-.013-.299-.023-.61-.032-.934a76.113 76.113 0 0 1-.007-.93v-3.886c0-.043.013-.081.039-.116a.308.308 0 0 1 .128-.09.788.788 0 0 1 .237-.05c.098-.013.224-.02.378-.02.145 0 .267.007.365.02a.641.641 0 0 1 .224.05.258.258 0 0 1 .115.09.216.216 0 0 1 .032.116v7.447zm11.251.359a.174.174 0 0 1-.044.115.276.276 0 0 1-.135.084 1.348 1.348 0 0 1-.256.05c-.107.013-.241.02-.403.02-.167 0-.306-.007-.417-.02a1.348 1.348 0 0 1-.256-.05.31.31 0 0 1-.134-.084.186.186 0 0 1-.039-.115v-3.35h-3.099v3.35a.186.186 0 0 1-.039.115.268.268 0 0 1-.134.084 1.41 1.41 0 0 1-.256.05 3.62 3.62 0 0 1-.41.02c-.162 0-.299-.007-.41-.02a1.364 1.364 0 0 1-.256-.05.32.32 0 0 1-.141-.084.185.185 0 0 1-.038-.115v-7.826c0-.042.012-.08.038-.115a.319.319 0 0 1 .141-.083 1.32 1.32 0 0 1 .256-.051c.111-.013.248-.02.41-.02.166 0 .303.007.41.02.106.012.192.03.256.05.064.022.109.05.134.084a.186.186 0 0 1 .039.115v3.042h3.099v-3.042c0-.042.013-.08.039-.115a.308.308 0 0 1 .134-.083 1.34 1.34 0 0 1 .256-.051c.111-.013.25-.02.417-.02.162 0 .296.007.403.02.107.012.192.03.256.05a.28.28 0 0 1 .135.084.174.174 0 0 1 .044.115v7.826zm9.26-4.009c0 .687-.085 1.302-.256 1.845a3.756 3.756 0 0 1-.762 1.383 3.324 3.324 0 0 1-1.255.864c-.495.197-1.07.295-1.723.295-.645 0-1.208-.083-1.69-.25a2.953 2.953 0 0 1-1.198-.775c-.32-.346-.561-.785-.723-1.319-.159-.534-.238-1.165-.238-1.896 0-.67.086-1.272.257-1.806.17-.537.424-.994.762-1.37a3.327 3.327 0 0 1 1.248-.864c.5-.201 1.078-.301 1.736-.301.627 0 1.18.083 1.658.25.483.166.884.422 1.204.768.325.346.568.783.73 1.313.167.525.25 1.146.25 1.863zm-1.767.09c0-.436-.034-.83-.103-1.185a2.475 2.475 0 0 0-.352-.916 1.611 1.611 0 0 0-.653-.589c-.273-.14-.615-.211-1.025-.211-.414 0-.76.079-1.037.237-.278.154-.502.36-.673.62a2.65 2.65 0 0 0-.365.917 5.704 5.704 0 0 0-.102 1.101c0 .453.034.86.102 1.223.069.359.184.666.346.922.163.257.38.453.653.59.274.132.617.198 1.031.198.415 0 .76-.076 1.038-.23.277-.154.501-.363.672-.628a2.61 2.61 0 0 0 .359-.922 5.65 5.65 0 0 0 .109-1.127zm9.336 3.932a.284.284 0 0 1-.025.121c-.018.03-.058.056-.122.077a1.197 1.197 0 0 1-.282.045 7.705 7.705 0 0 1-.506.013 5.41 5.41 0 0 1-.429-.013 1.102 1.102 0 0 1-.256-.045.306.306 0 0 1-.128-.09.543.543 0 0 1-.064-.134l-.743-1.85a7.7 7.7 0 0 0-.263-.558 1.643 1.643 0 0 0-.288-.403.993.993 0 0 0-.358-.25 1.255 1.255 0 0 0-.474-.083h-.525v3.157a.17.17 0 0 1-.045.115.271.271 0 0 1-.135.084 1.348 1.348 0 0 1-.256.05 3.48 3.48 0 0 1-.41.02c-.162 0-.298-.007-.409-.02a1.36 1.36 0 0 1-.257-.05.272.272 0 0 1-.134-.084.185.185 0 0 1-.038-.115v-7.525c0-.187.047-.322.141-.403a.525.525 0 0 1 .358-.128h2.145a7.662 7.662 0 0 1 .922.045c.333.047.632.128.897.243.269.115.495.267.679.455.187.183.331.403.429.66.098.251.147.542.147.87 0 .278-.036.532-.109.762a1.905 1.905 0 0 1-.307.609 2.06 2.06 0 0 1-.506.467c-.201.133-.429.24-.685.32a1.81 1.81 0 0 1 .653.532c.098.12.19.258.275.416.086.154.169.33.25.525l.698 1.633c.064.162.107.282.128.359.021.073.032.13.032.173zm-2.171-5.623c0-.273-.062-.504-.185-.691-.124-.188-.327-.32-.609-.397a2.238 2.238 0 0 0-.294-.052 3.986 3.986 0 0 0-.449-.019h-.755v2.35h.858c.239 0 .448-.027.627-.083.18-.06.329-.14.449-.243a1.03 1.03 0 0 0 .269-.378 1.28 1.28 0 0 0 .089-.487zm8.197 3.356c0 .435-.081.818-.243 1.146a2.41 2.41 0 0 1-.66.826 2.893 2.893 0 0 1-.974.493 4.13 4.13 0 0 1-1.19.167c-.286 0-.553-.023-.801-.07a4.89 4.89 0 0 1-.647-.167 3.168 3.168 0 0 1-.474-.212 1.375 1.375 0 0 1-.268-.192.487.487 0 0 1-.122-.237 2.407 2.407 0 0 1-.032-.454c0-.133.004-.244.013-.333a1.1 1.1 0 0 1 .038-.218.242.242 0 0 1 .077-.115.187.187 0 0 1 .115-.039c.06 0 .143.037.25.11.111.068.252.144.423.23.17.085.373.164.608.237.239.068.514.102.826.102.205 0 .388-.023.551-.07.162-.051.298-.122.41-.212.115-.09.202-.2.262-.332.06-.133.09-.28.09-.442a.758.758 0 0 0-.154-.48 1.438 1.438 0 0 0-.403-.36 3.624 3.624 0 0 0-.557-.294 72.58 72.58 0 0 1-.647-.294 6.218 6.218 0 0 1-.647-.346 2.854 2.854 0 0 1-.564-.468 2.306 2.306 0 0 1-.397-.647 2.333 2.333 0 0 1-.153-.89c0-.397.072-.745.217-1.044a2.16 2.16 0 0 1 .596-.749c.252-.2.546-.35.884-.448a3.893 3.893 0 0 1 1.082-.147 4.055 4.055 0 0 1 1.14.166c.171.051.322.109.454.173.133.064.22.117.263.16a.382.382 0 0 1 .122.23.971.971 0 0 1 .025.186c.004.073.007.165.007.276 0 .123-.005.228-.013.314a.875.875 0 0 1-.032.211.223.223 0 0 1-.064.122.149.149 0 0 1-.109.038.534.534 0 0 1-.224-.09 4.433 4.433 0 0 0-.378-.192 3.178 3.178 0 0 0-.519-.192 2.211 2.211 0 0 0-.647-.09c-.183 0-.343.024-.48.07a.966.966 0 0 0-.346.187.759.759 0 0 0-.204.281.968.968 0 0 0-.065.352c0 .184.049.344.148.48.102.133.237.253.403.36.171.102.363.2.577.294.213.09.431.186.653.288.222.103.439.22.653.352.213.129.403.284.57.468a2.12 2.12 0 0 1 .557 1.505zm6.199 1.825c0 .124-.007.229-.02.314a.717.717 0 0 1-.044.198.279.279 0 0 1-.084.116.172.172 0 0 1-.102.032h-4.163a.54.54 0 0 1-.358-.122c-.094-.086-.141-.222-.141-.41v-7.224c0-.187.047-.322.141-.403a.527.527 0 0 1 .358-.128h4.137c.039 0 .073.01.103.032a.25.25 0 0 1 .077.115c.021.051.036.12.044.205.013.081.019.186.019.314 0 .12-.006.222-.019.307a.717.717 0 0 1-.044.199.31.31 0 0 1-.077.115.173.173 0 0 1-.103.032h-2.958v2.024h2.504c.038 0 .072.013.102.038a.224.224 0 0 1 .083.11.617.617 0 0 1 .045.198c.013.08.019.18.019.3 0 .124-.006.227-.019.308a.68.68 0 0 1-.045.199.223.223 0 0 1-.083.102.17.17 0 0 1-.102.032h-2.504v2.338h2.984a.15.15 0 0 1 .102.038.229.229 0 0 1 .084.109.73.73 0 0 1 .044.205c.013.08.02.183.02.307z" fill="#362510"/><defs><linearGradient id="a" x1="31.936" y1="82.299" x2="59.931" y2="55.266" gradientUnits="userSpaceOnUse"><stop stop-color="#362510"/><stop offset=".155" stop-color="#181100"/><stop offset=".47" stop-color="#362510"/><stop offset="1" stop-color="#362510"/></linearGradient><linearGradient id="b" x1="30.483" y1="69.558" x2="51.977" y2="69.558" gradientUnits="userSpaceOnUse"><stop stop-color="#2287BA"/><stop offset=".217" stop-color="#2A576E"/><stop offset="1" stop-color="#2A576E"/></linearGradient></defs></svg>