<svg width="184" height="124" viewBox="0 0 184 124" fill="none" xmlns="http://www.w3.org/2000/svg"><g clip-path="url(#a)"><path d="M91.872 64.863c-.235 0-.363.127-.47.234-1.066 1.06-2.026 1.42-3.477 1.42-2.517 0-4.416-2.014-4.416-4.645 0-2.609 1.92-4.645 4.416-4.645 1.323 0 2.262.467 3.35 1.315.128.127.362.233.469.233.363 0 .725-.36.725-.72 0-.128-.128-.361-.234-.595-.96-.827-2.155-1.654-4.31-1.654-3.35 0-5.866 2.609-5.866 6.066V62c0 3.457 2.517 6.066 5.866 6.066 1.792 0 3.115-.466 4.416-1.782.128-.127.235-.36.235-.466 0-.594-.363-.955-.704-.955zm6.208-9.036c-.363 0-.725.36-.725.721v10.33c0 .361.362.722.725.722.362 0 .725-.36.725-.721V56.527c0-.34-.363-.7-.725-.7zm11.243 5.345l4.074-4.051c.235-.234.235-.361.235-.467 0-.36-.363-.721-.725-.721-.235 0-.363.127-.47.233l-6.592 6.682v-6.173c0-.36-.362-.721-.725-.721s-.725.233-.725.721v10.352c0 .36.362.72.725.72s.725-.36.725-.72V64.65l2.518-2.503 4.309 5.24c.128.233.363.233.597.233.363 0 .726-.361.726-.722 0-.233-.128-.36-.235-.466l-4.437-5.261zm16.725 5.112h-5.973v-9.757c0-.36-.363-.721-.726-.721-.362 0-.725.36-.725.72v10.352c0 .361.363.722.725.722h6.699c.363 0 .725-.361.725-.722 0-.339-.362-.594-.725-.594zm13.034-10.457c-.362 0-.725.36-.725.721v6.173c0 2.376-1.195 3.691-3.477 3.691-2.155 0-3.478-1.421-3.478-3.797v-6.067c0-.36-.362-.72-.725-.72s-.725.36-.725.72v6.173c0 3.097 1.92 5.112 4.906 5.112 2.987 0 4.907-2.015 4.907-5.24v-6.066c.043-.34-.32-.7-.683-.7zm16.15.127c-.363 0-.597.128-.725.361l-4.075 5.94-4.181-6.067c-.128-.128-.235-.36-.598-.36h-.106c-.363 0-.726.36-.726.72v10.33c0 .361.363.722.726.722.362 0 .725-.36.725-.721v-8.21l3.477 5.113c.128.233.363.36.598.36a.684.684 0 0 0 .597-.36l3.477-5.112v8.315c0 .36.363.72.726.72.362 0 .725-.36.725-.72V56.633c.192-.445-.171-.679-.64-.679z" fill="#000"/><path d="M48.822 82.703c11.558 0 20.927-9.316 20.927-20.809 0-11.492-9.37-20.809-20.927-20.809-11.559 0-20.928 9.316-20.928 20.81 0 11.492 9.37 20.808 20.928 20.808z" fill="#F0F0F0"/><path d="M49.291 71.397c-5.141.36-9.685-3.564-10.048-8.803-.363-4.518 2.517-8.443 6.57-9.758L44.64 49.06c-5.866 1.782-9.92 7.488-9.45 13.916.47 7.36 6.933 13.066 14.336 12.472 1.066-.127 2.026-.233 2.986-.593l-1.194-3.797c-.576.106-1.302.233-2.027.339z" fill="#00AAF0"/><path d="M42.358 68.194c3.477 3.457 9.088 3.457 12.437 0l-2.027-2.143c-2.261 2.249-5.973 2.249-8.256 0-2.282-2.248-2.261-6.066 0-8.315l-2.026-2.142c-3.584 3.457-3.584 9.142-.128 12.6z" fill="#50468C"/><path d="M58.507 71.885c-5.376 5.473-14.23 5.473-19.734 0-2.752-2.736-4.074-6.3-4.074-9.99 0-3.564 1.322-7.128 4.074-9.992 5.376-5.472 14.23-5.472 19.734 0l4.075-4.051c-7.766-7.848-19.969-7.955-27.862 0-3.947 3.945-5.739 9.058-5.739 14.17s1.92 10.224 5.74 14.02c7.658 7.722 20.202 7.722 27.86 0l-4.074-4.157z" fill="#F06428"/></g><defs><clipPath id="a"><path fill="#fff" transform="translate(28 41)" d="M0 0h128v42H0z"/></clipPath></defs></svg>