<svg width="184" height="124" viewBox="0 0 184 124" fill="none" xmlns="http://www.w3.org/2000/svg"><path d="M71.854 56.798v-6.314h1.77v6.095c0 1.188.549 2.063 1.922 2.063 1.282 0 1.922-.688 1.922-2.063v-6.095h1.77v6.189c0 2.281-1.495 3.594-3.692 3.594s-3.692-1.157-3.692-3.47zm9.002-3.595h1.556v.844h.03a2.3 2.3 0 0 1 1.923-1c1.526 0 2.35.969 2.35 2.625v4.439h-1.618V56.11c0-1.031-.427-1.594-1.25-1.594-.886 0-1.405.563-1.405 1.719v3.876h-1.617l.03-6.908zm7.537-2.813h1.617v1.75h-1.618v-1.75zm0 2.813h1.617v6.908h-1.618v-6.908zm3.57 5.282v-3.969h-.915v-1.313h.915V51.11h1.617v2.094h1.465v1.313H93.58v3.594c0 .5.275.657.64.657.337 0 .52 0 .825-.063v1.407c-.367.093-.946.125-1.19.125-1.038-.032-1.892-.532-1.892-1.75zm3.845-1.031V56.11c0-1.938 1.434-3.032 3.112-3.032 1.465 0 2.899.875 2.899 2.72v1.343h-4.333v.375c0 .876.702 1.407 1.556 1.407.55 0 1.099-.375 1.465-.875l1.251.719c-.519 1.094-1.587 1.531-2.777 1.531-1.678-.031-3.173-.969-3.173-2.844zm4.424-1.469v-.188c0-.937-.64-1.312-1.312-1.312-.67 0-1.434.375-1.434 1.406v.094h2.746zm2.716 1.563V55.86c0-1.875 1.282-2.813 2.777-2.813.763 0 1.373.375 1.709.844h.03v-3.438h1.617v9.626h-1.556v-.781c-.366.531-1.281.938-1.891.938-1.496.03-2.686-.907-2.686-2.688zm4.547-.063v-1.719c0-.844-.672-1.344-1.495-1.344-.672 0-1.404.375-1.404 1.375v1.72c0 .843.641 1.312 1.465 1.312.671.031 1.434-.344 1.434-1.344zm6.743-7h1.709l4.089 6.563h.031v-6.564h1.678v9.627h-1.709l-4.089-6.564h-.03v6.564h-1.679v-9.627zm8.88 7.657c0-1.344 1.19-2.126 2.503-2.126h1.8v-.625c0-.719-.488-1.031-1.282-1.031-.702 0-1.22.25-1.22.687v.25h-1.465v-.187c0-1.5 1.404-2.032 2.685-2.032 1.496 0 2.899.5 2.899 2.188v3.376c0 .312.03 1.344.122 1.5h-1.587c-.03-.094-.061-.532-.061-.625h-.03c-.61.625-1.099.781-1.984.781-1.434-.062-2.38-.844-2.38-2.156zm4.303-.594v-.344h-1.587c-.671 0-1.129.25-1.129.844s.458.875 1.22.875c1.282.031 1.496-.625 1.496-1.375zm3.509.937v-3.969h-.915v-1.313h.915V51.11h1.617v2.094h1.465v1.313h-1.465v3.594c0 .5.275.657.641.657.336 0 .519 0 .824-.063v1.407c-.366.093-.946.125-1.19.125-1.068-.032-1.892-.532-1.892-1.75zm4.15-8.095h1.617v1.75h-1.617v-1.75zm0 2.813h1.617v6.908h-1.617v-6.908zm3.021 4.345v-1.594c0-1.876 1.556-2.907 3.051-2.907 1.648 0 3.113 1.094 3.113 2.876v1.406c0 1.875-1.557 2.907-3.052 2.907-1.648.03-3.112-.907-3.112-2.688zm4.516-.032v-1.719c0-.843-.641-1.312-1.465-1.312-.671 0-1.403.375-1.403 1.375v1.719c0 .844.641 1.344 1.464 1.344.672-.031 1.404-.406 1.404-1.407zm3.051-4.313h1.557v.844h.03c.458-.656 1.16-1 1.923-1 1.525 0 2.349.969 2.349 2.625v4.439h-1.617V56.11c0-1.031-.427-1.594-1.251-1.594-.885 0-1.404.563-1.404 1.719v3.876h-1.617l.03-6.908zm7.11 5.72l1.129-.875a2.313 2.313 0 0 0 1.862.906c.671 0 1.342-.219 1.342-.844 0-.531-.366-.656-1.251-.812l-.884-.157c-1.099-.218-1.831-.75-1.831-1.812 0-1.438 1.251-2.282 2.685-2.282 1.22 0 2.075.313 2.655 1.125l-1.16.813c-.397-.469-.854-.688-1.495-.688-.641 0-1.099.25-1.099.782 0 .5.58.562 1.282.687l1.007.219c1.159.219 1.8.875 1.8 1.938 0 1.594-1.586 2.344-2.99 2.344-1.251 0-2.381-.344-3.052-1.344zM71.854 71.55v-3.438c0-1.97 1.465-3.376 3.51-3.376 1.89 0 3.295 1.126 3.295 2.75v.532h-.794v-.375c0-1.313-.976-2.125-2.532-2.125-1.526 0-2.625 1.031-2.625 2.594v3.313c0 1.563 1.099 2.563 2.685 2.563 1.556 0 2.533-.844 2.533-2.157v-1.375h-2.624v-.75h3.418v2.25c0 1.72-1.313 2.782-3.327 2.782-1.983 0-3.54-1.094-3.54-3.188zm8.757 1.406v-8.032h.794v8.095c0 .531.274.938.946.938.274 0 .519-.032.732-.063v.594a3.487 3.487 0 0 1-.976.125c-1.16 0-1.496-.813-1.496-1.657zm3.449-.812V70.33c0-1.75 1.16-2.657 2.654-2.657 1.618 0 2.655.938 2.655 2.657v1.75c0 1.75-1.129 2.657-2.624 2.657-1.617 0-2.685-.875-2.685-2.594zm4.546-.063v-1.813c0-1.094-.58-1.906-1.892-1.906-1.25 0-1.892.75-1.892 1.969v1.813c0 1.156.61 1.938 1.923 1.938 1.25-.032 1.861-.72 1.861-2zm3.204 1.282h-.03v1.187h-.732v-9.626h.762v4.094h.03a2.296 2.296 0 0 1 2.106-1.375c1.374 0 2.32.906 2.32 2.313v2.188c0 1.813-1.221 2.563-2.472 2.563-.824.03-1.71-.47-1.984-1.344zm3.693-1.094v-2.282c0-.938-.672-1.625-1.77-1.625-.916 0-1.923.844-1.923 2.25v1.344c0 1.313.885 2.126 1.923 2.126.854-.032 1.77-.594 1.77-1.813zm2.075.5c0-1.5 1.342-2 2.441-2h1.922v-1.032c0-1.063-.671-1.406-1.678-1.406-.824 0-1.678.28-1.678 1.187v.188h-.702v-.219c0-1.344 1.22-1.844 2.441-1.844 1.282 0 2.411.469 2.411 1.938v3.282c0 .375.06 1.375.091 1.687h-.763c-.03-.218-.061-.875-.061-1.062h-.03c-.55 1.031-1.435 1.219-2.228 1.219-1.19 0-2.166-.688-2.166-1.938zm4.394-.657v-.75h-1.77c-.885 0-1.831.22-1.831 1.376 0 .906.763 1.344 1.587 1.344 1.342 0 2.014-.813 2.014-1.97zm2.654.844v-8.032h.763v8.095c0 .531.305.938.946.938.275 0 .519-.032.732-.063v.594a3.481 3.481 0 0 1-.976.125c-1.129 0-1.465-.813-1.465-1.657zm6.805-1.406v-3.438c0-1.97 1.465-3.376 3.509-3.376 1.892 0 3.296 1.157 3.296 2.782v.531h-.793v-.406c0-1.313-.977-2.157-2.533-2.157-1.526 0-2.624 1.032-2.624 2.595v3.313c0 1.562 1.098 2.563 2.715 2.563 1.557 0 2.442-.876 2.442-2.188v-.188h.793v.375c0 1.72-1.373 2.782-3.265 2.782-1.984 0-3.54-1.094-3.54-3.188zm8.178.594V70.33c0-1.75 1.16-2.657 2.655-2.657 1.617 0 2.655.938 2.655 2.657v1.75c0 1.75-1.129 2.657-2.625 2.657-1.617 0-2.685-.875-2.685-2.594zm4.547-.063v-1.813c0-1.094-.61-1.906-1.892-1.906-1.251 0-1.892.75-1.892 1.969v1.813c0 1.156.61 1.938 1.922 1.938 1.221-.032 1.862-.72 1.862-2zm2.41-4.25h.733v1.281h.03c.458-.969 1.343-1.438 2.289-1.438 1.068 0 1.678.688 1.861 1.47.488-.97 1.373-1.47 2.319-1.47 1.282 0 2.045.844 2.045 2.063v4.845h-.763v-4.439c0-1.219-.58-1.781-1.526-1.781-1.007 0-1.953.875-1.983 2.063v4.125h-.763v-4.438c-.03-1.156-.549-1.75-1.495-1.75-.916 0-1.984.781-1.984 2.094v4.094h-.763v-6.72zm11.26 0h.733v1.187h.03a2.4 2.4 0 0 1 2.136-1.375c1.373 0 2.319.875 2.319 2.282v2.219c0 1.813-1.22 2.563-2.441 2.563-.854 0-1.709-.5-1.983-1.376h-.031v3.813h-.763v-9.313zm4.425 4.438v-2.25c0-.938-.672-1.657-1.77-1.657-.916 0-1.922.813-1.922 2.219v1.375c0 1.313.885 2.126 1.922 2.126.885-.032 1.77-.594 1.77-1.813zm2.105.5c0-1.5 1.374-2 2.441-2h1.923v-1.032c0-1.063-.671-1.406-1.678-1.406-.824 0-1.679.28-1.679 1.187v.188h-.701v-.219c0-1.344 1.22-1.844 2.441-1.844 1.281 0 2.41.469 2.41 1.938v3.282c0 .375.061 1.375.092 1.687h-.763a12.953 12.953 0 0 1-.061-1.062h-.031c-.549 1.031-1.434 1.219-2.227 1.219-1.19 0-2.167-.688-2.167-1.938zm4.364-.657v-.75h-1.77c-.885 0-1.831.22-1.831 1.376 0 .906.763 1.344 1.587 1.344 1.343 0 2.014-.813 2.014-1.97zm2.319-.093v-1.563c0-1.75 1.038-2.782 2.624-2.782 1.557 0 2.502.875 2.502 2.22v.218h-.762v-.281c0-.688-.489-1.5-1.74-1.5-1.22 0-1.83.875-1.83 2.063v1.625c0 1.187.549 2 1.83 2 1.251 0 1.74-.813 1.74-1.5V72.3h.762v.188c0 1.344-.945 2.219-2.502 2.219-1.617.03-2.624-.938-2.624-2.688zm7.14 1.187v-4.72h-1.22v-.655h1.22v-2.126h.763v2.126h1.953v.656h-1.953v4.5c0 .72.366.97 1.038.97a3.75 3.75 0 0 0 1.007-.157v.688a5.024 5.024 0 0 1-1.221.187c-.824 0-1.587-.312-1.587-1.469zM50.463 64.017c-.091-.062-.122-.406-.122-.406-.214-1.781-.671-3.563-1.312-5.313-.03-.094-.061-.156-.061-.219 0-.094.06-.156.244-.281.885-.438 1.587-.938 2.136-1.5.092-.094.153-.126.183-.126s.092.032.153.157c.793 1.406 1.373 2.969 1.77 4.594.03.188.06.313.06.438 0 .25-.091.375-.274.594-.519.531-1.465 1.312-2.441 1.938 0 .03-.244.187-.336.124zm-.824 2.032s0-.313-.091-.375c-.092-.063-.336.031-.336.031-1.709.625-3.57.938-5.523 1-.366.032-.366.125-.366.407-.03 1.781-.061 3.438-.092 4.938 0 0 0 .156.03.219.062.062.184.031.184.031a16.846 16.846 0 0 0 5.492-1.281c.245-.094.306-.25.367-.563.457-1.875.335-4.407.335-4.407zm-.763-9.095c.763-.406 1.465-.938 1.923-1.407a.386.386 0 0 0 .122-.28c0-.095-.061-.22-.153-.376-1.037-1.469-2.258-2.657-3.6-3.532-.367.25-.977.5-1.618.688a22.158 22.158 0 0 1 2.869 4.688c.091.188.122.281.183.281.091.063.183 0 .274-.062zm-1.342.594c.091-.032.152-.063.183-.157.03-.093-.061-.28-.061-.28-.763-1.876-1.678-3.626-2.655-4.97-.519.093-1.556.156-1.892.156.061 1.906.092 3.813.122 5.626 0 .156.03.25.092.312.03.032.122.063.213.063 1.251.031 2.99-.344 3.998-.75zm1.312 14.377c0-.031-.03-.031-.03-.031-.031 0-.092.03-.245.062-2.136.688-3.997.875-5.187.875-.183 0-.214.063-.214.25l-.091 1.626s2.41.062 4.851-1c.336-.47.641-1 .855-1.594.03-.094.06-.157.06-.188zm5.004-9.002c0-.03-.03 0-.03 0-.58.563-1.618 1.376-2.838 2-.397.22-.458.376-.458.72.03 2-.214 3.563-.64 4.876 0 0-.031.093.09.03.123-.062 1.893-.937 3.113-2.187.428-.406.733-1.031.794-1.688.244-2.25-.03-3.75-.03-3.75zm.61-2.594c.824-1.437.824-2.625.824-2.625v-.188c-.366-1.656-1.22-3.219-2.502-4.657.03.125.03.282.03.407 0 .5-.121 1.031-.335 1.563-.091.187-.122.312-.122.406 0 .094.061.156.092.281-.031.031 1.25 1.844 2.014 4.813zm-18.583 4.126c.122-2.032.671-4.188 1.434-6.22a.32.32 0 0 1 .03-.093c0-.063-.03-.094-.152-.157-1.25-.562-2.227-1.344-2.838-2.156 0 0-.03-.063 0-.094s.092 0 .092 0c.702.719 1.77 1.313 2.96 1.75a.226.226 0 0 0 .122.031c.061 0 .091-.03.183-.218.824-1.938 1.892-3.75 3.082-5.251-1.007-.25-2.044-.813-2.289-1.407 0 0-.03-.062 0-.093.061-.032.092.03.092.03 1.129 1.251 4.394 1.157 4.394 1.157 1.373 0 4.211-.5 4.211-1.656 0-1.063-1.495-1.626-4.242-1.657-8.269 0-12.694 7.314-12.694 13.127 0 7.001 5.829 13.127 12.542 13.127 0-.125-.092-1.656-.092-1.656 0-.156-.06-.219-.244-.25 0 0-2.93-.219-3.906-.719-.03-.031 0-.063.03-.063 0 0 1.984.344 3.846.344 0 0 .213 0 .213-.219 0-.218-.091-4.969-.091-4.969 0-.375-.061-.406-.397-.438-2.044-.093-4.028-.531-5.767-1.281-.061-.031-.061-.031-.092 0-.03.031-.03.094-.03.094a26.989 26.989 0 0 0 .091 4.344c0 .031 0 .063-.03.063s-.061-.032-.061-.032c-.305-1.187-.458-2.469-.458-3.844v-.656c0-.157-.06-.25-.183-.313-.824-.406-1.556-.938-2.197-1.469 0 0-.061-.031 0-.094.03-.03.061 0 .061 0 .671.438 1.434.813 2.228 1.157h.091c.061-.063.061-.125.061-.219zm15.837-10.314c.214-.594.275-1.407.03-1.97-.213-.562-.945-1.093-.945-1.093-1.099-.875-2.32-1.407-2.9-1.657.092.188.153.376.153.563 0 .344-.152.688-.427 1.031a13.88 13.88 0 0 1 3.693 3.126s.183.219.274.219c.061-.032.122-.22.122-.22zm3.113 9.689c0 .906-.092 1.781-.244 2.625.701-1.25 1.281-3.063 1.281-5.188 0-.594-.06-1.219-.152-1.844a6.112 6.112 0 0 1-.672 1.844c-.244.375-.305.656-.305.938.092.844.092 1.625.092 1.625zm-5.523 8.22a7.363 7.363 0 0 1-.794 1.344c1.526-.781 3.265-2.282 4.425-3.844a13.092 13.092 0 0 1-3.113 1.906c-.213.094-.427.375-.519.594zM42.59 59.517c0-.282-.122-.407-.366-.438-1.495-.062-2.96-.344-4.21-.812-.062-.032-.123-.032-.153-.032s-.061.032-.122.125c-1.19 3.032-1.435 6.314-1.435 6.314 0 .156.03.187.122.219 0 0 2.503.969 5.707.969 0 0 .213 0 .274-.063.092-.094.092-.156.092-.406.06-1.594.091-5.876.091-5.876zm-4.485-2.094c-.092.187-.03.218-.03.218l.06.063c.977.313 2.808.625 4.12.625.152 0 .213-.031.274-.062.061-.063.092-.157.092-.344.03-1.844.091-3.75.183-5.595-.55 0-1.22-.094-1.709-.219-1.19 1.594-2.166 3.376-2.99 5.314zm5.462 8.47c.885-.063 3.173-.219 5.492-1.125.306-.125.397-.282.397-.532v-.187a29.15 29.15 0 0 0-1.251-5.439c-.092-.25-.122-.28-.183-.28-.03 0-.092 0-.183.062a13.808 13.808 0 0 1-4.18.718c-.275 0-.367.22-.367.407 0 .937.03 2.406.03 4.407v1.656s0 .157.062.219c.03.063.091.094.183.094zm-19.53 4.594c.977 2.657 3.388 2.876 5.035 4.5.306.314.61.595.946.782l.03-.031c-.365-.406-.823-.875-1.067-1.406-.946-1.626-.61-3.876-1.343-5.595.641.938 1.22 1.938 1.648 3 .58 1.75.793 3.72 2.166 5.032-1.464-.593-3.173-.468-4.455-1.5-1.403-1.094-2.715-2.813-2.96-4.782zm13.58 7.658c.213 0 .366-.063.366-.063-1.282-.281-2.32-.531-3.418-1.438-1.434-1.219-2.533-2.469-4.089-3.469.183.125 1.099 2 1.861 3.157.52.781 1.374 1.25 2.106 1.438.64.156.763.218.763.218s-.092.063-.336 0c0 0-2.105-.437-3.234-.437-4.517 0-5.707-1.782-5.707-1.782 1.343 2.5 4.09 3.407 5.92 3.407 2.594-.031 4.516-1.031 5.767-1.031zm16.6 1c1.8 0 4.577-.938 5.92-3.407 0 0-1.16 1.782-5.707 1.782-1.13 0-3.235.437-3.235.437-.244.063-.335 0-.335 0s.122-.062.793-.219c.733-.187 1.587-.625 2.106-1.437.763-1.126 1.647-3.032 1.861-3.157-1.587 1-2.685 2.25-4.089 3.47-1.098.937-2.166 1.156-3.418 1.437 0 0 .153.062.367.062 1.22.032 3.173 1.032 5.736 1.032zm-28.074-7.408c.427.376 1.343 1.25 1.526 1.5 0 0-.092-.343-.214-.78-.091-.438-.244-1.5-.671-2.407-.336-.72-1.709-3.063-1.984-4.345 0-.031-.976 4.032 1.343 6.032zm28.531 5.064c1.465-.594 3.143-.47 4.455-1.5 1.373-1.094 2.655-2.814 2.93-4.782-.977 2.656-3.418 2.875-5.035 4.5-.305.313-.61.594-.946.782l-.03-.032c.365-.406.823-.875 1.067-1.406.946-1.625.61-3.876 1.343-5.595-.64.938-1.251 1.938-1.617 3-.61 1.75-.824 3.72-2.167 5.033zm-3.6 2.938c-2.259-.938-4.608-2.126-7.294-1.563-.305.062-.549.125-.824.125-.274 0-.518-.063-.823-.125-2.716-.563-5.066.625-7.324 1.563-1.678.625-3.875.531-5.37-.438.732.875 1.708 1.407 2.715 1.782 1.892.719 4.12.218 5.676-.813 1.343-.719 2.472-2.125 4.242-1.594a16.68 16.68 0 0 0-4.883 3.344l.916.72s1.739-2.376 4.852-3.814c3.081 1.406 4.82 3.813 4.82 3.813l.916-.719c-1.465-1.438-3.112-2.563-4.913-3.344 1.77-.531 2.9.875 4.242 1.594 1.556 1.031 3.784 1.532 5.676.813 1.007-.375 1.983-.907 2.715-1.782-1.464.969-3.661 1.063-5.34.438zm8.88-8.002c2.318-2.031 1.342-6.063 1.342-6.063-.275 1.281-1.648 3.625-1.984 4.344-.427.907-.58 2-.671 2.407-.092.438-.214.781-.214.781.153-.218 1.068-1.062 1.526-1.469zm-36.588-11.47l2.045.187c.549.063.823-.156.885-.687.03-.25 0-.438-.092-.594-.122-.219-.305-.313-.671-.344-.672-.062-1.312-.156-1.984-.219-.06.157-.152.282-.213.438h-.153c.061-.438.092-.875.153-1.313.06 0 .091 0 .152.032.03.156.092.312.122.468.641.063 1.251.157 1.892.22.488.062.763.218.946.562.153.281.183.593.153.969-.092.844-.488 1.25-1.19 1.219a44.907 44.907 0 0 0-2.045-.157c-.06.157-.152.282-.213.438H23c.03-.531.091-1.063.122-1.594h.153c0 .062.03.219.091.375zm1.099-4.126c.732.25 1.464.5 2.227.75a3.07 3.07 0 0 1 .305-.343.23.23 0 0 1 .122.062l-.366 1.125c-.03 0-.091-.031-.122-.031-.03-.156-.03-.313-.03-.469a86.188 86.188 0 0 1-2.624-.875c-.092.125-.214.25-.306.375-.06 0-.091-.031-.122-.031.092-.344.214-.688.305-1a95.78 95.78 0 0 1 2.747-.97c-.61-.218-1.251-.468-1.862-.687-.091.125-.213.219-.305.344-.06 0-.091-.031-.122-.063.122-.375.275-.78.397-1.156a.23.23 0 0 1 .122.063c0 .156 0 .312.03.5.977.375 1.953.718 2.93 1.093-.03.094-.061.157-.092.25-1.098.282-2.166.657-3.234 1.063zm4.821-6.126l.763.563c-.183.469-.305.781-.519 1.063-.61.906-1.526 1.093-2.38.437-.885-.625-1.16-1.563-.397-2.625.183-.25.427-.5.733-.813l.06-.062.672.5-.153.218-.67-.187a1.533 1.533 0 0 0-.245.219c-.671.844-.458 1.594.366 2.188.733.5 1.465.406 1.923-.282.091-.125.091-.219.091-.219l-.671-.5-.397.25-.122-.093.885-1.22.122.063-.061.5zm1.404-.375l-1.953-2.031-.427.187-.092-.094 1.068-1.093.092.093-.183.438 1.983 2.063.61-.625-.213-.688.152-.156.55.687s-.855.813-1.679 1.72l-.091-.094.183-.407zm.946-2.782c-.641-.937-.489-1.937.457-2.562.885-.563 1.74-.313 2.228.562.55.938.397 1.97-.458 2.532-.793.531-1.648.312-2.227-.532zm.488-.5c.55.782 1.19 1.032 1.678.72.458-.282.458-1.032 0-1.813-.427-.75-1.068-1.094-1.648-.72-.58.407-.549 1.063-.03 1.813zm3.784-.562l-1.099-2.626h-.458l-.06-.125 1.525-.656c.366-.156.61-.156.854-.062.214.062.367.218.458.437.183.438-.06.875-.61 1.188.671-.25 1.129-.094 1.312.406.092.282.061.563-.091.782-.153.218-.367.375-.794.562l-1.312.563-.061-.157.336-.312zm0-1.72l.213-.093c.366-.156.55-.531.397-.906-.153-.407-.458-.532-.824-.375l-.305.125.519 1.25zm.61 1.501l.183-.094c.275-.125.366-.187.488-.375a.61.61 0 0 0 0-.562c-.152-.438-.519-.563-.976-.375l-.244.125.549 1.281zm2.655-2l-.183 1.063.427.093.03.125-1.129.282-.03-.126.336-.25.762-3.469.275-.031 1.74 2.97.396.093.03.156-1.464.219-.03-.125.365-.25-.488-.938-1.037.188zm.06-.282l.855-.156-.58-1.094-.274 1.25zm3.327.876l.03-2.813-.427-.188v-.156c.794-.031 1.495 0 1.495 0v.125l-.427.187-.03 2.907.793.031.336-.625h.213l-.091.907s-1.282-.063-2.32-.032v-.125l.428-.218zm5.706.875l.427-.594.214.062-.244.813h-.092c-.488 0-.732-.031-1.037-.125-1.007-.281-1.434-1.063-1.19-2.125.244-1.094.976-1.594 2.258-1.282.305.063.61.219.976.438l-.213.813-.214-.063-.061-.75s-.122-.063-.275-.094c-1.098-.281-1.617.25-1.8 1.094-.183.875.152 1.532.915 1.75.122.032.214.032.336.063zm6.378 2.813l2.35-1.094.762.781-.092.125-.457-.156-1.923 2.031.214.438-.092.125-1.006-1.031.091-.125.427.156 1.556-1.688-2.563 1.188-.091-.094.763-2.782-1.404 1.813.183.407-.092.124-.976-.718.061-.157.427.157 1.77-2.188-.214-.438.092-.125.885.657-.671 2.594zm2.837 2.531l-.854.688.092.469-.123.094c-.427-.594-.915-1.22-.915-1.22l.122-.093.397.219 2.166-1.72-.091-.437.122-.094.885 1.188c.305.406.397.656.397.969a.94.94 0 0 1-.367.75c-.518.375-1.129.188-1.617-.469l-.214-.344zm.275 0c.153.22.275.313.427.375a.694.694 0 0 0 .672-.156c.213-.156.305-.312.335-.5.03-.188 0-.313-.152-.531l-.214-.25-1.19.969.122.093zm1.068 2.376l-1.037.062.03.438-.122.062c-.275-.5-.58-1-.58-1l.122-.062.336.28 3.448-.187.122.282-2.319 2.5v.438l-.122.062c-.275-.719-.55-1.344-.55-1.344l.123-.062.335.281.702-.75-.488-1zm.275-.032l.366.782.885-.875-1.251.093zm.519 5.126l.732.063.06.219-.823.187-.03-.062c-.245-.438-.336-.657-.428-.97-.274-1.03.183-1.78 1.16-2.125 1.068-.375 1.922.188 2.227 1.344.092.313.122.688.122 1.126l-.823.218-.062-.218.58-.438c0-.094-.03-.219-.03-.313-.275-.968-.946-1.344-1.831-1.031-.855.281-1.251.875-1.007 1.688l.152.312zm3.142 2.47l-2.807.218-.122.594h-.122a28.727 28.727 0 0 0-.122-1.813h.152l.214.563 2.777-.219-.061-.719-.732-.187-.03-.22.945-.062s.214 1.532.214 3.063l-.946.063-.03-.219.67-.313v-.75zM49.853 44.107c.457-1.031 1.404-1.406 2.41-.875.946.5 1.13 1.375.672 2.25-.519.97-1.465 1.344-2.38.876-.885-.438-1.13-1.313-.702-2.25zm.671.188c-.366.875-.244 1.594.214 1.844.488.25 1.098-.094 1.556-.907.397-.781.366-1.5-.214-1.813-.64-.343-1.19.032-1.556.876zm-.06 19.721c-.092-.062-.123-.406-.123-.406-.214-1.781-.671-3.563-1.312-5.313-.03-.094-.061-.156-.061-.219 0-.094.06-.156.244-.281.885-.438 1.587-.938 2.136-1.5.092-.094.153-.126.183-.126s.092.032.153.157c.793 1.406 1.373 2.969 1.77 4.594.03.188.06.313.06.438 0 .25-.091.375-.274.594-.519.531-1.465 1.312-2.441 1.938 0 .03-.244.187-.336.124zm-.825 2.032s0-.313-.091-.375c-.092-.063-.336.031-.336.031-1.709.625-3.57.938-5.523 1-.366.032-.366.125-.366.407-.03 1.781-.061 3.438-.092 4.938 0 0 0 .156.03.219.062.062.184.031.184.031a16.846 16.846 0 0 0 5.492-1.281c.245-.094.306-.25.367-.563.457-1.875.335-4.407.335-4.407zm-.763-9.095c.763-.406 1.465-.938 1.923-1.407a.386.386 0 0 0 .122-.28c0-.095-.061-.22-.153-.376-1.037-1.469-2.258-2.657-3.6-3.532-.367.25-.977.5-1.618.688a22.158 22.158 0 0 1 2.869 4.688c.091.188.122.281.183.281.091.063.183 0 .274-.062zm-1.342.594c.091-.032.152-.063.183-.157.03-.093-.061-.28-.061-.28-.763-1.876-1.678-3.626-2.655-4.97-.519.093-1.556.156-1.892.156.061 1.906.092 3.813.122 5.626 0 .156.03.25.092.312.03.032.122.063.213.063 1.251.031 2.99-.344 3.998-.75zm1.312 14.377c0-.031-.03-.031-.03-.031-.031 0-.092.03-.245.062-2.136.688-3.997.875-5.187.875-.183 0-.214.063-.214.25l-.091 1.626s2.41.062 4.851-1c.336-.47.641-1 .855-1.594.03-.094.06-.157.06-.188zm5.004-9.002c0-.03-.03 0-.03 0-.58.563-1.618 1.376-2.838 2-.397.22-.458.376-.458.72.03 2-.214 3.563-.64 4.876 0 0-.031.093.09.03.123-.062 1.893-.937 3.113-2.187.428-.406.733-1.031.794-1.688.244-2.25-.03-3.75-.03-3.75zm.61-2.594c.824-1.437.824-2.625.824-2.625v-.188c-.366-1.656-1.22-3.219-2.502-4.657.03.125.03.282.03.407 0 .5-.121 1.031-.335 1.563-.091.187-.122.312-.122.406 0 .094.061.156.092.281-.031.031 1.25 1.844 2.014 4.813zm-18.583 4.126c.122-2.032.671-4.188 1.434-6.22a.32.32 0 0 1 .03-.093c0-.063-.03-.094-.152-.157-1.25-.562-2.227-1.344-2.838-2.156 0 0-.03-.063 0-.094s.092 0 .092 0c.702.719 1.77 1.313 2.96 1.75a.226.226 0 0 0 .122.031c.061 0 .091-.03.183-.218.824-1.938 1.892-3.75 3.082-5.251-1.007-.25-2.044-.813-2.289-1.407 0 0-.03-.062 0-.093.061-.032.092.03.092.03 1.129 1.251 4.394 1.157 4.394 1.157 1.373 0 4.211-.5 4.211-1.656 0-1.063-1.495-1.626-4.242-1.657-8.269 0-12.694 7.314-12.694 13.127 0 7.001 5.829 13.127 12.542 13.127 0-.125-.092-1.656-.092-1.656 0-.156-.06-.219-.244-.25 0 0-2.93-.219-3.906-.719-.03-.031 0-.063.03-.063 0 0 1.984.344 3.846.344 0 0 .213 0 .213-.219 0-.218-.091-4.969-.091-4.969 0-.375-.061-.406-.397-.438-2.044-.093-4.028-.531-5.767-1.281-.061-.031-.061-.031-.092 0-.03.031-.03.094-.03.094a26.989 26.989 0 0 0 .091 4.344c0 .031 0 .063-.03.063s-.061-.032-.061-.032c-.305-1.187-.458-2.469-.458-3.844v-.656c0-.157-.06-.25-.183-.313-.824-.406-1.556-.938-2.197-1.469 0 0-.061-.031 0-.094.03-.03.061 0 .061 0 .671.438 1.434.813 2.228 1.157h.091c.061-.063.061-.125.061-.219zM51.714 54.14c.214-.594.275-1.407.03-1.97-.213-.562-.945-1.093-.945-1.093-1.099-.875-2.32-1.407-2.9-1.657.092.188.153.376.153.563 0 .344-.152.688-.427 1.031a13.88 13.88 0 0 1 3.693 3.126s.183.219.274.219c.061-.032.122-.22.122-.22zm3.113 9.689c0 .906-.092 1.781-.244 2.625.701-1.25 1.281-3.063 1.281-5.188 0-.594-.06-1.219-.152-1.844a6.112 6.112 0 0 1-.672 1.844c-.244.375-.305.656-.305.938.092.844.092 1.625.092 1.625zm-5.523 8.22a7.363 7.363 0 0 1-.794 1.344c1.526-.781 3.265-2.282 4.425-3.844a13.092 13.092 0 0 1-3.113 1.906c-.213.094-.427.375-.519.594zM42.59 59.517c0-.282-.122-.407-.366-.438-1.495-.062-2.96-.344-4.21-.812-.062-.032-.123-.032-.153-.032s-.061.032-.122.125c-1.19 3.032-1.435 6.314-1.435 6.314 0 .156.03.187.122.219 0 0 2.503.969 5.707.969 0 0 .213 0 .274-.063.092-.094.092-.156.092-.406.06-1.594.091-5.876.091-5.876zm-4.485-2.094c-.092.187-.03.218-.03.218l.06.063c.977.313 2.808.625 4.12.625.152 0 .213-.031.274-.062.061-.063.092-.157.092-.344.03-1.844.091-3.75.183-5.595-.55 0-1.22-.094-1.709-.219-1.19 1.594-2.166 3.376-2.99 5.314zm5.462 8.47c.885-.063 3.173-.219 5.492-1.125.306-.125.397-.282.397-.532v-.187a29.15 29.15 0 0 0-1.251-5.439c-.092-.25-.122-.28-.183-.28-.03 0-.092 0-.183.062a13.808 13.808 0 0 1-4.18.718c-.275 0-.367.22-.367.407 0 .937.03 2.406.03 4.407v1.656s0 .157.062.219c.03.063.091.094.183.094zm-19.53 4.594c.977 2.657 3.388 2.876 5.035 4.5.306.314.61.595.946.782l.03-.031c-.365-.406-.823-.875-1.067-1.406-.946-1.626-.61-3.876-1.343-5.595.641.938 1.22 1.938 1.648 3 .58 1.75.793 3.72 2.166 5.032-1.464-.593-3.173-.468-4.455-1.5-1.403-1.094-2.715-2.813-2.96-4.782zm13.58 7.658c.213 0 .366-.063.366-.063-1.282-.281-2.32-.531-3.418-1.438-1.434-1.219-2.533-2.469-4.089-3.469.183.125 1.099 2 1.861 3.157.52.781 1.374 1.25 2.106 1.438.64.156.763.218.763.218s-.092.063-.336 0c0 0-2.105-.437-3.234-.437-4.517 0-5.707-1.782-5.707-1.782 1.343 2.5 4.09 3.407 5.92 3.407 2.594-.031 4.516-1.031 5.767-1.031zm16.6 1c1.8 0 4.577-.938 5.92-3.407 0 0-1.16 1.782-5.707 1.782-1.13 0-3.235.437-3.235.437-.244.063-.335 0-.335 0s.122-.062.793-.219c.733-.187 1.587-.625 2.106-1.437.763-1.126 1.647-3.032 1.861-3.157-1.587 1-2.685 2.25-4.089 3.47-1.098.937-2.166 1.156-3.418 1.437 0 0 .153.062.367.062 1.22.032 3.173 1.032 5.736 1.032zm-28.074-7.408c.427.376 1.343 1.25 1.526 1.5 0 0-.092-.343-.214-.78-.091-.438-.244-1.5-.671-2.407-.336-.72-1.709-3.063-1.984-4.345 0-.031-.976 4.032 1.343 6.032zm28.531 5.064c1.465-.594 3.143-.47 4.455-1.5 1.373-1.094 2.655-2.814 2.93-4.782-.977 2.656-3.418 2.875-5.035 4.5-.305.313-.61.594-.946.782l-.03-.032c.365-.406.823-.875 1.067-1.406.946-1.625.61-3.876 1.343-5.595-.64.938-1.251 1.938-1.617 3-.61 1.75-.824 3.72-2.167 5.033zm-3.6 2.938c-2.259-.938-4.608-2.126-7.294-1.563-.305.062-.549.125-.824.125-.274 0-.518-.063-.823-.125-2.716-.563-5.066.625-7.324 1.563-1.678.625-3.875.531-5.37-.438.732.875 1.708 1.407 2.715 1.782 1.892.719 4.12.218 5.676-.813 1.343-.719 2.472-2.125 4.242-1.594a16.68 16.68 0 0 0-4.883 3.344l.916.72s1.739-2.376 4.852-3.814c3.081 1.406 4.82 3.813 4.82 3.813l.916-.719c-1.465-1.438-3.112-2.563-4.913-3.344 1.77-.531 2.9.875 4.242 1.594 1.556 1.031 3.784 1.532 5.676.813 1.007-.375 1.983-.907 2.715-1.782-1.464.969-3.661 1.063-5.34.438zm8.88-8.002c2.318-2.031 1.342-6.063 1.342-6.063-.275 1.281-1.648 3.625-1.984 4.344-.427.907-.58 2-.671 2.407-.092.438-.214.781-.214.781.153-.218 1.068-1.062 1.526-1.469zm-36.588-11.47l2.045.187c.549.063.823-.156.885-.687.03-.25 0-.438-.092-.594-.122-.219-.305-.313-.671-.344-.672-.062-1.312-.156-1.984-.219-.06.157-.152.282-.213.438h-.153c.061-.438.092-.875.153-1.313.06 0 .091 0 .152.032.03.156.092.312.122.468.641.063 1.251.157 1.892.22.488.062.763.218.946.562.153.281.183.593.153.969-.092.844-.488 1.25-1.19 1.219a44.907 44.907 0 0 0-2.045-.157c-.06.157-.152.282-.213.438H23c.03-.531.091-1.063.122-1.594h.153c0 .062.03.219.091.375zm1.099-4.126c.732.25 1.464.5 2.227.75a3.07 3.07 0 0 1 .305-.343.23.23 0 0 1 .122.062l-.366 1.125c-.03 0-.091-.031-.122-.031-.03-.156-.03-.313-.03-.469a86.188 86.188 0 0 1-2.624-.875c-.092.125-.214.25-.306.375-.06 0-.091-.031-.122-.031.092-.344.214-.688.305-1a95.78 95.78 0 0 1 2.747-.97c-.61-.218-1.251-.468-1.862-.687-.091.125-.213.219-.305.344-.06 0-.091-.031-.122-.063.122-.375.275-.78.397-1.156a.23.23 0 0 1 .122.063c0 .156 0 .312.03.5.977.375 1.953.718 2.93 1.093-.03.094-.061.157-.092.25-1.098.282-2.166.657-3.234 1.063zm4.821-6.126l.763.563c-.183.469-.305.781-.519 1.063-.61.906-1.526 1.093-2.38.437-.885-.625-1.16-1.563-.397-2.625.183-.25.427-.5.733-.813l.06-.062.672.5-.153.218-.67-.187a1.533 1.533 0 0 0-.245.219c-.671.844-.458 1.594.366 2.188.733.5 1.465.406 1.923-.282.091-.125.091-.219.091-.219l-.671-.5-.397.25-.122-.093.885-1.22.122.063-.061.5zm1.404-.375l-1.953-2.031-.427.187-.092-.094 1.068-1.093.092.093-.183.438 1.983 2.063.61-.625-.213-.688.152-.156.55.687s-.855.813-1.679 1.72l-.091-.094.183-.407zm.946-2.782c-.641-.937-.489-1.937.457-2.562.885-.563 1.74-.313 2.228.562.55.938.397 1.97-.458 2.532-.793.531-1.648.312-2.227-.532zm.488-.5c.55.782 1.19 1.032 1.678.72.458-.282.458-1.032 0-1.813-.427-.75-1.068-1.094-1.648-.72-.58.407-.549 1.063-.03 1.813zm3.784-.562l-1.099-2.626h-.458l-.06-.125 1.525-.656c.366-.156.61-.156.854-.062.214.062.367.218.458.437.183.438-.06.875-.61 1.188.671-.25 1.129-.094 1.312.406.092.282.061.563-.091.782-.153.218-.367.375-.794.562l-1.312.563-.061-.157.336-.312zm0-1.72l.213-.093c.366-.156.55-.531.397-.906-.153-.407-.458-.532-.824-.375l-.305.125.519 1.25zm.61 1.501l.183-.094c.275-.125.366-.187.488-.375a.61.61 0 0 0 0-.562c-.152-.438-.519-.563-.976-.375l-.244.125.549 1.281zm2.655-2l-.183 1.063.427.093.03.125-1.129.282-.03-.126.336-.25.762-3.469.275-.031 1.74 2.97.396.093.03.156-1.464.219-.03-.125.365-.25-.488-.938-1.037.188zm.06-.282l.855-.156-.58-1.094-.274 1.25zm3.327.876l.03-2.813-.427-.188v-.156c.794-.031 1.495 0 1.495 0v.125l-.427.187-.03 2.907.793.031.336-.625h.213l-.091.907s-1.282-.063-2.32-.032v-.125l.428-.218zm5.706.875l.427-.594.214.062-.244.813h-.092c-.488 0-.732-.031-1.037-.125-1.007-.281-1.434-1.063-1.19-2.125.244-1.094.976-1.594 2.258-1.282.305.063.61.219.976.438l-.213.813-.214-.063-.061-.75s-.122-.063-.275-.094c-1.098-.281-1.617.25-1.8 1.094-.183.875.152 1.532.915 1.75.122.032.214.032.336.063zm6.378 2.813l2.35-1.094.762.781-.092.125-.457-.156-1.923 2.031.214.438-.092.125-1.006-1.031.091-.125.427.156 1.556-1.688-2.563 1.188-.091-.094.763-2.782-1.404 1.813.183.407-.092.124-.976-.718.061-.157.427.157 1.77-2.188-.214-.438.092-.125.885.657-.671 2.594zm2.837 2.531l-.854.688.092.469-.123.094c-.427-.594-.915-1.22-.915-1.22l.122-.093.397.219 2.166-1.72-.091-.437.122-.094.885 1.188c.305.406.397.656.397.969a.94.94 0 0 1-.367.75c-.518.375-1.129.188-1.617-.469l-.214-.344zm.275 0c.153.22.275.313.427.375a.694.694 0 0 0 .672-.156c.213-.156.305-.312.335-.5.03-.188 0-.313-.152-.531l-.214-.25-1.19.969.122.093zm1.068 2.376l-1.037.062.03.438-.122.062c-.275-.5-.58-1-.58-1l.122-.062.336.28 3.448-.187.122.282-2.319 2.5v.438l-.122.062c-.275-.719-.55-1.344-.55-1.344l.123-.062.335.281.702-.75-.488-1zm.275-.032l.366.782.885-.875-1.251.093zm.519 5.126l.732.063.06.219-.823.187-.03-.062c-.245-.438-.336-.657-.428-.97-.274-1.03.183-1.78 1.16-2.125 1.068-.375 1.922.188 2.227 1.344.092.313.122.688.122 1.126l-.823.218-.062-.218.58-.438c0-.094-.03-.219-.03-.313-.275-.968-.946-1.344-1.831-1.031-.855.281-1.251.875-1.007 1.688l.152.312zm3.142 2.47l-2.807.218-.122.594h-.122a28.727 28.727 0 0 0-.122-1.813h.152l.214.563 2.777-.219-.061-.719-.732-.187-.03-.22.945-.062s.214 1.532.214 3.063l-.946.063-.03-.219.67-.313v-.75zM49.853 44.107c.457-1.031 1.404-1.406 2.41-.875.946.5 1.13 1.375.672 2.25-.519.97-1.465 1.344-2.38.876-.885-.438-1.13-1.313-.702-2.25zm.671.188c-.366.875-.244 1.594.214 1.844.488.25 1.098-.094 1.556-.907.397-.781.366-1.5-.214-1.813-.64-.343-1.19.032-1.556.876z" fill="#17243F"/></svg>