<svg width="184" height="124" viewBox="0 0 184 124" fill="none" xmlns="http://www.w3.org/2000/svg"><path d="M53.222 47.976c2.268 0 3.984.563 5.09 1.69 1.105 1.127 1.686 2.61 1.686 4.418 0 1.75-.552 3.173-1.686 4.24-1.135 1.068-2.763 1.601-4.886 1.601h-2.88v2.995c0 1.216-.61 1.839-1.802 1.839h-2.327V47.976h6.805zm.35 8.42c.784 0 1.395-.207 1.744-.652.378-.444.553-.978.553-1.63 0-.653-.175-1.186-.553-1.66-.378-.475-.96-.713-1.745-.713h-3.024v4.656h3.024zm12.678-4.684v2.728h6.632v1.69c0 1.216-.611 1.838-1.804 1.838h-4.827v3.084h6.689c1.192 0 1.803.623 1.803 1.839v1.897H62.12V47.976h12.593v1.897c0 1.216-.611 1.839-1.803 1.839h-6.66zm23.15-1.839c0 1.216-.61 1.839-1.803 1.839h-2.646V62.92c0 1.216-.611 1.839-1.804 1.839h-2.355V51.712h-4.45v-1.898c0-1.216.611-1.838 1.803-1.838H89.43v1.897h-.03zm6.137 13.047c0 1.216-.611 1.839-1.804 1.839h-2.297V47.976h7.183c2.094 0 3.665.533 4.77 1.63 1.076 1.098 1.628 2.52 1.628 4.33 0 2.372-1.047 4.003-3.111 4.863l4.362 5.96h-3.606c-.931 0-1.658-.386-2.181-1.157l-2.85-4.18h-2.065v3.498h-.03zm0-6.79h3.228c.581 0 1.076-.208 1.512-.593.436-.386.64-.92.64-1.572 0-.682-.204-1.215-.64-1.63a2.161 2.161 0 0 0-1.512-.594h-3.228v4.389zm19.572 8.925c-2.181 0-3.956-.652-5.264-1.957-1.338-1.304-1.978-3.024-1.978-5.189v-9.933h2.327c1.192 0 1.803.622 1.803 1.838v8.065c0 1.187.349 2.076 1.018 2.64.669.563 1.367.86 2.123.86.727 0 1.425-.297 2.094-.86.669-.564 1.018-1.453 1.018-2.64v-8.065c0-1.216.61-1.838 1.803-1.838h2.326v9.903c0 2.165-.669 3.915-1.977 5.22-1.309 1.304-3.083 1.956-5.293 1.956zm10.382-4.388c.669-.86 1.483-1.009 2.501-.445 1.221.682 2.472 1.038 3.751 1.038.698 0 1.251-.119 1.687-.386.407-.267.611-.593.611-1.038a1.14 1.14 0 0 0-.175-.652c-.116-.178-.349-.326-.64-.445a25.917 25.917 0 0 0-.756-.267c-.203-.059-.552-.118-1.047-.207-.174-.03-.29-.06-.349-.06-.407-.059-.669-.088-.785-.118-.116-.03-.407-.09-.843-.178-.436-.089-.785-.178-.96-.267a8.62 8.62 0 0 1-.901-.356c-.408-.148-.727-.326-.931-.504-.204-.178-.466-.385-.756-.652-.291-.267-.524-.534-.669-.83a6.855 6.855 0 0 1-.407-1.038 4.474 4.474 0 0 1-.175-1.275c0-.8.146-1.483.407-2.106.262-.622.611-1.126 1.047-1.512a5.44 5.44 0 0 1 1.542-.949c.581-.267 1.163-.415 1.745-.534a11.61 11.61 0 0 1 1.773-.148c2.531 0 4.712.86 6.544 2.61l-1.134 1.571c-.611.86-1.454 1.008-2.501.445-.989-.504-2.007-.77-3.054-.77-1.483 0-2.239.414-2.239 1.274 0 .148.029.267.058.356.029.119.116.208.204.297.087.088.174.148.261.237.088.059.204.118.378.207.175.06.32.119.437.148.116.03.29.09.523.12.233.058.407.088.553.118.145.03.349.059.61.118.262.06.495.09.64.119 1.658.296 2.85.652 3.548 1.038 1.483.8 2.24 2.194 2.21 4.092 0 1.75-.581 3.113-1.744 4.003-1.164.919-2.734 1.364-4.712 1.364-1.628 0-2.995-.237-4.1-.712-1.134-.474-2.211-1.186-3.287-2.165l1.135-1.541zm-18.118 14.796l2.937-6.108h.175l2.937 6.108h-.582c-.203 0-.348-.09-.407-.267l-.407-.89h-3.257l-.407.89a.438.438 0 0 1-.407.267h-.582zm1.745-1.809h2.617l-1.308-2.847-1.309 2.847zm6.95 1.809v-6.108h.408c.232 0 .349.118.349.355v5.1h2.995c.233 0 .349.119.349.356v.267h-4.101v.03zm9.132.148c-.873 0-1.629-.296-2.21-.919-.582-.623-.873-1.364-.873-2.253 0-.89.291-1.631.873-2.254.581-.623 1.308-.92 2.21-.92.553 0 1.047.12 1.483.386.436.267.814.593 1.076 1.008l-.407.178c-.174.09-.349.03-.494-.118-.437-.475-.989-.742-1.658-.742-.669 0-1.221.238-1.658.712a2.52 2.52 0 0 0-.669 1.75c0 .682.233 1.275.669 1.749.437.474.989.712 1.658.712.669 0 1.221-.238 1.658-.742.145-.178.32-.207.494-.118l.407.178c-.262.415-.581.77-1.018 1.008a3.13 3.13 0 0 1-1.541.385zm8.172-.029c-.872 0-1.599-.297-2.181-.92-.582-.622-.873-1.363-.873-2.253 0-.89.291-1.63.873-2.254.582-.622 1.309-.919 2.181-.919.873 0 1.629.297 2.21.92.582.622.873 1.363.873 2.253 0 .89-.291 1.66-.873 2.254-.581.622-1.309.919-2.21.919zm0-.682c.64 0 1.192-.237 1.629-.742.465-.504.669-1.067.669-1.749 0-.652-.233-1.245-.669-1.75-.466-.504-.989-.74-1.629-.74s-1.163.236-1.629.74c-.465.505-.668 1.068-.668 1.75 0 .652.232 1.245.668 1.75.466.474 1.018.74 1.629.74z" fill="#003A5D"/><path d="M94.548 68.999l-3.2 6.553h1.92l3.2-6.553h-1.92zm6.223 0l-3.199 6.553h2.53L103.301 69h-2.53zm-2.908 0l-3.199 6.553h2.065L99.928 69h-2.065zm6.223 0l-3.198 6.553h3.111L107.198 69h-3.112zm-58.076 0v6.553h42.75L91.96 69H46.01z" fill="#CCB38D"/></svg>