<svg width="184" height="124" viewBox="0 0 184 124" fill="none" xmlns="http://www.w3.org/2000/svg"><g clip-path="url(#a)"><path d="M64.87 83c11.525 0 20.87-9.402 20.87-21s-9.344-21-20.87-21C53.344 41 44 50.402 44 62s9.344 21 20.87 21z" fill="#fff"/><path d="M61.102 55.282a2.735 2.735 0 0 1-2.74 2.725 2.734 2.734 0 0 1-2.74-2.725 2.734 2.734 0 0 1 2.74-2.725c1.512.094 2.74 1.316 2.74 2.725zm9.26 14.094v1.973h-6.236V52.557h1.984v16.819h4.252zm7.37 5.168c-3.401 3.382-7.842 5.167-12.661 5.167-4.725 0-9.26-1.879-12.662-5.167-3.401-3.383-5.196-7.799-5.196-12.591.094-9.772 8.126-17.664 17.952-17.664h1.04v1.973h-1.04c-4.252 0-8.22 1.597-11.244 4.604-3.023 3.007-4.63 6.953-4.63 11.181 0 4.228 1.607 8.175 4.63 11.181 3.024 3.007 6.992 4.604 11.244 4.604 8.315 0 15.307-6.483 15.874-14.751v-.094H70.362v-1.974h12.661v.94c0 4.792-1.89 9.302-5.29 12.59zM65.165 41C53.45 41 44 50.396 44 62.047s9.449 21.047 21.165 21.047c11.717 0 21.166-9.396 21.166-21.047C86.236 50.396 76.787 41 65.165 41z" fill="#B7002E"/><path d="M102.016 48.33h-6.33v27.154h19.463v-5.262h-13.133V48.329zm27.024 16.818h5.102v4.791c-.945.376-2.834.752-4.536.752-5.668 0-7.558-2.913-7.558-8.738 0-5.544 1.795-8.832 7.464-8.832 3.118 0 4.914 1.033 6.426 2.912l3.968-3.57c-2.362-3.383-6.614-4.416-10.488-4.416-8.882 0-13.512 4.792-13.512 13.906s4.157 14 13.417 14c4.252 0 8.41-1.034 10.677-2.63V60.167h-10.96v4.98z" fill="#6D6E71"/></g><defs><clipPath id="a"><path fill="#fff" transform="translate(44 41)" d="M0 0h96v42H0z"/></clipPath></defs></svg>