<svg width="184" height="124" viewBox="0 0 184 124" fill="none" xmlns="http://www.w3.org/2000/svg"><path d="M33.038 43l-6.786 35.5 36.591 1.635V50.473L33.038 43z" fill="#FEDB35"/><path d="M129.625 65.307v.647h-1.799v1.304h1.656v.648h-1.656v2.102h-.621v-4.701h2.42zm3.329 4.793a2.453 2.453 0 0 1-.959-.183 2.686 2.686 0 0 1-.798-.506 2.354 2.354 0 0 1-.754-1.753 2.35 2.35 0 0 1 .751-1.753 2.65 2.65 0 0 1 .799-.506c.308-.125.637-.187.969-.183.332-.004.661.058.968.183.294.12.564.291.798.506a2.349 2.349 0 0 1 .75 1.753h-.014a2.34 2.34 0 0 1-.75 1.753 2.66 2.66 0 0 1-.799.506 2.442 2.442 0 0 1-.961.183zm-.016-4.204a2.03 2.03 0 0 0-.751.133 1.855 1.855 0 0 0-.601.373 1.832 1.832 0 0 0-.4.565 1.697 1.697 0 0 0 0 1.396c.096.212.232.404.4.565.174.162.378.289.601.374.24.091.495.136.751.133.257 0 .512-.048.751-.142a1.84 1.84 0 0 0 .601-.374c.168-.16.304-.352.4-.564.1-.216.151-.451.15-.69v-.006a1.64 1.64 0 0 0-.15-.682 1.827 1.827 0 0 0-.4-.565 1.84 1.84 0 0 0-.601-.374 2.049 2.049 0 0 0-.751-.142zm4.283 4.114h-.621v-4.702h1.508a1.473 1.473 0 0 1 .994.374c.127.118.227.261.293.42a1.5 1.5 0 0 1 .099.55c.01.315-.094.624-.292.871a1.261 1.261 0 0 1-.776.442l1.209 2.042h-.758l-1.176-2.017h-.48v2.019zm0-4.055v1.385h.955v.008a.605.605 0 0 0 .476-.208.733.733 0 0 0 0-.985.631.631 0 0 0-.476-.2h-.955zm9.748 3.264a1.7 1.7 0 0 1-.751.647 2.7 2.7 0 0 1-1.175.24 2.6 2.6 0 0 1-.951-.176 2.323 2.323 0 0 1-.784-.498 2.414 2.414 0 0 1-.735-1.767 2.414 2.414 0 0 1 .735-1.767c.225-.217.491-.386.783-.498a2.62 2.62 0 0 1 .959-.176 2.65 2.65 0 0 1 1.192.274c.156.073.299.168.426.282.109.096.202.209.276.332l-.191.574a1.642 1.642 0 0 0-.292-.308 2.148 2.148 0 0 0-.392-.257 2.072 2.072 0 0 0-.968-.241 2.309 2.309 0 0 0-.776.124 1.679 1.679 0 0 0-.6.353 1.619 1.619 0 0 0-.385.557 1.89 1.89 0 0 0-.133.74c-.002.255.047.51.142.747.086.213.22.403.392.556.175.155.379.274.601.35.249.085.512.127.776.124.355.008.707-.072 1.024-.232.268-.128.499-.319.676-.556l.185.564-.034.012zm1.748.791h-.621v-4.702h1.508a1.473 1.473 0 0 1 .994.374c.127.118.227.261.293.42a1.5 1.5 0 0 1 .099.55c.01.315-.094.624-.291.871a1.267 1.267 0 0 1-.776.442l1.209 2.042h-.759l-1.176-2.017h-.48v2.019zm0-4.055v1.385h.955v.008a.605.605 0 0 0 .477-.208.733.733 0 0 0 0-.985.635.635 0 0 0-.477-.2h-.955zm6.162-.647v.647h-2.041v1.304h1.832v.648h-1.832v1.453h2.041v.648h-2.661v-4.7h2.661zm1.369 4.701h-.668l1.944-4.701h.684l1.943 4.699h-.667l-.443-1.095h-2.343l-.45 1.097zm1.617-3.912l-.9 2.168h1.802l-.902-2.168zm6.089-.789v.647h-1.597v4.054h-.621v-4.054h-1.618v-.647h3.836zm3.088 4.792a2.445 2.445 0 0 1-.958-.183 2.663 2.663 0 0 1-.799-.506 2.362 2.362 0 0 1-.754-1.753 2.382 2.382 0 0 1 .201-.98c.128-.293.316-.556.55-.773.234-.215.504-.387.799-.506.308-.125.637-.187.97-.183.331-.004.66.059.967.183.294.12.566.29.798.506a2.34 2.34 0 0 1 .751 1.753h-.014a2.357 2.357 0 0 1-.75 1.753 2.696 2.696 0 0 1-.799.506 2.454 2.454 0 0 1-.962.183zm-.016-4.204a2.032 2.032 0 0 0-.751.133 1.772 1.772 0 0 0-1.002.94 1.696 1.696 0 0 0 0 1.395c.097.212.233.404.401.565.175.162.379.289.601.374.24.091.495.136.751.133.257 0 .511-.048.751-.142a1.78 1.78 0 0 0 1.001-.939 1.64 1.64 0 0 0 .149-.69v-.006a1.64 1.64 0 0 0-.149-.682 1.785 1.785 0 0 0-1.001-.939 2.053 2.053 0 0 0-.751-.142zm4.282 4.114h-.62v-4.702h1.507c.188-.002.375.032.551.1.163.063.314.156.443.274.128.117.227.261.293.42.068.176.102.362.1.55.009.315-.094.624-.292.871a1.264 1.264 0 0 1-.776.442l1.209 2.042h-.758l-1.177-2.017h-.48v2.019zm0-4.055v1.385h.956v.008a.6.6 0 0 0 .475-.208.728.728 0 0 0 0-.985.62.62 0 0 0-.475-.2h-.956zm5.487 1.795c.1.088.192.176.276.256.081.08.154.17.216.265.061.093.108.194.142.299.034.115.052.234.05.353a1.126 1.126 0 0 1-.392.897 1.543 1.543 0 0 1-1.042.34 1.849 1.849 0 0 1-.533-.075 2.176 2.176 0 0 1-.453-.184 1.506 1.506 0 0 1-.334-.25 1.054 1.054 0 0 1-.199-.266l.183-.598c.147.21.342.383.568.507.238.134.509.203.784.2a.866.866 0 0 0 .575-.159.511.511 0 0 0 .192-.4.551.551 0 0 0-.134-.373 2.413 2.413 0 0 0-.324-.315c-.178-.134-.319-.25-.435-.34-.116-.091-.216-.177-.3-.242-.084-.064-.159-.124-.225-.176a1.724 1.724 0 0 1-.184-.166 2.589 2.589 0 0 1-.355-.425.95.95 0 0 1-.158-.547 1.03 1.03 0 0 1 .097-.467.99.99 0 0 1 .275-.335c.122-.094.261-.165.409-.209a1.68 1.68 0 0 1 .508-.074c.271-.004.538.061.776.19.198.102.368.249.499.428l-.142.59a1.644 1.644 0 0 0-.479-.395 1.349 1.349 0 0 0-.645-.166 1.012 1.012 0 0 0-.476.1.333.333 0 0 0-.184.313.449.449 0 0 0 .043.184.422.422 0 0 0 .117.148c.098.093.201.182.308.265.258.191.458.34.609.448.151.108.283.208.392.3l-.025.078zm-44.643-10.469l.668 4.701h-.621l-.55-3.58-1.423 3.58h-.622l-1.461-3.58-.504 3.58h-.649l.675-4.7h.683l1.553 3.778 1.559-3.779h.692zm4.599 0v.648h-2.041v1.304h1.831v.647h-1.831v1.454h2.041v.647h-2.662v-4.7h2.662zm2.828 4.703h-1.569v-4.7h1.569l-.009.007c.368-.005.733.048 1.084.157.313.095.604.25.859.454.243.2.437.453.567.74.138.313.206.653.2.996a2.37 2.37 0 0 1-.2 1.002 2.013 2.013 0 0 1-.559.731c-.254.206-.545.36-.858.457a3.49 3.49 0 0 1-1.084.156zm-.96-4.044v3.407h1.184l-.009.017h.012c.253.005.504-.04.739-.132.215-.086.413-.21.584-.365.166-.15.296-.334.384-.54.094-.211.143-.44.142-.672a1.64 1.64 0 0 0-.134-.673 1.552 1.552 0 0 0-.383-.539 1.95 1.95 0 0 0-.584-.37 1.966 1.966 0 0 0-.751-.133h-1.184zm4.78 4.044h.621v-4.7h-.621v4.7zm2.211-.002h-.667l1.944-4.7h.683l1.944 4.698h-.666l-.445-1.094h-2.342l-.451 1.096zm1.618-3.912l-.9 2.168h1.801l-.901-2.168zM22.287 55.494l2.071 14.754h-3.185l-1.184-8.418-3.283 8.422h-2.852L10.62 61.83l-1.263 8.418H6l2.045-14.754h3.233l3.914 9.605 3.913-9.605h3.182zM40.572 68.24a5.01 5.01 0 0 1-2.197 1.81 8.443 8.443 0 0 1-3.638.707 8.194 8.194 0 0 1-3.007-.585 8.05 8.05 0 0 1-2.55-1.584 7.886 7.886 0 0 1-1.768-2.435 7.246 7.246 0 0 1-.682-3.142 7.248 7.248 0 0 1 .682-3.143 8.07 8.07 0 0 1 1.792-2.464 8.065 8.065 0 0 1 2.551-1.584 8.183 8.183 0 0 1 3.005-.579c.645 0 1.289.069 1.92.202.566.112 1.117.29 1.641.53a6.56 6.56 0 0 1 1.288.804c.354.275.661.606.908.98l-1.01 2.764a5.235 5.235 0 0 0-1.741-1.304 5.888 5.888 0 0 0-2.728-.603 6.258 6.258 0 0 0-1.994.302 4.875 4.875 0 0 0-1.591.883 3.948 3.948 0 0 0-1.44 3.086 3.931 3.931 0 0 0 1.44 3.092c.47.392 1.01.692 1.59.884.645.208 1.318.31 1.995.302a5.886 5.886 0 0 0 2.778-.603 5.107 5.107 0 0 0 1.717-1.358l1.04 2.862v.176zm3.586-1.408a2.151 2.151 0 0 1 1.587-.628 2.165 2.165 0 0 1 2.066 1.354c.108.271.16.562.152.855a2.141 2.141 0 0 1-.631 1.58 2.158 2.158 0 0 1-1.587.629 2.168 2.168 0 0 1-1.587-.63 2.15 2.15 0 0 1-.632-1.58 2.131 2.131 0 0 1 .632-1.58zm14.286 2.288c-.334.455-.777.82-1.288 1.06a4.338 4.338 0 0 1-1.945.427 4.104 4.104 0 0 1-3.206-1.16 4.676 4.676 0 0 1-1.065-3.268V60.7h-2.218v-1.034l4.47-5.632h.984v3.269h4.117v3.394H54.15v4.777a1.585 1.585 0 0 0 .48 1.333c.325.25.725.383 1.136.377.383.01.763-.067 1.111-.226a2.9 2.9 0 0 0 .888-.73l.68 2.867-.002.025zm8.966 1.509a6.765 6.765 0 0 1-2.651-.53 7.246 7.246 0 0 1-2.197-1.433 6.98 6.98 0 0 1-1.517-2.16 6.502 6.502 0 0 1-.556-2.716 6.489 6.489 0 0 1 .556-2.715 6.976 6.976 0 0 1 1.515-2.163 7.25 7.25 0 0 1 2.197-1.43 6.92 6.92 0 0 1 5.303 0 7.235 7.235 0 0 1 2.197 1.43 6.97 6.97 0 0 1 1.515 2.163c.38.855.57 1.78.559 2.715v.026a6.414 6.414 0 0 1-.555 2.715 6.829 6.829 0 0 1-1.516 2.137 7.229 7.229 0 0 1-2.197 1.433 6.77 6.77 0 0 1-2.653.528zm.048-10.232a3.918 3.918 0 0 0-1.439.25c-.429.16-.823.4-1.162.707a2.99 2.99 0 0 0-.757 1.075 3.53 3.53 0 0 0-.277 1.387v.05a3.55 3.55 0 0 0 .277 1.383c.169.412.427.781.757 1.081a3.6 3.6 0 0 0 1.162.707c.46.173.948.258 1.44.25a3.684 3.684 0 0 0 2.55-.954c.33-.306.595-.673.783-1.08a3.17 3.17 0 0 0 .303-1.384 3.282 3.282 0 0 0-.303-1.409 3.493 3.493 0 0 0-.783-1.106 3.754 3.754 0 0 0-1.137-.706 3.729 3.729 0 0 0-1.414-.251zm15.605 10.232a6.63 6.63 0 0 1-2.525-.503 6.388 6.388 0 0 1-2.12-1.408 6.76 6.76 0 0 1-1.439-2.163 7.009 7.009 0 0 1-.532-2.765l.025.076c-.01-.948.17-1.889.533-2.765a6.776 6.776 0 0 1 1.437-2.164 6.53 6.53 0 0 1 2.096-1.407 6.4 6.4 0 0 1 2.475-.503 5.739 5.739 0 0 1 2.476.478c.579.236 1.06.662 1.361 1.207v-6.714h3.209v18.304h-3.106v-1.357c-.305.553-.797.98-1.39 1.207a5.882 5.882 0 0 1-2.5.477zm.378-10.182a4.132 4.132 0 0 0-1.514.25c-.437.16-.84.4-1.186.708-.33.3-.59.669-.758 1.08a3.567 3.567 0 0 0-.278 1.384v.025c0 .475.094.945.278 1.383a3 3 0 0 0 .758 1.081c.347.308.75.548 1.186.707.485.177.998.262 1.514.251a4.56 4.56 0 0 0 2.147-.503 2.49 2.49 0 0 0 1.24-1.21v-3.445a2.492 2.492 0 0 0-1.241-1.21 4.563 4.563 0 0 0-2.146-.501zm16.185 10.186a6.62 6.62 0 0 1-2.525-.503 6.407 6.407 0 0 1-2.12-1.408 6.764 6.764 0 0 1-1.438-2.166 6.988 6.988 0 0 1-.532-2.726 6.981 6.981 0 0 1 .532-2.73 6.767 6.767 0 0 1 1.437-2.162 6.392 6.392 0 0 1 2.12-1.408 6.622 6.622 0 0 1 2.525-.503 5.874 5.874 0 0 1 2.501.478 2.674 2.674 0 0 1 1.389 1.207v-1.358h3.105v12.948h-3.105v-1.358a2.682 2.682 0 0 1-1.389 1.208 5.885 5.885 0 0 1-2.5.48zm.355-10.183a4.126 4.126 0 0 0-1.514.251 3.68 3.68 0 0 0-1.186.707c-.33.3-.59.67-.758 1.082a3.557 3.557 0 0 0-.278 1.382v.025c0 .475.094.945.278 1.384.168.411.428.78.758 1.08.347.309.75.549 1.186.708.485.177.998.262 1.514.25a4.55 4.55 0 0 0 2.146-.503 2.49 2.49 0 0 0 1.238-1.22v-3.445a2.496 2.496 0 0 0-1.238-1.201 4.556 4.556 0 0 0-2.147-.504l.001.004zm12.423-3.146l3.408 8.046 3.408-8.046h3.566l-7.782 18.304h-3.51l2.651-6.16-5.202-12.144h3.461z" fill="#000"/></svg>