<svg width="184" height="124" viewBox="0 0 184 124" fill="none" xmlns="http://www.w3.org/2000/svg"><path d="M47.882 63.657h7.148l-3.588-9.172-3.56 9.172z" fill="#007D32"/><path d="M55.887 65.889h-8.861l-2.071 5.22c-.464 1.161-.758 2.521.786 3.619h-6.228c1.714-1.126 2.374-2.628 2.998-4.221l6.586-16.815c.134-.333.59-1.593-.758-2.224h5.4l5.139 12.841V48.763H30.47v28.663h28.415v-4.008l-2.998-7.53z" fill="#129747"/><path d="M74.233 58.098H78.1l-1.944-4.965-1.924 4.965zm3.173-6.6l4.297 10.744c.288.7.64 1.388 1.517 1.855h-3.834c.836-.375.695-.991.534-1.402l-1.355-3.386h-4.796l-1.123 2.826c-.253.63-.407 1.367.428 1.962h-3.37c.927-.609 1.285-1.423 1.622-2.287l3.567-9.109c.07-.177.323-.864-.408-1.204h2.921zm6.586 12.592c.8-.574.822-1.204.822-1.799v-8.995c0-.503 0-1.225-.822-1.799h4.424c.982 0 4.444.014 4.444 3.329 0 2.394-2.036 3.598-4.03 3.598a5.72 5.72 0 0 1-1.517-.234c1.426-.056 3.497-.736 3.497-3.003 0-1.473-.997-2.358-2.675-2.358-.499 0-1.018.07-1.496.177V62c0 .573.091 1.6 1.11 2.09h-3.757zm21.007-10.185c-.337-.234-1.657-1.154-3.531-1.154-2.338 0-4.676 1.565-4.676 4.646 0 2.628 1.495 5.432 5.104 5.432 2.464 0 3.658-.885 4.192-1.331l-1.215 2.408c-1.053.34-1.945.453-3.117.453-5.35 0-7.007-3.69-7.007-6.48 0-3.457 2.429-6.658 6.936-6.658 1.089 0 1.728.163 2.317.29.358.092.604.142.997.198v2.196zm9.577-2.408v2.068c-.337-.396-.821-.666-1.874-.651l-2.409.056v3.598h2.57c.232 0 .442-.021.646-.056v1.962c-.337-.34-.73-.468-1.355-.468H110.3v4.519c1.088.106 1.959.127 2.317.127 1.959 0 2.942-.396 3.728-1.098l-.912 2.536h-7.78c.822-.574.822-1.332.822-1.799v-8.995c0-.467 0-1.225-.822-1.799h6.923zm12.666 4.965v-3.166c0-.595-.021-1.225-.821-1.799h3.461c-.8.574-.821 1.204-.821 1.8v8.994c0 .595.014 1.225.821 1.8h-3.461c.8-.575.821-1.205.821-1.8V57.9h-6.866v4.391c0 .595.021 1.225.821 1.8h-3.461c.8-.575.821-1.205.821-1.8v-8.995c0-.595-.021-1.225-.821-1.799h3.461c-.8.574-.821 1.204-.821 1.8v3.165h6.866zm7.934 1.636h3.869l-1.945-4.965-1.924 4.965zm3.174-6.6l4.297 10.744c.287.7.638 1.388 1.516 1.855h-3.833c.835-.375.695-.991.533-1.402l-1.355-3.386h-4.795l-1.124 2.826c-.252.63-.407 1.367.429 1.962h-3.371c.927-.609 1.285-1.423 1.622-2.287l3.567-9.109c.07-.177.323-.864-.407-1.204h2.921z" fill="#000"/><path d="M153.923 62.29c0 .503 0 1.226.821 1.8h-3.461c.821-.574.821-1.297.821-1.8v-9.356h-3.588v1.976c0 4.498-.358 9.448-3.601 9.448-.337 0-.625-.07-.878-.163l-.232-2.067c.478.488.906.523 1.11.523 1.713 0 2.071-4.355 2.071-7.543 0-1.926-.092-3.187-1.299-3.619h9.078c-.821.595-.835 1.226-.835 1.8v9.002h-.007zm-63.542 8.4c-.14-.092-.674-.467-1.432-.467-.948 0-1.896.637-1.896 1.884 0 1.07.611 2.203 2.072 2.203.997 0 1.481-.355 1.699-.539l-.492.978c-.428.141-.793.184-1.27.184-2.17 0-2.844-1.502-2.844-2.628 0-1.402.983-2.705 2.815-2.705.443 0 .703.063.941.12.148.035.246.057.407.078v.892zm2.907 3.4c0 .206 0 .496.33.73h-1.404c.33-.234.33-.524.33-.73v-3.796l-.864-.007a1 1 0 0 0-.75.304l.287-.913c.175.028.274.028.463.028h2.802c.154 0 .309-.014.442-.028l-.253.857c-.14-.248-.4-.248-.582-.248l-.815.007v3.796h.014zm2.099.737c.323-.234.33-.489.33-.73v-3.655c0-.205 0-.495-.33-.73h1.798c.4 0 1.804.008 1.804 1.354 0 .97-.828 1.459-1.636 1.459a2.49 2.49 0 0 1-.618-.092c.583-.022 1.418-.298 1.418-1.219 0-.602-.407-.956-1.088-.956-.203 0-.414.029-.61.071v3.655c0 .234.035.651.449.85h-1.517v-.007zm5.238-2.437h1.573l-.793-2.019-.78 2.02zm1.292-2.677l1.749 4.363c.112.283.259.56.617.75h-1.558c.337-.155.28-.403.217-.573l-.547-1.374h-1.945l-.457 1.147c-.098.255-.168.553.176.8h-1.37c.38-.247.52-.573.66-.927l1.447-3.697c.028-.071.134-.347-.168-.49h1.179z" fill="#000"/><path d="M104.894 70.244c-.204-.29-.365-.439-.569-.531l.618-.021c.555-.021.485-.064.786.375l.983 1.438.843-1.133c.042-.057.154-.22.154-.347 0-.078-.035-.234-.281-.305h1.391l-1.776 2.274 1.495 2.181c.26.383.498.553.709.659h-1.2c-.169-.17-.239-.284-.331-.432l-1.186-1.814-1.11 1.474c-.119.163-.196.29-.196.404 0 .17.133.297.295.36h-1.531a6.77 6.77 0 0 0 .527-.615l1.65-2.118-1.271-1.849zm5.449-.531l1.411 3.053.969-2.224c.042-.085.098-.27.098-.475a.395.395 0 0 0-.211-.36h1.11l-1.819 4.079c-.428.963-1.039 1.111-1.545 1.111-.301 0-.526-.042-.779-.198l.485-.545a.602.602 0 0 0 .4.135c.449 0 .723-.326.849-.596l.141-.283c-.316-.226-.4-.404-.499-.602l-1.278-2.557c-.182-.368-.386-.488-.505-.538h1.173zm4.977 4.505c.197.029.485.064.752.064 1.109 0 1.221-.687 1.221-.999 0-.425-.246-1.062-1.376-1.062-.056 0-.203 0-.604.028v1.97h.007zm0-2.472l.4.007c.759.015 1.11-.396 1.11-.814 0-.39-.274-.722-.934-.722a5.53 5.53 0 0 0-.576.042v1.487zm.878-2.075c.857-.014 1.453.432 1.453 1.148 0 .651-.491.934-.765 1.034.723.078 1.243.609 1.243 1.374 0 .651-.358 1.593-2.121 1.593h-1.762c.33-.233.33-.524.33-.73v-3.654c0-.205 0-.496-.33-.73l1.952-.035zm3.869 2.719h1.573l-.794-2.019-.779 2.02zm1.285-2.677l1.748 4.363c.119.283.26.56.618.75h-1.559c.337-.155.281-.403.218-.573l-.548-1.374h-1.945l-.456 1.147c-.098.255-.169.553.175.8h-1.369c.379-.247.52-.573.66-.927l1.447-3.697c.028-.071.133-.347-.169-.49h1.18zm6.529 2.011v-1.282c0-.24-.007-.495-.33-.73h1.404c-.323.235-.33.49-.33.73v3.655c0 .241.007.496.33.73h-1.404c.323-.234.33-.489.33-.73v-1.785h-2.787v1.785c0 .241.007.496.33.73h-1.404c.323-.234.337-.489.337-.73v-3.655c0-.24-.007-.495-.337-.73h1.404c-.323.235-.33.49-.33.73v1.282h2.787zm5.919 0v-1.282c0-.24-.007-.495-.33-.73h1.404c-.323.235-.33.49-.33.73v3.655c0 .241.007.496.33.73h-1.404c.323-.234.33-.489.33-.73v-1.785h-2.787v1.785c0 .241.007.496.33.73h-1.405c.323-.234.338-.489.338-.73v-3.655c0-.24-.008-.495-.338-.73h1.405c-.323.235-.33.49-.33.73v1.282h2.787zm4.613-1.458a2.474 2.474 0 0 0-.484-.042c-.794 0-1.033.474-1.033.927 0 .723.752.992 1.306.95-.505.935-1.636 2.769-2.457 2.769-.098 0-.232-.007-.787-.042.878-.404 1.875-1.771 2.339-2.458-.646-.114-1.229-.546-1.229-1.247 0-.467.147-1.438 1.832-1.438.211 0 .422.007.632.014.316.008.639.015.955.015-.33.234-.33.524-.33.73v3.654c0 .205 0 .496.33.73h-1.404c.33-.234.33-.525.33-.73v-3.832z" fill="#000"/></svg>