<svg width="184" height="124" viewBox="0 0 184 124" fill="none" xmlns="http://www.w3.org/2000/svg"><path d="M17.068 47.986c0 10.562-8.878 12.538-8.878 22.69 0 3.962 2.507 7.394 5.465 7.804-.216-.722-.287-1.28-.287-2.06 0-7.328 11.82-9.6 11.82-22.098 0-5.976-4.23-11.028-9.165-12.228 0 0 1.042 3.243 1.042 5.889l.003.003z" fill="#EA203A"/><path d="M16.32 76.864c0 2.073 1.474 4.282 3.396 5.001-.1-.306-.148-.575-.148-1.025 0-4.084 12.123-5.385 12.123-16.057 0-2.952-1.238-6.155-3.69-8.256C26.34 68.658 16.32 70.33 16.32 76.864z" fill="#75BD4C"/><path d="M9.968 45.482s.584 1.046.584 2.212C10.552 51.442 7 52.871 7 56.68c0 1.798.982 3.274 2.368 4.131.037-.326.07-.632.155-.887.83-2.646 4.722-5.573 4.722-9.725 0-2.487-2.07-4.534-4.277-4.716z" fill="#1BA6E2"/><path d="M48.528 67.25c2.297 2.064 4.476 3.278 7.62 3.278 1.744 0 4.921-.733 4.921-3.019 0-1.32-.998-1.99-2.951-2.319l-5.481-.887c-4.878-.77-7.546-3.352-7.546-7.22 0-6.333 5.144-8.955 10.767-8.955 4.365 0 8.658 1.768 11.613 5.049l-4.995 3.573a9.122 9.122 0 0 0-7.067-3.321c-1.507 0-3.734.958-3.734 2.655 0 1.398 1.15 2.101 3.66 2.508l2.523.403c5.249.847 9.58 2.467 9.58 7.476 0 7.889-7.145 9.368-12.059 9.368-4.473 0-8.672-1.442-12.264-5.345l5.413-3.243zm35.103 8.592c-8.402 0-13.32-6.49-13.32-13.865 0-7.362 4.918-13.85 13.32-13.85 8.392 0 13.307 6.488 13.307 13.85 0 7.371-4.918 13.865-13.307 13.865zm0-22.191c-3.852 0-6.732 2.437-6.732 8.326 0 3.838 1.555 8.336 6.732 8.336 4.878 0 6.73-4.28 6.73-8.336 0-4.125-1.852-8.326-6.73-8.326zm34.837 3.95c-.927-2.438-3.184-3.954-5.485-3.954-3.616 0-6.496 2.444-6.496 8.333 0 3.835 1.552 8.333 6.732 8.333 1.774 0 4.365-1.325 5.398-3.688l5.214 2.508c-2.257 4.09-6.176 6.706-10.612 6.706-8.401 0-13.323-6.488-13.323-13.859 0-7.361 4.591-13.849 12.801-13.849 5.174 0 8.574 2.505 11.02 6.847l-5.249 2.622zm15.61-8.73h6.804l9.95 26.228h-7.07l-1.329-4.124h-9.721l-1.336 4.124h-7.019l9.721-26.228zm6.763 17.237l-3.248-10.83h-.071l-3.259 10.83h6.578zm12.601-17.24h13.166c5.919 0 9.549 2.729 9.549 8.618 0 3.395-2.149 6.114-5.444 7.076l6.037 10.537h-7.366l-5.178-9.432h-4.176V75.1h-6.588V48.867zm6.588 11.925h6.028c2.108-.03 3.514-1.092 3.514-3.529s-1.406-3.503-3.514-3.54h-6.028v7.07z" fill="#000"/></svg>