<svg width="184" height="124" viewBox="0 0 184 124" fill="none" xmlns="http://www.w3.org/2000/svg"><path d="M104.628 44.533V63.63h-5.914V53.345l-5.947 7.772-5.913-7.745V63.63h-5.947V44.533h5.947l5.913 8.157 5.947-8.157h5.914zm22.664 19.097h-6.645l-3.654-5.075-3.655 5.075h-6.677l7.01-9.74-6.745-9.357h6.678l3.389 4.72 3.389-4.72h6.677l-6.744 9.385 6.977 9.712zm19.961-19.097V63.63h-5.947V49.253h-6.046V63.63h-5.947V44.533h17.94zM83.81 70.817l-.179-.616h-1.389l-.179.616h-1.156l1.377-4.268h1.3l1.376 4.267h-1.15zm-1.294-1.555h.84l-.423-1.451-.417 1.451zm5.334-2.713v1.054h-1.4v3.214h-1.067v-4.268h2.468zm2.103 0c.42 0 .774.14 1.06.42.287.281.43.639.43 1.074 0 .434-.143.792-.43 1.073-.286.28-.64.42-1.06.42h-.555v1.28h-1.067V66.55h1.622zm0 1.95a.391.391 0 0 0 .298-.127.45.45 0 0 0 .125-.33.43.43 0 0 0-.125-.323.39.39 0 0 0-.298-.128h-.555v.909h.555zm5.597 1.768c-.422.427-.939.64-1.55.64a2.114 2.114 0 0 1-1.557-.64c-.42-.43-.632-.959-.632-1.585s.211-1.152.632-1.579c.426-.43.944-.646 1.556-.646.612 0 1.129.216 1.55.646.425.427.638.953.638 1.58 0 .625-.213 1.154-.638 1.584zm-2.355-.75c.214.216.482.324.804.324.322 0 .59-.108.805-.323.215-.22.322-.498.322-.836 0-.337-.107-.614-.322-.829a1.08 1.08 0 0 0-.805-.329c-.322 0-.59.11-.804.33-.215.215-.322.49-.322.828 0 .338.107.616.322.836zm3.606-2.968h1.067v4.267h-1.067V66.55zm4.084 0h1.061v4.267h-1.061v-1.64H99.71v1.64h-1.066V66.55h1.066v1.58h1.175v-1.58zm5.204 3.213h.447v1.872h-1.061v-.817h-1.95v.817h-1.067v-1.872h.442c.19-.313.286-.764.286-1.354v-1.86h2.903v3.214zm-2.081 0h1.02v-2.2h-.781v.859c0 .569-.08 1.016-.239 1.34zm5.196-3.213h1.091l-1.204 2.957c-.191.463-.441.802-.751 1.018-.306.215-.686.313-1.139.293v-1.019c.378.033.656-.07.835-.31l-1.365-2.94h1.097l.768 1.745.668-1.744zm3.326 4.359c-.628 0-1.148-.212-1.562-.635-.409-.426-.614-.957-.614-1.59 0-.635.205-1.163.614-1.586.414-.427.934-.64 1.562-.64.378 0 .728.092 1.049.275.322.182.575.428.757.737l-.924.543a.838.838 0 0 0-.357-.354 1.028 1.028 0 0 0-.525-.134c-.334 0-.604.108-.81.323-.203.212-.304.49-.304.835 0 .346.101.626.304.842.206.21.476.317.81.317.195 0 .37-.043.525-.128a.869.869 0 0 0 .357-.366l.924.549a2.001 2.001 0 0 1-.757.743 2.102 2.102 0 0 1-1.049.269zm5.192-4.359v1.054h-1.031v3.214h-1.067v-3.213h-1.031v-1.055h3.129zm2.128 0c.421 0 .775.14 1.061.42.286.281.429.639.429 1.074 0 .434-.143.792-.429 1.073-.286.28-.64.42-1.061.42h-.554v1.28h-1.067V66.55h1.621zm0 1.95a.39.39 0 0 0 .298-.127.452.452 0 0 0 .125-.33.432.432 0 0 0-.125-.323.39.39 0 0 0-.298-.128h-.554v.909h.554zm2.025-1.95h1.068v4.267h-1.068V66.55zm4.388 4.268l-.178-.616h-1.389l-.179.616h-1.157l1.377-4.268h1.3l1.377 4.267h-1.151zm-1.293-1.555h.84l-.423-1.451-.417 1.451zm2.667 1.555v-1.019c.223.029.384-.004.483-.097.103-.098.155-.297.155-.598V66.55h2.969v4.267h-1.067v-3.213h-.835v1.55c0 .349-.05.645-.149.89-.095.24-.228.416-.399.53a1.424 1.424 0 0 1-.537.226 2.094 2.094 0 0 1-.62.017zm6.003-2.987a1.455 1.455 0 0 1 1.491 1.493 1.455 1.455 0 0 1-1.491 1.494h-1.621v-4.268h1.067v1.28h.554zm0 1.944c.12 0 .219-.04.298-.122a.45.45 0 0 0 .126-.329.45.45 0 0 0-.126-.33.388.388 0 0 0-.298-.127h-.554v.908h.554zm4.267-3.225h1.061v4.267h-1.061v-1.64h-1.174v1.64h-1.067V66.55h1.067v1.58h1.174v-1.58zm4.144 4.268V68.67l-1.473 2.145h-.828V66.55h1.066v2.146l1.473-2.146h.822v4.267h-1.06zm2.555-4.597v-.854h1.926v.854h-1.926zm1.586 4.597V68.67l-1.472 2.146h-.829v-4.268h1.067v2.146l1.472-2.146h.823v4.268h-1.061zm-42.071 7.621h-1.192l-.656-1.134-.656 1.134h-1.198l1.258-2.177-1.21-2.091h1.198l.608 1.055.608-1.055h1.198l-1.21 2.097 1.252 2.17zm3.796-.55c-.421.427-.938.64-1.55.64a2.11 2.11 0 0 1-1.555-.64c-.422-.43-.632-.959-.632-1.585s.21-1.152.632-1.578a2.1 2.1 0 0 1 1.555-.647c.612 0 1.129.216 1.55.647.426.426.638.953.638 1.579s-.212 1.154-.638 1.584zm-2.354-.75c.214.216.482.324.804.324.322 0 .59-.108.805-.323.215-.22.322-.498.322-.835 0-.338-.107-.614-.322-.83a1.08 1.08 0 0 0-.805-.329c-.322 0-.59.11-.804.33-.215.215-.322.491-.322.829 0 .337.107.615.322.835zm3.099 1.3v-1.019c.223.029.383-.003.483-.097.103-.097.155-.297.155-.597V74.17h2.969v4.268h-1.068v-3.213h-.834v1.548c0 .35-.05.646-.149.89-.095.24-.229.417-.4.53a1.413 1.413 0 0 1-.536.227 2.087 2.087 0 0 1-.62.018zm7.743-1.055h.447v1.872h-1.061v-.817h-1.949v.817h-1.067v-1.872h.441c.191-.313.286-.764.286-1.354v-1.86h2.903v3.214zm-2.08 0h1.019v-2.2h-.781v.859c0 .569-.079 1.016-.238 1.341zm5.383 1.055v-2.146l-1.473 2.146h-.828V74.17h1.067v2.146l1.472-2.146h.823v4.268h-1.061zm4.082-4.268h1.061v4.268h-1.061v-1.64h-1.175v1.64h-1.067V74.17h1.067v1.58h1.175v-1.58zm4.31 0v1.055h-1.401v3.213h-1.067V74.17h2.468z" fill="#003A5D"/><path fill-rule="evenodd" clip-rule="evenodd" d="M48.49 47.31l10.103 10.577v7.4H56.73v-6.682l-8.24-8.627-8.24 8.627v6.682h-1.863v-7.4L48.49 47.31zM38.387 74.275h20.206v6.874H38.387v-6.874zm1.862 1.803v3.268h16.48v-3.268H40.25z" fill="#003A5D"/><path fill-rule="evenodd" clip-rule="evenodd" d="M48.474 54.487l6.769 6.731-6.77 6.731-6.769-6.73 6.77-6.732zm0 2.58l-4.176 4.151 4.176 4.153 4.176-4.153-4.176-4.152z" fill="#003A5D"/><path fill-rule="evenodd" clip-rule="evenodd" d="M45.3 63.443l5.158-5.557 1.222 1.316-5.158 5.557-1.223-1.316z" fill="#003A5D"/><path fill-rule="evenodd" clip-rule="evenodd" d="M46.522 57.886l5.158 5.556-1.222 1.317-5.159-5.557 1.223-1.316z" fill="#003A5D"/><path fill-rule="evenodd" clip-rule="evenodd" d="M54.148 68.46l-3.531-3.902 1.255-1.386 3.53 3.9-1.254 1.387zm.191 3.97l5.159-5.557 1.222 1.317-5.159 5.556-1.222-1.316zm2.659 2.644l5.588-5.556 1.324 1.316-5.588 5.557-1.324-1.317z" fill="#003A5D"/><path fill-rule="evenodd" clip-rule="evenodd" d="M50.825 70.288l6.77-6.731 9.505 9.451-6.77 6.731-9.505-9.451zm2.594 0l6.912 6.873 4.176-4.153-6.912-6.873-4.176 4.153zm1.983-14.856l-3.53 3.511-1.255-1.248 3.53-3.51 1.255 1.247zm4.096.338l-5.16-5.556 1.223-1.316 5.159 5.556-1.222 1.317zm3.088-3.171l-5.588-5.13 1.324-1.215 5.588 5.13-1.324 1.215z" fill="#003A5D"/><path fill-rule="evenodd" clip-rule="evenodd" d="M57.595 58.88l-6.77-6.73 9.506-9.453 6.77 6.731-9.506 9.452zm0-2.579l6.912-6.873-4.176-4.152-6.912 6.873 4.176 4.152zM41.577 67.073l3.53-3.901 1.256 1.386-3.531 3.901-1.255-1.386zm-4.525-.2l5.589 5.557-1.325 1.316-5.588-5.556 1.324-1.317zm-2.658 2.645l5.588 5.556-1.324 1.317-5.589-5.557 1.325-1.316z" fill="#003A5D"/><path fill-rule="evenodd" clip-rule="evenodd" d="M39.352 63.557l6.77 6.73-9.506 9.453-6.77-6.731 9.506-9.452zm0 2.579l-6.912 6.873 4.176 4.152 6.912-6.873-4.175-4.152zm3.48-11.951l3.53 3.51-1.254 1.248-3.53-3.51 1.254-1.248zm-.192-3.971l-5.588 5.557-1.324-1.317 5.588-5.556 1.325 1.316zm-2.658-2.744l-5.588 5.129-1.325-1.216 5.589-5.13 1.324 1.216z" fill="#003A5D"/><path fill-rule="evenodd" clip-rule="evenodd" d="M46.122 52.15l-6.77 6.73-9.505-9.452 6.77-6.73 9.505 9.451zm-2.594 0l-6.912-6.874-4.176 4.152 6.913 6.873 4.175-4.152z" fill="#003A5D"/></svg>