<svg width="220" height="124" viewBox="0 0 220 124" fill="none" xmlns="http://www.w3.org/2000/svg"><g clip-path="url(#a)"><path d="M88.908 54.13c0 1.184.128 2.143.352 2.847a17.14 17.14 0 0 0 1.023 2.304c.16.256.224.512.224.736 0 .32-.192.64-.608.96l-2.015 1.343c-.288.192-.575.288-.831.288-.32 0-.64-.16-.96-.448a9.9 9.9 0 0 1-1.151-1.503c-.32-.544-.64-1.152-.991-1.888-2.495 2.943-5.63 4.415-9.403 4.415-2.687 0-4.83-.768-6.397-2.303-1.567-1.536-2.366-3.584-2.366-6.143 0-2.72.96-4.927 2.91-6.59 1.95-1.665 4.542-2.496 7.836-2.496 1.087 0 2.206.096 3.39.256 1.183.16 2.398.416 3.678.703v-2.335c0-2.432-.512-4.127-1.504-5.119-1.023-.992-2.75-1.472-5.213-1.472-1.119 0-2.27.128-3.454.416-1.183.288-2.334.64-3.454 1.088a9.183 9.183 0 0 1-1.12.416 1.959 1.959 0 0 1-.51.096c-.448 0-.672-.32-.672-.992v-1.568c0-.511.064-.895.224-1.12.16-.223.447-.447.895-.671 1.12-.576 2.463-1.056 4.03-1.44 1.567-.416 3.23-.608 4.989-.608 3.806 0 6.588.864 8.38 2.592 1.758 1.727 2.654 4.35 2.654 7.87V54.13h.064zm-12.985 4.863c1.055 0 2.143-.192 3.294-.576 1.151-.384 2.175-1.088 3.038-2.047.512-.608.896-1.28 1.088-2.048.192-.768.32-1.696.32-2.784v-1.343a26.692 26.692 0 0 0-2.943-.544 24.086 24.086 0 0 0-3.006-.192c-2.143 0-3.71.416-4.765 1.28-1.056.864-1.567 2.08-1.567 3.679 0 1.504.383 2.623 1.183 3.391.767.8 1.887 1.184 3.358 1.184zm25.682 3.455c-.576 0-.96-.096-1.216-.32-.256-.192-.48-.64-.671-1.247L92.202 36.15c-.192-.64-.288-1.056-.288-1.28 0-.512.256-.8.768-.8h3.134c.608 0 1.023.096 1.247.32.256.192.448.64.64 1.248l5.373 21.18 4.989-21.18c.16-.64.352-1.056.608-1.248.255-.192.703-.32 1.279-.32h2.558c.608 0 1.024.096 1.28.32.256.192.479.64.607 1.248l5.054 21.435 5.532-21.435c.192-.64.416-1.056.64-1.248.256-.192.672-.32 1.247-.32h2.975c.511 0 .799.256.799.8 0 .16-.032.32-.064.512a4.552 4.552 0 0 1-.224.8l-7.707 24.73c-.192.64-.416 1.056-.672 1.248-.256.192-.671.32-1.215.32h-2.751c-.607 0-1.023-.096-1.279-.32s-.48-.64-.608-1.28l-4.957-20.635-4.925 20.604c-.16.64-.352 1.055-.608 1.28-.256.223-.703.32-1.279.32h-2.75zm41.097.864c-1.664 0-3.327-.192-4.926-.576-1.599-.384-2.846-.8-3.678-1.28-.511-.288-.863-.607-.991-.895a2.257 2.257 0 0 1-.192-.896v-1.632c0-.672.256-.992.736-.992.192 0 .383.032.575.096.192.064.48.192.8.32 1.087.48 2.271.864 3.518 1.12a19.19 19.19 0 0 0 3.806.384c2.015 0 3.582-.352 4.669-1.056 1.088-.704 1.663-1.727 1.663-3.04 0-.895-.288-1.63-.863-2.239-.576-.608-1.663-1.151-3.23-1.663l-4.638-1.44c-2.335-.736-4.062-1.824-5.117-3.263-1.055-1.408-1.599-2.976-1.599-4.64 0-1.343.288-2.527.863-3.55a8.236 8.236 0 0 1 2.303-2.624c.96-.736 2.047-1.28 3.326-1.664 1.28-.384 2.623-.544 4.03-.544.704 0 1.439.032 2.143.128.735.096 1.407.224 2.079.352.639.16 1.247.32 1.823.512.575.192 1.023.384 1.343.576.448.256.767.512.959.8.192.256.288.608.288 1.056v1.503c0 .672-.256 1.024-.735 1.024-.256 0-.672-.128-1.216-.384-1.823-.832-3.87-1.248-6.14-1.248-1.823 0-3.263.288-4.254.896-.991.608-1.503 1.536-1.503 2.848 0 .895.32 1.663.959 2.271.64.608 1.823 1.216 3.518 1.76l4.542 1.44c2.303.735 3.966 1.76 4.957 3.07.991 1.313 1.471 2.816 1.471 4.48 0 1.376-.288 2.623-.831 3.711-.576 1.088-1.344 2.048-2.335 2.816-.991.8-2.175 1.375-3.55 1.791-1.439.448-2.942.672-4.573.672z" fill="#252F3E"/><path fill-rule="evenodd" clip-rule="evenodd" d="M148.747 78.86c-10.522 7.775-25.81 11.902-38.955 11.902-18.421 0-35.02-6.814-47.557-18.14-.991-.896-.096-2.112 1.087-1.408 13.56 7.87 30.287 12.638 47.59 12.638 11.673 0 24.498-2.432 36.299-7.423 1.76-.8 3.263 1.152 1.536 2.431z" fill="#F90"/><path fill-rule="evenodd" clip-rule="evenodd" d="M153.128 73.87c-1.343-1.728-8.891-.832-12.313-.416-1.023.128-1.183-.768-.256-1.44 6.013-4.223 15.895-3.007 17.047-1.6 1.151 1.44-.32 11.326-5.949 16.061-.864.736-1.695.352-1.311-.607 1.279-3.168 4.125-10.302 2.782-11.998z" fill="#F90"/></g><defs><clipPath id="a"><path fill="#fff" transform="translate(60.935 33.238)" d="M0 0h98.129v57.524H0z"/></clipPath></defs></svg>