<svg width="220" height="124" viewBox="0 0 220 124" fill="none" xmlns="http://www.w3.org/2000/svg"><path d="M94.928 65.456h11.468l-6.064-9.924-11.13 17.943h-5.065l13.537-21.554a3.183 3.183 0 0 1 2.658-1.397c1.052 0 2.033.508 2.604 1.36l13.591 21.591h-5.065l-2.39-4.01H97.46l-2.532-4.009zm52.616 4.01V50.742h-4.298v20.556a2.177 2.177 0 0 0 2.193 2.177h19.602l2.533-4.01h-20.03zm-71.112-3.357c4.174 0 7.562-3.429 7.562-7.674 0-4.246-3.388-7.693-7.562-7.693H57.627v22.733h4.297V54.752h14.222c1.998 0 3.603 1.65 3.603 3.683 0 2.032-1.605 3.683-3.603 3.683L64.03 62.1l12.83 11.375h6.244L74.47 66.11h1.962zm-45.256 7.366c-6.17 0-11.176-5.08-11.176-11.357 0-6.278 5.007-11.376 11.176-11.376h12.99c6.171 0 11.174 5.098 11.174 11.376 0 6.277-5.002 11.357-11.174 11.357h-12.99zm12.7-4.01c3.998 0 7.235-3.283 7.235-7.348 0-4.064-3.237-7.365-7.234-7.365H31.463c-3.995 0-7.234 3.302-7.234 7.366s3.24 7.348 7.235 7.348h12.413zm81.623 4.01c-6.172 0-11.183-5.08-11.183-11.357 0-6.278 5.011-11.376 11.183-11.376h15.428l-2.515 4.01h-12.628c-3.996 0-7.242 3.301-7.242 7.365 0 4.065 3.246 7.348 7.242 7.348h15.499l-2.532 4.01h-13.252zm52.562-4.01c-3.299 0-6.1-2.25-6.956-5.352h18.372l2.532-4.01h-20.904c.857-3.084 3.657-5.352 6.957-5.352h12.61l2.55-4.01h-15.446c-6.171 0-11.183 5.099-11.183 11.376 0 6.278 5.012 11.358 11.183 11.358h13.252l2.533-4.01h-15.5zm17.462-16.31a2.022 2.022 0 0 1 .573-1.413 1.953 1.953 0 0 1 1.389-.583c1.106 0 1.98.89 1.98 1.996 0 1.125-.874 2.014-1.98 2.014-1.088 0-1.962-.889-1.962-2.014zm1.962 2.576c1.391 0 2.515-1.143 2.515-2.558 0-1.415-1.124-2.558-2.515-2.558-1.373 0-2.497 1.143-2.497 2.558 0 1.415 1.124 2.558 2.497 2.558zm-.232-4.082c.392 0 .553.018.732.09.499.164.553.618.553.8a.76.76 0 0 1-.036.235.736.736 0 0 1-.339.49c-.036.018-.054.036-.125.072l.642 1.18h-.624l-.571-1.089h-.392v1.089h-.553v-2.867h.713zm.196 1.306c.179-.018.357-.018.464-.181a.386.386 0 0 0 .072-.254.408.408 0 0 0-.215-.345c-.125-.054-.249-.054-.517-.054h-.16v.834h.356z" fill="#F80000"/></svg>