<svg width="220" height="124" viewBox="0 0 220 124" fill="none" xmlns="http://www.w3.org/2000/svg"><g clip-path="url(#a)" fill-rule="evenodd" clip-rule="evenodd"><path d="M84.04 75.87c-.834-.198-1.688-.3-2.545-.305-1.49 0-2.846.259-3.846.674a.342.342 0 0 0-.188.302.36.36 0 0 0 .03.135c.119.343-.076.715-1.044.927-1.435.315-2.342 1.794-2.86 2.285-.608.578-2.327.932-2.07.588.203-.27.978-1.109 1.448-2.015.421-.81.796-1.04 1.313-1.814.15-.228.737-1.024.908-1.655.193-.617.128-1.389.202-1.708.104-.457.539-1.453.57-2.016.02-.316-1.328.455-1.967.455-.64 0-1.263-.382-1.833-.41-.707-.035-1.161.544-1.802.444-.364-.06-.672-.38-1.31-.404-.908-.034-2.02.505-4.105.438-2.052-.067-3.946-2.589-4.205-2.991-.303-.471-.675-.471-1.077-.102-.404.37-.902.08-1.044-.166-.269-.471-.99-1.848-2.103-2.134-1.54-.4-2.32.85-2.22 1.848.103 1.01.757 1.293 1.06 1.83.303.538.458.885 1.027 1.122.404.168.555.418.434.75-.106.287-.525.353-.803.366-.587.029-.997-.13-1.298-.324-.35-.22-.633-.53-.937-1.054-.352-.579-.908-.83-1.554-.83-.308 0-.598.081-.853.214a7.667 7.667 0 0 1-3.52.838h-1.463a20.99 20.99 0 0 1-1.1-6.726c0-11.621 9.433-21.042 21.07-21.042 11.635 0 21.066 9.42 21.066 21.042a20.942 20.942 0 0 1-3.38 11.438z" fill="#020002"/><path d="M70.993 73.94c.109.105.296.459.068.91a1.79 1.79 0 0 1-.514.604c-.295.238-.874.51-1.67.008-.426-.271-.452-.361-1.042-.286-.422.055-.588-.368-.438-.723.153-.352.773-.636 1.549-.184.347.204.89.635 1.365.253.198-.159.315-.263.588-.579a.07.07 0 0 1 .05-.021.07.07 0 0 1 .044.018z" fill="#020002"/><path d="M78.242 58.831c-.208.701-.504 1.593-1.82 2.27-.193.097-.266-.063-.178-.215.5-.845.586-1.057.731-1.39.203-.488.308-1.181-.094-2.63-.792-2.847-2.446-6.654-3.647-7.889-1.16-1.191-3.26-1.526-5.16-1.04-.7.178-2.067.89-4.604.319-4.392-.988-5.041 1.208-5.294 2.164-.252.958-.858 3.677-.858 3.677-.201 1.107-.465 3.032 6.353 4.33 3.177.605 3.338 1.426 3.479 2.014.25 1.058.653 1.663 1.11 1.965.453.303 0 .552-.505.603-1.352.14-6.352-1.292-9.31-2.97-2.42-1.477-2.46-2.807-1.906-3.936-3.656-.394-6.399.343-6.896 2.072-.855 2.966 6.529 8.034 14.937 10.575 8.822 2.67 17.896.807 18.904-4.733.46-2.517-1.664-4.378-5.242-5.186z" fill="#C1342C"/><path d="M86.638 74.951h.143l.213.352h.138l-.233-.359c.121-.012.213-.076.213-.22 0-.161-.096-.233-.287-.233h-.31v.812h.123v-.352zm0-.103v-.252h.17c.085 0 .175.018.175.118 0 .126-.093.133-.198.133h-.147z" fill="#020002"/><path d="M87.58 74.899a.795.795 0 0 1-1.358.564.795.795 0 0 1 .867-1.3.797.797 0 0 1 .492.736zm-.797-.654a.655.655 0 0 0 0 1.307c.36 0 .657-.29.657-.653a.657.657 0 0 0-.657-.654zm-22.07-20.838c-2.432.176-2.686.439-3.141.924-.643.683-1.49-.888-1.49-.888-.508-.107-1.123-.925-.792-1.688.328-.756.932-.53 1.122-.296.23.287.722.756 1.36.74.639-.016 1.377-.15 2.405-.15 1.04 0 1.742.388 1.781.72.034.285-.084.554-1.244.638zm2.557-4.016h-.01c-.038 0-.069-.028-.069-.063 0-.025.016-.047.039-.058.471-.248 1.175-.447 1.98-.53.275-.027.55-.04.827-.038 1.35.03 2.431.567 2.415 1.197-.016.63-1.123 1.117-2.474 1.088a4.749 4.749 0 0 1-1.2-.176.091.091 0 0 1-.073-.087c0-.043.03-.08.074-.089.843-.194 1.41-.513 1.37-.815-.053-.398-1.155-.615-2.462-.484-.142.016-.282.035-.417.055zM98.483 66.6c0-1.89-.04-3.28-.116-4.536h3.094l.133 2.68h.1c.695-1.986 2.344-3 3.869-3 .348 0 .552.014.838.077v3.36a5.412 5.412 0 0 0-1.077-.1c-1.703 0-2.884 1.082-3.203 2.7a5.91 5.91 0 0 0-.093 1.078v7.318h-3.575l.03-9.577zm12.229 3.482c.097 2.555 2.077 3.675 4.366 3.675 1.642 0 2.817-.257 3.897-.655l.532 2.458c-1.211.51-2.888.895-4.941.895-4.586 0-7.274-2.83-7.274-7.155 0-3.897 2.365-7.581 6.911-7.581 4.594 0 6.09 3.773 6.09 6.864 0 .663-.057 1.195-.129 1.524l-9.452-.025zm6.216-2.487c.016-1.308-.554-3.44-2.947-3.44-2.2 0-3.114 1.994-3.273 3.44h6.22zm45.111 5.276c0 1.102.043 2.24.203 3.306h-1.27l-.201-1.994h-.067c-.676 1.073-2.228 2.312-4.443 2.312-2.802 0-4.106-1.972-4.106-3.826 0-3.21 2.838-5.146 8.506-5.09v-.369c0-1.375-.27-4.123-3.565-4.1-1.219 0-2.489.325-3.497 1.036l-.439-1.001c1.274-.861 2.827-1.202 4.087-1.202 4.021 0 4.792 3.013 4.792 5.5v5.428zm-1.378-4.132c-3.034-.088-7.042.373-7.042 3.714 0 2 1.322 2.898 2.773 2.898 2.323 0 3.642-1.436 4.121-2.79a2.61 2.61 0 0 0 .148-.834V68.74zm7.057-9.545v3.067h3.971v1.117h-3.971v9.044c0 1.77.552 2.878 2.048 2.878.717 0 1.225-.094 1.582-.217l.167 1.066c-.451.189-1.083.333-1.922.333-1.019 0-1.86-.319-2.404-.985-.631-.734-.849-1.9-.849-3.32v-8.799h-2.35v-1.117h2.35v-2.559l1.378-.508zm-22.692 2.749a5.312 5.312 0 0 0-2.806.797 5.088 5.088 0 0 0-1.903 2.007h-.058v-6.885l-1.378-.376v18.69h1.378v-8.508c0-.566.043-.958.189-1.371.594-1.73 2.227-3.152 4.202-3.152 2.851 0 3.839 2.286 3.839 4.791v8.241h1.378v-8.392c.001-5.184-3.521-5.842-4.841-5.842zm-9.341-5.321l-3.571-.966v7.928h-.058c-.632-1.042-2.025-1.84-3.96-1.84-3.397 0-6.358 2.808-6.335 7.538 0 4.339 2.673 7.213 6.047 7.213 2.039 0 3.744-.972 4.587-2.552h.065l.161 2.234h3.182a66.17 66.17 0 0 1-.118-3.96V56.623zm-3.571 13.434c0 .376-.027.725-.108 1.042-.36 1.545-1.624 2.54-3.084 2.54-2.25 0-3.538-1.894-3.538-4.487 0-2.618 1.277-4.644 3.578-4.644 1.607 0 2.755 1.132 3.073 2.505.061.29.079.647.079.931v2.113zm41.47 5.5h.171l.257.424h.165l-.277-.43c.143-.018.252-.093.252-.268 0-.192-.113-.277-.346-.277h-.368v.975h.146v-.424zm0-.124v-.302h.202c.101 0 .213.022.213.142 0 .15-.111.159-.237.159h-.178z" fill="#020002"/><path d="M174.715 75.495a.955.955 0 0 1-1.911 0 .953.953 0 0 1 .955-.919.957.957 0 0 1 .956.919zm-.956-.786a.787.787 0 0 0 0 1.572.785.785 0 0 0 .784-.786.784.784 0 0 0-.784-.786z" fill="#020002"/></g><defs><clipPath id="a"><path fill="#fff" transform="translate(45.286 43.39)" d="M0 0h129.429v37.221H0z"/></clipPath></defs></svg>