<svg width="220" height="124" viewBox="0 0 220 124" fill="none" xmlns="http://www.w3.org/2000/svg"><path d="M60.571 62.129h-7.76v-7.78h8.182c2.994 0 4.492 1.316 4.492 3.95 0 2.554-1.639 3.831-4.914 3.831v-.001zm5.578-7.871c-1.07-.95-2.552-1.424-4.463-1.424l-11.114.061V71.51h2.24l-.02-7.924h8.269c2.073 0 3.706-.475 4.897-1.424 1.191-.95 1.787-2.267 1.787-3.952 0-1.684-.532-3.001-1.595-3.951h-.001zM80.642 67.6a3.815 3.815 0 0 1-1.062 1.583c-1.004.976-2.534 1.464-4.592 1.464-1.86 0-3.285-.467-4.28-1.423-.995-.956-1.494-2.218-1.494-3.809 0-.828.13-1.563.39-2.204a4.313 4.313 0 0 1 1.134-1.624c1.03-.936 2.446-1.404 4.25-1.404 3.997 0 5.996 1.744 5.996 5.232 0 .829-.114 1.557-.334 2.185h-.008zm.413-6.867c-1.364-1.24-3.383-1.866-6.06-1.866-2.528 0-4.482.633-5.86 1.9-1.243 1.146-1.872 2.693-1.872 4.641 0 1.933.642 3.493 1.926 4.68a6.443 6.443 0 0 0 2.478 1.39c.944.287 2.05.43 3.321.43 2.662 0 4.681-.613 6.08-1.84 1.245-1.12 1.873-2.666 1.873-4.66 0-2-.628-3.56-1.886-4.682v.007zm16.931 7.405c0 2.505-2.25 3.758-6.754 3.758-1.376 0-2.536-.087-3.478-.261-.941-.175-1.707-.464-2.294-.866a3.353 3.353 0 0 1-1.083-1.2c-.267-.493-.441-1.113-.521-1.866l2.095-.02c0 .986.366 1.712 1.1 2.178.787.56 2.18.84 4.181.84 3.147 0 4.721-.786 4.721-2.358 0-.92-.535-1.552-1.583-1.9-.214-.067-1.487-.244-3.812-.53-2.325-.286-3.785-.543-4.359-.77-1.242-.493-1.864-1.38-1.864-2.658 0-1.254.555-2.187 1.672-2.799.549-.253 1.234-.45 2.057-.59.824-.14 1.777-.21 2.86-.21 4.335 0 6.502 1.356 6.502 4.067h-1.992c0-1.907-1.525-2.867-4.572-2.867-1.55 0-2.706.2-3.468.58-.761.38-1.142.98-1.142 1.78 0 .747.515 1.287 1.544 1.62.601.173 1.984.373 4.15.6 1.938.173 3.268.42 3.99.733 1.377.534 2.065 1.44 2.065 2.718l-.015.021zm8.23 3.395l-.852.12-.532.04c-1.364 0-2.341-.196-2.952-.591-.61-.395-.904-1.085-.904-2.067v-8.503h-2.478v-1.25h2.465l.02-4.013h1.91v4.014h3.327v1.269l-3.327-.02v8.265c0 .615.164 1.04.492 1.266.328.227.912.351 1.754.351.121.013.255.01.402-.013.223-.04.443-.09.662-.151l.02 1.267-.007.016zm13.211-2.82a5.679 5.679 0 0 1-1.783.98c-.668.228-1.437.334-2.305.334-3.995 0-5.991-1.645-5.991-4.934 0-1.531.511-2.73 1.533-3.596 1.022-.866 2.461-1.298 4.319-1.298 1.87 0 3.29.436 4.258 1.308.969.872 1.453 2.042 1.453 3.507 0 1.598-.495 2.83-1.483 3.695l-.001.004zm3.395-9.427h-1.91l-.02 2.1c-.843-.853-1.444-1.391-1.806-1.618-1.07-.587-2.453-.879-4.151-.879-2.486 0-4.385.567-5.694 1.699-1.244 1.04-1.865 2.545-1.865 4.516 0 .973.157 1.841.472 2.6a5.24 5.24 0 0 0 1.375 1.948c1.312 1.092 3.166 1.639 5.564 1.639 2.878 0 4.92-.785 6.126-2.355v2.173c0 1.387-.438 2.459-1.314 3.219-.875.76-2.315 1.133-4.321 1.133-1.886 0-3.229-.266-4.031-.776-.601-.398-1.016-1.088-1.243-2.07h-1.967c.214 1.372.803 2.364 1.739 2.976 1.097.705 2.943 1.058 5.551 1.058 4.989 0 7.49-1.849 7.49-5.547v-11.81l.005-.006zm10.332 1.235a9.985 9.985 0 0 0-1.602-.133c-3.14 0-4.709 1.717-4.709 5.149v5.969h-1.891l-.02-12.215 1.911.019v2.18h.1c.321-.859.83-1.51 1.524-1.953.761-.43 1.896-.644 3.407-.644h1.282v1.64l-.002-.012zm1.777 4.106c.241-1.388.782-2.463 1.623-3.224a5.707 5.707 0 0 1 1.865-.992c.694-.22 1.471-.33 2.345-.33 1.698 0 3.077.464 4.16 1.392 1.083.928 1.613 1.98 1.613 3.153h-11.606zm11.792-3.769c-.669-.669-1.498-1.163-2.488-1.484-.99-.321-2.14-.481-3.477-.481-2.475 0-4.394.573-5.759 1.72-1.366 1.146-2.047 2.706-2.047 4.681s.656 3.533 1.967 4.7c1.417 1.28 3.41 1.92 5.996 1.92 1.03 0 1.982-.117 2.858-.349.876-.232 1.642-.561 2.297-.986 1.15-.824 1.878-1.84 2.186-3.047h-2.064c-.709 2.089-2.473 3.133-5.293 3.133-1.992 0-3.522-.51-4.591-1.532-.923-.875-1.383-2.009-1.383-3.402h13.618c0-2.072-.602-3.697-1.826-4.867l.006-.006z" fill="#231F20"/><path d="M168.73 66.518c0 3.626-2.934 5.44-8.803 5.44-3.515 0-6.082-.625-7.699-1.867-1.324-1.027-1.984-2.592-1.984-4.699h2.361c0 3.386 2.441 5.078 7.322 5.078 2.341 0 4.033-.346 5.083-1.038.882-.612 1.324-1.572 1.324-2.876 0-1.292-.602-2.198-1.806-2.718-.682-.28-2.341-.633-4.996-1.058-3.33-.507-5.489-1.012-6.479-1.518-1.431-.747-2.14-2.012-2.14-3.796 0-1.665.602-2.904 1.826-3.716 1.311-.892 3.558-1.339 6.74-1.339 5.751 0 8.627 1.904 8.627 5.712h-2.383c0-2.853-2.135-4.279-6.406-4.279-2.141 0-3.707.287-4.698.867-.938.613-1.404 1.513-1.404 2.7 0 1.24.602 2.113 1.805 2.62.642.293 2.528.7 5.658 1.22 2.942.44 4.929.953 5.952 1.533 1.404.72 2.106 1.967 2.106 3.734h-.006zm19.193 1.85a9.246 9.246 0 0 1-2.991 1.587c-1.112.353-2.356.529-3.735.529-2.812 0-5.082-.756-6.817-2.266-1.735-1.51-2.6-3.522-2.6-6.038 0-2.621.86-4.664 2.58-6.128 1.72-1.464 3.999-2.195 6.836-2.195 2.878 0 5.14.765 6.787 2.295.869.747 1.511 1.618 1.927 2.616.416.998.622 2.136.622 3.413 0 2.608-.87 4.67-2.611 6.187h.002zm1.254 1.234c1.231-.865 2.142-1.913 2.731-3.145s.884-2.653.884-4.265c0-2.89-.963-5.2-2.889-6.952-1.03-.959-2.274-1.672-3.731-2.138-1.458-.466-3.124-.7-4.996-.7-3.638 0-6.487.88-8.56 2.637-2.073 1.757-3.11 4.141-3.11 7.151 0 2.93 1.046 5.294 3.139 7.091 2.092 1.797 4.95 2.697 8.573 2.697 1.418 0 2.653-.096 3.71-.287 1.055-.191 1.952-.485 2.688-.88l3.489 2.411 1.458-1.334-3.379-2.285h-.007zm21.3 1.905h-16.148v-18.64l2.219-.04v17.118h13.942l-.02 1.556.007.006z" fill="#367FAF"/><path d="M35.259 68.378c.224-1.58.157-1.812 1.55-1.556l.354.026c1.072.042 2.473-.145 3.296-.468 1.772-.695 2.822-1.855 1.075-1.55-3.986.695-4.26-.447-4.26-.447 4.209-5.276 5.968-11.975 4.45-13.615-4.15-4.471-11.312-2.357-11.439-2.301l-.038.006c-.788-.138-1.67-.22-2.659-.233-1.804-.026-3.172.4-4.21 1.064 0 0-12.79-4.453-12.196 5.6.127 2.14 3.628 16.182 7.803 11.94 1.526-1.55 3.002-2.862 3.002-2.862.769.43 1.65.62 2.528.545l.071-.051a1.96 1.96 0 0 0 .029.604c-1.076 1.015-.76 1.193-2.91 1.568-2.176.379-.898 1.053-.063 1.23 1.011.213 3.352.516 4.934-1.353l-.063.213c.421.285.393 2.05.453 3.311.06 1.261.16 2.438.464 3.132.304.694.664 2.48 3.49 1.97 2.362-.428 4.168-1.044 4.333-6.77" fill="#231F20"/><path d="M35.259 68.378c.224-1.58.157-1.812 1.55-1.556l.354.026c1.072.042 2.473-.145 3.296-.468 1.772-.695 2.822-1.855 1.075-1.55-3.986.695-4.26-.447-4.26-.447 4.209-5.276 5.968-11.975 4.45-13.615-4.15-4.471-11.312-2.357-11.439-2.301l-.038.006c-.788-.138-1.67-.22-2.659-.233-1.804-.026-3.172.4-4.21 1.064 0 0-12.79-4.453-12.196 5.6.127 2.14 3.628 16.182 7.803 11.94 1.526-1.55 3.002-2.862 3.002-2.862.769.43 1.65.62 2.528.545l.071-.051a1.96 1.96 0 0 0 .029.604c-1.076 1.015-.76 1.193-2.91 1.568-2.176.379-.898 1.053-.063 1.23 1.011.213 3.352.516 4.934-1.353l-.063.213c.421.285.393 2.05.453 3.311.06 1.261.16 2.438.464 3.132.304.694.664 2.48 3.49 1.97 2.362-.428 4.168-1.044 4.333-6.77" stroke="#231F20" stroke-width="4.108"/><path d="M41.533 64.83c-3.985.694-4.26-.447-4.26-.447 4.209-5.277 5.968-11.976 4.45-13.615-4.142-4.472-11.31-2.357-11.438-2.301l-.039.007a16.72 16.72 0 0 0-2.66-.234c-1.803-.025-3.171.4-4.21 1.065 0 0-12.79-4.453-12.195 5.6.127 2.139 3.627 16.183 7.803 11.94a70.16 70.16 0 0 1 3-2.863c.77.43 1.65.62 2.529.546l.072-.052c-.023.194-.012.38.028.604-1.075 1.016-.76 1.194-2.909 1.568-2.176.379-.897 1.053-.063 1.23 1.012.213 3.353.517 4.934-1.353l-.062.213c.42.285.717 1.856.668 3.28-.049 1.425-.083 2.4.25 3.164.332.764.663 2.48 3.49 1.97 2.363-.428 3.587-1.537 3.757-3.386.12-1.315.395-1.12.411-2.295l.22-.556c.252-1.782.04-2.357 1.495-2.09l.354.027c1.072.041 2.473-.145 3.296-.469 1.772-.694 2.822-1.854 1.075-1.55l.004-.004z" fill="#417BA2"/><path d="M23.363 49.229s-12.806-4.42-12.204 5.638c.133 2.139 3.627 16.183 7.804 11.933a63.528 63.528 0 0 1 2.906-2.768l1.494-14.803zm6.922-.807c-.443.118 7.12-2.336 11.418 2.305 1.518 1.64-.24 8.339-4.45 13.616" fill="#417BA2"/><path d="M26.753 65.852c-.11 3.315.026 6.654.41 7.466.386.812 1.207 2.39 4.035 1.878 2.362-.428 3.221-1.256 3.594-3.084.267-1.344.804-5.08.872-5.844l-8.911-.416zm3.532-17.43c-.443.118 7.12-2.336 11.418 2.305 1.518 1.64-.24 8.339-4.45 13.616l-6.968-15.92zm-6.922.807s-12.806-4.42-12.204 5.638c.133 2.139 3.627 16.183 7.804 11.933a63.528 63.528 0 0 1 2.906-2.768l1.494-14.803z" stroke="#fff" stroke-width="1.369"/><path d="M37.247 64.342s.267 1.14 4.26.446c1.747-.305.695.855-1.077 1.55-1.454.57-4.713.716-4.766-.071-.137-2.033 1.715-1.415 1.581-1.925-.12-.458-.95-.908-1.497-2.031-.479-.98-6.56-8.495 1.686-7.379.302-.053-2.151-6.629-9.87-6.736-7.72-.106-7.464 8.02-7.464 8.02" fill="#417BA2"/><path d="M37.247 64.342s.267 1.14 4.26.446c1.747-.305.695.855-1.077 1.55-1.454.57-4.713.716-4.766-.071-.137-2.033 1.715-1.415 1.581-1.925-.12-.458-.95-.908-1.497-2.031-.479-.98-6.56-8.495 1.686-7.379.302-.053-2.151-6.629-9.87-6.736-7.72-.106-7.464 8.02-7.464 8.02" stroke="#fff" stroke-width="1.369" stroke-linejoin="bevel"/><path d="M24.593 65.037c-1.077 1.015-.76 1.193-2.91 1.568-2.177.38-.898 1.053-.064 1.23 1.012.213 3.353.517 4.934-1.355.482-.57-.002-1.48-.664-1.71-.32-.112-.747-.252-1.297.266v.001z" stroke="#fff" stroke-width="1.369"/><path d="M24.523 65.02c-.109-.598.232-1.307.597-2.139.548-1.247 1.813-2.495.802-6.451-.754-2.949-5.816-.614-5.818-.214-.002.4.229 2.027-.085 3.92-.41 2.472 1.861 4.562 4.476 4.349" fill="#417BA2"/><path d="M24.523 65.02c-.109-.598.232-1.307.597-2.139.548-1.247 1.813-2.495.802-6.451-.754-2.949-5.816-.614-5.818-.214-.002.4.229 2.027-.085 3.92-.41 2.472 1.861 4.562 4.476 4.349" stroke="#fff" stroke-width="1.369"/><path d="M23.318 56.156c-.023.136.296.5.712.549.415.05.769-.236.792-.372.024-.136-.296-.287-.712-.336-.415-.05-.77.023-.792.159zm12.633-.279c.023.136-.295.5-.711.55-.416.048-.77-.237-.794-.374-.022-.137.297-.287.712-.336.415-.05.77.022.792.159h.001z" fill="#fff"/><path d="M37.436 54.932c.068 1.071-.273 1.8-.316 2.941-.064 1.657.934 3.553-.57 5.453" stroke="#fff" stroke-width="1.369"/></svg>