<svg width="220" height="124" viewBox="0 0 220 124" fill="none" xmlns="http://www.w3.org/2000/svg"><path fill-rule="evenodd" clip-rule="evenodd" d="M112.712 75.597c1.259 0 2.021.435 2.675 1.051l-.773.878c-.543-.504-1.131-.84-1.91-.84-1.299 0-2.254 1.06-2.254 2.38v.021c0 1.321.946 2.392 2.253 2.392.839 0 1.378-.328 1.963-.868l.77.773c-.713.733-1.495 1.193-2.772 1.193-1.989 0-3.471-1.533-3.471-3.47v-.02c0-1.92 1.452-3.492 3.519-3.492v.002zm12.321.116v3.837c0 1.254.653 1.919 1.726 1.919 1.063 0 1.718-.627 1.718-1.87v-3.886h1.198v3.828c0 2.014-1.15 3.026-2.935 3.026-1.776 0-2.907-1.012-2.907-2.968v-3.886h1.2zm-40.702-.098c.994 0 1.785.298 2.477.85l-.644.894c-.616-.45-1.23-.693-1.854-.693-.702 0-1.113.356-1.113.8v.02c0 .52.313.754 1.632 1.064 1.443.344 2.186.854 2.186 1.974v.018c0 1.267-1.008 2.015-2.441 2.015a4.249 4.249 0 0 1-2.85-1.079l.724-.85c.653.56 1.316.88 2.155.88.743 0 1.21-.346 1.21-.849v-.019c0-.48-.273-.742-1.542-1.034-1.453-.345-2.271-.77-2.271-2.014v-.019c0-1.158.975-1.958 2.33-1.958zm93.645.098l1.901 2.978 1.928-2.978h1.375l-2.709 4.059v2.691h-1.211V79.8l-2.712-4.087h1.428zm-9.564 0v1.098h-2.166v5.652h-1.21V76.81h-2.165v-1.098h5.541zm-14.04 0v6.75h-1.202v-6.75h1.202zm-12.594 0c.86 0 1.534.25 1.971.675.364.365.567.868.567 1.454v.02c0 1.107-.673 1.775-1.619 2.043l1.843 2.558h-1.424l-1.679-2.354h-1.502v2.355h-1.198v-6.751h3.041zm-40.95 0v1.06h-3.865v1.754h3.425v1.061h-3.425v1.814h3.911v1.061h-5.11v-6.75h5.064zm40.854 1.079h-1.747v2.266h1.757c.857 0 1.401-.443 1.401-1.127v-.019c0-.725-.525-1.12-1.411-1.12zm25.521-23.559c7.641 0 11.324 3.84 11.324 8.925 0 5.086-3.684 8.926-11.324 8.926-7.644 0-11.326-3.84-11.326-8.925 0-5.086 3.682-8.925 11.326-8.925zm-89.149.29c4.397 0 6.187 1.885 6.23 4.639H81.07c-.214-1.108-.998-1.68-3.016-1.68h-8.143c-3.021 0-3.264 1.57-3.264 1.81l-.004.146c0 1.456.873 1.988 3.206 1.988h8.926c4.452 0 6.279 1.86 6.279 4.672v.854c0 2.812-1.781 4.745-6.23 4.745h-8.93c-4.452 0-6.574-1.933-6.574-4.745l.001-.014h3.365c.172 1.186 1.12 1.799 3.208 1.799h8.93c2.22 0 3.154-.695 3.234-2.035v-.163c0-1.467-.912-2.191-3.235-2.191h-8.929c-4.466 0-6.255-1.92-6.255-4.706v-.414c.018-2.79 1.84-4.705 6.272-4.705h8.143zm103.77.057l7.351 6.284 7.463-6.285h4.946l-10.452 8.339 10.452 8.779h-4.946l-7.463-6.749-7.351 6.749h-4.948l10.343-8.78-10.343-8.338h4.948zm-69.257-.001l7.328 7.864 7.177-7.864h4.057l-9.638 10.406v6.712H118.3v-6.712l-9.764-10.406h4.031zm-22.106 0v6.849h6.906l6.451-6.85h3.825l-7.983 8.315 10.529 8.802h-4.491l-8.331-7.333H90.46v7.335h-3.189V53.579h3.19zm56.402 0c3.81 0 6.308 1.15 6.308 4.353 0 1.932-.94 3.008-2.376 3.692 2.13.587 3.612 1.835 3.612 4.328 0 2.812-1.78 4.745-6.23 4.745h-15.569V53.579h14.255zm20.34 2.59c-5.689 0-8.086 2.493-8.086 5.99 0 3.471 2.397 5.967 8.086 5.967 5.687 0 8.06-2.496 8.06-5.968 0-3.496-2.373-5.99-8.06-5.99zm-19.326 7.193H135.8v4.376h12.377c2.324 0 3.239-.76 3.239-2.226 0-1.64-1.212-2.15-3.539-2.15zm-1.014-6.848h-11.064v3.914h10.792c2.4 0 3.587-.416 3.587-1.934 0-1.443-1.014-1.98-3.315-1.98zm57.192-2.896a1.47 1.47 0 0 1 1.481 1.465v.01c0 .799-.656 1.473-1.481 1.473a1.468 1.468 0 0 1-1.481-1.466v-.008c0-.8.656-1.474 1.481-1.474zm0 .16c-.741 0-1.311.599-1.311 1.314v.01c0 .715.562 1.303 1.311 1.303.74 0 1.31-.597 1.31-1.313v-.009c0-.716-.561-1.305-1.31-1.305zm.102.54c.331 0 .578.16.578.47a.447.447 0 0 1-.348.456l.4.563h-.35l-.357-.513h-.315v.514h-.289v-1.49h.681zm-.026.252h-.366v.489h.365c.197 0 .307-.102.307-.245 0-.16-.11-.244-.307-.244h.001z" fill="#454D51"/><path fill-rule="evenodd" clip-rule="evenodd" d="M34.086 52.435l-7.414 4.325 6.418 3.776.995-.544.001-7.556zM20.666 67.86l1.674-.992-6.428-3.777c-.778.364-1.333 1.212-1.333 1.212l6.087 3.557zm32.792-3.568L34.086 75.7v7.063a3.305 3.305 0 0 0 1.393-.339l17.017-10.008a3.14 3.14 0 0 0 1.329-2.485V65.6c0-.843-.365-1.309-.365-1.309" fill="#008CC1"/><path fill-rule="evenodd" clip-rule="evenodd" d="M34.086 75.7L14.58 64.302c-.153.283-.255.59-.302.908-.013.095-.021.19-.024.285v4.634c0 1.064.636 1.976 1.545 2.411l16.87 9.918c.093.048.192.086.294.122l.022.01h.002l.062.019.151.044c.073.016.15.035.227.051.045.012.092.021.139.028.173.015.347.026.521.032V75.7zm19.372-11.41a2.687 2.687 0 0 0-.66-.764 5.101 5.101 0 0 0-.34-.233L34.086 52.436v7.556l13.32 7.863 6.052-3.564z" fill="#005DA1"/><path fill-rule="evenodd" clip-rule="evenodd" d="M53.877 53.947c0-.754-.317-1.241-.317-1.241l-7.766 4.5 6.446 3.77a2.669 2.669 0 0 0 1.637-2.399v-4.63zm-18.832 9.591l-.96.546v7.557l7.378-4.329-6.418-3.774zm-.96-15.164V41.31s-.296.013-.441.033c-.086.01-.292.054-.314.055a3.612 3.612 0 0 0-.672.248L15.643 51.663a3.184 3.184 0 0 0-.922 1.014l6.015 3.544 13.35-7.846z" fill="#5ECE58"/><path fill-rule="evenodd" clip-rule="evenodd" d="M20.735 56.219l-6.013-3.545-.003.006c-.254.447-.395.95-.409 1.463v4.33c0 .992.557 1.844 1.366 2.307l18.41 10.861v-7.558l-13.35-7.865zm32.826-3.514a3.157 3.157 0 0 0-.523-.684c-.268-.24-.702-.486-.702-.486L35.47 41.613s-.14-.076-.32-.129a3.886 3.886 0 0 0-.575-.14l-.007-.002a4.104 4.104 0 0 0-.483-.032v7.063l13.392 7.857 6.083-3.526z" fill="#54AB49"/></svg>