<svg width="220" height="124" viewBox="0 0 220 124" fill="none" xmlns="http://www.w3.org/2000/svg"><g clip-path="url(#a)"><path d="M194 60.287v-2.964h-3.669v-4.608l-.123.038-3.446 1.058-.068.02v3.492h-5.44v-1.945c0-.906.202-1.599.6-2.06.395-.457.96-.69 1.681-.69.518 0 1.054.123 1.594.364l.136.06v-3.12l-.064-.024c-.504-.182-1.189-.273-2.038-.273-1.07 0-2.042.233-2.89.696a4.95 4.95 0 0 0-1.984 1.968c-.466.84-.702 1.811-.702 2.886v2.138h-2.555v2.964h2.555v12.487h3.667V60.287h5.44v7.935c0 3.268 1.536 4.924 4.567 4.924a7.44 7.44 0 0 0 1.557-.173c.545-.117.916-.235 1.134-.36l.048-.03v-2.99l-.149.098a2.566 2.566 0 0 1-.737.323 2.798 2.798 0 0 1-.725.124c-.71 0-1.235-.192-1.561-.571-.329-.382-.497-1.05-.497-1.985v-7.295H194zm-27.158 9.851c-1.331 0-2.381-.443-3.12-1.315-.744-.877-1.122-2.126-1.122-3.714 0-1.639.378-2.921 1.122-3.813.74-.887 1.78-1.336 3.09-1.336 1.272 0 2.284.43 3.009 1.277.729.852 1.099 2.124 1.099 3.782 0 1.678-.348 2.967-1.034 3.829-.681.855-1.705 1.29-3.044 1.29zm.163-13.187c-2.54 0-4.557.746-5.995 2.219-1.437 1.472-2.166 3.51-2.166 6.057 0 2.42.711 4.365 2.114 5.783 1.404 1.418 3.313 2.136 5.676 2.136 2.461 0 4.438-.757 5.876-2.25 1.437-1.49 2.166-3.51 2.166-5.997 0-2.457-.684-4.417-2.032-5.825-1.349-1.41-3.247-2.123-5.639-2.123zm-14.074 0c-1.728 0-3.157.443-4.248 1.317-1.099.88-1.656 2.032-1.656 3.428 0 .725.121 1.37.357 1.916a3.851 3.851 0 0 0 1.096 1.436c.486.402 1.236.823 2.229 1.251.836.345 1.459.637 1.854.867.387.225.662.452.817.672.15.216.227.512.227.876 0 1.038-.775 1.543-2.37 1.543-.591 0-1.266-.124-2.005-.368a7.534 7.534 0 0 1-2.053-1.044l-.152-.11v3.542l.056.026c.519.24 1.173.444 1.944.603.77.16 1.469.24 2.077.24 1.874 0 3.384-.445 4.485-1.324 1.109-.885 1.671-2.066 1.671-3.51 0-1.04-.303-1.934-.899-2.654-.592-.715-1.619-1.37-3.053-1.95-1.142-.46-1.873-.842-2.175-1.135-.291-.283-.438-.683-.438-1.19 0-.45.182-.81.556-1.1.377-.294.902-.443 1.561-.443a6.37 6.37 0 0 1 1.858.287 5.98 5.98 0 0 1 1.623.755l.149.102v-3.36l-.057-.025c-.42-.18-.975-.335-1.648-.46a10.03 10.03 0 0 0-1.806-.188zm-15.465 13.187c-1.331 0-2.38-.443-3.12-1.315-.744-.877-1.121-2.126-1.121-3.714 0-1.639.377-2.921 1.122-3.813.739-.887 1.779-1.336 3.09-1.336 1.271 0 2.283.43 3.009 1.277.729.852 1.098 2.124 1.098 3.782 0 1.678-.348 2.967-1.033 3.829-.682.855-1.705 1.29-3.045 1.29zm.164-13.187c-2.54 0-4.558.746-5.995 2.219-1.438 1.472-2.167 3.51-2.167 6.057 0 2.42.712 4.365 2.115 5.783 1.403 1.418 3.313 2.136 5.675 2.136 2.462 0 4.439-.757 5.877-2.25 1.437-1.49 2.166-3.51 2.166-5.997 0-2.457-.684-4.417-2.033-5.825-1.349-1.41-3.246-2.123-5.638-2.123zm-13.729 3.048v-2.676h-3.623v15.45h3.623V64.87c0-1.344.304-2.448.903-3.282.592-.824 1.38-1.242 2.343-1.242.327 0 .693.055 1.09.161.392.106.677.222.844.343l.153.11v-3.663l-.059-.026c-.337-.144-.815-.216-1.419-.216-.91 0-1.725.293-2.423.871-.612.508-1.055 1.204-1.393 2.073h-.039zm-10.11-3.048c-1.663 0-3.145.357-4.406 1.062a7.147 7.147 0 0 0-2.906 2.998c-.661 1.279-.998 2.773-.998 4.44 0 1.46.326 2.8.97 3.98a6.834 6.834 0 0 0 2.711 2.75c1.153.64 2.486.966 3.961.966 1.722 0 3.192-.346 4.37-1.027l.048-.027v-3.33l-.153.112c-.533.39-1.13.701-1.772.925-.64.225-1.224.338-1.736.338-1.421 0-2.563-.446-3.391-1.326-.83-.88-1.251-2.118-1.251-3.674 0-1.567.439-2.835 1.304-3.772.862-.933 2.006-1.406 3.398-1.406 1.191 0 2.351.404 3.449 1.203l.152.11v-3.508l-.049-.027c-.413-.232-.977-.424-1.676-.57a9.988 9.988 0 0 0-2.025-.217zm-10.805.372h-3.623v15.45h3.623v-15.45zm-1.774-6.582a2.18 2.18 0 0 0-1.544.607 2.006 2.006 0 0 0-.646 1.516c0 .592.215 1.092.64 1.486.422.392.944.591 1.55.591.606 0 1.13-.199 1.557-.59.43-.395.648-.895.648-1.487 0-.58-.212-1.085-.63-1.5-.418-.413-.948-.623-1.575-.623zm-9.04 5.442v16.59h3.698V51.215h-5.117l-6.504 16.014-6.312-16.014H72.61v21.56h3.475V56.18h.119l6.665 16.593h2.622l6.562-16.59h.119z" fill="#706D6E"/><path d="M43.043 61.106H26V44.01h17.043v17.097z" fill="#F1511B"/><path d="M61.86 61.107H44.817V44.01H61.86v17.097z" fill="#80CC28"/><path d="M43.042 79.99H26V62.895h17.042V79.99z" fill="#00ADEF"/><path d="M61.86 79.99H44.817V62.895H61.86V79.99z" fill="#FBBC09"/></g><defs><clipPath id="a"><path fill="#fff" transform="translate(26 44)" d="M0 0h168v36H0z"/></clipPath></defs></svg>