<svg width="220" height="124" viewBox="0 0 220 124" fill="none" xmlns="http://www.w3.org/2000/svg"><g clip-path="url(#a)"><path d="M43 56.127v-24.68h15.289v2.917H46.25v6.763h11.217v2.917H46.25v9.166h12.04v2.917H43zM77.658 38.89a8.162 8.162 0 0 1-.575 3.05 7.084 7.084 0 0 1-1.56 2.436 8.343 8.343 0 0 1-2.972 1.906c-1.14.43-2.579.646-4.32.646h-2.758v9.2H62.22v-24.68h6.142c1.445 0 2.677.12 3.695.364 1.018.243 1.916.635 2.693 1.177a6.694 6.694 0 0 1 2.135 2.403c.514.961.772 2.127.772 3.497zm-3.383.082c0-.85-.148-1.59-.444-2.22a3.635 3.635 0 0 0-1.313-1.542c-.515-.343-1.117-.586-1.807-.73-.678-.143-1.527-.215-2.545-.215h-2.693v9.862h2.217c1.313 0 2.375-.105 3.186-.315.81-.22 1.483-.608 2.02-1.16a4.691 4.691 0 0 0 1.05-1.624c.22-.586.329-1.271.329-2.056zm25.774 17.155h-4.22l-7.752-9.812h-3.711v9.812h-3.252v-24.68h6.306c1.402 0 2.573.078 3.514.232a6.883 6.883 0 0 1 2.71 1.078 6.064 6.064 0 0 1 2.02 2.138c.504.873.755 1.956.755 3.248 0 1.813-.454 3.326-1.363 4.542-.908 1.215-2.145 2.116-3.71 2.702l8.703 10.74zM93.02 38.392c0-.718-.126-1.354-.378-1.906a3.21 3.21 0 0 0-1.165-1.376 4.371 4.371 0 0 0-1.61-.646c-.613-.133-1.374-.199-2.282-.199h-3.22v9.315h2.858c.93 0 1.768-.083 2.513-.248a3.84 3.84 0 0 0 1.905-1.028 4.2 4.2 0 0 0 1.034-1.658c.23-.64.345-1.392.345-2.254z" fill="#333"/><path d="M99.695 56.127l8.244-24.68h4.007l8.244 24.68h-3.432l-2.217-6.895h-9.344l-2.217 6.895h-3.285zm13.942-9.696l-3.777-11.636-3.76 11.636h7.537zm15.954 10.144c-1.774 0-3.285-.182-4.533-.547a22.884 22.884 0 0 1-3.497-1.376v-4.11h.23a11.877 11.877 0 0 0 3.645 2.37c1.358.553 2.666.829 3.925.829 1.796 0 3.153-.376 4.073-1.127.919-.763 1.379-1.763 1.379-3 0-.984-.241-1.785-.722-2.404-.482-.618-1.248-1.077-2.299-1.376a37.168 37.168 0 0 0-2.07-.547 96.053 96.053 0 0 1-2.348-.58 11.158 11.158 0 0 1-2.266-.845 6.402 6.402 0 0 1-1.774-1.343 5.95 5.95 0 0 1-1.182-1.906c-.274-.74-.411-1.59-.411-2.552 0-2 .772-3.674 2.316-5.022 1.544-1.36 3.514-2.039 5.911-2.039 1.369 0 2.661.138 3.876.414a15.43 15.43 0 0 1 3.4 1.177v3.928h-.247c-.777-.718-1.773-1.342-2.988-1.872a9.303 9.303 0 0 0-3.827-.813c-1.511 0-2.732.36-3.662 1.078-.93.707-1.396 1.64-1.396 2.8 0 1.05.274 1.885.821 2.504.548.618 1.341 1.071 2.381 1.359.691.188 1.533.403 2.529.646.996.232 1.824.448 2.481.647 1.685.519 2.917 1.303 3.694 2.353.777 1.05 1.166 2.343 1.166 3.879 0 .961-.197 1.911-.591 2.85a6.627 6.627 0 0 1-1.626 2.387 8.52 8.52 0 0 1-2.677 1.658c-.985.387-2.222.58-3.711.58zm29.386-25.128l-8.26 13.757v10.923h-3.251V45.552l-8.26-14.105h3.612l6.306 10.89 6.405-10.89h3.448zm9.418 25.128c-1.773 0-3.284-.182-4.532-.547a22.856 22.856 0 0 1-3.498-1.376v-4.11h.23a11.882 11.882 0 0 0 3.646 2.37c1.357.553 2.665.829 3.924.829 1.796 0 3.153-.376 4.073-1.127.919-.763 1.38-1.763 1.38-3 0-.984-.241-1.785-.723-2.404-.482-.618-1.249-1.077-2.3-1.376a36.695 36.695 0 0 0-2.069-.547 94.926 94.926 0 0 1-2.348-.58 11.158 11.158 0 0 1-2.266-.845 6.383 6.383 0 0 1-1.773-1.343 5.935 5.935 0 0 1-1.183-1.906c-.274-.74-.411-1.59-.411-2.552 0-2 .772-3.674 2.316-5.022 1.544-1.36 3.514-2.039 5.912-2.039 1.368 0 2.66.138 3.876.414a15.47 15.47 0 0 1 3.398 1.177v3.928h-.246c-.777-.718-1.773-1.342-2.988-1.872a9.3 9.3 0 0 0-3.827-.813c-1.511 0-2.731.36-3.662 1.078-.931.707-1.395 1.64-1.395 2.8 0 1.05.273 1.885.821 2.504.547.618 1.34 1.071 2.381 1.359a98.44 98.44 0 0 0 2.529.646 40.64 40.64 0 0 1 2.479.647c1.686.519 2.918 1.303 3.695 2.353.777 1.05 1.166 2.343 1.166 3.879 0 .961-.197 1.911-.591 2.85a6.627 6.627 0 0 1-1.626 2.387 8.508 8.508 0 0 1-2.677 1.658c-.985.387-2.222.58-3.711.58z" fill="#333"/><path d="M45.03 90.791h-1.297v2.136H43v-5.28h1.83c.622 0 1.1.136 1.434.407.337.27.505.664.505 1.182 0 .329-.093.615-.28.86a1.65 1.65 0 0 1-.775.547l1.298 2.24v.044h-.782l-1.2-2.136zm-1.297-.569h1.12c.361 0 .648-.09.86-.268a.886.886 0 0 0 .323-.718c0-.327-.102-.577-.307-.75-.202-.175-.496-.263-.88-.266h-1.116v2.002zm11.071.265H52.41v1.871h2.783v.57H51.68v-5.28h3.473v.572h-2.745v1.698h2.395v.569zm7.011 1.516l1.58-4.356h.796l-2.05 5.28h-.645l-2.045-5.28h.793l1.571 4.356zm11.205-1.545c0 .517-.091.97-.273 1.356-.183.385-.44.679-.775.882-.334.203-.723.304-1.169.304-.435 0-.82-.101-1.157-.304a2.081 2.081 0 0 1-.786-.874c-.185-.38-.28-.819-.285-1.317v-.38c0-.508.093-.957.277-1.346a2.04 2.04 0 0 1 .782-.892c.34-.208.726-.312 1.162-.312a2.2 2.2 0 0 1 1.169.308c.339.204.6.5.782.889.182.387.273.838.273 1.352v.334zm-.725-.34c0-.627-.132-1.107-.395-1.44-.263-.336-.631-.504-1.104-.504-.46 0-.824.168-1.09.504-.263.333-.398.797-.406 1.392v.388c0 .607.133 1.084.399 1.433.268.345.636.518 1.104.518.47 0 .835-.163 1.093-.49.258-.328.391-.798.399-1.41v-.392zm6.438 2.24h2.619v.57H78v-5.28h.733v4.71zm11.022-4.711v3.59c-.002.499-.167.906-.493 1.223-.324.316-.765.494-1.321.533l-.194.007c-.605 0-1.087-.156-1.446-.468-.36-.312-.541-.74-.547-1.287v-3.598h.722v3.576c0 .382.11.68.33.892.22.21.534.316.941.316.413 0 .728-.106.945-.316.22-.21.33-.506.33-.888v-3.58h.733zm8.855.573h-1.776v4.707h-.725V88.22h-1.773v-.573h4.274v.573zm5.489 4.707h-.729v-5.28h.729v5.28zm9.474-2.469c0 .517-.091.97-.273 1.356-.182.385-.44.679-.774.882-.334.203-.724.304-1.17.304-.435 0-.821-.101-1.157-.304a2.077 2.077 0 0 1-.786-.874c-.185-.38-.28-.819-.285-1.317v-.38c0-.508.093-.957.277-1.346a2.04 2.04 0 0 1 .782-.892 2.18 2.18 0 0 1 1.162-.312 2.2 2.2 0 0 1 1.169.308c.339.204.6.5.782.889.182.387.273.838.273 1.352v.334zm-.725-.34c0-.627-.131-1.107-.395-1.44-.263-.336-.631-.504-1.104-.504-.461 0-.824.168-1.089.504-.264.333-.399.797-.407 1.392v.388c0 .607.133 1.084.399 1.433.268.345.636.518 1.104.518.471 0 .836-.163 1.094-.49.258-.328.391-.798.398-1.41v-.392zm9.952 2.809h-.732l-2.783-4.068v4.068h-.732v-5.28h.732l2.79 4.087v-4.087h.725v5.28zm12.322 0h-.728v-5.28h.728v5.28zm9.471 0h-.733l-2.782-4.068v4.068h-.733v-5.28h.733l2.79 4.087v-4.087h.725v5.28zm15.246-2.469c0 .517-.09.97-.272 1.356a2.012 2.012 0 0 1-.775.882c-.334.203-.723.304-1.169.304a2.2 2.2 0 0 1-1.158-.304 2.081 2.081 0 0 1-.785-.874c-.185-.38-.28-.819-.285-1.317v-.38c0-.508.092-.957.277-1.346a2.04 2.04 0 0 1 .782-.892 2.176 2.176 0 0 1 1.162-.312c.442 0 .832.103 1.169.308.339.204.599.5.782.889.182.387.272.838.272 1.352v.334zm-.725-.34c0-.627-.13-1.107-.394-1.44-.263-.336-.631-.504-1.104-.504-.461 0-.824.168-1.09.504-.263.333-.398.797-.406 1.392v.388c0 .607.133 1.084.399 1.433.268.345.636.518 1.104.518.471 0 .835-.163 1.093-.49.258-.328.392-.798.398-1.41v-.392zm7.334.456c-.625-.171-1.08-.382-1.366-.63a1.191 1.191 0 0 1-.425-.93c0-.415.173-.758.519-1.03.35-.272.803-.409 1.36-.409.379 0 .717.07 1.013.21.299.14.529.334.691.58.164.247.246.517.246.81h-.732c0-.32-.107-.57-.319-.751-.212-.184-.513-.276-.899-.276-.36 0-.641.076-.843.229a.74.74 0 0 0-.3.627c0 .215.095.398.285.547.192.148.517.283.976.407.46.123.819.26 1.077.41.261.147.453.32.577.518.126.198.19.432.19.7 0 .428-.175.771-.524 1.03-.349.256-.816.384-1.4.384-.38 0-.735-.069-1.063-.207a1.806 1.806 0 0 1-.763-.573 1.359 1.359 0 0 1-.266-.823h.732c0 .32.124.572.369.758.248.184.578.276.991.276.384 0 .679-.075.884-.225a.719.719 0 0 0 .307-.613c0-.258-.094-.458-.284-.598-.19-.143-.534-.283-1.033-.42zm8.503 0c-.626-.171-1.081-.382-1.367-.63a1.194 1.194 0 0 1-.425-.93c0-.415.173-.758.52-1.03.349-.272.802-.409 1.359-.409.38 0 .717.07 1.013.21.298.14.529.334.691.58.164.247.246.517.246.81h-.732c0-.32-.106-.57-.319-.751-.213-.184-.512-.276-.899-.276-.359 0-.641.076-.843.229a.74.74 0 0 0-.3.627c0 .215.095.398.285.547.192.148.517.283.975.407.461.123.82.26 1.078.41.261.147.453.32.577.518.127.198.19.432.19.7 0 .428-.174.771-.524 1.03-.349.256-.816.384-1.4.384-.38 0-.734-.069-1.063-.207a1.8 1.8 0 0 1-.763-.573 1.359 1.359 0 0 1-.266-.823h.733a.9.9 0 0 0 .368.758c.248.184.578.276.991.276.384 0 .679-.075.884-.225a.719.719 0 0 0 .307-.613c0-.258-.094-.458-.284-.598-.19-.143-.534-.283-1.032-.42z" fill="#1C8798"/><path d="M101.48 61.612h-1.55v1.55h1.55v-1.55zm11.618 0h-3.872v3.875h3.872v-3.875zm17.041 0h-7.746v7.75h7.746v-7.75zm20.913 0h-10.07v10.075h10.07V61.612zm25.561 0h-14.717v14.725h14.717V61.612z" fill="#fff" stroke="#1C8798"/><path d="M177 83.7H43v.775h134V83.7z" fill="#1C8798"/></g><defs><clipPath id="a"><path fill="#fff" transform="translate(43 31)" d="M0 0h134v62H0z"/></clipPath></defs></svg>