<svg width="220" height="124" viewBox="0 0 220 124" fill="none" xmlns="http://www.w3.org/2000/svg"><g clip-path="url(#a)" fill="#717073"><path d="M96.729 74.21l-8.264-23.003c-.111-.306-.25-.751-.25-1.113 0-1.001.834-1.947 2.059-1.947 1.057 0 1.753.695 2.059 1.669l6.844 19.805 6.901-19.86c.306-.946.946-1.614 2.003-1.614h.223c1.112 0 1.78.695 2.114 1.613l6.845 19.833 6.956-19.916c.278-.835.834-1.586 1.947-1.586 1.169 0 2.004.89 2.004 1.892 0 .361-.167.779-.251 1.113l-8.319 23.03c-.417 1.197-1.252 1.836-2.226 1.836h-.167c-1.057 0-1.836-.64-2.226-1.836L108.192 54.6l-6.844 19.527c-.362 1.197-1.169 1.836-2.198 1.836h-.112c-1.057.084-1.892-.556-2.31-1.752zm60.21-24.088c0-1.113.891-2.059 2.004-2.059 1.168 0 2.059.89 2.059 2.059v4.673c2.003-4.534 6.427-6.676 9.376-6.676 1.225 0 2.004.89 2.004 2.059 0 1.112-.752 1.891-1.809 2.058-5.259.64-9.599 4.59-9.599 12.434v9.235c0 1.112-.835 2.058-2.003 2.058-1.169 0-2.059-.89-2.059-2.058l.027-23.783zm28.464 26.092c-7.345 0-13.327-5.675-13.327-14.02v-.111c0-7.76 5.425-14.02 12.799-14.02 7.901 0 12.409 6.51 12.409 13.658 0 1.085-.89 1.892-1.864 1.892h-19.31c.557 5.841 4.647 9.124 9.404 9.124 3.312 0 5.732-1.308 7.708-3.144.306-.25.667-.472 1.14-.472.974 0 1.753.778 1.753 1.724 0 .473-.194.946-.612 1.307-2.56 2.42-5.565 4.062-10.1 4.062zm7.902-15.605c-.417-4.896-3.2-9.18-8.514-9.18-4.647 0-8.152 3.895-8.681 9.18h17.195zm-65.163 7.176v-.111c0-5.73 4.73-8.762 11.602-8.762 3.478 0 5.927.473 8.375 1.168v-.946c0-4.895-3.005-7.399-8.096-7.399-2.727 0-4.313.362-6.316 1.252a1.925 1.925 0 0 1-.724.167c-.946 0-1.781-.779-1.781-1.725 0-.834.362-1.363 1.113-1.697 2.672-1.168 4.703-1.557 8.153-1.557 3.839 0 6.789 1.001 8.764 3.004 1.837 1.836 2.783 4.478 2.783 7.928V74.1c0 1.14-.835 2.002-1.948 2.002-1.141 0-1.92-.834-1.92-1.891v-2.587c-1.892 2.476-5.064 4.673-9.822 4.673-5.064-.056-10.183-2.948-10.183-8.512zm20.033-2.114v-2.615c-2.003-.584-4.674-1.168-7.985-1.168-5.092 0-7.93 2.198-7.93 5.62v.11c0 3.422 3.144 5.425 6.844 5.425 4.981 0 9.071-3.06 9.071-7.372zM23.107 49.9c-.89-1.947-3.088-2.837-5.147-1.919-2.06.918-2.81 3.199-1.892 5.146l8.625 18.748c1.363 2.949 2.782 4.479 5.481 4.479 2.866 0 4.118-1.67 5.482-4.479 0 0 7.512-16.383 7.596-16.55.083-.167.306-.696 1.085-.696.64 0 1.196.529 1.196 1.224v16.022c0 2.476 1.364 4.507 4.007 4.507s4.062-2.031 4.062-4.507V58.773c0-2.532 1.809-4.173 4.285-4.173s4.118 1.697 4.118 4.173v13.101c0 2.476 1.363 4.507 4.006 4.507 2.644 0 4.063-2.031 4.063-4.507V58.773c0-2.532 1.808-4.173 4.285-4.173 2.476 0 4.118 1.697 4.118 4.173v13.101c0 2.476 1.363 4.507 4.006 4.507 2.643 0 4.062-2.031 4.062-4.507v-14.91c0-5.48-4.396-9.318-9.71-9.318-5.287 0-8.625 3.672-8.625 3.672-1.753-2.309-4.202-3.7-8.32-3.7-4.34 0-8.152 3.672-8.152 3.672-1.753-2.28-4.758-3.672-7.262-3.672-3.84.028-6.9 1.725-8.765 5.981l-5.509 12.99-7.095-16.69zm174.483 1.53c0-1.863 1.475-3.393 3.367-3.393a3.336 3.336 0 0 1 3.366 3.338v.027c0 1.836-1.474 3.394-3.366 3.394a3.36 3.36 0 0 1-3.367-3.366zm6.093-.028c0-1.53-1.168-2.753-2.726-2.753-1.531 0-2.727 1.251-2.727 2.753v.028c0 1.502 1.169 2.754 2.727 2.754 1.53 0 2.726-1.28 2.726-2.782z"/><path d="M199.676 50.095c0-.195.167-.362.361-.362h1.113c.418 0 .752.112.946.334.195.167.279.445.279.751 0 .5-.251.835-.64 1.002l.501.612c.055.083.111.166.111.278a.338.338 0 0 1-.334.334.435.435 0 0 1-.362-.195l-.695-.89h-.585v.695a.368.368 0 0 1-.361.362.368.368 0 0 1-.362-.362l.028-2.559zm1.447 1.224c.361 0 .528-.195.528-.473 0-.306-.194-.473-.556-.473h-.724v.946h.752z"/></g><defs><clipPath id="a"><path fill="#fff" transform="translate(15.677 47.62)" d="M0 0h188.645v28.762H0z"/></clipPath></defs></svg>