<svg width="220" height="124" viewBox="0 0 220 124" fill="none" xmlns="http://www.w3.org/2000/svg"><g clip-path="url(#a)"><path d="M116.242 48.645c2.255 0 4.37 1.671 4.37 4.48 0 2.83-2.115 4.478-4.37 4.478s-4.371-1.671-4.371-4.479c-.023-2.83 2.093-4.479 4.371-4.479zm0 7.566c1.464 0 2.882-1.022 2.882-3.11 0-2.065-1.441-3.11-2.882-3.11-1.442 0-2.883 1.022-2.883 3.11s1.418 3.11 2.883 3.11zm7.951 1.207v-8.61h1.464v7.218h3.953v1.392h-5.417zm8.787 0v-8.61h1.465v7.218h3.928v1.392h-5.393zm14.391-2.158h-3.65l-.791 2.157h-1.534l3.348-8.586h1.697l3.347 8.586h-1.58l-.837-2.158zm-3.116-1.347h2.627l-1.301-3.504-1.326 3.504zm12.275-5.105c1.651 0 2.627.975 2.627 2.32a1.93 1.93 0 0 1-1.279 1.857c.907.232 1.535 1.021 1.535 2.042 0 1.392-1.07 2.367-2.674 2.367h-3.185v-8.586h2.976zm-.209 3.643c.86 0 1.371-.487 1.371-1.206 0-.72-.511-1.207-1.394-1.207h-1.279v2.39h1.302v.023zm.163 3.713c.883 0 1.441-.464 1.441-1.23 0-.742-.488-1.253-1.395-1.253h-1.534v2.506h1.488v-.023zm10.903-7.518c2.255 0 4.393 1.67 4.393 4.478 0 2.831-2.115 4.479-4.393 4.479-2.255 0-4.371-1.67-4.371-4.479.023-2.83 2.116-4.478 4.371-4.478zm0 7.565c1.464 0 2.882-1.021 2.882-3.11 0-2.065-1.441-3.11-2.882-3.11-1.442 0-2.883 1.022-2.883 3.11.023 2.089 1.441 3.11 2.883 3.11zm23.572-.952h-3.65l-.79 2.158h-1.534l3.347-8.586h1.697l3.348 8.586h-1.581l-.837-2.158zm-3.138-1.346h2.627l-1.302-3.504-1.325 3.504zm-80.459.464c-.465 1.207-1.558 1.834-2.673 1.834-1.442 0-2.883-1.021-2.883-3.11 0-2.065 1.441-3.11 2.883-3.11 1.115 0 2.231.604 2.673 1.834h1.558c-.535-2.042-2.325-3.203-4.231-3.203-2.255 0-4.371 1.648-4.371 4.479 0 2.831 2.116 4.479 4.371 4.479 1.883 0 3.696-1.16 4.231-3.203h-1.558zm71.044-.301h-1.256v3.388h-1.464v-8.586h3.417c1.651 0 2.697 1.16 2.697 2.599 0 1.23-.674 2.158-1.883 2.436l2.069 3.528h-1.651l-1.929-3.365zm.511-1.277c.907 0 1.418-.51 1.418-1.3 0-.811-.581-1.322-1.488-1.322h-1.697V52.8h1.767zM74.281 70.691c-4.812 0-8.718-3.899-8.718-8.702 0-4.804 3.906-8.702 8.718-8.702 4.812 0 8.718 3.898 8.718 8.702.023 4.826-3.882 8.702-8.718 8.702zm0-22.231c-7.485 0-13.553 6.057-13.553 13.529 0 7.472 6.068 13.529 13.553 13.529 7.486 0 13.553-6.057 13.553-13.53.024-7.471-6.067-13.528-13.553-13.528zM52.87 55.05l-3.417 3.434 3.812 3.597-3.79 3.55 3.418 3.412 6.998-6.962-7.021-7.031z" fill="#5C3DCC"/><path d="M40.268 75.678c-3.37 0-6.44-1.16-9.113-3.48-2.976-2.623-4.486-6.057-4.486-10.211 0-3.713 1.371-6.916 4.068-9.56 2.673-2.623 5.951-3.969 9.717-3.969 3.743 0 6.974 1.346 9.648 4.014L46.545 56c-1.72-1.717-3.72-2.553-6.09-2.553-2.442 0-4.464.836-6.208 2.53-1.743 1.694-2.58 3.666-2.58 6.01 0 2.692.906 4.803 2.79 6.45 1.743 1.51 3.65 2.252 5.834 2.252 2.488 0 4.534-.836 6.277-2.53l3.487 3.574c-2.697 2.622-5.974 3.945-9.787 3.945z" fill="#8B8B89"/></g><defs><clipPath id="a"><path fill="#fff" transform="translate(26.252 48.042)" d="M0 0h167.497v27.916H0z"/></clipPath></defs></svg>