<svg width="220" height="124" viewBox="0 0 220 124" fill="none" xmlns="http://www.w3.org/2000/svg"><g clip-path="url(#a)"><path d="M65.693 37.765v1.491h1.49v-1.491h-1.49zm0 2.983v1.49h1.49v-1.49h-1.49zm-4.468 1.49v1.492h1.49v-1.49h-1.49zM41.74 43.357c-11.825 0-21.409 9.597-21.409 21.439 0 11.841 9.584 21.44 21.409 21.44s21.409-9.597 21.409-21.44c0-11.844-9.584-21.439-21.407-21.439h-.002zm0 6.837c8.046 0 14.583 6.544 14.583 14.602 0 8.057-6.537 14.604-14.583 14.604-8.047 0-14.52-6.547-14.52-14.604 0-8.058 6.473-14.602 14.52-14.602z" fill="#FDB511"/><path d="M75.573 76.14c-3.078 0-5.66-.766-7.745-2.297l1.996-3.282c1.668 1.174 3.554 1.76 5.66 1.76 1.032 0 1.846-.199 2.442-.596.596-.418.893-.994.893-1.73 0-.2-.02-.378-.06-.537a1.314 1.314 0 0 0-.208-.448 2.122 2.122 0 0 0-.298-.387 1.647 1.647 0 0 0-.476-.358 8.075 8.075 0 0 0-.536-.299 9.45 9.45 0 0 0-1.49-.566c-.198-.08-.506-.19-.923-.328-.417-.14-.765-.259-1.043-.358a13.261 13.261 0 0 1-1.876-.806 10.671 10.671 0 0 1-1.579-1.133 4.563 4.563 0 0 1-1.221-1.79c-.278-.736-.417-1.57-.417-2.505 0-1.89.655-3.351 1.966-4.385 1.31-1.054 3.038-1.581 5.183-1.581 2.581 0 4.676.477 6.285 1.432l-1.52 3.43a10.67 10.67 0 0 0-4.616-1.074c-2.066 0-3.098.676-3.098 2.028 0 .319.06.597.178.836.12.238.249.437.388.596.139.16.387.318.744.477.378.16.686.279.924.358l1.25.388.597.18c.695.218 1.29.427 1.787.626a10.14 10.14 0 0 1 1.638.865 5.61 5.61 0 0 1 1.46 1.222c.377.458.695 1.034.953 1.73.258.697.387 1.472.387 2.327 0 1.87-.665 3.37-1.996 4.504-1.31 1.134-3.187 1.7-5.63 1.7zm14.976.417L84.92 60.42h4.677l2.89 11.275 2.442-11.275h4.379L94.69 76.05c-1.073 3.619-3.307 5.428-6.702 5.428a12.91 12.91 0 0 1-2.532-.268l.476-3.162c.795.08 1.301.12 1.52.12.814 0 1.45-.13 1.906-.388.457-.239.854-.647 1.191-1.223zm23.526-14.109c1.489-1.59 3.078-2.386 4.766-2.386 1.569 0 2.671.537 3.306 1.61.655 1.075.983 2.417.983 4.028v10.14h-4.528v-10.2c0-1.233-.476-1.85-1.429-1.85-.755 0-1.599.418-2.532 1.253v10.798h-4.528V65.64c0-1.233-.476-1.85-1.429-1.85-.874 0-1.718.438-2.532 1.313V75.84h-4.528V60.42h2.8l.894 2.356c1.568-1.81 3.246-2.714 5.034-2.714 1.787 0 3.028.795 3.723 2.386zm20.364 3.52v-.388c0-.696-.159-1.203-.477-1.521-.297-.318-.824-.477-1.578-.477-1.172 0-2.612.397-4.319 1.193l-1.549-2.983c1.986-1.153 4.071-1.73 6.255-1.73 2.045 0 3.584.507 4.617 1.521 1.052.995 1.579 2.416 1.579 4.266v9.992h-2.8c-.517-1.094-.785-1.64-.805-1.64-1.409 1.292-2.919 1.938-4.527 1.938-1.37 0-2.522-.397-3.455-1.193-.914-.815-1.371-1.919-1.371-3.31 0-1.631.527-2.825 1.579-3.58 1.231-.915 3.515-1.61 6.851-2.088zm0 6.055v-3.251c-1.966.397-3.157.835-3.574 1.312-.278.298-.417.706-.417 1.223 0 1.094.526 1.64 1.578 1.64.874 0 1.678-.308 2.413-.924zm8.142 3.818V60.42h2.8l.893 2.356c1.569-1.81 3.287-2.714 5.153-2.714 2.939 0 4.409 1.88 4.409 5.638v10.14h-4.528v-10.2c0-1.233-.516-1.85-1.549-1.85-.953 0-1.836.438-2.651 1.313V75.84h-4.527zm17.941-12.319h-2.263V60.42h2.323l.774-4.385h3.694v4.385h3.276v3.102h-3.276v7.427c0 .676.109 1.144.328 1.402.218.259.665.388 1.34.388.377 0 .903-.1 1.579-.298l.536 3.132a10.848 10.848 0 0 1-3.455.566c-3.237 0-4.856-1.65-4.856-4.951v-7.666zm14.844 5.936c.099 1.054.387 1.83.864 2.326.496.497 1.231.746 2.204.746.536 0 1.072-.08 1.609-.239.556-.159.963-.308 1.221-.447.278-.14.685-.358 1.221-.656l1.787 2.863a18.61 18.61 0 0 1-1.578 1.074c-.437.239-1.063.467-1.877.686-.814.219-1.718.328-2.711.328-2.263 0-4.07-.696-5.421-2.088-1.33-1.412-1.996-3.33-1.996-5.757 0-2.425.636-4.404 1.907-5.935 1.271-1.531 3.018-2.297 5.242-2.297 2.284 0 3.992.766 5.124 2.297 1.131 1.53 1.697 3.5 1.697 5.906v1.193h-9.293zm0-2.655h4.677c0-2.326-.745-3.49-2.234-3.49-.715 0-1.271.279-1.669.835-.397.537-.655 1.422-.774 2.655zm18.972 9.336c-2.462 0-4.319-.725-5.57-2.177-1.231-1.472-1.847-3.39-1.847-5.757 0-2.366.646-4.315 1.936-5.846 1.291-1.531 3.118-2.297 5.481-2.297 2.085 0 3.783.577 5.094 1.73l-2.115 3.013c-.536-.398-1.003-.667-1.4-.806-.397-.159-.914-.238-1.549-.238-1.847 0-2.77 1.461-2.77 4.384 0 2.864.943 4.296 2.829 4.296 1.013 0 2.036-.408 3.069-1.223l2.174 2.803c-1.41 1.412-3.187 2.118-5.332 2.118zM47.821 54.17c-3.888 4.864-4.867 7-6.416 10.935-1.757-3.56-3.854-6.015-7.486-7.642-.687-.177-1.025-.278-1.49.372-.464.65-.18 1.237.374 1.927 1.454 1.81 3.088 3.48 4.22 5.53 1.328 2.404 2.98 6.363 3.536 7.395.443.82 1.516 1.181 1.927 1.181 2.196-.26 2.196-1.38 2.615-3.319.679-3.18 1.559-6.466 5.699-10.415v-5.966l-2.979.002z" fill="#000"/><path d="M64.204 39.256v1.491h1.49v-1.491h-1.49zm0 1.491h-2.979v1.492h2.979v-1.492zm-2.979 1.492h-1.49v2.983h1.49v-2.983zm0 2.983v1.49h1.49v-1.49h-1.49zm1.49 0h1.489V43.73h-1.49v1.492zm-1.49 1.49h-1.49v1.492h-1.489v-1.491h-2.978v1.491h-1.49v1.492h1.49v1.491h-1.49v-1.491H52.29v1.491H50.8v1.492h-1.49v5.965h2.98v-1.491h1.489V55.66h1.489v-1.49h-1.49v-1.492h1.49v1.492h1.49v-1.492h1.488v-1.49h1.49v-1.492h1.49v-2.983zm-2.979 0h1.49v-1.49h-1.49v1.49zm0-1.49V43.73h-1.489v1.492h1.49z" fill="#000"/></g><defs><clipPath id="a"><path fill="#fff" transform="translate(20.33 33.661)" d="M0 0h179.34v56.678H0z"/></clipPath></defs></svg>