<svg width="25" height="795" viewBox="0 0 25 795" fill="none" xmlns="http://www.w3.org/2000/svg"><path opacity=".2" d="M8.64 789.243c0-1.046.33-1.889.992-2.529.64-.661 1.483-.991 2.528-.991h1.28c1.045-.001 1.899.33 2.56.991.64.64.96 1.483.96 2.528v1.28c0 1.046-.32 1.899-.96 2.56-.661.64-1.515.961-2.56.961h-1.28c-1.045 0-1.888-.32-2.528-.96-.661-.662-.992-1.515-.992-2.561v-1.279zm0-33.925c1.813 0 3.381.768 4.704 2.304.405.469.81.981 1.216 1.536l4.96 6.88v-10.72H24v17.28h-6.08l-8.32-11.52H8c-1.28 0-1.92.64-1.92 1.92v8.96H1.6v-10.24c0-2.24.512-3.862 1.536-4.864 1.003-1.024 2.624-1.536 4.864-1.536h.64zM24 748.442H6.56l1.28 3.68-3.68 1.6-2.56-5.92v-5.12H24v5.76zm-8.96-9.288h-4.48v-13.12h4.48v13.12zm9.28-27.191c0 3.562-.213 7.509-.64 11.84h-4.32c.32-4.715.48-8.235.48-10.56 0-.491-.139-.875-.416-1.152-.299-.299-.693-.448-1.184-.448h-1.6c-1.28 0-1.92.64-1.92 1.92v9.28H1.6v-15.36h4.48v9.6h4.16v-5.12c0-2.091.48-3.627 1.44-4.608.939-.982 2.379-1.472 4.32-1.472h2.24c2.09 0 3.627.49 4.608 1.472.981.981 1.472 2.517 1.472 4.608zM7.68 690.215c-1.28 0-1.92.64-1.92 1.92v3.52c0 1.28.64 1.92 1.92 1.92h10.24c1.28 0 1.92-.64 1.92-1.92v-3.52c0-1.28-.64-1.92-1.92-1.92H7.68zm10.24-5.76c2.24 0 3.872.512 4.896 1.536 1.003 1.003 1.504 2.624 1.504 4.864v6.08c0 2.24-.501 3.872-1.504 4.896-1.024 1.003-2.656 1.504-4.896 1.504H7.68c-2.24 0-3.861-.501-4.864-1.504-1.024-1.024-1.536-2.656-1.536-4.896v-6.08c0-2.24.512-3.861 1.536-4.864 1.003-1.024 2.624-1.536 4.864-1.536h10.24zM7.04 653.744H24v5.6H11.36v5.76H24v5.6H7.04v-16.96zm12.16-21.116c1.6 0 2.859.458 3.776 1.376.896.896 1.344 2.144 1.344 3.744v7.36c0 1.6-.448 2.858-1.344 3.776-.917.896-2.176 1.344-3.776 1.344h-7.36c-1.6 0-2.848-.448-3.744-1.344-.917-.918-1.376-2.176-1.376-3.776v-7.36c0-1.6.459-2.848 1.376-3.744.896-.918 2.144-1.376 3.744-1.376h7.36zm-6.88 5.6c-.853 0-1.28.426-1.28 1.28v3.84c0 .853.427 1.28 1.28 1.28h6.4c.853 0 1.28-.427 1.28-1.28v-3.84c0-.854-.427-1.28-1.28-1.28h-6.4zm12-11.037c0 .918-.107 1.984-.32 3.2h-4.16v-1.28c0-.81-.427-1.237-1.28-1.28l-11.52-.64v-15.36H24v5.6H11.36v4.48l8.16.48c1.45.086 2.613.566 3.488 1.44.875.875 1.312 1.995 1.312 3.36zM24 608.003H7.04v-5.6h5.28v-6.56c0-1.451.437-2.614 1.312-3.488.875-.875 2.037-1.312 3.488-1.312h2.08c1.45 0 2.613.437 3.488 1.312.875.874 1.312 2.037 1.312 3.488v12.16zm-4-10.24c0-.32-.107-.587-.32-.8a1.083 1.083 0 0 0-.8-.32h-1.44c-.32 0-.587.106-.8.32-.213.213-.32.48-.32.8v4.64H20v-4.64zm-.16-8.628c.32-4.075.48-7.275.48-9.6 0-.32-.107-.587-.32-.8a1.087 1.087 0 0 0-.8-.32h-.48c-.32 0-.587.107-.8.32-.213.213-.32.48-.32.8v7.04h-4v-6.4c0-.32-.107-.587-.32-.8a1.087 1.087 0 0 0-.8-.32h-.32c-.32 0-.587.107-.8.32-.213.213-.32.48-.32.8v8.64h-4v-10.56c0-1.429.427-2.581 1.28-3.456.832-.896 1.77-1.344 2.816-1.344 2.133 0 3.435.96 3.904 2.88.17-.96.64-1.781 1.408-2.464.768-.704 1.835-1.056 3.2-1.056 1.365 0 2.485.437 3.36 1.312s1.312 2.037 1.312 3.488c0 3.563-.213 7.403-.64 11.52h-3.84zm-.64-36.474c1.6 0 2.859.459 3.776 1.376.896.896 1.344 2.144 1.344 3.744v7.36c0 1.6-.448 2.859-1.344 3.776-.917.896-2.176 1.344-3.776 1.344h-7.36c-1.6 0-2.848-.448-3.744-1.344-.917-.917-1.376-2.176-1.376-3.776v-7.36c0-1.6.459-2.848 1.376-3.744.896-.917 2.144-1.376 3.744-1.376h7.36zm-6.88 5.6c-.853 0-1.28.427-1.28 1.28v3.84c0 .854.427 1.28 1.28 1.28h6.4c.853 0 1.28-.426 1.28-1.28v-3.84c0-.853-.427-1.28-1.28-1.28h-6.4zM24 536.985v12.16H7.04v-11.2c0-1.429.427-2.581 1.28-3.456.832-.896 1.77-1.344 2.816-1.344 1.045 0 1.899.224 2.56.672.661.448 1.11 1.077 1.344 1.888.17-.96.64-1.781 1.408-2.464.768-.704 1.792-1.056 3.072-1.056s2.347.448 3.2 1.344c.853.875 1.28 2.027 1.28 3.456zm-5.44.8c-.32 0-.587.107-.8.32-.213.213-.32.48-.32.8v4.64h2.72v-4.64c0-.32-.107-.587-.32-.8a1.087 1.087 0 0 0-.8-.32h-.48zm-6.56.96c-.32 0-.587.107-.8.32-.213.213-.32.48-.32.8v3.68h2.88v-3.68c0-.32-.107-.587-.32-.8a1.087 1.087 0 0 0-.8-.32H12zm7.84-16.147c0-1.131-.213-2.411-.64-3.84h-1.92v4.64c0 .32.107.586.32.8.213.213.48.32.8.32h.32c.32 0 .587-.107.8-.32.213-.214.32-.48.32-.8v-.8zm-12.48 5.92c-.427-3.904-.64-7.424-.64-10.56 0-1.451.437-2.614 1.312-3.488.875-.875 2.037-1.312 3.488-1.312H24v4.96l-1.6.32a11.759 11.759 0 0 1 1.472 3.104c.299 1.045.448 1.93.448 2.656v1.12c0 1.45-.437 2.613-1.312 3.488-.875.874-2.037 1.312-3.488 1.312h-1.44c-1.45 0-2.613-.438-3.488-1.312-.875-.875-1.312-2.038-1.312-3.488v-6.56H12c-.32 0-.587.106-.8.32-.213.213-.32.48-.32.8 0 1.386.064 2.922.192 4.608.128 1.664.224 3.008.288 4.032h-4zm4-28.472H24v5.6H11.36v5.28H7.04v-16.16h4.32v5.28zm-.64-14.412c0 .853.427 1.28 1.28 1.28h1.76v-5.44H12c-.853 0-1.28.426-1.28 1.28v2.88zm12.96-9.12c.427 4.117.64 7.85.64 11.2 0 1.45-.437 2.613-1.312 3.488-.875.874-2.037 1.312-3.488 1.312h-7.68c-1.6 0-2.848-.448-3.744-1.344-.917-.918-1.376-2.176-1.376-3.776v-6.4c0-1.6.459-2.848 1.376-3.744.896-.918 2.144-1.376 3.744-1.376h5.92v11.04h1.28c.32 0 .587-.107.8-.32.213-.214.32-.48.32-.8 0-2.112-.16-5.206-.48-9.28h4zm.64-6.068c0 .918-.107 1.984-.32 3.2h-4.16v-1.28c0-.81-.427-1.237-1.28-1.28l-11.52-.64v-15.36H24v5.6H11.36v4.48l8.16.48c1.45.086 2.613.566 3.488 1.44.875.875 1.312 1.995 1.312 3.36zm-13.6-25.748c0 .853.427 1.28 1.28 1.28h1.76v-5.44H12c-.853 0-1.28.426-1.28 1.28v2.88zm12.96-9.12c.427 4.117.64 7.85.64 11.2 0 1.45-.437 2.613-1.312 3.488-.875.874-2.037 1.312-3.488 1.312h-7.68c-1.6 0-2.848-.448-3.744-1.344-.917-.918-1.376-2.176-1.376-3.776v-6.4c0-1.6.459-2.848 1.376-3.744.896-.918 2.144-1.376 3.744-1.376h5.92v11.04h1.28c.32 0 .587-.107.8-.32.213-.214.32-.48.32-.8 0-2.112-.16-5.206-.48-9.28h4zM5.44 424.71c0 2.773-1.387 4.16-4.16 4.16H.32v-4.16h.8c.32 0 .587-.107.8-.32.213-.213.32-.48.32-.8v-.96c0-.32-.107-.587-.32-.8a1.087 1.087 0 0 0-.8-.32h-.8v-4.16h.96c2.773 0 4.16 1.387 4.16 4.16v3.2zm1.6-4.32v-5.92H24v5.6h-9.28l9.28 5.44v5.92H7.04v-5.6h9.28l-9.28-5.44zm1.6-35.024c0-1.045.33-1.888.992-2.528.64-.661 1.483-.992 2.528-.992h1.28c1.045 0 1.899.331 2.56.992.64.64.96 1.483.96 2.528v1.28c0 1.046-.32 1.899-.96 2.56-.661.64-1.515.96-2.56.96h-1.28c-1.045 0-1.888-.32-2.528-.96-.661-.661-.992-1.514-.992-2.56v-1.28zm0-44.158c1.813 0 3.381.768 4.704 2.304.405.469.81.981 1.216 1.536l4.96 6.88v-10.72H24v17.28h-6.08l-8.32-11.52H8c-1.28 0-1.92.64-1.92 1.92v8.96H1.6v-10.24c0-2.24.512-3.862 1.536-4.864 1.003-1.024 2.624-1.536 4.864-1.536h.64zM24 334.332H6.56l1.28 3.68-3.68 1.6-2.56-5.92v-5.12H24v5.76zm-8.96-9.288h-4.48v-13.12h4.48v13.12zm9.28-27.192c0 3.563-.213 7.51-.64 11.84h-4.32c.32-4.714.48-8.234.48-10.56 0-.49-.139-.874-.416-1.152-.299-.298-.693-.448-1.184-.448h-1.6c-1.28 0-1.92.64-1.92 1.92v9.28H1.6v-15.36h4.48v9.6h4.16v-5.12c0-2.09.48-3.626 1.44-4.608.939-.981 2.379-1.472 4.32-1.472h2.24c2.09 0 3.627.491 4.608 1.472.981.982 1.472 2.518 1.472 4.608zM7.68 276.105c-1.28 0-1.92.64-1.92 1.92v3.52c0 1.28.64 1.92 1.92 1.92h10.24c1.28 0 1.92-.64 1.92-1.92v-3.52c0-1.28-.64-1.92-1.92-1.92H7.68zm10.24-5.76c2.24 0 3.872.512 4.896 1.536 1.003 1.003 1.504 2.624 1.504 4.864v6.08c0 2.24-.501 3.872-1.504 4.896-1.024 1.003-2.656 1.504-4.896 1.504H7.68c-2.24 0-3.861-.501-4.864-1.504-1.024-1.024-1.536-2.656-1.536-4.896v-6.08c0-2.24.512-3.861 1.536-4.864 1.003-1.024 2.624-1.536 4.864-1.536h10.24zM7.04 239.634H24v5.6H11.36v5.76H24v5.6H7.04v-16.96zm12.16-21.117c1.6 0 2.859.459 3.776 1.376.896.896 1.344 2.144 1.344 3.744v7.36c0 1.6-.448 2.859-1.344 3.776-.917.896-2.176 1.344-3.776 1.344h-7.36c-1.6 0-2.848-.448-3.744-1.344-.917-.917-1.376-2.176-1.376-3.776v-7.36c0-1.6.459-2.848 1.376-3.744.896-.917 2.144-1.376 3.744-1.376h7.36zm-6.88 5.6c-.853 0-1.28.427-1.28 1.28v3.84c0 .854.427 1.28 1.28 1.28h6.4c.853 0 1.28-.426 1.28-1.28v-3.84c0-.853-.427-1.28-1.28-1.28h-6.4zm12-11.036c0 .918-.107 1.984-.32 3.2h-4.16v-1.28c0-.81-.427-1.237-1.28-1.28l-11.52-.64v-15.36H24v5.6H11.36v4.48l8.16.48c1.45.086 2.613.566 3.488 1.44.875.875 1.312 1.995 1.312 3.36zM24 193.893H7.04v-5.6h5.28v-6.56c0-1.451.437-2.614 1.312-3.488.875-.875 2.037-1.312 3.488-1.312h2.08c1.45 0 2.613.437 3.488 1.312.875.874 1.312 2.037 1.312 3.488v12.16zm-4-10.24c0-.32-.107-.587-.32-.8a1.083 1.083 0 0 0-.8-.32h-1.44c-.32 0-.587.106-.8.32-.213.213-.32.48-.32.8v4.64H20v-4.64zm-.16-8.628c.32-4.075.48-7.275.48-9.6 0-.32-.107-.587-.32-.8a1.087 1.087 0 0 0-.8-.32h-.48c-.32 0-.587.107-.8.32-.213.213-.32.48-.32.8v7.04h-4v-6.4c0-.32-.107-.587-.32-.8a1.087 1.087 0 0 0-.8-.32h-.32c-.32 0-.587.107-.8.32-.213.213-.32.48-.32.8v8.64h-4v-10.56c0-1.429.427-2.581 1.28-3.456.832-.896 1.77-1.344 2.816-1.344 2.133 0 3.435.96 3.904 2.88.17-.96.64-1.781 1.408-2.464.768-.704 1.835-1.056 3.2-1.056 1.365 0 2.485.437 3.36 1.312s1.312 2.037 1.312 3.488c0 3.563-.213 7.403-.64 11.52h-3.84zm-.64-36.474c1.6 0 2.859.459 3.776 1.376.896.896 1.344 2.144 1.344 3.744v7.36c0 1.6-.448 2.859-1.344 3.776-.917.896-2.176 1.344-3.776 1.344h-7.36c-1.6 0-2.848-.448-3.744-1.344-.917-.917-1.376-2.176-1.376-3.776v-7.36c0-1.6.459-2.848 1.376-3.744.896-.917 2.144-1.376 3.744-1.376h7.36zm-6.88 5.6c-.853 0-1.28.427-1.28 1.28v3.84c0 .854.427 1.28 1.28 1.28h6.4c.853 0 1.28-.426 1.28-1.28v-3.84c0-.853-.427-1.28-1.28-1.28h-6.4zM24 122.875v12.16H7.04v-11.2c0-1.429.427-2.581 1.28-3.456.832-.896 1.77-1.344 2.816-1.344 1.045 0 1.899.224 2.56.672.661.448 1.11 1.077 1.344 1.888.17-.96.64-1.781 1.408-2.464.768-.704 1.792-1.056 3.072-1.056s2.347.448 3.2 1.344c.853.875 1.28 2.027 1.28 3.456zm-5.44.8c-.32 0-.587.107-.8.32-.213.213-.32.48-.32.8v4.64h2.72v-4.64c0-.32-.107-.587-.32-.8a1.087 1.087 0 0 0-.8-.32h-.48zm-6.56.96c-.32 0-.587.107-.8.32-.213.213-.32.48-.32.8v3.68h2.88v-3.68c0-.32-.107-.587-.32-.8a1.087 1.087 0 0 0-.8-.32H12zm7.84-16.148c0-1.13-.213-2.41-.64-3.84h-1.92v4.64c0 .32.107.587.32.8.213.214.48.32.8.32h.32c.32 0 .587-.106.8-.32.213-.213.32-.48.32-.8v-.8zm-12.48 5.92c-.427-3.904-.64-7.424-.64-10.56 0-1.45.437-2.613 1.312-3.488.875-.874 2.037-1.311 3.488-1.311H24v4.959l-1.6.32a11.788 11.788 0 0 1 1.472 3.104c.299 1.046.448 1.931.448 2.656v1.12c0 1.451-.437 2.614-1.312 3.488-.875.875-2.037 1.312-3.488 1.312h-1.44c-1.45 0-2.613-.437-3.488-1.312-.875-.874-1.312-2.037-1.312-3.488v-6.56H12c-.32 0-.587.107-.8.32-.213.214-.32.48-.32.8 0 1.387.064 2.923.192 4.608.128 1.664.224 3.008.288 4.032h-4zm4-28.47H24v5.6H11.36v5.28H7.04v-16.16h4.32v5.28zm-.64-14.413c0 .853.427 1.28 1.28 1.28h1.76v-5.44H12c-.853 0-1.28.426-1.28 1.28v2.88zm12.96-9.12c.427 4.117.64 7.85.64 11.2 0 1.45-.437 2.613-1.312 3.488-.875.874-2.037 1.312-3.488 1.312h-7.68c-1.6 0-2.848-.448-3.744-1.344-.917-.918-1.376-2.176-1.376-3.776v-6.4c0-1.6.459-2.848 1.376-3.744.896-.918 2.144-1.376 3.744-1.376h5.92v11.04h1.28c.32 0 .587-.107.8-.32.213-.214.32-.48.32-.8 0-2.112-.16-5.206-.48-9.28h4zm.64-6.068c0 .918-.107 1.984-.32 3.2h-4.16v-1.28c0-.81-.427-1.237-1.28-1.28l-11.52-.64v-15.36H24v5.6H11.36v4.48l8.16.48c1.45.085 2.613.566 3.488 1.44.875.875 1.312 1.995 1.312 3.36zm-13.6-25.748c0 .853.427 1.28 1.28 1.28h1.76v-5.44H12c-.853 0-1.28.426-1.28 1.28v2.88zm12.96-9.12c.427 4.117.64 7.85.64 11.2 0 1.45-.437 2.613-1.312 3.488-.875.874-2.037 1.312-3.488 1.312h-7.68c-1.6 0-2.848-.448-3.744-1.344-.917-.918-1.376-2.176-1.376-3.776v-6.4c0-1.6.459-2.848 1.376-3.744.896-.918 2.144-1.376 3.744-1.376h5.92v11.04h1.28c.32 0 .587-.107.8-.32.213-.214.32-.48.32-.8 0-2.112-.16-5.206-.48-9.28h4zM5.44 10.6c0 2.773-1.387 4.16-4.16 4.16H.32V10.6h.8c.32 0 .587-.107.8-.32.213-.213.32-.48.32-.8v-.96c0-.32-.107-.587-.32-.8a1.085 1.085 0 0 0-.8-.32h-.8V3.24h.96c2.773 0 4.16 1.387 4.16 4.16v3.2zm1.6-4.32V.36H24v5.6h-9.28L24 11.4v5.92H7.04v-5.6h9.28L7.04 6.28z" fill="#fff"/></svg>